<svg width="22" height="22" viewBox="0 0 22 22" fill="none" xmlns="http://www.w3.org/2000/svg">
<g id="Group 5">
<path id="Vector" d="M17.4061 0.773926H4.2482C2.35881 0.773926 0.827148 2.30558 0.827148 4.19498V17.3529C0.827148 19.2423 2.35881 20.7739 4.2482 20.7739H17.4061C19.2955 20.7739 20.8271 19.2423 20.8271 17.3529V4.19498C20.8271 2.30558 19.2955 0.773926 17.4061 0.773926Z" fill="#EDEDED" fill-opacity="0.08"/>
<path id="Vector_2" d="M17.4061 0.773926H4.2482C2.35881 0.773926 0.827148 2.30558 0.827148 4.19498V17.3529C0.827148 19.2423 2.35881 20.7739 4.2482 20.7739H17.4061C19.2955 20.7739 20.8271 19.2423 20.8271 17.3529V4.19498C20.8271 2.30558 19.2955 0.773926 17.4061 0.773926Z" fill="#EDEDED" fill-opacity="0.08"/>
<path id="Vector_3" d="M17.4061 0.773926H4.2482C2.35881 0.773926 0.827148 2.30558 0.827148 4.19498V17.3529C0.827148 19.2423 2.35881 20.7739 4.2482 20.7739H17.4061C19.2955 20.7739 20.8271 19.2423 20.8271 17.3529V4.19498C20.8271 2.30558 19.2955 0.773926 17.4061 0.773926Z" stroke="url(#paint0_linear_13_1110)" stroke-width="0.75"/>
<path id="Vector_4" d="M4.56187 9.39478C4.61661 8.85676 4.78082 8.37724 5.0531 7.95618C5.32678 7.53513 5.68889 7.20764 6.14082 6.97373C6.60117 6.732 7.12328 6.61115 7.70854 6.61115C8.25451 6.61115 8.74573 6.72031 9.18222 6.93864C9.61871 7.14917 9.95836 7.44156 10.1998 7.81583C10.4496 8.19009 10.5731 8.61114 10.5731 9.07899C10.5731 9.47665 10.4805 9.83533 10.2924 10.155C10.1057 10.4747 9.85591 10.7632 9.54433 11.0205C9.23977 11.27 8.86223 11.5312 8.4103 11.8041C8.15205 11.9445 7.87134 12.1238 7.56818 12.3421C7.26362 12.5527 6.98292 12.7905 6.72608 13.0557C6.47626 13.3129 6.34433 13.5546 6.32749 13.7807H10.6208V15.1024H4.48047C4.48047 14.3305 4.61661 13.6755 4.88889 13.1375C5.16257 12.5995 5.4938 12.1667 5.88398 11.8392C6.27415 11.5039 6.83836 11.1141 7.57942 10.6696C8.05521 10.3811 8.4103 10.1121 8.64328 9.86261C8.88609 9.60531 9.00678 9.3402 9.00678 9.06729C9.00678 8.84897 8.95205 8.65404 8.84258 8.4825C8.7331 8.31095 8.57731 8.1784 8.37521 8.08483C8.18012 7.98347 7.95837 7.93279 7.70854 7.93279C7.28749 7.93279 6.94082 8.06924 6.66713 8.34215C6.39485 8.60726 6.21521 8.98932 6.1296 9.48834L4.56187 9.39478ZM16.4005 12.2018H17.3127V13.5351H16.4005V15.1024H14.8678V13.5351H10.6335V12.2135L14.611 6.79829H16.4005V12.2018ZM14.8678 12.2018V8.80998L12.3528 12.2018H14.8678Z" fill="url(#paint1_linear_13_1110)"/>
</g>
<defs>
<linearGradient id="paint0_linear_13_1110" x1="10.8257" y1="0.24761" x2="10.8257" y2="21.3002" gradientUnits="userSpaceOnUse">
<stop stop-color="#EDEDED" stop-opacity="0.8"/>
<stop offset="1" stop-color="#EDEDED"/>
</linearGradient>
<linearGradient id="paint1_linear_13_1110" x1="10.8257" y1="6.68132" x2="10.8257" y2="14.8684" gradientUnits="userSpaceOnUse">
<stop stop-color="#EDEDED" stop-opacity="0.8"/>
<stop offset="1" stop-color="#EDEDED"/>
</linearGradient>
</defs>
</svg>
