<svg width="100" height="23" viewBox="0 0 100 23" fill="none" xmlns="http://www.w3.org/2000/svg">
<path d="M55.8426 0.351337C57.2381 0.280505 58.5612 0.280505 59.9691 0.280505C59.9691 3.2244 59.9691 6.10853 59.9691 9.21735C61.5234 7.67914 63.2751 7.23893 65.175 7.48873C68.2411 7.89187 70.5072 10.4911 70.6494 13.9745C70.7077 15.4023 70.5371 16.9546 70.0155 18.2696C68.4063 22.3262 63.3163 23.3851 60.117 20.461C60.0248 20.3767 59.931 20.2941 59.7211 20.1061C59.6787 20.7008 59.6477 21.1358 59.6109 21.6512C58.3732 21.6512 57.1344 21.6512 55.7702 21.6512C55.7702 14.6067 55.7702 7.51444 55.8426 0.351337ZM66.1264 16.5702C66.2197 16.3076 66.34 16.0512 66.4021 15.7814C66.8757 13.7222 65.8925 11.7733 64.1429 11.2813C62.3457 10.776 60.6051 11.5565 59.9579 13.1578C59.2012 15.0301 59.8585 17.2386 61.4106 18.0388C63.0776 18.8982 64.9808 18.3581 66.1264 16.5702Z" fill="white"/>
<path d="M16.1961 15.8352C16.1961 10.621 16.1961 5.51193 16.1961 0.333624C17.5862 0.333624 18.9326 0.333624 20.3743 0.333624C20.3743 3.19273 20.3743 6.07759 20.3743 8.95652C21.3303 8.49036 22.1688 7.89507 23.0983 7.66158C26.5171 6.80275 29.385 8.38456 30.6066 11.7092C31.3159 13.6395 31.3424 15.5935 30.7708 17.5788C29.441 22.1968 23.3965 23.5981 20.4955 20.4122C20.4345 20.3452 20.337 20.3115 20.1702 20.2094C20.129 20.7199 20.0941 21.1531 20.0533 21.6584C18.8017 21.6584 17.5634 21.6584 16.1961 21.6584C16.1961 19.765 16.1961 17.8527 16.1961 15.8352ZM26.924 15.0551C26.9167 14.741 26.9448 14.4212 26.8959 14.1137C26.6833 12.7763 26.0493 11.7217 24.6845 11.3379C23.3364 10.9588 22.039 11.087 21.0108 12.178C19.9965 13.2542 19.8155 15.4134 20.5908 16.8007C21.2935 18.0583 22.6497 18.6235 24.2915 18.343C25.7544 18.0931 26.6245 17.0639 26.924 15.0551Z" fill="white"/>
<path d="M36.164 0.26416C36.5713 0.264161 36.8759 0.264161 37.2686 0.264161C37.2686 3.35541 37.2686 6.34191 37.2686 9.53775C38.6504 7.65668 40.3756 7.19642 42.3822 7.53745C44.5682 7.90897 45.7798 9.01224 46.0634 11.2273C46.2846 12.9543 46.2649 14.715 46.3016 16.4618C46.3375 18.173 46.3094 19.8855 46.3094 21.6615C44.907 21.6615 43.5589 21.6615 42.0773 21.6615C42.0773 19.4841 42.0915 17.2918 42.0696 15.0998C42.062 14.3342 42.0214 13.56 41.8952 12.8066C41.7337 11.8412 41.1487 11.2578 40.1215 11.1821C38.8726 11.0899 38.0034 11.4804 37.6525 12.5063C37.4086 13.2195 37.2952 14.0061 37.2796 14.7631C37.2329 17.0364 37.2628 19.3113 37.2628 21.6557C35.8728 21.6557 34.5241 21.6557 33.1021 21.6557C33.1021 14.5953 33.1021 7.50385 33.1021 0.26416C34.0621 0.26416 35.0617 0.26416 36.164 0.26416Z" fill="white"/>
<path d="M9.39198 12.888C10.2907 12.8035 9.86618 12.2585 9.76816 11.9644C9.31793 10.6135 7.68778 9.9266 6.07909 10.501C5.24855 10.7975 4.51209 11.3576 3.63402 11.8547C2.99524 11.1837 2.28092 10.4334 1.56827 9.68481C3.83859 7.39773 8.63869 6.70988 11.3314 8.22016C12.7784 9.03176 13.5173 10.373 13.6242 11.907C13.8495 15.1414 13.8757 18.3897 13.9854 21.6849C12.5491 21.6849 11.3051 21.6849 9.98567 21.6849C9.95579 21.2246 9.9277 20.7915 9.88985 20.2083C8.23961 22.0066 6.28837 22.4379 4.09465 21.9562C2.11405 21.5213 0.860103 20.1479 0.649857 18.2221C0.434662 16.2511 1.34762 14.4306 3.32854 13.8463C5.24511 13.2809 7.30124 13.1886 9.39198 12.888ZM7.38276 19.2024C9.43636 18.7473 10.1375 17.7508 9.8183 15.5669C8.83055 15.6452 7.8178 15.6516 6.83308 15.8209C5.34952 16.076 4.59391 16.8653 4.72301 17.8471C4.84651 18.7864 5.6815 19.2484 7.38276 19.2024Z" fill="white"/>
<path d="M73.8398 20.8956C72.7922 19.7741 72.4881 18.4248 72.4563 17.0579C72.3855 14.0197 72.4342 10.9788 72.4342 7.88927C73.7996 7.88927 75.1478 7.88927 76.6083 7.88927C76.6083 10.067 76.5932 12.2266 76.6165 14.3858C76.6247 15.1525 76.6773 15.926 76.7975 16.6824C76.9575 17.6896 77.5398 18.3131 78.6169 18.3873C79.8595 18.4729 80.7272 18.0612 81.0822 17.0439C81.2965 16.4298 81.3952 15.7484 81.4053 15.0951C81.4422 12.7178 81.4199 10.3396 81.4199 7.90072C82.8232 7.90072 84.1712 7.90072 85.588 7.90072C85.588 12.4571 85.588 17.0272 85.588 21.6646C84.3064 21.6646 82.9972 21.6646 81.6342 21.6646C81.6342 21.1663 81.6342 20.6877 81.6342 19.9128C80.5958 21.3008 79.4017 22.0281 77.9141 22.1112C76.4543 22.1927 75.0412 22.0032 73.8398 20.8956Z" fill="white"/>
<path d="M98.8488 15.9553C99.6664 18.8192 98.5539 20.9214 95.7912 21.7202C93.4344 22.4015 91.0871 22.3519 88.8276 21.302C88.3315 21.0715 87.8976 20.7073 87.3135 20.3251C88.2186 19.3176 89.0496 18.3926 89.9086 17.4364C91.0039 18.6135 92.2649 19.2087 93.8045 18.7911C94.2067 18.682 94.5234 18.2575 94.8793 17.9778C94.5586 17.6163 94.3044 17.088 93.9033 16.928C93.068 16.5948 92.1518 16.4684 91.2745 16.2358C88.8771 15.6002 87.767 14.4111 87.7153 12.4441C87.6536 10.0937 88.8097 8.51826 91.1372 7.78108C93.7588 6.95073 96.844 7.54529 98.5248 9.22801C97.6465 10.0143 96.7656 10.8029 95.8699 11.6047C95.4205 11.384 94.7467 10.9671 94.0148 10.7282C93.624 10.6006 93.0658 10.6583 92.7067 10.8565C92.3704 11.0421 92.0314 11.5111 92.0047 11.8781C91.9834 12.1713 92.3682 12.6625 92.6801 12.7792C93.5576 13.1077 94.4929 13.2797 95.4011 13.529C96.8099 13.9157 98.1411 14.4232 98.8488 15.9553Z" fill="white"/>
<path d="M53.0183 19.6161C53.0183 20.3461 53.0183 20.9721 53.0183 21.6616C51.6183 21.6616 50.2717 21.6616 48.8556 21.6616C48.8556 17.1027 48.8556 12.5354 48.8556 7.9038C50.1904 7.9038 51.5384 7.9038 53.0183 7.9038C53.0183 11.7655 53.0183 15.6388 53.0183 19.6161Z" fill="white"/>
<path d="M50.7318 1.11089C52.5492 1.34826 53.4164 2.31632 53.2796 3.85541C53.1663 5.13058 52.1057 6.04199 50.7769 6.00611C49.6333 5.97523 48.733 5.23749 48.4567 4.1049C48.2006 3.05517 48.7501 1.87754 49.7527 1.39147C50.0301 1.25698 50.3476 1.20516 50.7318 1.11089Z" fill="white"/>
</svg>
