<svg width="544" height="230" viewBox="0 0 544 230" fill="none" xmlns="http://www.w3.org/2000/svg">
<g filter="url(#filter0_d_330_108)">
<path d="M267.651 56.0052C267.651 56.1933 256.083 56.3815 256.083 56.3815L256.504 55.6288C256.504 55.6288 256.399 51.6579 260.542 50.7357C261.068 50.3782 262.036 49.5501 262.036 49.5501L262.603 50.19C262.603 50.19 267.631 51.131 267.021 55.6476M222.007 123.68H188.353V130.813H222.007M222.007 123.68V130.813M222.007 123.68H212.9V130.813M222.007 130.813H212.9M222.007 130.813L217.905 130.813V128.517H222.007L222.007 130.813ZM212.9 130.813V128.517H216.748V130.813L212.9 130.813ZM327.432 131.49V124.358H336.54V131.49H327.432ZM327.432 131.49V129.193H331.281V131.489L327.432 131.49ZM64.6077 120.612V127.236H70.6445V120.612L64.6077 120.743L67.7839 120.668M67.7839 120.668V127.048H69.1932L69.1301 120.63L67.7839 120.668ZM246.176 107.758H278.106L278.589 159.512H246.176V107.758ZM246.176 107.758L234.501 107.759L232.967 110.393H178.993L186.67 106.912H178.993L185.513 103.524H196.787L197.713 104.861H246.176L246.176 107.758ZM87.3671 120.801V127.444H93.404V120.801L87.3671 120.951L90.5433 120.876M90.5433 120.876V127.255H91.9525L91.9105 120.837L90.5433 120.876ZM109.999 120.557V127.181H116.036V120.557L109.999 120.689L113.176 120.633M113.176 120.633V126.993H114.585L114.522 120.594L113.176 120.633ZM134.694 120.16V126.785H140.731V120.16L134.694 120.292L137.87 120.217M137.87 120.217V126.596H139.28L139.216 120.198L137.87 120.217ZM155.728 120.349V126.974H161.764V120.349L155.728 120.48L158.904 120.405M158.904 120.405V126.785H160.313L160.25 120.387L158.904 120.405ZM366.259 120.274V126.918H372.296V120.274L366.259 120.406L369.436 120.349M369.436 120.349V126.73H370.845L370.781 120.312L369.436 120.349ZM389.019 120.481V127.106H395.077V120.481L389.019 120.613L392.195 120.537M392.195 120.537V126.918H393.605L393.562 120.519L392.195 120.537ZM411.652 120.236V126.86H417.689V120.236L411.652 120.368L414.828 120.292M414.828 120.292V126.672H416.237L416.174 120.254L414.828 120.292ZM436.346 119.822V126.465H442.383V119.822L436.346 119.973L439.522 119.898M439.522 119.898V126.278H440.931L440.869 119.86L439.522 119.898ZM457.38 120.01V126.653H463.417V120.01L457.38 120.161L460.556 120.086M460.556 120.086V126.466H461.966L461.902 120.048L460.556 120.086ZM273.751 51.4889C276.486 46.5959 268.703 41.891 267.652 40.5736C266.6 39.2563 266.39 36.8098 266.39 36.8098H258.523C258.523 36.8098 257.556 39.4445 256.083 40.7619C251.014 43.4907 250.257 48.2708 249.984 50.9243C249.858 52.1288 249.394 52.4863 249.142 52.4299L249.563 107.759H274.383V52.8063L273.751 51.4889ZM255.241 56.9456C255.241 56.9456 249.352 54.6873 252.506 49.4178C253.348 47.7241 259.448 46.2185 259.448 46.2185C259.448 46.2185 259.869 44.3366 260.079 44.5248C260.29 44.713 263.823 44.506 263.823 44.506L264.285 45.654C264.285 45.654 272.91 48.1004 272.489 52.0526C272.068 56.0046 269.418 56.9456 269.418 56.9456H255.241ZM222.007 122.25H188.353V132.827H222.007V122.25ZM216.959 124.978H213.068V126.522H216.959V124.978ZM222.007 124.978H217.905V126.522H222.007V124.978ZM222.554 143.14H188.983V152.682H222.554V143.14ZM193.905 144.269H190.036V147.148H193.905V144.269ZM196.03 148.711H191.971V150.611H196.03V148.711ZM198.617 144.269H194.957V147.901H198.617V144.269ZM217.463 144.269H213.867V147.148H217.463V144.269ZM221.375 144.269H218.39V147.148H221.375V144.269ZM219.967 149.048H215.656V151.701H219.967V149.048ZM199.101 116.077H188.983V119.107H199.101V116.077ZM191.486 116.867H188.983V118.674H191.486V116.867ZM222.47 116.077H212.352V119.107H222.47V116.077ZM214.855 117.056H212.352V118.863H214.855V117.056ZM199.121 136.967H189.005V139.997H199.121V136.967ZM191.508 137.757H189.005V139.564H191.508V137.757ZM222.47 136.967H212.352V139.997H222.47V136.967ZM214.855 137.757H212.352V139.564H214.855V137.757ZM336.538 122.945H302.883V133.522H336.538V122.945ZM336.538 124.358H302.883V131.49H336.538V124.358ZM331.491 125.675H327.599V127.219H331.491V125.675ZM336.56 125.675H332.458V127.219H336.56V125.675ZM336.56 129.193H332.458V131.489H336.56V129.193ZM337.086 143.835H303.515V153.377H337.086V143.835ZM308.436 144.965H304.566V147.843H308.436V144.965ZM310.561 149.387H306.501V151.289H310.561V149.387ZM313.149 144.965H309.489V148.596H313.149V144.965ZM331.996 144.965H328.399V147.843H331.996V144.965ZM335.929 144.965H332.943V147.843H335.929V144.965ZM334.499 149.745H330.187V152.399H334.499V149.745ZM313.633 116.773H303.515V119.803H313.633V116.773ZM306.018 117.545H303.515V119.352H306.018V117.545ZM337.022 116.773H326.905V119.803H337.022V116.773ZM329.408 117.734H326.905V119.54H329.408V117.734ZM313.675 137.664H303.557V140.694H313.675V137.664ZM306.06 138.434H303.557V140.24H306.06V138.434ZM337.022 137.664H326.905V140.694H337.022V137.664ZM329.408 138.434H326.905V140.24H329.408V138.434ZM62.148 119.428H72.6441V129.402H62.148V119.428ZM70.8763 120.461V128.553H62.2523V120.649L70.8763 120.461ZM233.64 110.864H177.689V160.265H233.64V110.864ZM347.771 111.409H291.82V160.81H347.771V111.409ZM181.336 105.792H51.256V108.419H175.867L176.926 107.143H179.007L181.336 105.792ZM345.899 105.614H475.28V107.892H349.37L345.899 105.614ZM163.173 133.391H154.213V154.111H163.173V133.391ZM141.929 133.636H132.969V154.356H141.929V133.636ZM116.48 133.636H107.519V154.356H116.48V133.636ZM94.7079 133.636H85.7473V154.356H94.7079V133.636ZM72.639 133.384H62.1275V154.407H72.639V133.384ZM465.373 133.315H456.413V154.035H465.373V133.315ZM444.129 133.56H435.168V154.28H444.129V133.56ZM418.677 133.56H409.717V154.28H418.677V133.56ZM396.908 133.56H387.947V154.28H396.908V133.56ZM373.139 133.937H364.178V154.658H373.139V133.937ZM267.168 61.7449H257.029V70.1759H267.168V61.7449ZM261.024 67.7673L261.761 65.9607L263.338 64.0034L262.286 66.7698L261.024 67.7673ZM262.414 67.2033L260.648 66.1118L258.923 64.2487L261.658 65.8671L262.414 67.2033ZM232.531 101.954V100.015H239.486V98.0002H245.54V96.6443H246.379V37.7512C246.44 37.7512 247.872 37.7512 247.872 37.7512C247.872 37.7512 248.69 37.9395 248.69 38.5043C248.69 39.0692 257.28 38.5043 257.28 38.5043L258.139 37.7135H259.039V36.8098H266.689V37.5817H267.712V38.2219H276.302V36.8098H277.937V96.1362H280.188V97.6992H286.732V99.5066H290.619V101.182L478.942 99.5066V160.32H46V102.707L232.531 101.954ZM252.844 120.461H248.827V129.495H252.844V120.461ZM257.471 120.461H253.453V129.495H257.471V120.461ZM262.098 120.461H258.081V129.495H262.098V120.461ZM266.726 120.461H262.708V129.495H266.726V120.461ZM271.355 120.461H267.337V129.495H271.355V120.461ZM275.981 120.461H271.964V129.495H275.981V120.461ZM252.907 109.547H248.889V118.581H252.907V109.547ZM257.535 109.547H253.517V118.581H257.535V109.547ZM262.162 109.547H258.144V118.581H262.162V109.547ZM266.789 109.547H262.771V118.581H266.789V109.547ZM271.417 109.547H267.399V118.581H271.417V109.547ZM276.044 109.547H272.026V118.581H276.044V109.547ZM253.117 137.589H249.1V146.622H253.117V137.589ZM257.745 137.589H253.727V146.622H257.745V137.589ZM262.371 137.589H258.354V146.622H262.371V137.589ZM267 137.589H262.982V146.622H267V137.589ZM271.628 137.589H267.61V146.622H271.628V137.589ZM276.255 137.589H272.238V146.622H276.255V137.589ZM278.589 105.2H333.573V103.656H341.798L349.37 107.289H339.694L346.846 110.864H292.157L289.086 108.117H278.589V105.2ZM72.0543 113.499H63.0938V116.246H72.0543V113.499ZM66.6695 115.946V113.687H68.6888V115.946C68.6888 115.946 66.2489 115.569 66.6695 115.946ZM84.9066 119.634H95.4028V129.609H84.9066V119.634ZM93.6349 120.669V128.762H85.0109V120.858L93.6349 120.669ZM94.813 113.706H85.8524V116.454H94.813V113.706ZM89.429 116.152V113.894H91.4482V116.152C91.4482 116.152 89.0083 115.776 89.429 116.152ZM107.539 119.371H118.035V129.345H107.539V119.371ZM116.268 120.405V128.498H107.644V120.612L116.268 120.405ZM117.447 113.443H108.486V116.191H117.447V113.443ZM112.061 115.888V113.631H114.081V115.888C114.081 115.888 111.641 115.531 112.061 115.888ZM132.233 118.976H142.729V128.95H132.233V118.976ZM140.962 120.01V128.103H132.338V120.217L140.962 120.01ZM142.139 113.048H133.178V115.796H142.139V113.048ZM136.756 115.494V113.236H138.775V115.494C138.775 115.494 136.335 115.118 136.756 115.494ZM153.268 119.163H163.764V129.137H153.268V119.163ZM161.997 120.199V128.291H153.373V120.406L161.997 120.199ZM163.173 113.236H154.213V115.983H163.173V113.236ZM157.789 115.683V113.425H159.809V115.683C159.809 115.683 157.368 115.306 157.789 115.683ZM363.8 119.107H374.295V129.081H363.8V119.107ZM372.528 120.142V128.234H363.905V120.33L372.528 120.142ZM373.705 113.179H364.746V115.927H373.705V113.179ZM368.321 115.626V113.367H370.341V115.626C370.341 115.626 367.901 115.25 368.321 115.626ZM386.559 119.295H397.055V129.269H386.559V119.295ZM395.287 120.331V128.423H386.663V120.537L395.287 120.331ZM396.465 113.367H387.505V116.115H396.465V113.367ZM391.08 115.813V113.554H393.099V115.813C393.099 115.813 390.659 115.436 391.08 115.813ZM409.19 119.05H419.686V129.024H409.19V119.05ZM417.92 120.086V128.177H409.296V120.274L417.92 120.086ZM419.098 113.122H410.139V115.87H419.098V113.122ZM413.712 115.569V113.311H415.731V115.569C415.731 115.569 413.292 115.192 413.712 115.569ZM433.885 118.655H444.381V128.63H433.885V118.655ZM442.614 119.69V127.783H433.99V119.878L442.614 119.69ZM443.791 112.727H434.831V115.474H443.791V112.727ZM438.408 115.173V112.914H440.427V115.173C440.427 115.173 437.988 114.797 438.408 115.173ZM454.92 118.843H465.415V128.818H454.92V118.843ZM463.648 119.879V127.971H455.024V120.067L463.648 119.879ZM464.826 112.914H455.865V115.662H464.826V112.914ZM461.629 113.122H458.937V115.568H461.629V113.122ZM254.504 59.6754V67.7677H252.842V71.381H251.58V107.759H272.509V71.5504H271.353V68.3511L270.552 67.6359V59.6754H254.504ZM254.927 76.0481H269.419V105.99H267.652V95.3758H257.029V106.95H254.927V76.0481ZM266.726 77.9307H257.66V79.0598H266.726V77.9307ZM266.726 80.7536H257.66V81.8827H266.726V80.7536ZM266.726 83.7638H257.66V84.893H266.726V83.7638ZM266.726 86.964H257.66V88.0927H266.726V86.964ZM266.726 89.7872H257.66V90.9159H266.726V89.7872ZM267.651 77.4212H256.083V93.041H267.651V77.4212Z" stroke="white" stroke-miterlimit="10" shape-rendering="crispEdges"/>
</g>
<defs>
<filter id="filter0_d_330_108" x="-18.5" y="-23.6902" width="561.942" height="253" filterUnits="userSpaceOnUse" color-interpolation-filters="sRGB">
<feFlood flood-opacity="0" result="BackgroundImageFix"/>
<feColorMatrix in="SourceAlpha" type="matrix" values="0 0 0 0 0 0 0 0 0 0 0 0 0 0 0 0 0 0 127 0" result="hardAlpha"/>
<feOffset dy="4"/>
<feGaussianBlur stdDeviation="32"/>
<feComposite in2="hardAlpha" operator="out"/>
<feColorMatrix type="matrix" values="0 0 0 0 1 0 0 0 0 1 0 0 0 0 1 0 0 0 0.64 0"/>
<feBlend mode="normal" in2="BackgroundImageFix" result="effect1_dropShadow_330_108"/>
<feBlend mode="normal" in="SourceGraphic" in2="effect1_dropShadow_330_108" result="shape"/>
</filter>
</defs>
</svg>
