<svg width="11" height="12" viewBox="0 0 11 12" fill="none" xmlns="http://www.w3.org/2000/svg">
<path d="M10.832 8.61426C10.832 9.18848 10.3945 9.63281 9.86133 9.63281C9.32812 9.63281 8.91797 9.18848 8.91797 8.62793V6.0166L9.01367 3.84277L7.94727 5.03906L1.89746 11.082C1.67871 11.2939 1.42578 11.4102 1.16602 11.4102C0.639648 11.4102 0.161133 10.9248 0.161133 10.4053C0.161133 10.1455 0.28418 9.89258 0.496094 9.67383L6.53223 3.62402L7.72852 2.56445L5.47949 2.64648H2.94336C2.38281 2.64648 1.93848 2.23633 1.93848 1.70996C1.93848 1.17676 2.36914 0.739258 2.9502 0.739258H9.7998C10.4219 0.739258 10.8389 1.15625 10.8389 1.77148L10.832 8.61426Z" fill="#FFFFFF"/>
</svg>
