<svg width="194" height="45" viewBox="0 0 194 45" fill="none" xmlns="http://www.w3.org/2000/svg">
<mask id="mask0_847_592" style="mask-type:luminance" maskUnits="userSpaceOnUse" x="0" y="-1" width="195" height="46">
<path d="M194.009 -0.000488281H0V44.9995H194.009V-0.000488281Z" fill="white"/>
</mask>
<g mask="url(#mask0_847_592)">
<path d="M0 44.4425V3.98535H10.6342C14.9842 3.98535 18.2698 4.87452 20.491 6.65285C22.7307 8.41267 23.8505 10.9783 23.8505 14.3498C23.8505 16.7949 23.2305 18.8233 21.9902 20.435C20.7501 22.0465 19.0008 23.0747 16.7426 23.5193C19.2971 23.8528 21.4257 24.9641 23.1287 26.8536C24.8316 28.7246 25.6831 30.8735 25.6831 33.3001C25.6831 36.7456 24.5632 39.4687 22.3235 41.4693C20.1022 43.4514 17.0018 44.4425 13.022 44.4425H0ZM1.49934 24.464V42.9421H13.1886C16.6131 42.9421 19.297 42.0991 21.2407 40.4134C23.2027 38.7092 24.1838 36.3566 24.1838 33.3557C24.1838 30.7993 23.2397 28.6968 21.3517 27.0481C19.4636 25.3809 16.937 24.5196 13.7717 24.464H1.49934ZM1.49934 22.9635H11.1895C14.8731 22.9635 17.6496 22.2596 19.5191 20.8518C21.3887 19.4254 22.3235 17.221 22.3235 14.2386C22.3235 8.49603 18.5382 5.57844 10.9674 5.48583H1.49934V22.9635Z" fill="white"/>
<path d="M35.0101 21.3799C35.9911 19.0459 37.435 17.2027 39.3416 15.8504C41.2481 14.4982 43.3583 13.822 45.672 13.822C48.8928 13.822 51.2807 14.739 52.8356 16.5729C54.409 18.3883 55.205 21.1391 55.2235 24.8256V44.4427H53.7241V24.7699C53.7056 21.5467 53.0485 19.1663 51.7527 17.6289C50.457 16.0728 48.4023 15.2947 45.5888 15.2947C42.9973 15.2947 40.7483 16.2209 38.8418 18.0734C36.9537 19.9073 35.6765 22.2784 35.0101 25.1867V44.4427H33.5107V1.7627H35.0101V21.3799Z" fill="white"/>
<path d="M84.0434 44.442C83.6732 43.1638 83.4881 41.3299 83.4881 38.9403C82.3035 40.8668 80.6838 42.358 78.6291 43.4139C76.5746 44.4699 74.2515 44.9978 71.66 44.9978C68.8834 44.9978 66.6437 44.2475 64.9408 42.747C63.2563 41.228 62.4141 39.2553 62.4141 36.8285C62.4141 34.0684 63.6543 31.864 66.1347 30.2153C68.6335 28.5481 71.947 27.696 76.0748 27.6589H83.4881V23.2686C83.4881 20.7493 82.6921 18.7951 81.1002 17.4057C79.527 16.0164 77.2686 15.3217 74.3255 15.3217C71.5859 15.3217 69.3 16.0257 67.4674 17.4335C65.6349 18.8414 64.7187 20.5827 64.7187 22.6574L63.2193 22.6018C63.2193 20.1567 64.2929 18.0819 66.4401 16.3776C68.5873 14.6734 71.2158 13.8213 74.3255 13.8213C77.5648 13.8213 80.1378 14.6364 82.0443 16.2664C83.9509 17.8781 84.932 20.1567 84.9875 23.102V37.4676C84.9875 40.7649 85.2466 43.0064 85.7649 44.192V44.442H84.0434ZM71.66 43.5251C74.4736 43.5251 76.8892 42.8952 78.9068 41.6355C80.943 40.3759 82.47 38.6068 83.4881 36.3284V29.1872H76.5468C72.2524 29.1872 68.9668 30.0393 66.69 31.7436C64.8389 33.1329 63.9135 34.865 63.9135 36.9396C63.9135 38.7736 64.6445 40.3296 66.1069 41.6078C67.5692 42.8859 69.4202 43.5251 71.66 43.5251Z" fill="white"/>
<path d="M107.895 15.4607L105.951 15.294C103.396 15.294 101.259 16.1276 99.5371 17.7948C97.8156 19.4434 96.6865 21.759 96.1497 24.7413V44.442H94.6504V14.377H96.1497V20.629C96.9641 18.5357 98.1859 16.8778 99.8148 15.6551C101.444 14.4326 103.489 13.8213 105.951 13.8213C106.821 13.8213 107.524 13.9232 108.061 14.127L107.895 15.4607Z" fill="white"/>
<path d="M131.969 44.442C131.599 43.1638 131.414 41.3299 131.414 38.9403C130.229 40.8668 128.609 42.358 126.555 43.4139C124.5 44.4699 122.177 44.9978 119.586 44.9978C116.809 44.9978 114.57 44.2475 112.866 42.747C111.182 41.228 110.34 39.2553 110.34 36.8285C110.34 34.0684 111.58 31.864 114.06 30.2153C116.559 28.5481 119.873 27.696 124.001 27.6589H131.414V23.2686C131.414 20.7493 130.618 18.7951 129.027 17.4057C127.453 16.0164 125.194 15.3217 122.251 15.3217C119.512 15.3217 117.226 16.0257 115.393 17.4335C113.561 18.8414 112.644 20.5827 112.644 22.6574L111.145 22.6018C111.145 20.1567 112.219 18.0819 114.366 16.3776C116.513 14.6734 119.142 13.8213 122.251 13.8213C125.491 13.8213 128.064 14.6364 129.97 16.2664C131.876 17.8781 132.858 20.1567 132.913 23.102V37.4676C132.913 40.7649 133.173 43.0064 133.69 44.192V44.442H131.969ZM119.586 43.5251C122.399 43.5251 124.815 42.8952 126.833 41.6355C128.868 40.3759 130.396 38.6068 131.414 36.3284V29.1872H124.472C120.178 29.1872 116.892 30.0393 114.616 31.7436C112.765 33.1329 111.839 34.865 111.839 36.9396C111.839 38.7736 112.57 40.3296 114.033 41.6078C115.495 42.8859 117.346 43.5251 119.586 43.5251Z" fill="white"/>
<path d="M145.936 6.26416V14.3778H152.766V15.9061H145.936V37.2462C145.936 39.3765 146.278 40.951 146.963 41.9699C147.667 42.9887 148.833 43.4981 150.461 43.4981C151.276 43.4981 152.267 43.4148 153.433 43.248L153.682 44.6652C153.072 44.8875 152.026 44.9986 150.545 44.9986C148.361 44.9986 146.797 44.3965 145.853 43.1925C144.908 41.9699 144.428 40.0525 144.409 37.4406V15.9061H138.855V14.3778H144.409V6.26416H145.936Z" fill="white"/>
<path d="M161.308 44.4437C160.436 44.4437 159.773 44.1781 159.318 43.6471C158.863 43.0779 158.636 42.4331 158.636 41.7121C158.636 40.9535 158.863 40.2706 159.318 39.6636L173.648 20.5429L176.206 18.2666L189.285 0.853114C189.816 0.284046 190.517 -0.000488281 191.389 -0.000488281C192.185 -0.000488281 192.811 0.246109 193.266 0.739301C193.721 1.23249 193.967 1.8395 194.005 2.56032C194.043 3.28113 193.834 3.98298 193.379 4.66587L179.562 23.1037L177.117 25.2662L163.355 43.5902C162.787 44.1592 162.103 44.4437 161.308 44.4437ZM191.048 44.4437C190.555 44.4437 190.119 44.3679 189.74 44.2161C189.398 44.0264 189.076 43.7419 188.773 43.3625L175.524 24.9816L173.42 23.2175L160.057 4.66587C159.602 4.05887 159.413 3.39496 159.489 2.67413C159.565 1.95331 159.829 1.32733 160.284 0.796206C160.778 0.265076 161.421 -0.000488281 162.218 -0.000488281C163.203 -0.000488281 163.905 0.284046 164.322 0.853114L176.946 18.3804L179.107 20.1445L193.151 39.6636C193.606 40.2706 193.816 40.9535 193.777 41.7121C193.74 42.471 193.474 43.1159 192.981 43.6471C192.526 44.1781 191.882 44.4437 191.048 44.4437Z" fill="white"/>
</g>
</svg>
