<svg width="124" height="57" viewBox="0 0 124 57" fill="none" xmlns="http://www.w3.org/2000/svg">
<path d="M73.2094 23.1092C74.507 20.3336 74.7623 17.1864 73.9287 14.2392C73.0951 11.2921 71.228 8.74055 68.6665 7.04811C70.7246 4.94127 72.9533 2.85333 75.3054 0.859863C72.5612 2.485 69.9569 4.33361 67.5189 6.38677C64.8725 5.0121 61.8281 4.59863 58.9088 5.21745C55.9896 5.83627 53.3779 7.44871 51.5226 9.77765C49.6674 12.1066 48.6844 15.0066 48.7426 17.9792C48.8009 20.9518 49.8967 23.8113 51.8418 26.0663C49.3855 31.3665 48.9966 35.618 51.121 37.054C53.4446 38.594 58.4901 35.7975 61.5535 31.2531C61.5535 31.2531 56.8684 35.4574 54.2982 34.4937C52.7144 33.8985 52.7144 31.4799 54.0137 28.022C56.4754 29.8211 59.5002 30.6876 62.5453 30.466C65.5904 30.2444 68.4566 28.9492 70.6297 26.8127L71.0849 27.663C76.6805 27.2095 93.3819 26.7655 93.3819 26.7655C93.344 25.9813 82.2856 26.7371 73.2094 23.1092ZM50.277 17.7146C50.279 15.8315 50.755 13.979 51.6614 12.3265C52.5678 10.674 53.8758 9.27434 55.4655 8.25552C57.0553 7.23671 58.8762 6.63127 60.7615 6.49461C62.6468 6.35795 64.5365 6.69443 66.2576 7.47326C60.7137 12.3038 56.0848 18.0861 52.5911 24.5453C51.0854 22.5845 50.2719 20.1832 50.277 17.7146ZM61.5725 28.9668C59.0365 28.9716 56.5734 28.1226 54.5827 26.5576C56.8209 21.5314 61.3733 14.7858 67.5853 8.19128C69.9188 9.655 71.6342 11.9185 72.4081 14.555C73.182 17.1916 72.961 20.0191 71.7868 22.5046C69.8261 21.628 68.015 20.4518 66.4188 19.0184L69.8236 25.3861C68.7694 26.5162 67.4926 27.4175 66.0728 28.0336C64.6531 28.6497 63.121 28.9674 61.5725 28.9668Z" fill="white"/>
<path d="M44.7335 56.3946H59.2821L61.3685 53.6264H54.0848L56.0101 51.0755H63.3033L65.3898 48.3073H58.106L59.8985 45.9359H67.1917L69.2877 43.1678H54.7392L44.7335 56.3946Z" fill="white"/>
<path d="M80.6591 43.1678H73.4038L63.3981 56.3946H70.6629L80.6591 43.1678Z" fill="white"/>
<path d="M86.653 56.3946H92.3814L102.387 43.1678H97.5881L92.5142 49.8756L90.9588 43.1678H85.2873L75.2816 56.3946H80.0806L85.1071 49.7528L86.653 56.3946Z" fill="white"/>
<path d="M121.317 43.1681H109.652C108.704 43.167 107.769 43.3858 106.922 43.8073C106.074 44.2288 105.336 44.8412 104.767 45.5961L98.7451 53.5605C98.51 53.867 98.3833 54.2424 98.3847 54.6281C98.3847 55.0976 98.5712 55.5479 98.9035 55.8808C99.2359 56.2136 99.687 56.4018 100.158 56.4043H111.824C112.773 56.4061 113.709 56.1877 114.558 55.7662C115.408 55.3447 116.147 54.7319 116.717 53.9762L118.168 52.0867H119.857L121.962 49.2524H113.028L110.183 52.9842C110.035 53.1811 109.843 53.3408 109.623 53.4507C109.402 53.5606 109.159 53.6176 108.912 53.6172H106.854C106.731 53.6172 106.612 53.5685 106.525 53.4816C106.438 53.3948 106.389 53.2771 106.389 53.1543C106.388 53.0548 106.422 52.9581 106.484 52.8803L111.226 46.5504C111.373 46.353 111.565 46.1929 111.786 46.0829C112.007 45.9729 112.25 45.9162 112.497 45.9174H114.555C114.678 45.9174 114.796 45.9661 114.884 46.0529C114.971 46.1398 115.02 46.2575 115.02 46.3803C115.017 46.4791 114.984 46.5748 114.925 46.6543L114.147 47.6841H121.393L122.673 45.9835C122.873 45.7208 122.996 45.4076 123.026 45.0793C123.057 44.751 122.995 44.4207 122.847 44.1258C122.699 43.8309 122.471 43.5831 122.189 43.4105C121.907 43.2379 121.582 43.1474 121.251 43.1492L121.317 43.1681Z" fill="white"/>
<path d="M48.7834 44.9445C48.7834 44.4759 48.5965 44.0266 48.2639 43.6952C47.9313 43.3639 47.4802 43.1778 47.0099 43.1778H35.3445C34.3955 43.1759 33.4591 43.3944 32.6097 43.8159C31.7602 44.2373 31.021 44.8502 30.4507 45.6058L24.4284 53.5702C24.232 53.8339 24.1129 54.1466 24.0842 54.4736C24.0555 54.8006 24.1183 55.1291 24.2656 55.4227C24.413 55.7163 24.6392 55.9635 24.919 56.1368C25.1989 56.3101 25.5215 56.4028 25.851 56.4046H37.5163C38.4653 56.4064 39.4017 56.1879 40.2512 55.7664C41.1006 55.345 41.8398 54.7321 42.4101 53.9765L48.4325 46.0121C48.6636 45.704 48.7868 45.329 48.7834 44.9445ZM40.6745 46.6734L35.9325 52.9939C35.7853 53.1913 35.5936 53.3514 35.3728 53.4614C35.1521 53.5713 34.9085 53.628 34.6616 53.6269H32.5657C32.4802 53.6261 32.3966 53.6017 32.3241 53.5566C32.2515 53.5114 32.193 53.4472 32.1547 53.371C32.1165 53.2949 32.1001 53.2096 32.1073 53.1248C32.1146 53.0399 32.1452 52.9587 32.1958 52.89L36.9378 46.56C37.0865 46.3643 37.2786 46.2054 37.499 46.0956C37.7194 45.9858 37.9623 45.9281 38.2087 45.927H40.2667C40.3277 45.927 40.3882 45.939 40.4446 45.9623C40.5009 45.9855 40.5522 46.0196 40.5953 46.0626C40.6385 46.1056 40.6727 46.1567 40.6961 46.2128C40.7194 46.269 40.7314 46.3292 40.7314 46.39C40.7288 46.4888 40.6957 46.5845 40.6366 46.664L40.6745 46.6734Z" fill="white"/>
<path d="M21.3459 50.1024C22.7556 49.784 24.006 48.977 24.8739 47.8255L26.2586 46.0021C26.4586 45.7394 26.5808 45.4262 26.6114 45.0979C26.642 44.7696 26.5798 44.4393 26.4318 44.1444C26.2838 43.8495 26.0559 43.6017 25.7739 43.4291C25.4918 43.2565 25.167 43.166 24.836 43.1678H10.1168L0.111084 56.3946H15.3425C16.2915 56.3964 17.2278 56.1779 18.0773 55.7565C18.9268 55.335 19.6659 54.7221 20.2362 53.9665L21.6493 52.077C21.8359 51.8327 21.936 51.5336 21.9339 51.2267C21.9335 51.0044 21.881 50.7853 21.7806 50.5868C21.6801 50.3883 21.5345 50.216 21.3553 50.0835L21.3459 50.1024ZM14.6122 51.8219L13.7112 53.0123C13.5635 53.2091 13.3717 53.3688 13.151 53.4787C12.9304 53.5886 12.687 53.6457 12.4403 53.6453H9.47184L11.3686 51.0944H14.2139C14.2749 51.0944 14.3353 51.1064 14.3917 51.1297C14.4481 51.1529 14.4993 51.187 14.5425 51.23C14.5856 51.273 14.6198 51.324 14.6432 51.3802C14.6666 51.4364 14.6786 51.4966 14.6786 51.5574C14.6786 51.6567 14.6452 51.7531 14.5837 51.8313L14.6122 51.8219ZM18.5006 46.6823L17.7324 47.6932C17.5832 47.8878 17.3909 48.0453 17.1704 48.1535C16.9499 48.2616 16.7073 48.3175 16.4616 48.3168H13.4931L15.2856 45.9454H18.1308C18.254 45.9454 18.3722 45.9942 18.4594 46.081C18.5465 46.1678 18.5955 46.2856 18.5955 46.4084C18.5928 46.5072 18.5597 46.6029 18.5006 46.6823Z" fill="white"/>
</svg>
