<svg width="1246" height="533" viewBox="0 0 1246 533" fill="none" xmlns="http://www.w3.org/2000/svg">
<rect width="1246" height="533" fill="black"/>
<rect x="0.5" y="0.5" width="1245" height="532" stroke="#EDEDED" stroke-opacity="0.15"/>
<mask id="path-3-inside-1_20_1253" fill="white">
<path d="M0 0H14V14H0V0Z"/>
</mask>
<path d="M0 0V-1H-1V0H0ZM0 1H14V-1H0V1ZM1 14V0H-1V14H1Z" fill="#EDEDED" mask="url(#path-3-inside-1_20_1253)"/>
<mask id="path-5-inside-2_20_1253" fill="white">
<path d="M1246 0V14H1232V0H1246Z"/>
</mask>
<path d="M1246 0H1247V-1H1246V0ZM1245 0V14H1247V0H1245ZM1232 1H1246V-1H1232V1Z" fill="#EDEDED" mask="url(#path-5-inside-2_20_1253)"/>
<mask id="path-7-inside-3_20_1253" fill="white">
<path d="M0 533V519H14V533H0Z"/>
</mask>
<path d="M0 533H-1V534H0V533ZM1 533V519H-1V533H1ZM14 532H0V534H14V532Z" fill="#EDEDED" mask="url(#path-7-inside-3_20_1253)"/>
<mask id="path-9-inside-4_20_1253" fill="white">
<path d="M1246 533H1232V519H1246V533Z"/>
</mask>
<path d="M1246 533V534H1247V533H1246ZM1246 532H1232V534H1246V532ZM1245 519V533H1247V519H1245Z" fill="#EDEDED" mask="url(#path-9-inside-4_20_1253)"/>
<path d="M0 88.5H1246M0 177.5H1246M0 266.5H1246M0 355.5H1246M0 444.5H1246M89.5 0L89.5 533M178.5 0L178.5 533M267.5 0L267.5 533M356.5 0L356.5 533M445.5 0L445.5 533M534.5 0V533M623.5 0V533M712.5 0V533M801.5 0V533M890.5 0V533M979.5 0V533M1068.5 0V533M1157.5 0V533" stroke="#EDEDED" stroke-opacity="0.15"/>
<rect x="304" y="355" width="853" height="90" rx="45" fill="#EDEDED"/>
<path d="M1156.99 400H1112C1112 424.853 1132.53 445 1157.85 445H1166C1160.03 436.535 1156.99 426.436 1156.99 416.141V400Z" fill="#EDEDED"/>
<path d="M363.224 411.512C356.472 411.512 352.376 407 352.376 399.672C352.376 392.28 356.472 387.768 363.224 387.768C370.008 387.768 374.04 392.28 374.04 399.672C374.04 407 370.008 411.512 363.224 411.512ZM356.728 399.672C356.728 404.792 359.128 407.896 363.224 407.896C367.32 407.896 369.752 404.792 369.752 399.672C369.752 394.488 367.32 391.384 363.224 391.384C359.128 391.384 356.728 394.488 356.728 399.672ZM386.863 400.28C386.543 398.168 385.007 396.984 383.215 396.984C380.559 396.984 379.055 399.032 379.055 402.52C379.055 406.008 380.559 408.056 383.215 408.056C385.103 408.056 386.608 406.84 386.927 404.536L391.184 404.728C390.704 408.824 387.439 411.384 383.215 411.384C378.127 411.384 374.799 407.896 374.799 402.52C374.799 397.144 378.127 393.656 383.215 393.656C387.311 393.656 390.639 396.088 391.087 400.056L386.863 400.28ZM393.509 390.2H397.605V394.04H402.085V397.208H397.605V405.784C397.605 407.096 398.277 407.832 399.525 407.832H402.085V411H398.853C395.365 411 393.509 409.24 393.509 405.784V397.208H390.821V394.04H393.509V390.2ZM410.503 411.384C405.415 411.384 402.087 407.896 402.087 402.52C402.087 397.144 405.415 393.656 410.503 393.656C415.559 393.656 418.887 397.144 418.887 402.52C418.887 407.896 415.559 411.384 410.503 411.384ZM406.343 402.52C406.343 406.008 407.847 408.056 410.503 408.056C413.127 408.056 414.663 406.008 414.663 402.52C414.663 399.032 413.127 396.984 410.503 396.984C407.847 396.984 406.343 399.032 406.343 402.52ZM420.002 388.28H424.098V396.344C425.09 394.68 427.01 393.656 429.218 393.656C433.634 393.656 436.386 397.08 436.386 402.52C436.386 407.96 433.634 411.384 429.218 411.384C426.882 411.384 424.962 410.296 424.002 408.568L423.906 411H420.002V388.28ZM423.842 402.52C423.842 405.912 425.474 408.088 428.002 408.088C430.498 408.088 432.162 405.912 432.162 402.52C432.162 399.064 430.53 396.856 428.002 396.856C425.474 396.856 423.842 399.064 423.842 402.52ZM437.062 402.52C437.062 397.144 440.39 393.656 445.478 393.656C449.862 393.656 453.382 396.664 453.446 402.648V403.64H441.382C441.574 406.456 443.046 408.152 445.478 408.152C447.014 408.152 448.422 407.256 449.03 405.784L453.222 406.104C452.198 409.336 449.126 411.384 445.478 411.384C440.39 411.384 437.062 407.896 437.062 402.52ZM441.414 400.92H449.222C448.902 398.008 447.302 396.888 445.478 396.888C443.206 396.888 441.734 398.392 441.414 400.92ZM454.821 394.04H458.661L458.757 397.368C459.397 395.128 460.677 394.04 462.853 394.04H464.421V397.208H462.821C460.101 397.208 458.917 398.616 458.917 401.336V411H454.821V394.04ZM472.408 392.248C475.128 392.248 476.376 391.032 476.408 388.28H479.64V411H475.512V395.416H470.616V392.248H472.408ZM491.442 411.512C485.938 411.512 482.29 408.92 482.29 404.76C482.29 401.88 484.082 399.64 487.122 398.68C484.722 397.848 483.378 396.312 483.378 394.008C483.378 390.36 486.61 387.768 491.442 387.768C496.306 387.768 499.506 390.36 499.506 394.008C499.506 396.28 498.162 397.848 495.794 398.68C498.834 399.672 500.594 401.912 500.594 404.76C500.594 408.92 496.946 411.512 491.442 411.512ZM486.61 404.216C486.61 406.456 488.498 407.896 491.442 407.896C494.386 407.896 496.274 406.456 496.274 404.216C496.274 401.976 494.386 400.536 491.442 400.536C488.498 400.536 486.61 401.976 486.61 404.216ZM487.666 394.36C487.666 396.152 489.106 397.272 491.442 397.272C493.778 397.272 495.218 396.152 495.218 394.36C495.218 392.536 493.778 391.384 491.442 391.384C489.106 391.384 487.666 392.536 487.666 394.36ZM501.156 399.928H512.036V403.384H501.156V399.928ZM513.506 395.384C513.954 390.968 517.25 387.768 522.114 387.768C526.658 387.768 529.954 390.616 529.954 394.52C529.954 397.976 527.234 400.056 524.034 401.976C522.594 402.744 518.498 405.368 518.338 407.384H530.082V411H513.282C513.282 404.28 517.378 401.432 521.762 398.872C524.13 397.432 525.666 396.056 525.666 394.488C525.666 392.696 524.194 391.384 522.114 391.384C519.81 391.384 518.274 392.888 517.794 395.64L513.506 395.384ZM540.608 411.512C534.688 411.512 531.136 406.84 531.136 399.672C531.136 392.472 534.688 387.768 540.608 387.768C546.528 387.768 550.048 392.472 550.048 399.672C550.048 406.84 546.528 411.512 540.608 411.512ZM535.456 399.672C535.456 404.984 537.28 407.896 540.608 407.896C543.936 407.896 545.76 404.984 545.76 399.672C545.76 394.328 543.936 391.384 540.608 391.384C537.28 391.384 535.456 394.328 535.456 399.672ZM554.976 411L552.896 415.992H550.624L552 411H550.368V406.68H554.944V411H554.976ZM561.538 399.224C562.21 395.672 564.93 393.656 569.122 393.656C574.018 393.656 576.578 396.184 576.578 400.952V406.776C576.578 407.736 576.994 408.024 577.634 408.024H578.306V411L577.346 411.032C576.034 411.064 573.346 411.096 573.026 408.408C572.226 410.104 570.306 411.384 567.362 411.384C563.938 411.384 561.25 409.56 561.25 406.552C561.25 403.288 563.714 402.168 567.714 401.4L572.45 400.472C572.45 397.848 571.33 396.6 569.122 396.6C567.298 396.6 566.114 397.592 565.73 399.448L561.538 399.224ZM565.506 406.424C565.506 407.576 566.498 408.504 568.482 408.504C570.786 408.504 572.546 406.808 572.546 403.48V403.256L569.314 403.832C567.17 404.216 565.506 404.504 565.506 406.424ZM579.353 394.04H583.065L583.193 396.856C584.089 394.552 586.009 393.656 588.281 393.656C592.057 393.656 594.105 396.28 594.105 400.088V411H589.977V401.4C589.977 398.552 589.241 396.984 587.033 396.984C584.793 396.984 583.449 398.552 583.449 401.4V411H579.353V394.04ZM611.671 388.28V411H607.767L607.671 408.568C606.711 410.296 604.791 411.384 602.455 411.384C598.039 411.384 595.287 407.96 595.287 402.52C595.287 397.08 598.039 393.656 602.455 393.656C604.663 393.656 606.583 394.68 607.575 396.344V388.28H611.671ZM599.511 402.52C599.511 405.912 601.175 408.088 603.671 408.088C606.199 408.088 607.831 405.912 607.831 402.52C607.831 399.064 606.199 396.856 603.671 396.856C601.143 396.856 599.511 399.064 599.511 402.52ZM621.703 390.2H625.799V394.04H630.279V397.208H625.799V405.784C625.799 407.096 626.471 407.832 627.719 407.832H630.279V411H627.047C623.559 411 621.703 409.24 621.703 405.784V397.208H619.015V394.04H621.703V390.2ZM631.584 388.28H635.68V396.312C636.672 394.392 638.528 393.656 640.608 393.656C644.128 393.656 646.336 396.216 646.336 400.088V411H642.24V401.56C642.24 398.648 641.376 397.112 639.264 397.112C637.024 397.112 635.68 398.68 635.68 401.56V411H631.584V388.28ZM648.852 394.04H652.948V411H648.852V394.04ZM648.788 391.704V388.312H653.044V391.704H648.788ZM665.419 399.48C665.099 397.752 663.595 396.728 661.963 396.728C660.363 396.728 659.115 397.56 659.147 398.936C659.179 400.312 660.875 400.888 662.571 401.208C667.211 402.008 669.771 403.224 669.771 406.456C669.771 409.816 666.507 411.384 662.539 411.384C657.899 411.384 654.763 409.208 654.475 405.624L658.667 405.4C658.987 407.192 660.331 408.28 662.443 408.28C663.851 408.28 665.547 407.768 665.515 406.36C665.515 404.728 663.627 404.472 661.899 404.088C657.707 403.256 654.891 402.168 654.891 399C654.891 395.672 657.643 393.656 662.187 393.656C666.155 393.656 669.003 395.8 669.579 399.288L665.419 399.48ZM678.859 390.2H682.955V394.04H687.435V397.208H682.955V405.784C682.955 407.096 683.627 407.832 684.875 407.832H687.435V411H684.203C680.715 411 678.859 409.24 678.859 405.784V397.208H676.171V394.04H678.859V390.2ZM688.74 394.04H692.836V411H688.74V394.04ZM688.676 391.704V388.312H692.932V391.704H688.676ZM694.977 394.04H698.689L698.785 396.76C699.617 394.808 701.345 393.656 703.585 393.656C705.985 393.656 707.713 394.936 708.449 397.176C709.249 394.872 711.009 393.656 713.473 393.656C716.897 393.656 719.041 395.928 719.041 400.088V411H714.945V401.4C714.945 398.52 714.017 396.984 712.225 396.984C710.049 396.984 708.865 398.552 708.865 401.4V411H705.121V401.4C705.121 398.52 704.193 396.984 702.465 396.984C700.289 396.984 699.073 398.584 699.073 401.4V411H694.977V394.04ZM720.225 402.52C720.225 397.144 723.553 393.656 728.641 393.656C733.025 393.656 736.545 396.664 736.609 402.648V403.64H724.545C724.737 406.456 726.209 408.152 728.641 408.152C730.177 408.152 731.585 407.256 732.193 405.784L736.385 406.104C735.361 409.336 732.289 411.384 728.641 411.384C723.553 411.384 720.225 407.896 720.225 402.52ZM724.577 400.92H732.385C732.065 398.008 730.465 396.888 728.641 396.888C726.369 396.888 724.897 398.392 724.577 400.92ZM743.846 394.04H747.942V411H743.846V394.04ZM743.782 391.704V388.312H748.038V391.704H743.782ZM751.316 390.2H755.411V394.04H759.892V397.208H755.411V405.784C755.411 407.096 756.084 407.832 757.332 407.832H759.892V411H756.66C753.172 411 751.316 409.24 751.316 405.784V397.208H748.628V394.04H751.316V390.2ZM760.332 388.28H763.788V390.872L763.34 396.952H760.812L760.332 390.872V388.28ZM775.481 399.48C775.161 397.752 773.657 396.728 772.025 396.728C770.425 396.728 769.177 397.56 769.209 398.936C769.241 400.312 770.937 400.888 772.633 401.208C777.273 402.008 779.833 403.224 779.833 406.456C779.833 409.816 776.569 411.384 772.601 411.384C767.961 411.384 764.825 409.208 764.537 405.624L768.729 405.4C769.049 407.192 770.393 408.28 772.505 408.28C773.913 408.28 775.609 407.768 775.577 406.36C775.577 404.728 773.689 404.472 771.961 404.088C767.769 403.256 764.953 402.168 764.953 399C764.953 395.672 767.705 393.656 772.249 393.656C776.217 393.656 779.065 395.8 779.641 399.288L775.481 399.48ZM787.034 388.28H791.13V396.344C792.122 394.68 794.042 393.656 796.25 393.656C800.666 393.656 803.418 397.08 803.418 402.52C803.418 407.96 800.666 411.384 796.25 411.384C793.914 411.384 791.994 410.296 791.034 408.568L790.938 411H787.034V388.28ZM790.874 402.52C790.874 405.912 792.506 408.088 795.034 408.088C797.53 408.088 799.194 405.912 799.194 402.52C799.194 399.064 797.562 396.856 795.034 396.856C792.506 396.856 790.874 399.064 790.874 402.52ZM804.521 394.04H808.617V411H804.521V394.04ZM804.457 391.704V388.312H808.713V391.704H804.457ZM817.567 410.168C813.151 410.168 810.143 406.904 810.143 402.072C810.143 397.048 813.151 393.656 817.535 393.656C819.743 393.656 821.631 394.776 822.495 396.664V394.04H826.495V409.08C826.495 413.56 823.167 416.184 818.367 416.184C814.495 416.184 811.551 414.264 810.655 411.32L814.847 411.064C815.391 412.312 816.639 413.112 818.399 413.112C820.895 413.112 822.367 411.928 822.367 409.592V407.48C821.567 409.112 819.647 410.168 817.567 410.168ZM814.367 402.04C814.367 405.144 815.999 407.16 818.495 407.16C820.895 407.16 822.495 405.144 822.527 402.04C822.559 398.904 820.991 396.92 818.495 396.92C815.967 396.92 814.367 398.904 814.367 402.04ZM835.149 410.168C830.733 410.168 827.725 406.904 827.725 402.072C827.725 397.048 830.733 393.656 835.117 393.656C837.325 393.656 839.213 394.776 840.077 396.664V394.04H844.077V409.08C844.077 413.56 840.749 416.184 835.949 416.184C832.077 416.184 829.133 414.264 828.237 411.32L832.429 411.064C832.973 412.312 834.221 413.112 835.981 413.112C838.477 413.112 839.949 411.928 839.949 409.592V407.48C839.149 409.112 837.229 410.168 835.149 410.168ZM831.949 402.04C831.949 405.144 833.581 407.16 836.077 407.16C838.477 407.16 840.077 405.144 840.109 402.04C840.141 398.904 838.573 396.92 836.077 396.92C833.549 396.92 831.949 398.904 831.949 402.04ZM845.306 402.52C845.306 397.144 848.634 393.656 853.722 393.656C858.106 393.656 861.626 396.664 861.69 402.648V403.64H849.626C849.818 406.456 851.29 408.152 853.722 408.152C855.258 408.152 856.666 407.256 857.274 405.784L861.466 406.104C860.442 409.336 857.37 411.384 853.722 411.384C848.634 411.384 845.306 407.896 845.306 402.52ZM849.658 400.92H857.466C857.146 398.008 855.546 396.888 853.722 396.888C851.45 396.888 849.978 398.392 849.658 400.92ZM863.065 394.04H866.905L867.001 397.368C867.641 395.128 868.921 394.04 871.097 394.04H872.665V397.208H871.065C868.345 397.208 867.161 398.616 867.161 401.336V411H863.065V394.04ZM881.772 390.2H885.868V394.04H890.348V397.208H885.868V405.784C885.868 407.096 886.54 407.832 887.788 407.832H890.348V411H887.116C883.628 411 881.772 409.24 881.772 405.784V397.208H879.084V394.04H881.772V390.2ZM891.652 388.28H895.748V396.312C896.74 394.392 898.596 393.656 900.676 393.656C904.196 393.656 906.404 396.216 906.404 400.088V411H902.308V401.56C902.308 398.648 901.444 397.112 899.332 397.112C897.092 397.112 895.748 398.68 895.748 401.56V411H891.652V388.28ZM907.906 399.224C908.578 395.672 911.298 393.656 915.49 393.656C920.386 393.656 922.946 396.184 922.946 400.952V406.776C922.946 407.736 923.362 408.024 924.002 408.024H924.674V411L923.714 411.032C922.402 411.064 919.714 411.096 919.394 408.408C918.594 410.104 916.674 411.384 913.73 411.384C910.306 411.384 907.618 409.56 907.618 406.552C907.618 403.288 910.082 402.168 914.082 401.4L918.818 400.472C918.818 397.848 917.698 396.6 915.49 396.6C913.666 396.6 912.482 397.592 912.098 399.448L907.906 399.224ZM911.874 406.424C911.874 407.576 912.866 408.504 914.85 408.504C917.154 408.504 918.914 406.808 918.914 403.48V403.256L915.682 403.832C913.538 404.216 911.874 404.504 911.874 406.424ZM925.721 394.04H929.433L929.561 396.856C930.457 394.552 932.377 393.656 934.649 393.656C938.425 393.656 940.473 396.28 940.473 400.088V411H936.345V401.4C936.345 398.552 935.609 396.984 933.401 396.984C931.161 396.984 929.817 398.552 929.817 401.4V411H925.721V394.04ZM947.674 402.52C947.674 397.144 951.002 393.656 956.09 393.656C960.474 393.656 963.994 396.664 964.058 402.648V403.64H951.994C952.186 406.456 953.658 408.152 956.09 408.152C957.626 408.152 959.034 407.256 959.642 405.784L963.834 406.104C962.81 409.336 959.738 411.384 956.09 411.384C951.002 411.384 947.674 407.896 947.674 402.52ZM952.026 400.92H959.834C959.514 398.008 957.914 396.888 956.09 396.888C953.818 396.888 952.346 398.392 952.026 400.92ZM980.585 394.04L974.313 411H969.481L963.241 394.04H967.465L971.881 406.84L976.297 394.04H980.585ZM979.743 402.52C979.743 397.144 983.071 393.656 988.159 393.656C992.543 393.656 996.063 396.664 996.127 402.648V403.64H984.063C984.255 406.456 985.727 408.152 988.159 408.152C989.695 408.152 991.103 407.256 991.711 405.784L995.903 406.104C994.879 409.336 991.807 411.384 988.159 411.384C983.071 411.384 979.743 407.896 979.743 402.52ZM984.095 400.92H991.903C991.583 398.008 989.983 396.888 988.159 396.888C985.887 396.888 984.415 398.392 984.095 400.92ZM997.503 394.04H1001.34L1001.44 397.368C1002.08 395.128 1003.36 394.04 1005.53 394.04H1007.1V397.208H1005.5C1002.78 397.208 1001.6 398.616 1001.6 401.336V411H997.503V394.04ZM1014.32 388.28H1018.42V396.344C1019.41 394.68 1021.33 393.656 1023.54 393.656C1027.95 393.656 1030.71 397.08 1030.71 402.52C1030.71 407.96 1027.95 411.384 1023.54 411.384C1021.2 411.384 1019.28 410.296 1018.32 408.568L1018.23 411H1014.32V388.28ZM1018.16 402.52C1018.16 405.912 1019.79 408.088 1022.32 408.088C1024.82 408.088 1026.48 405.912 1026.48 402.52C1026.48 399.064 1024.85 396.856 1022.32 396.856C1019.79 396.856 1018.16 399.064 1018.16 402.52ZM1031.38 402.52C1031.38 397.144 1034.71 393.656 1039.8 393.656C1044.18 393.656 1047.7 396.664 1047.76 402.648V403.64H1035.7C1035.89 406.456 1037.36 408.152 1039.8 408.152C1041.33 408.152 1042.74 407.256 1043.35 405.784L1047.54 406.104C1046.52 409.336 1043.44 411.384 1039.8 411.384C1034.71 411.384 1031.38 407.896 1031.38 402.52ZM1035.73 400.92H1043.54C1043.22 398.008 1041.62 396.888 1039.8 396.888C1037.52 396.888 1036.05 398.392 1035.73 400.92ZM1050.56 393.592C1050.56 390.168 1052.22 388.28 1056 388.28H1059.17V391.448H1056.48C1055.42 391.448 1054.69 392.28 1054.69 393.592V394.52H1058.91V397.688H1054.69V411H1050.56V397.688H1048.13V394.52H1050.56V393.592ZM1067.15 411.384C1062.06 411.384 1058.73 407.896 1058.73 402.52C1058.73 397.144 1062.06 393.656 1067.15 393.656C1072.2 393.656 1075.53 397.144 1075.53 402.52C1075.53 407.896 1072.2 411.384 1067.15 411.384ZM1062.99 402.52C1062.99 406.008 1064.49 408.056 1067.15 408.056C1069.77 408.056 1071.31 406.008 1071.31 402.52C1071.31 399.032 1069.77 396.984 1067.15 396.984C1064.49 396.984 1062.99 399.032 1062.99 402.52ZM1076.9 394.04H1080.74L1080.83 397.368C1081.47 395.128 1082.75 394.04 1084.93 394.04H1086.5V397.208H1084.9C1082.18 397.208 1080.99 398.616 1080.99 401.336V411H1076.9V394.04ZM1086.08 402.52C1086.08 397.144 1089.41 393.656 1094.5 393.656C1098.88 393.656 1102.4 396.664 1102.46 402.648V403.64H1090.4C1090.59 406.456 1092.06 408.152 1094.5 408.152C1096.03 408.152 1097.44 407.256 1098.05 405.784L1102.24 406.104C1101.22 409.336 1098.14 411.384 1094.5 411.384C1089.41 411.384 1086.08 407.896 1086.08 402.52ZM1090.43 400.92H1098.24C1097.92 398.008 1096.32 396.888 1094.5 396.888C1092.22 396.888 1090.75 398.392 1090.43 400.92ZM1103.67 388.28H1107.83V395.32C1107.83 398.168 1107.39 401.112 1107.16 403.96H1104.38C1104.15 401.112 1103.67 398.168 1103.67 395.32V388.28ZM1103.39 411V406.68H1107.96V411H1103.39Z" fill="#0A0A0A"/>
<rect x="89.5" y="88.5" width="534" height="178" rx="47.5" fill="#0A0A0A"/>
<rect x="89.5" y="88.5" width="534" height="178" rx="47.5" stroke="#2E2E2E"/>
<path d="M89.5 221.33H132.497C132.229 245.676 112.41 265.33 88 265.33H80.9072C86.5207 256.284 89.5 245.845 89.5 235.187V221.33Z" fill="#0A0A0A" stroke="#2E2E2E"/>
<rect x="90" y="89" width="533" height="177" rx="48" fill="#0A0A0A"/>
<path d="M159.816 145.28V148.896H152.904V168H148.744V148.896H141.864V145.28H159.816ZM160.817 151.04H164.657L164.753 154.368C165.393 152.128 166.673 151.04 168.849 151.04H170.417V154.208H168.817C166.097 154.208 164.913 155.616 164.913 158.336V168H160.817V151.04ZM171.348 156.224C172.02 152.672 174.74 150.656 178.932 150.656C183.828 150.656 186.388 153.184 186.388 157.952V163.776C186.388 164.736 186.804 165.024 187.444 165.024H188.116V168L187.156 168.032C185.844 168.064 183.156 168.096 182.836 165.408C182.036 167.104 180.116 168.384 177.172 168.384C173.748 168.384 171.06 166.56 171.06 163.552C171.06 160.288 173.524 159.168 177.524 158.4L182.26 157.472C182.26 154.848 181.14 153.6 178.932 153.6C177.108 153.6 175.924 154.592 175.54 156.448L171.348 156.224ZM175.316 163.424C175.316 164.576 176.308 165.504 178.292 165.504C180.596 165.504 182.356 163.808 182.356 160.48V160.256L179.124 160.832C176.98 161.216 175.316 161.504 175.316 163.424ZM189.659 151.04H193.371L193.499 153.856C194.395 151.552 196.315 150.656 198.587 150.656C202.363 150.656 204.411 153.28 204.411 157.088V168H200.283V158.4C200.283 155.552 199.547 153.984 197.339 153.984C195.099 153.984 193.755 155.552 193.755 158.4V168H189.659V151.04ZM217.034 156.48C216.714 154.752 215.21 153.728 213.578 153.728C211.978 153.728 210.73 154.56 210.762 155.936C210.794 157.312 212.49 157.888 214.186 158.208C218.826 159.008 221.386 160.224 221.386 163.456C221.386 166.816 218.122 168.384 214.154 168.384C209.514 168.384 206.378 166.208 206.09 162.624L210.282 162.4C210.602 164.192 211.946 165.28 214.058 165.28C215.466 165.28 217.162 164.768 217.13 163.36C217.13 161.728 215.242 161.472 213.514 161.088C209.322 160.256 206.506 159.168 206.506 156C206.506 152.672 209.258 150.656 213.802 150.656C217.77 150.656 220.618 152.8 221.194 156.288L217.034 156.48ZM224.637 150.592C224.637 147.168 226.301 145.28 230.077 145.28H233.245V148.448H230.557C229.501 148.448 228.765 149.28 228.765 150.592V151.52H232.989V154.688H228.765V168H224.637V154.688H222.205V151.52H224.637V150.592ZM235.204 151.04H239.3V168H235.204V151.04ZM235.14 148.704V145.312H239.396V148.704H235.14ZM242.663 145.28H247.527L257.191 162.144V145.28H261.383V168H256.359L246.823 151.584V168H242.663V145.28ZM265.053 145.28H269.213V168H265.053V145.28ZM289.136 145.28V148.896H282.224V168H278.064V148.896H271.184V145.28H289.136ZM307.745 145.28V148.896H300.833V168H296.673V148.896H289.793V145.28H307.745ZM306.099 159.52C306.099 154.144 309.427 150.656 314.515 150.656C318.899 150.656 322.419 153.664 322.483 159.648V160.64H310.419C310.611 163.456 312.083 165.152 314.515 165.152C316.051 165.152 317.459 164.256 318.067 162.784L322.259 163.104C321.235 166.336 318.163 168.384 314.515 168.384C309.427 168.384 306.099 164.896 306.099 159.52ZM310.451 157.92H318.259C317.939 155.008 316.339 153.888 314.515 153.888C312.243 153.888 310.771 155.392 310.451 157.92ZM329.849 149.92L331.929 144.928H334.201L332.825 149.92H334.457V154.24H329.881V149.92H329.849ZM336.506 152.384C336.954 147.968 340.25 144.768 345.114 144.768C349.658 144.768 352.954 147.616 352.954 151.52C352.954 154.976 350.234 157.056 347.034 158.976C345.594 159.744 341.498 162.368 341.338 164.384H353.082V168H336.282C336.282 161.28 340.378 158.432 344.762 155.872C347.13 154.432 348.666 153.056 348.666 151.488C348.666 149.696 347.194 148.384 345.114 148.384C342.81 148.384 341.274 149.888 340.794 152.64L336.506 152.384ZM362.769 154.4C364.625 154.432 366.641 153.536 366.641 151.136C366.641 149.472 365.169 148.384 362.769 148.384C360.721 148.384 359.345 149.376 359.121 150.944L354.897 150.688C355.313 147.168 358.513 144.768 362.833 144.768C367.761 144.768 370.961 147.104 370.961 150.688C370.961 153.248 369.361 154.976 366.385 155.712C369.809 156.544 371.729 158.72 371.729 161.76C371.729 165.824 368.209 168.512 362.833 168.512C357.905 168.512 354.481 165.728 354.257 161.6L358.513 161.408C358.737 163.808 360.913 164.896 362.865 164.896C365.137 164.896 367.409 163.744 367.409 161.184C367.409 158.624 365.105 157.472 362.769 157.504L360.881 157.536V154.368L362.769 154.4ZM393.076 151.04L396.564 163.296L400.052 151.04H404.052L398.868 168H394.676L391.316 156.576L387.956 168H383.764L378.58 151.04H382.548L386.004 163.296L389.524 151.04H393.076ZM404.241 156.224C404.913 152.672 407.633 150.656 411.825 150.656C416.721 150.656 419.281 153.184 419.281 157.952V163.776C419.281 164.736 419.697 165.024 420.337 165.024H421.009V168L420.049 168.032C418.737 168.064 416.049 168.096 415.729 165.408C414.929 167.104 413.009 168.384 410.065 168.384C406.641 168.384 403.953 166.56 403.953 163.552C403.953 160.288 406.417 159.168 410.417 158.4L415.153 157.472C415.153 154.848 414.033 153.6 411.825 153.6C410.001 153.6 408.817 154.592 408.433 156.448L404.241 156.224ZM408.209 163.424C408.209 164.576 409.201 165.504 411.185 165.504C413.489 165.504 415.249 163.808 415.249 160.48V160.256L412.017 160.832C409.873 161.216 408.209 161.504 408.209 163.424ZM432.505 156.48C432.185 154.752 430.681 153.728 429.049 153.728C427.449 153.728 426.201 154.56 426.233 155.936C426.265 157.312 427.961 157.888 429.657 158.208C434.297 159.008 436.857 160.224 436.857 163.456C436.857 166.816 433.593 168.384 429.625 168.384C424.985 168.384 421.849 166.208 421.561 162.624L425.753 162.4C426.073 164.192 427.417 165.28 429.529 165.28C430.937 165.28 432.633 164.768 432.601 163.36C432.601 161.728 430.713 161.472 428.985 161.088C424.793 160.256 421.977 159.168 421.977 156C421.977 152.672 424.729 150.656 429.273 150.656C433.241 150.656 436.089 152.8 436.665 156.288L432.505 156.48ZM445.05 151.04H449.146V168H445.05V151.04ZM444.986 148.704V145.312H449.242V148.704H444.986ZM451.783 151.04H455.495L455.623 153.856C456.519 151.552 458.439 150.656 460.711 150.656C464.487 150.656 466.535 153.28 466.535 157.088V168H462.407V158.4C462.407 155.552 461.671 153.984 459.463 153.984C457.223 153.984 455.879 155.552 455.879 158.4V168H451.783V151.04ZM479.158 156.48C478.838 154.752 477.334 153.728 475.702 153.728C474.102 153.728 472.854 154.56 472.886 155.936C472.918 157.312 474.614 157.888 476.31 158.208C480.95 159.008 483.51 160.224 483.51 163.456C483.51 166.816 480.246 168.384 476.278 168.384C471.638 168.384 468.502 166.208 468.214 162.624L472.406 162.4C472.726 164.192 474.07 165.28 476.182 165.28C477.59 165.28 479.286 164.768 479.254 163.36C479.254 161.728 477.366 161.472 475.638 161.088C471.446 160.256 468.63 159.168 468.63 156C468.63 152.672 471.382 150.656 475.926 150.656C479.894 150.656 482.742 152.8 483.318 156.288L479.158 156.48ZM485.173 156.224C485.845 152.672 488.565 150.656 492.757 150.656C497.653 150.656 500.213 153.184 500.213 157.952V163.776C500.213 164.736 500.629 165.024 501.269 165.024H501.941V168L500.981 168.032C499.669 168.064 496.981 168.096 496.661 165.408C495.861 167.104 493.941 168.384 490.997 168.384C487.573 168.384 484.885 166.56 484.885 163.552C484.885 160.288 487.349 159.168 491.349 158.4L496.085 157.472C496.085 154.848 494.965 153.6 492.757 153.6C490.933 153.6 489.749 154.592 489.365 156.448L485.173 156.224ZM489.141 163.424C489.141 164.576 490.133 165.504 492.117 165.504C494.421 165.504 496.181 163.808 496.181 160.48V160.256L492.949 160.832C490.805 161.216 489.141 161.504 489.141 163.424ZM503.484 151.04H507.196L507.324 153.856C508.22 151.552 510.14 150.656 512.412 150.656C516.188 150.656 518.236 153.28 518.236 157.088V168H514.108V158.4C514.108 155.552 513.372 153.984 511.164 153.984C508.924 153.984 507.58 155.552 507.58 158.4V168H503.484V151.04ZM519.914 159.52C519.914 154.144 523.242 150.656 528.33 150.656C532.714 150.656 536.234 153.664 536.298 159.648V160.64H524.234C524.426 163.456 525.898 165.152 528.33 165.152C529.866 165.152 531.274 164.256 531.882 162.784L536.074 163.104C535.05 166.336 531.978 168.384 528.33 168.384C523.242 168.384 519.914 164.896 519.914 159.52ZM524.266 157.92H532.074C531.754 155.008 530.154 153.888 528.33 153.888C526.058 153.888 524.586 155.392 524.266 157.92ZM538.004 145.28H542.164V152.32C542.164 155.168 541.716 158.112 541.492 160.96H538.708C538.484 158.112 538.004 155.168 538.004 152.32V145.28ZM537.716 168V163.68H542.292V168H537.716Z" fill="#EDEDED"/>
<path d="M141.704 185.28H145.416L149.832 203.232L154.216 185.28H157.736L162.184 203.232L166.568 185.28H170.28L164.264 208H160.2L155.976 191.808L151.752 208H147.752L141.704 185.28ZM171.915 185.28H175.307V193.344C176.299 191.456 178.219 190.656 180.299 190.656C183.819 190.656 186.027 193.184 186.027 197.088V208H182.635V198.304C182.635 195.232 181.611 193.664 179.339 193.664C176.875 193.664 175.307 195.296 175.307 198.304V208H171.915V185.28ZM187.937 199.52C187.937 194.144 191.105 190.656 196.033 190.656C200.097 190.656 203.521 193.376 203.681 199.392L203.713 200.48H191.521C191.745 203.648 193.377 205.504 196.033 205.504C197.697 205.504 199.233 204.512 199.905 202.88L203.458 203.136C202.465 206.368 199.49 208.384 196.033 208.384C191.105 208.384 187.937 204.896 187.937 199.52ZM191.585 197.952H200.129C199.745 194.72 197.953 193.536 196.033 193.536C193.569 193.536 191.969 195.168 191.585 197.952ZM205.882 191.04H208.986L209.082 193.888C209.946 191.616 211.93 190.656 214.234 190.656C218.042 190.656 219.994 193.376 219.994 197.088V208H216.602V198.144C216.602 195.136 215.674 193.504 213.306 193.504C210.842 193.504 209.274 195.136 209.274 198.144V208H205.882V191.04ZM229.661 191.04H233.053V208H229.661V191.04ZM229.597 188.544V185.312H233.149V188.544H229.597ZM246.283 196.384C245.931 194.56 244.235 193.472 242.475 193.472C240.747 193.472 239.339 194.368 239.339 195.872C239.371 197.408 241.323 198.016 243.115 198.368C247.339 199.136 250.027 200.256 250.027 203.584C250.027 206.912 246.699 208.384 243.083 208.384C238.763 208.384 235.659 206.208 235.403 202.656L238.891 202.432C239.243 204.352 240.715 205.568 243.051 205.568C244.587 205.568 246.507 205.024 246.507 203.424C246.475 201.6 244.331 201.376 242.507 200.96C238.891 200.192 235.819 199.2 235.819 195.968C235.819 192.672 238.507 190.656 242.731 190.656C246.411 190.656 249.227 192.8 249.771 196.192L246.283 196.384ZM258.705 191.04H262.097V208H258.705V191.04ZM258.641 188.544V185.312H262.193V188.544H258.641ZM266.106 187.2H269.498V191.04H273.978V193.792H269.498V203.136C269.498 204.512 270.17 205.216 271.482 205.216H273.946V208H271.13C267.866 208 266.106 206.304 266.106 203.136V193.792H263.514V191.04H266.106V187.2ZM282.375 185.28H285.767V193.344C286.759 191.456 288.679 190.656 290.759 190.656C294.279 190.656 296.487 193.184 296.487 197.088V208H293.095V198.304C293.095 195.232 292.071 193.664 289.799 193.664C287.335 193.664 285.767 195.296 285.767 198.304V208H282.375V185.28ZM298.779 196.128C299.451 192.704 302.139 190.656 306.043 190.656C310.651 190.656 313.179 193.216 313.179 197.856V204.16C313.179 205.024 313.563 205.344 314.235 205.344H314.907V208H313.851C312.315 208.032 310.235 207.776 310.075 205.376C309.307 207.008 307.419 208.384 304.603 208.384C301.179 208.384 298.491 206.56 298.491 203.552C298.491 200.16 301.019 199.168 304.923 198.432L309.787 197.472C309.755 194.752 308.507 193.408 306.043 193.408C304.059 193.408 302.747 194.432 302.299 196.352L298.779 196.128ZM302.011 203.488C302.011 204.736 303.099 205.76 305.339 205.76C307.867 205.728 309.851 203.936 309.851 200.288V200.064L306.235 200.704C303.899 201.12 302.011 201.344 302.011 203.488ZM316.686 212.8V191.04H319.854L319.95 193.568C320.878 191.68 322.67 190.656 325.102 190.656C330.062 190.656 332.398 194.752 332.398 199.52C332.398 204.288 330.062 208.384 325.102 208.384C322.798 208.384 321.038 207.424 320.078 205.632V212.8H316.686ZM319.79 199.52C319.79 202.56 321.166 205.472 324.302 205.472C327.502 205.472 328.846 202.624 328.846 199.52C328.846 196.448 327.47 193.568 324.302 193.568C321.166 193.568 319.79 196.48 319.79 199.52ZM334.606 212.8V191.04H337.774L337.87 193.568C338.798 191.68 340.59 190.656 343.022 190.656C347.982 190.656 350.318 194.752 350.318 199.52C350.318 204.288 347.982 208.384 343.022 208.384C340.718 208.384 338.958 207.424 337.998 205.632V212.8H334.606ZM337.71 199.52C337.71 202.56 339.086 205.472 342.222 205.472C345.422 205.472 346.766 202.624 346.766 199.52C346.766 196.448 345.39 193.568 342.222 193.568C339.086 193.568 337.71 196.48 337.71 199.52ZM351.723 199.52C351.723 194.144 354.891 190.656 359.819 190.656C363.883 190.656 367.307 193.376 367.467 199.392L367.499 200.48H355.307C355.531 203.648 357.163 205.504 359.819 205.504C361.483 205.504 363.019 204.512 363.691 202.88L367.243 203.136C366.251 206.368 363.275 208.384 359.819 208.384C354.891 208.384 351.723 204.896 351.723 199.52ZM355.371 197.952H363.915C363.531 194.72 361.739 193.536 359.819 193.536C357.355 193.536 355.755 195.168 355.371 197.952ZM369.667 191.04H372.771L372.867 193.888C373.731 191.616 375.715 190.656 378.019 190.656C381.827 190.656 383.779 193.376 383.779 197.088V208H380.387V198.144C380.387 195.136 379.459 193.504 377.091 193.504C374.627 193.504 373.059 195.136 373.059 198.144V208H369.667V191.04ZM387.119 191.04H390.511V208H387.119V191.04ZM387.055 188.544V185.312H390.607V188.544H387.055ZM393.447 191.04H396.551L396.647 193.888C397.511 191.616 399.495 190.656 401.799 190.656C405.607 190.656 407.559 193.376 407.559 197.088V208H404.167V198.144C404.167 195.136 403.239 193.504 400.871 193.504C398.407 193.504 396.839 195.136 396.839 198.144V208H393.447V191.04ZM416.925 207.136C412.541 207.136 409.469 203.808 409.469 198.976C409.469 194.048 412.509 190.656 416.893 190.656C419.165 190.656 421.085 191.808 421.885 193.696V191.04H425.181V206.208C425.181 210.688 421.949 213.184 417.341 213.184C413.629 213.184 410.813 211.264 409.981 208.288L413.469 208.064C414.077 209.504 415.453 210.368 417.373 210.368C420.125 210.368 421.757 209.152 421.757 206.784V204.32C420.925 206.016 419.037 207.136 416.925 207.136ZM412.989 198.944C412.989 202.272 414.749 204.352 417.469 204.352C420.093 204.352 421.821 202.272 421.853 198.944C421.917 195.648 420.189 193.568 417.469 193.568C414.717 193.568 412.989 195.648 412.989 198.944ZM436.658 187.2H440.05V191.04H444.53V193.792H440.05V203.136C440.05 204.512 440.722 205.216 442.034 205.216H444.498V208H441.682C438.418 208 436.658 206.304 436.658 203.136V193.792H434.066V191.04H436.658V187.2ZM446.599 185.28H449.991V193.344C450.983 191.456 452.903 190.656 454.983 190.656C458.503 190.656 460.711 193.184 460.711 197.088V208H457.319V198.304C457.319 195.232 456.295 193.664 454.023 193.664C451.559 193.664 449.991 195.296 449.991 198.304V208H446.599V185.28ZM464.052 191.04H467.444V208H464.052V191.04ZM463.988 188.544V185.312H467.54V188.544H463.988ZM480.673 196.384C480.321 194.56 478.625 193.472 476.865 193.472C475.137 193.472 473.729 194.368 473.729 195.872C473.761 197.408 475.713 198.016 477.505 198.368C481.729 199.136 484.417 200.256 484.417 203.584C484.417 206.912 481.089 208.384 477.473 208.384C473.153 208.384 470.049 206.208 469.793 202.656L473.281 202.432C473.633 204.352 475.105 205.568 477.441 205.568C478.977 205.568 480.897 205.024 480.897 203.424C480.865 201.6 478.721 201.376 476.897 200.96C473.281 200.192 470.209 199.2 470.209 195.968C470.209 192.672 472.897 190.656 477.121 190.656C480.801 190.656 483.617 192.8 484.161 196.192L480.673 196.384ZM491.4 191.04H494.824L499.624 204.416L504.296 191.04H507.72L500.904 209.984C500.232 211.904 498.92 212.8 496.808 212.8H494.344V210.048H496.36C497.256 210.048 497.736 209.728 498.056 208.896L498.6 207.488H497.576L491.4 191.04ZM507.494 199.52C507.494 194.144 510.662 190.656 515.59 190.656C519.654 190.656 523.078 193.376 523.238 199.392L523.27 200.48H511.078C511.302 203.648 512.934 205.504 515.59 205.504C517.254 205.504 518.79 204.512 519.462 202.88L523.014 203.136C522.022 206.368 519.046 208.384 515.59 208.384C510.662 208.384 507.494 204.896 507.494 199.52ZM511.142 197.952H519.686C519.302 194.72 517.51 193.536 515.59 193.536C513.126 193.536 511.526 195.168 511.142 197.952ZM525.109 196.128C525.781 192.704 528.469 190.656 532.373 190.656C536.981 190.656 539.509 193.216 539.509 197.856V204.16C539.509 205.024 539.893 205.344 540.565 205.344H541.237V208H540.181C538.645 208.032 536.565 207.776 536.405 205.376C535.637 207.008 533.749 208.384 530.933 208.384C527.509 208.384 524.821 206.56 524.821 203.552C524.821 200.16 527.349 199.168 531.253 198.432L536.117 197.472C536.085 194.752 534.837 193.408 532.373 193.408C530.389 193.408 529.077 194.432 528.629 196.352L525.109 196.128ZM528.341 203.488C528.341 204.736 529.429 205.76 531.669 205.76C534.197 205.728 536.181 203.936 536.181 200.288V200.064L532.565 200.704C530.229 201.12 528.341 201.344 528.341 203.488ZM543.015 191.04H546.119L546.215 194.24C546.823 192.064 548.103 191.04 550.279 191.04H551.911V193.824H550.247C547.591 193.824 546.407 195.296 546.407 198.112V208H543.015V191.04ZM559.272 201.184C559.272 198.336 559.976 196.736 562.28 194.976C563.816 193.728 565.32 193.184 565.32 191.2C565.32 189.248 563.72 187.872 561.192 187.872C558.824 187.872 557.224 189.632 556.872 192.192L553.288 192C553.704 187.84 556.872 184.768 561.064 184.768C565.672 184.768 568.872 187.424 568.872 191.2C568.872 193.408 567.72 195.072 565 196.864C563.304 198.016 562.696 199.104 562.696 201.184H559.272ZM558.92 208V204.096H562.92V208H558.92Z" fill="#A1A1A1"/>
<rect width="177" height="176" transform="translate(980 89)" fill="black"/>
<path d="M1009 138.6C1009 137.716 1009.72 137 1010.61 137H1052.42C1053.31 137 1054.03 137.716 1054.03 138.6V154.6C1054.03 155.484 1053.31 156.2 1052.42 156.2H1010.61C1009.72 156.2 1009 155.484 1009 154.6V138.6Z" fill="#A1A1A1"/>
<path d="M1058.85 138.6C1058.85 137.716 1059.57 137 1060.46 137H1126.39C1127.28 137 1128 137.716 1128 138.6V154.6C1128 155.484 1127.28 156.2 1126.39 156.2H1079.76C1078.87 156.2 1078.15 156.916 1078.15 157.8V215.4C1078.15 216.284 1077.43 217 1076.54 217H1060.46C1059.57 217 1058.85 216.284 1058.85 215.4V138.6Z" fill="#A1A1A1"/>
</svg>
