<svg width="81" height="69" viewBox="0 0 81 69" fill="none" xmlns="http://www.w3.org/2000/svg">
<path d="M80.3515 58.6424H0.282227V58.3613H80.3515V58.6424Z" fill="white"/>
<path d="M21.8781 66.6809C22.4621 66.6809 23.0569 66.2771 23.0569 65.4271C23.0569 64.5778 22.4621 64.1741 21.8781 64.1741C21.2992 64.1741 20.7044 64.5778 20.7044 65.4271C20.7044 66.2771 21.2992 66.6809 21.8781 66.6809ZM21.8781 63.4675C22.9026 63.4675 23.8161 64.2166 23.8161 65.4329C23.8161 66.6434 22.9026 67.3925 21.8781 67.3925C20.858 67.3925 19.9452 66.6434 19.9452 65.4329C19.9452 64.2166 20.858 63.4675 21.8781 63.4675Z" fill="white"/>
<path d="M25.1391 67.0713V63.7887C25.1391 63.656 25.2472 63.5479 25.3806 63.5479H27.2768C27.4101 63.5479 27.5183 63.656 27.5183 63.7887V64.0021C27.5183 64.1355 27.4101 64.2436 27.2768 64.2436H25.8723V65.1729H27.0965C27.2299 65.1729 27.338 65.2811 27.338 65.4137V65.6055C27.338 65.7389 27.2299 65.847 27.0965 65.847H25.8774V67.0713C25.8774 67.2046 25.7692 67.3128 25.6358 67.3128H25.3806C25.2472 67.3128 25.1391 67.2046 25.1391 67.0713Z" fill="white"/>
<path d="M29.0372 67.0713V63.7887C29.0372 63.656 29.1454 63.5479 29.2788 63.5479H31.1756C31.3083 63.5479 31.4164 63.656 31.4164 63.7887V64.0021C31.4164 64.1355 31.3083 64.2436 31.1756 64.2436H29.7704V65.1729H30.9947C31.128 65.1729 31.2362 65.2811 31.2362 65.4137V65.6055C31.2362 65.7389 31.128 65.847 30.9947 65.847H29.7755V67.0713C29.7755 67.2046 29.6674 67.3128 29.534 67.3128H29.2788C29.1454 67.3128 29.0372 67.2046 29.0372 67.0713Z" fill="white"/>
<path d="M32.9356 67.0713V63.7887C32.9356 63.656 33.0437 63.5479 33.1771 63.5479H33.4381C33.5715 63.5479 33.6796 63.656 33.6796 63.7887V67.0713C33.6796 67.2046 33.5715 67.3128 33.4381 67.3128H33.1771C33.0437 67.3128 32.9356 67.2046 32.9356 67.0713Z" fill="white"/>
<path d="M35.108 65.4329C35.108 64.2325 36.0164 63.4675 37.0251 63.4675C37.9256 63.4675 38.4483 63.9441 38.6696 64.4682C38.7244 64.598 38.653 64.7465 38.5182 64.7891L38.2817 64.8641C38.1657 64.9001 38.0416 64.8446 37.9905 64.7343C37.852 64.4401 37.5593 64.1741 37.0251 64.1741C36.4627 64.1741 35.8679 64.5778 35.8679 65.4329C35.8679 66.2346 36.4303 66.6751 37.0359 66.6751C37.5658 66.6751 37.8722 66.3896 38.0193 66.0933C38.0719 65.9873 38.1923 65.9354 38.3048 65.9693L38.5391 66.0399C38.6754 66.0818 38.7496 66.2324 38.6927 66.3629C38.4706 66.8755 37.9436 67.3925 37.0359 67.3925C35.9847 67.3925 35.108 66.6326 35.108 65.4329Z" fill="white"/>
<path d="M40.1165 67.0713V63.7887C40.1165 63.656 40.2246 63.5479 40.358 63.5479H40.619C40.7523 63.5479 40.8598 63.656 40.8598 63.7887V67.0713C40.8598 67.2046 40.7523 67.3128 40.619 67.3128H40.358C40.2246 67.3128 40.1165 67.2046 40.1165 67.0713Z" fill="white"/>
<path d="M43.4516 65.7836H44.4927L43.9721 64.3604L43.4516 65.7836ZM44.7371 66.4527H43.2072L42.952 67.1542C42.9174 67.2493 42.8265 67.3128 42.7256 67.3128H42.4696C42.3009 67.3128 42.1841 67.1433 42.2447 66.9855L43.5042 63.7029C43.5396 63.6092 43.629 63.5479 43.7292 63.5479H44.2468C44.347 63.5479 44.4365 63.6092 44.4725 63.7029L45.7227 66.9855C45.7825 67.1433 45.6657 67.3128 45.497 67.3128H45.2194C45.1178 67.3128 45.0269 67.2493 44.9923 67.1542L44.7371 66.4527Z" fill="white"/>
<path d="M47.0054 67.0713V63.7887C47.0054 63.656 47.1135 63.5479 47.2469 63.5479H47.4964C47.6297 63.5479 47.7379 63.656 47.7379 63.7887V66.612H49.1748C49.3082 66.612 49.4163 66.7201 49.4163 66.8535V67.0713C49.4163 67.2046 49.3082 67.3128 49.1748 67.3128H47.2469C47.1135 67.3128 47.0054 67.2046 47.0054 67.0713Z" fill="white"/>
<path d="M52.8156 67.0713V63.7887C52.8156 63.656 52.9237 63.5479 53.0571 63.5479H53.3174C53.4508 63.5479 53.5589 63.656 53.5589 63.7887V67.0713C53.5589 67.2046 53.4508 67.3128 53.3174 67.3128H53.0571C52.9237 67.3128 52.8156 67.2046 52.8156 67.0713Z" fill="white"/>
<path d="M54.9878 65.4329C54.9878 64.2325 55.8962 63.4675 56.9049 63.4675C57.8053 63.4675 58.328 63.9441 58.5487 64.4682C58.6042 64.598 58.5321 64.7465 58.398 64.7891L58.1615 64.8641C58.0454 64.9001 57.9214 64.8446 57.8702 64.7343C57.7318 64.4401 57.4391 64.1741 56.9049 64.1741C56.3425 64.1741 55.7477 64.5778 55.7477 65.4329C55.7477 66.2346 56.3101 66.6751 56.9157 66.6751C57.4456 66.6751 57.752 66.3896 57.8991 66.0933C57.9517 65.9873 58.0721 65.9354 58.1846 65.9693L58.4189 66.0399C58.5551 66.0818 58.6294 66.2324 58.5725 66.3629C58.3504 66.8755 57.8226 67.3925 56.9157 67.3925C55.8638 67.3925 54.9878 66.6326 54.9878 65.4329Z" fill="white"/>
<path d="M61.3137 65.2631C61.6799 65.2631 61.9027 65.0504 61.9027 64.7267C61.9027 64.3921 61.6799 64.1852 61.3137 64.1852H60.7347V65.2631H61.3137ZM60.729 65.8946V67.0713C60.729 67.2046 60.6215 67.3128 60.4882 67.3128H60.238C60.1046 67.3128 59.9964 67.2046 59.9964 67.0713V63.7887C59.9964 63.656 60.1046 63.5479 60.238 63.5479H61.4038C62.1471 63.5479 62.641 64.0417 62.641 64.7216C62.641 65.4065 62.1471 65.8946 61.4038 65.8946H60.729Z" fill="white"/>
<path d="M68.0373 67.0713V65.7519H66.3964V67.0713C66.3964 67.2046 66.2883 67.3128 66.1549 67.3128H65.9047C65.7713 67.3128 65.6632 67.2046 65.6632 67.0713V63.7887C65.6632 63.656 65.7713 63.5479 65.9047 63.5479H66.1549C66.2883 63.5479 66.3964 63.656 66.3964 63.7887V65.0612H68.0373V63.7887C68.0373 63.656 68.1455 63.5479 68.2788 63.5479H68.5341C68.6674 63.5479 68.7756 63.656 68.7756 63.7887V67.0713C68.7756 67.2046 68.6674 67.3128 68.5341 67.3128H68.2788C68.1455 67.3128 68.0373 67.2046 68.0373 67.0713Z" fill="white"/>
<path d="M70.5016 65.9797V63.7887C70.5016 63.656 70.6097 63.5479 70.7431 63.5479H70.9933C71.1266 63.5479 71.2348 63.656 71.2348 63.7887V65.9271C71.2348 66.4209 71.5109 66.6812 71.9464 66.6812C72.3927 66.6812 72.663 66.4209 72.663 65.9271V63.7887C72.663 63.656 72.7712 63.5479 72.9046 63.5479H73.1547C73.2881 63.5479 73.3963 63.656 73.3963 63.7887V65.9797C73.3963 66.904 72.7539 67.3979 71.9464 67.3979C71.1447 67.3979 70.5016 66.904 70.5016 65.9797Z" fill="white"/>
<path d="M76.3337 66.7021C76.6891 66.7021 76.9018 66.5161 76.9018 66.2133C76.9018 65.9163 76.7108 65.7094 76.3438 65.7094H75.7389V66.7021H76.3337ZM76.2594 65.1037C76.594 65.1037 76.7958 64.9177 76.7958 64.6308C76.7958 64.3446 76.6098 64.1636 76.2537 64.1636H75.7389V65.1037H76.2594ZM76.3705 63.5479C77.1037 63.5479 77.5175 63.9776 77.5175 64.5623C77.5175 64.9494 77.2839 65.2631 76.971 65.369C77.3373 65.4592 77.6343 65.7944 77.6343 66.2616C77.6343 66.8723 77.1779 67.3128 76.4714 67.3128H75.258C75.1246 67.3128 75.0165 67.2046 75.0165 67.0713V63.7887C75.0165 63.656 75.1246 63.5479 75.258 63.5479H76.3705Z" fill="white"/>
<path d="M10.6563 65.4013C10.9043 65.1057 11.2626 64.7048 11.6743 64.3436C12.4414 63.6717 12.9403 63.5304 13.2258 63.5304C14.3015 63.5304 15.1789 64.384 15.1789 65.433C15.1789 66.4755 14.3022 67.3284 13.2258 67.3349C13.1869 67.3349 13.1393 67.3313 13.0816 67.3205C13.0823 67.3212 13.0823 67.3212 13.083 67.3212C12.5279 67.1085 12.0311 66.769 11.7319 66.4943C11.4911 66.2737 11.055 65.8223 10.6563 65.4013ZM9.54308 66.4121C9.23811 66.7567 8.93603 67.0602 8.64331 67.3162C7.82646 68.0321 7.02258 68.4106 6.31675 68.4106C5.49917 68.4106 4.73278 68.0999 4.15745 67.5361C3.585 66.9744 3.26994 66.2275 3.26994 65.433C3.26994 65.2023 3.29733 64.9723 3.35213 64.7488C3.3615 64.7221 3.47469 64.4136 3.79552 64.1136C4.21296 63.7236 4.77892 63.526 5.47754 63.5253C4.72629 63.8519 4.20071 64.5859 4.20071 65.433C4.20071 66.5844 5.16032 67.5209 6.34054 67.5209C6.7998 67.5209 7.36288 67.2318 8.01391 66.6615C8.30662 66.4049 8.60366 66.1028 8.91656 65.7423L9.03912 65.601C9.03912 65.601 9.65916 66.2636 9.66637 66.2715L9.54308 66.4121ZM8.90935 65.464C8.66134 65.7589 8.30302 66.1605 7.89134 66.5217C7.12423 67.1936 6.62532 67.3349 6.34054 67.3349C5.26413 67.3349 4.38672 66.482 4.38672 65.433C4.38672 64.3898 5.26341 63.5369 6.34054 63.5304C6.37947 63.5304 6.42633 63.5347 6.48401 63.5448C7.03916 63.7575 7.53447 64.097 7.83439 64.371C8.07447 64.5916 8.51066 65.043 8.90935 65.464ZM10.0225 64.4532C10.3275 64.1093 10.6303 63.8058 10.9223 63.5491C11.7507 62.8231 12.5257 62.4554 13.2258 62.4554C14.9186 62.4554 16.2957 63.7914 16.2957 65.433C16.2957 65.663 16.2683 65.893 16.2135 66.1165C16.2048 66.1424 16.0916 66.4517 15.7701 66.7517C15.3526 67.1417 14.7867 67.34 14.0881 67.34C14.8393 67.0134 15.3656 66.2801 15.3656 65.433C15.3656 64.2809 14.4053 63.3444 13.2258 63.3444C12.7658 63.3444 12.2027 63.6335 11.5517 64.2038C11.259 64.4604 10.9627 64.7625 10.649 65.1237L10.5265 65.2643L9.89708 64.5916L10.0225 64.4532ZM16.4824 65.433C16.4824 63.6883 15.0203 62.2694 13.2258 62.2694C12.4774 62.2694 11.6627 62.653 10.7997 63.4092C10.3924 63.7668 10.0384 64.149 9.77235 64.4568C8.83942 63.4172 7.58854 62.2694 6.34054 62.2694C4.83155 62.2694 3.51579 63.3141 3.17333 64.6983C3.11493 64.9341 3.08393 65.1799 3.08393 65.433C3.08393 67.177 4.52226 68.5966 6.31675 68.5966C7.06511 68.5966 7.90288 68.2131 8.76588 67.4568C9.17395 67.0992 9.52722 66.7163 9.79326 66.4092C10.7262 67.4481 11.9771 68.5966 13.2258 68.5966C14.7341 68.5966 16.0505 67.5512 16.393 66.167C16.4514 65.9312 16.4824 65.6853 16.4824 65.433Z" fill="white"/>
<path d="M2.46084 47.7309V54.1756H4.85302V47.7309H2.46084ZM2.31665 47.5867H4.99721V54.3198H2.31665V47.5867Z" fill="white"/>
<path d="M9.45662 52.1265C9.12209 52.1265 8.84379 52.004 8.64625 51.7978C8.4451 51.5873 8.33047 51.2917 8.33047 50.9535C8.33047 50.6147 8.4451 50.3191 8.64625 50.1086C8.84379 49.9024 9.12209 49.7798 9.45662 49.7798C9.75077 49.7798 9.9649 49.8613 10.1242 49.991C10.2699 50.11 10.3672 50.2672 10.4371 50.4388H12.8459C12.7637 49.6096 12.3816 48.8908 11.7825 48.3775C11.1768 47.8599 10.3492 47.552 9.38091 47.552C8.29514 47.552 7.38023 47.9053 6.7364 48.503C6.08609 49.1064 5.70974 49.9608 5.70974 50.9535C5.70974 51.9456 6.08609 52.7999 6.7364 53.4041C7.38023 54.0018 8.29514 54.3551 9.38091 54.3551C10.3492 54.3551 11.1768 54.0465 11.7825 53.5288C12.3816 53.0155 12.7637 52.2967 12.8459 51.4676H10.4371C10.3672 51.6392 10.2699 51.7963 10.1242 51.9153C9.9649 52.0451 9.75077 52.1265 9.45662 52.1265ZM8.75007 51.6983C8.92022 51.8764 9.16319 51.9824 9.45662 51.9824C9.714 51.9824 9.89857 51.9131 10.0341 51.8036C10.1697 51.6925 10.2583 51.5382 10.3203 51.3703L10.3384 51.3234H13.0023L12.9966 51.4012C12.9274 52.3017 12.5229 53.084 11.8755 53.6377C11.2446 54.1777 10.3845 54.4985 9.38091 54.4985C8.25692 54.4985 7.30885 54.1308 6.63835 53.5094C5.95848 52.8785 5.56555 51.9874 5.56555 50.9535C5.56555 49.9189 5.95848 49.0278 6.63835 48.3977C7.30885 47.7755 8.25692 47.4078 9.38091 47.4078C10.3845 47.4078 11.2446 47.7286 11.8755 48.2686C12.5229 48.8223 12.9274 49.6046 12.9966 50.5051L13.0023 50.583H10.3384L10.3203 50.5361C10.2583 50.3681 10.1697 50.2138 10.0341 50.1028C9.89857 49.9932 9.714 49.924 9.45662 49.924C9.16319 49.924 8.92022 50.03 8.75007 50.208C8.57415 50.3919 8.47466 50.6529 8.47466 50.9535C8.47466 51.2542 8.57415 51.5152 8.75007 51.6983Z" fill="white"/>
<path d="M17.0283 47.7309H13.709V54.1756H16.1019V52.689H17.0283C17.9605 52.689 18.6548 52.4684 19.1177 52.0574C19.5913 51.6356 19.8257 51.0098 19.8257 50.2096C19.8257 49.4093 19.5913 48.7835 19.1177 48.3617C18.6548 47.9508 17.9605 47.7309 17.0283 47.7309ZM17.0283 47.5867C17.9973 47.5867 18.724 47.8188 19.2136 48.2543C19.7197 48.7049 19.9699 49.3675 19.9699 50.2096C19.9699 51.0517 19.7197 51.7142 19.2136 52.1648C18.724 52.6003 17.9973 52.8332 17.0283 52.8332H16.246V54.3198H13.5648V47.5867H17.0283ZM16.6866 50.7712H16.1019V49.6479H16.6866C16.9461 49.6479 17.1429 49.6768 17.2792 49.7582C17.4263 49.8469 17.4998 49.9882 17.4998 50.2096C17.4998 50.4259 17.4263 50.5679 17.2799 50.6573C17.1437 50.7402 16.9461 50.7712 16.6866 50.7712ZM16.246 50.627H16.6866C16.9209 50.627 17.0939 50.6018 17.2049 50.534C17.3051 50.4727 17.3556 50.3703 17.3556 50.2096C17.3556 50.0445 17.3059 49.9421 17.2057 49.8815C17.0946 49.8152 16.9216 49.7921 16.6866 49.7921H16.246V50.627Z" fill="white"/>
<path d="M23.3426 47.7309V54.1756H25.7348V47.7309H23.3426ZM23.1984 47.5867H25.879V54.3198H23.1984V47.5867Z" fill="white"/>
<path d="M31.56 47.7309V51.0062H31.3754L29.8744 47.7309H26.7338V54.1756H29.126V50.9003H29.3099L30.896 54.1756H33.9522V47.7309H31.56ZM31.4158 50.7496V47.5867C32.3091 47.5867 33.2031 47.5867 34.0964 47.5867V54.3198H30.8059L29.2702 51.149V54.3198H26.5897V47.5867C27.7151 47.5867 28.8405 47.5867 29.966 47.5867L31.4158 50.7496Z" fill="white"/>
<path d="M38.4892 47.7309H34.9514V54.1756H38.4892C39.5894 54.1756 40.433 53.8764 41.0047 53.335C41.5916 52.7791 41.8944 51.9644 41.8944 50.9529C41.8944 49.9421 41.5916 49.1274 41.0047 48.5715C40.433 48.0301 39.5894 47.7309 38.4892 47.7309ZM38.4892 47.5867C39.6276 47.5867 40.5051 47.9003 41.1042 48.467C41.7206 49.0517 42.0386 49.9017 42.0386 50.9529C42.0386 52.0048 41.7206 52.8548 41.1042 53.4395C40.5051 54.0062 39.6276 54.3198 38.4892 54.3198H34.8073V47.5867H38.4892ZM38.1381 52.061H37.3436V49.8455H38.1381C38.5592 49.8455 38.8641 49.9486 39.0689 50.1274C39.296 50.3256 39.3977 50.6126 39.3977 50.9529C39.3977 51.2939 39.296 51.5808 39.0689 51.7791C38.8641 51.9579 38.5592 52.061 38.1381 52.061ZM37.4878 51.9168H38.1381C38.5224 51.9168 38.7956 51.8267 38.9744 51.671C39.1669 51.503 39.2535 51.2528 39.2535 50.9529C39.2535 50.6537 39.1669 50.4035 38.9744 50.2355C38.7956 50.0798 38.5224 49.9897 38.1381 49.9897H37.4878V51.9168Z" fill="white"/>
<path d="M42.7509 47.7309V54.1756H45.1431V47.7309H42.7509ZM42.6067 47.5867H45.2873V54.3198H42.6067V47.5867Z" fill="white"/>
<path d="M50.9533 54.1756H53.5163L51.5654 47.7309H47.9288L45.9779 54.1756H48.5402L48.7875 53.1309H50.7067L50.9533 54.1756ZM50.8393 54.3198L50.592 53.2751H48.9014L48.6541 54.3198H45.7832C46.4623 52.0754 47.1415 49.8311 47.8221 47.5867H51.6721C52.3512 49.8311 53.0311 52.0754 53.711 54.3198H50.8393ZM49.2301 51.2196L49.5567 49.8267H49.9367L50.2842 51.3076H49.2092L49.2301 51.2196ZM49.6707 49.9709L49.3909 51.1634H50.1025L49.8228 49.9709H49.6707Z" fill="white"/>
<path d="M61.5141 47.7309V49.9053H59.4031V47.7309H57.0109V54.1756H59.4031V52.0012H61.5141V54.1756H63.9062V47.7309H61.5141ZM61.3699 49.7611V47.5867H64.0504V54.3198H61.3699V52.1454H59.5473V54.3198H56.8667V47.5867H59.5473V49.7611H61.3699Z" fill="white"/>
<path d="M68.772 47.7309V51.2261C68.772 51.5304 68.7093 51.7575 68.5896 51.9118C68.4613 52.0754 68.2746 52.1547 68.0345 52.1547C67.7951 52.1547 67.6077 52.0754 67.4801 51.9111C67.3604 51.7568 67.2976 51.5304 67.2976 51.2261V47.7309H64.9055V51.2261C64.9055 52.2708 65.1297 53.0545 65.6308 53.5743C66.1318 54.0941 66.9155 54.3551 68.0345 54.3551C69.1541 54.3551 69.935 54.0941 70.4339 53.5743C70.9328 53.0552 71.1548 52.2708 71.1548 51.2261V47.7309H68.772ZM68.6278 51.2261V47.5867H71.299V51.2261C71.299 52.309 71.0647 53.1252 70.5377 53.6745C70.0107 54.2232 69.1952 54.4986 68.0345 54.4986C66.8744 54.4986 66.0569 54.2232 65.527 53.6745C64.9978 53.1252 64.7613 52.309 64.7613 51.2261V47.5867H67.4418V51.2261C67.4418 51.4972 67.4945 51.6948 67.594 51.8231C67.692 51.95 67.8413 52.0105 68.0345 52.0105C68.2284 52.0105 68.3777 51.95 68.4757 51.8231C68.5752 51.6948 68.6278 51.4972 68.6278 51.2261Z" fill="white"/>
<path d="M77.1116 50.7294L77.175 50.7215C77.4346 50.6905 77.6812 50.529 77.86 50.2766C78.0294 50.0365 78.1375 49.715 78.1375 49.3437C78.1375 48.7611 77.9667 48.3588 77.6148 48.1036C77.2565 47.8441 76.7071 47.7309 75.9581 47.7309H72.1542V54.1756H76.1383C76.8766 54.1756 77.4202 54.0329 77.7756 53.7452C78.1274 53.4611 78.299 53.0293 78.299 52.4503C78.299 52.0617 78.183 51.7063 77.9804 51.4352C77.7835 51.1713 77.5053 50.9875 77.1714 50.9298L77.1116 50.9197V50.7294ZM77.9768 50.3595C77.8138 50.5895 77.5983 50.7539 77.3632 50.8274C77.661 50.9176 77.9112 51.1014 78.0957 51.3487C78.3171 51.645 78.4432 52.03 78.4432 52.4503C78.4432 53.0754 78.2536 53.5433 77.8665 53.8569C77.4836 54.1662 76.9104 54.3198 76.1383 54.3198H72.01V47.5867H75.9581C76.7381 47.5867 77.3149 47.7085 77.6992 47.9875C78.0914 48.2716 78.2817 48.7114 78.2817 49.3437C78.2817 49.7453 78.1635 50.0964 77.9768 50.3595ZM75.1787 49.1959C75.346 49.1959 75.4988 49.2117 75.6156 49.2745C75.7425 49.3422 75.8211 49.4583 75.8211 49.6544C75.8211 49.8505 75.7418 49.9644 75.6142 50.03C75.4981 50.0899 75.3452 50.1029 75.1787 50.1029H74.3654V49.1959H75.1787ZM75.1787 49.3401H74.5096V49.9587H75.1787C75.3265 49.9587 75.4584 49.9486 75.5485 49.9024C75.6279 49.8613 75.6769 49.7871 75.6769 49.6544C75.6769 49.5203 75.6271 49.4439 75.5478 49.4014C75.4577 49.3531 75.3258 49.3401 75.1787 49.3401ZM75.2551 52.6349H74.3279V51.5873H75.2551C75.4462 51.5873 75.6192 51.6082 75.749 51.6818C75.8881 51.7604 75.9732 51.893 75.9732 52.1115C75.9732 52.335 75.8874 52.4669 75.7482 52.5448C75.6185 52.6169 75.4462 52.6349 75.2551 52.6349ZM74.4721 52.4907H75.2551C75.4245 52.4907 75.5752 52.4763 75.6783 52.4193C75.772 52.3674 75.829 52.2737 75.829 52.1115C75.829 51.9529 75.7713 51.8599 75.6776 51.8065C75.5745 51.7481 75.4245 51.7315 75.2551 51.7315H74.4721V52.4907Z" fill="white"/>
<path d="M78.0381 41.8016H72.6006V39.1369H78.3201V41.147H75.1874V41.5947H78.0381V41.8016ZM71.6013 41.8016H69.0736C69.0844 41.7526 69.0902 41.6978 69.0902 41.6365C69.0902 41.2313 68.8523 41.0864 68.4168 41.0864H67.7831V41.8016H65.197V39.1492H68.6742C70.6475 39.1492 71.6049 39.9725 71.6049 41.6365C71.6049 41.6928 71.6035 41.7476 71.6013 41.8016ZM64.1256 41.8016H58.6881V39.1369H64.4075V41.147H61.2749V41.5947H64.1256V41.8016ZM57.8042 41.8016H50.6031V39.1492H53.19V41.3842H55.2173V39.1492H57.8042V41.8016ZM49.8692 41.8016H47.3545C47.3552 41.7908 47.3552 41.78 47.3552 41.7685C47.3552 41.3835 47.0978 41.2804 46.583 41.2804H46.0488V41.8016H43.4619V39.1398H46.9399C48.9125 39.1398 49.8699 40.1073 49.8699 41.7685C49.8699 41.7793 49.8692 41.7908 49.8692 41.8016ZM40.7785 41.8016H36.4772C36.4311 41.6409 36.4087 41.4635 36.4087 41.2645C36.4087 39.0518 38.4317 38.9473 39.5348 38.9473C40.9285 38.9473 42.4958 39.483 42.4958 41.245H40.1058C40.1058 40.9004 39.8441 40.7187 39.5247 40.7252C39.2248 40.7252 39.0316 40.8312 39.0316 41.0915C39.0316 41.4282 39.7475 41.5731 40.3957 41.7187C40.5009 41.7439 40.6321 41.7699 40.7785 41.8016ZM35.1477 41.8016H32.5494L32.9971 39.1492H35.8766L35.1477 41.8016ZM31.9437 41.8016H28.1313L28.7571 39.1492H31.3244L31.9437 41.8016ZM27.5293 41.8016H24.9338L24.2056 39.1492H27.0743L27.5293 41.8016ZM23.3505 41.8016H17.913V39.1369H23.6324V41.147H20.4998V41.5947H23.3505V41.8016ZM16.9137 41.8016H14.386C14.3968 41.7526 14.4026 41.6978 14.4026 41.6365C14.4026 41.2313 14.1647 41.0864 13.7292 41.0864H13.0955V41.8016H10.5094V39.1492H13.9866C15.9592 39.1492 16.9173 39.9725 16.9173 41.6365C16.9173 41.6928 16.9159 41.7476 16.9137 41.8016ZM9.72639 41.8016H7.04078C6.88649 41.5515 6.63704 41.3705 6.20157 41.3755C5.82162 41.3755 5.51809 41.5385 5.33064 41.8016H2.38044C2.68757 40.1117 4.12374 38.9495 6.1237 38.9495C8.07465 38.9495 9.48414 40.1477 9.72639 41.8016Z" fill="white"/>
<path d="M2.38112 43.1946H5.33132C5.51949 43.457 5.82302 43.6192 6.20153 43.6192C6.63339 43.6192 6.88284 43.4397 7.05732 43.1946H9.77465C9.53096 44.8478 8.11714 46.046 6.12366 46.0619C4.12442 46.0619 2.68897 44.8932 2.38112 43.1946ZM10.5093 43.1946H16.4797C16.3665 43.346 16.2324 43.4786 16.0759 43.5918L17.3253 45.9177H14.5568L13.67 44.1153H13.0954V45.9177H10.5093V43.1946ZM17.9129 43.1946H23.3505V43.4469H20.4998V43.8954H23.6324V45.9054H17.9129V43.1946ZM25.3158 43.1946H29.8515L29.2141 45.9177H26.0628L25.3158 43.1946ZM30.2199 43.1946H34.7656L34.0179 45.9177H30.8572L30.2199 43.1946ZM38.4223 43.1946H42.6393C42.6775 43.346 42.6991 43.514 42.6991 43.7014C42.6991 45.6351 41.3343 46.0597 39.5831 46.0597C37.0381 46.0597 36.1477 44.6877 36.1477 43.6048H38.586C38.586 44.0547 39.0121 44.1982 39.3502 44.1946C39.7085 44.1946 39.883 44.0785 39.883 43.8658C39.883 43.5464 39.4569 43.4887 38.7021 43.2761C38.6054 43.2487 38.5124 43.222 38.4223 43.1946ZM43.4619 43.1946H49.544C49.1128 43.9689 48.2506 44.3964 46.9398 44.3964H46.0487V45.9177H43.4619V43.1946ZM50.6031 43.1946H57.8041V45.9177H55.2173V43.6827H53.1899V45.9177H50.6031V43.1946ZM58.688 43.1946H64.1256V43.4469H61.2749V43.8954H64.4075V45.9054H58.688V43.1946ZM65.1969 43.1946H71.1673C71.0541 43.346 70.92 43.4786 70.7635 43.5918L72.013 45.9177H69.2452L68.3577 44.1153H67.783V45.9177H65.1969V43.1946ZM72.6006 43.1946H78.0381V43.4469H75.1874V43.8954H78.32V45.9054H72.6006V43.1946Z" fill="white"/>
<path d="M2.39773 41.7134H5.40057C5.22249 41.9117 5.12155 42.1856 5.12155 42.4971C5.12155 42.8179 5.22825 43.0977 5.41643 43.2981H2.40134C2.34726 43.0422 2.31915 42.774 2.31915 42.4949C2.31915 42.2239 2.34582 41.9621 2.39773 41.7134ZM6.98021 41.7134H9.71196C9.7307 41.8201 9.7444 41.929 9.75305 42.04H7.1554C7.11142 41.9225 7.05519 41.8107 6.98021 41.7134ZM10.5093 41.7134H13.0955V42.177H13.7292C14.1358 42.177 14.3694 42.0508 14.399 41.7134H16.9159C16.9043 42.3839 16.7306 42.9109 16.3961 43.2981H10.5093V41.7134ZM17.913 41.7134H23.3505V43.2981H17.913V41.7134ZM24.9093 41.7134H27.5141L27.7455 43.0645H27.8328L28.1522 41.7134H31.9228L32.2386 43.0645H32.3359L32.5638 41.7134H35.1722L34.7368 43.2981H30.2444L30.0699 42.5526H30.0015L29.827 43.2981H25.344L24.9093 41.7134ZM36.4548 41.7134H40.3711L40.3957 41.7187C40.9876 41.86 42.4158 42.0169 42.6624 43.2981H38.7836C38.7569 43.2909 38.7302 43.2833 38.7021 43.2761C37.3402 42.8961 36.6329 42.5094 36.4548 41.7134ZM43.4619 41.7134H46.0488V42.2563H46.583C47.0978 42.2563 47.3552 42.1434 47.3552 41.7685C47.3552 41.749 47.3544 41.7307 47.353 41.7134H49.8692C49.8692 41.7314 49.8699 41.7497 49.8699 41.7685C49.8699 42.3755 49.7416 42.8893 49.4827 43.2981H43.4619V41.7134ZM50.6031 41.7134L57.8042 41.7127V43.2981H50.6031V41.7134ZM58.6881 41.7127H64.1256V43.2981H58.6881V41.7127ZM65.197 41.7127H67.7831V42.177H68.4168C68.8234 42.177 69.057 42.0508 69.0873 41.7127H71.6042C71.592 42.3839 71.4182 42.9109 71.0837 43.2981H65.197V41.7127ZM72.6006 41.7127H78.0381V43.2981H72.6006V41.7127ZM9.75738 43.2981H6.97444C7.06528 43.1964 7.13666 43.0782 7.19938 42.9535H9.80136C9.7927 43.071 9.77757 43.1856 9.75738 43.2981Z" fill="white"/>
<path d="M6.22891 43.7273C5.88645 43.7273 5.60166 43.6004 5.39979 43.3877C5.19432 43.1707 5.0768 42.8657 5.0768 42.5168C5.0768 42.1678 5.19432 41.8621 5.39979 41.6451C5.60166 41.4331 5.88645 41.3063 6.22891 41.3063C6.52955 41.3063 6.74872 41.3906 6.91238 41.5247C7.0609 41.6473 7.16112 41.8102 7.23177 41.9876H9.70181C9.61746 41.1289 9.22669 40.3834 8.61171 39.8528C7.99167 39.3171 7.14309 38.9984 6.15104 38.9984C5.03859 38.9984 4.10205 39.364 3.44236 39.9818C2.77547 40.6062 2.38975 41.4901 2.38975 42.5168C2.38975 43.5434 2.77547 44.4273 3.44236 45.0517C4.10205 45.6696 5.03859 46.0344 6.15104 46.0344C7.14309 46.0344 7.99167 45.7157 8.61171 45.1807C9.22669 44.6494 9.61746 43.9046 9.70181 43.0459H7.23177C7.16112 43.2233 7.0609 43.3855 6.91238 43.5088C6.74872 43.6429 6.52955 43.7273 6.22891 43.7273ZM5.50433 43.2889C5.67881 43.4728 5.92826 43.5831 6.22891 43.5831C6.49278 43.5831 6.6824 43.5117 6.82082 43.3978C6.95997 43.2831 7.05081 43.1231 7.11497 42.9493L7.13228 42.9018H9.85826L9.85177 42.9789C9.78184 43.9097 9.368 44.7172 8.70543 45.2896C8.05944 45.8469 7.17842 46.1786 6.15104 46.1786C5.0011 46.1786 4.03067 45.7986 3.34431 45.1562C2.64786 44.5045 2.24628 43.5845 2.24628 42.5168C2.24628 41.449 2.64786 40.5291 3.34431 39.8773C4.03067 39.2342 5.0011 38.8542 6.15104 38.8542C7.17842 38.8542 8.05944 39.1866 8.70543 39.7439C9.368 40.3156 9.78184 41.1239 9.85177 42.0539L9.85826 42.131H7.13228L7.11497 42.0842C7.05081 41.9097 6.95997 41.7504 6.82082 41.6357C6.6824 41.5218 6.49278 41.4505 6.22891 41.4505C5.92826 41.4505 5.67881 41.5608 5.50433 41.7446C5.32409 41.9349 5.22171 42.2053 5.22171 42.5168C5.22171 42.8282 5.32409 43.0986 5.50433 43.2889Z" fill="white"/>
<path d="M14.5927 45.8497H17.2098L15.982 43.5556L16.0325 43.5189C16.3043 43.322 16.5076 43.0668 16.6439 42.7517C16.7808 42.4338 16.8493 42.0546 16.8493 41.6119C16.8493 40.7972 16.6172 40.1901 16.1464 39.7886C15.672 39.3841 14.9532 39.1837 13.9835 39.1837H10.582V45.8497H13.0354V44.03H13.7167L14.5927 45.8497ZM14.5026 45.9939L13.6266 44.1742H13.1796V45.9939H10.4378V39.0395H13.9835C14.9885 39.0395 15.7383 39.2514 16.2394 39.679C16.7441 40.1094 16.9935 40.7532 16.9935 41.6119C16.9935 42.074 16.9207 42.4727 16.7758 42.8087C16.6381 43.1288 16.4355 43.3912 16.1673 43.5974L17.4499 45.9939H14.5026ZM13.7304 40.9846C13.9597 40.9846 14.1399 41.0265 14.2661 41.1245C14.3959 41.2262 14.4637 41.3834 14.4637 41.6119C14.4637 41.8354 14.3959 41.9897 14.2654 42.0906C14.1399 42.1879 13.9597 42.2283 13.7304 42.2283H13.0354V40.9846H13.7304ZM14.1774 41.2377C14.0794 41.1613 13.9287 41.1296 13.7304 41.1296H13.1796V42.0841H13.7304C13.9287 42.0841 14.0794 42.0524 14.1774 41.9767C14.2712 41.9046 14.3195 41.7871 14.3195 41.6119C14.3195 41.4317 14.2712 41.3112 14.1774 41.2377Z" fill="white"/>
<path d="M23.5725 41.082V39.1837H17.9857V45.8497H23.5725V43.9507H20.4392V43.3689H23.2899V41.6645H20.4392V41.082H23.5725ZM23.7167 41.2269H20.5834V41.5203H23.4341V43.5131H20.5834V43.8065H23.7167V45.9939C21.7586 45.9947 19.7997 45.9939 17.8415 45.9939V39.0395H23.7167V41.2269Z" fill="white"/>
<path d="M33.084 39.1837L32.4222 43.1238H32.2073L31.2924 39.1837H28.8382L27.9139 43.1238H27.7085L27.0373 39.1837H24.3221L26.1411 45.8497H29.1814L29.9694 42.4641H30.1518L30.9399 45.8497H33.9895L35.8086 39.1837H33.084ZM32.309 42.9277L32.9622 39.0395H35.9967C35.3644 41.3574 34.7314 43.6753 34.0991 45.9939H30.8252L30.0603 42.707L29.2953 45.9939H26.0315C25.3985 43.676 24.7662 41.3574 24.1339 39.0395H27.1584L27.8173 42.9046L28.7243 39.0395H31.407L32.309 42.9277Z" fill="white"/>
<path d="M39.6004 46.0344C40.4685 46.0344 41.2392 45.9298 41.7893 45.5881C42.3307 45.2514 42.6609 44.6768 42.6609 43.733C42.6609 42.286 41.3365 42.007 40.6141 41.8549C40.5326 41.8376 40.4576 41.8218 40.4007 41.8081L40.2709 41.7778C39.63 41.6264 38.9739 41.4714 38.9739 41.0965C38.9739 40.9451 39.0294 40.8355 39.1282 40.7619C39.2277 40.6877 39.3704 40.6545 39.542 40.6545C39.7266 40.6545 39.8953 40.7115 40.0164 40.8218C40.1138 40.9112 40.1794 41.0345 40.1945 41.1895H42.4555C42.4374 40.4613 42.1447 39.953 41.7107 39.6127C41.1382 39.1635 40.3192 38.9984 39.5514 38.9984C39.0042 38.9984 38.2284 39.0251 37.5954 39.3258C36.9718 39.6228 36.4815 40.1916 36.4815 41.281C36.4815 41.8174 36.6481 42.1938 37.0057 42.4894C37.3726 42.7922 37.9408 43.0142 38.7345 43.2356C38.8441 43.2666 38.9523 43.2954 39.0532 43.3228C39.6458 43.4821 39.9739 43.5701 39.9739 43.8981C39.9739 44.0322 39.9184 44.1368 39.8045 44.2067C39.7042 44.2687 39.5586 44.3012 39.3668 44.3012C39.1621 44.3012 38.9256 44.2507 38.7562 44.1173C38.6343 44.0221 38.5471 43.8852 38.5298 43.6977H36.2198C36.2414 44.2759 36.5176 44.9226 37.1657 45.3884C37.7014 45.7727 38.4916 46.0344 39.6004 46.0344ZM41.865 45.7107C41.2889 46.069 40.493 46.1786 39.6004 46.1786C38.4584 46.1786 37.6408 45.906 37.0821 45.5045C36.364 44.989 36.0742 44.2615 36.0742 43.6256V43.5535H38.6704V43.6256C38.6704 43.8008 38.741 43.9226 38.8456 44.0041C38.9862 44.1152 39.1887 44.157 39.3668 44.157C39.5319 44.157 39.6516 44.1317 39.7288 44.0841C39.7965 44.0423 39.8297 43.9796 39.8297 43.8981C39.8297 43.6804 39.5399 43.6025 39.0157 43.4619C38.9191 43.4353 38.8138 43.4072 38.6956 43.374C37.8838 43.1476 37.2991 42.9176 36.9141 42.6004C36.5204 42.2752 36.3373 41.8636 36.3373 41.281C36.3373 40.1224 36.8636 39.5146 37.5341 39.196C38.1945 38.8816 38.9905 38.8542 39.5514 38.8542C40.3466 38.8542 41.1981 39.028 41.7986 39.4995C42.281 39.8773 42.6011 40.444 42.6011 41.2616V41.3336H40.0539V41.2616C40.0539 41.1159 40.0027 41.0034 39.9191 40.9277C39.8261 40.8427 39.692 40.7987 39.542 40.7987C39.4 40.7987 39.2868 40.8232 39.214 40.8773C39.152 40.9234 39.1181 40.9948 39.1181 41.0965C39.1181 41.3574 39.7179 41.4988 40.3041 41.6372L40.4339 41.6682C40.5009 41.684 40.5694 41.6985 40.6437 41.7143C41.4064 41.8744 42.8051 42.1693 42.8051 43.733C42.8051 44.7345 42.449 45.3473 41.865 45.7107Z" fill="white"/>
<path d="M46.9361 39.1837H43.5346V45.8497H45.9881V44.3126H46.9361C47.8914 44.3126 48.6023 44.0848 49.0767 43.6594C49.5626 43.224 49.802 42.5758 49.802 41.7482C49.802 40.9198 49.5626 40.2723 49.0767 39.8361C48.603 39.4108 47.8914 39.1837 46.9361 39.1837ZM46.9361 39.0395C47.9275 39.0395 48.6715 39.2796 49.1726 39.7294C49.691 40.1945 49.9462 40.8779 49.9462 41.7482C49.9462 42.6176 49.691 43.3018 49.1726 43.7669C48.6715 44.216 47.9275 44.4568 46.9361 44.4568H46.1323V45.9939H43.3904C43.3904 43.676 43.3897 41.3574 43.3904 39.0395H46.9361ZM46.5857 42.3256H45.9881V41.1699H46.5857C46.8511 41.1699 47.0529 41.1995 47.1921 41.2839C47.342 41.3747 47.417 41.5203 47.417 41.7482C47.417 41.9702 47.342 42.1166 47.1928 42.2081C47.0536 42.2939 46.8518 42.3256 46.5857 42.3256ZM46.1323 42.1815H46.5857C46.8258 42.1815 47.0032 42.1555 47.1171 42.0856C47.2209 42.0214 47.2728 41.9147 47.2728 41.7482C47.2728 41.5766 47.2209 41.4691 47.1178 41.4071C47.0046 41.3379 46.8265 41.3141 46.5857 41.3141H46.1323V42.1815Z" fill="white"/>
<path d="M55.2879 39.1837V41.4309H53.1293V39.1837H50.6759V45.8497H53.1293V43.6025H55.2879V45.8497H57.7414V39.1837H55.2879ZM55.1437 41.2867V39.0395H57.8856V45.9939H55.1437V43.7467H53.2735V45.9939H50.5317V39.0395H53.2735V41.2867H55.1437Z" fill="white"/>
<path d="M64.3475 41.082V39.1837H58.7607V45.8497H64.3475V43.9507H61.2141V43.3689H64.0648V41.6645H61.2141V41.082H64.3475ZM64.4917 41.2269H61.3583V41.5203H64.209V43.5131H61.3583V43.8065H64.4917V45.9939C62.5335 45.9947 60.5746 45.9939 58.6165 45.9939V39.0395H64.4917V41.2269Z" fill="white"/>
<path d="M69.2803 45.8497H71.8982L70.6697 43.5556L70.7208 43.5189C70.9919 43.322 71.196 43.0668 71.3315 42.7517C71.4685 42.4338 71.537 42.0546 71.537 41.6119C71.537 40.7972 71.3048 40.1901 70.834 39.7886C70.3604 39.3841 69.6408 39.1837 68.6711 39.1837H65.2696V45.8497H67.7231V44.03H68.4051L69.2803 45.8497ZM69.1902 45.9939L68.3142 44.1742H67.8672V45.9939H65.1254V39.0395H68.6711C69.6762 39.0395 70.426 39.2514 70.9278 39.679C71.4324 40.1094 71.6812 40.7532 71.6812 41.6119C71.6812 42.074 71.6091 42.4727 71.4642 42.8087C71.3257 43.1288 71.1231 43.3912 70.8557 43.5974L72.1383 45.9939H69.1902ZM68.4181 40.9846C68.6481 40.9846 68.8276 41.0265 68.9537 41.1245C69.0835 41.2262 69.152 41.3834 69.152 41.6119C69.152 41.8354 69.0835 41.9897 68.953 42.0906C68.8276 42.1879 68.6481 42.2283 68.4181 42.2283H67.7231V40.9846H68.4181ZM68.8651 41.2377C68.767 41.1613 68.6163 41.1296 68.4181 41.1296H67.8672V42.0841H68.4181C68.6163 42.0841 68.7677 42.0524 68.8658 41.9767C68.9588 41.9046 69.0078 41.7871 69.0078 41.6119C69.0078 41.4317 68.9588 41.3112 68.8651 41.2377Z" fill="white"/>
<path d="M78.2599 41.082V39.1837H72.6739V45.8497H78.2599V43.9507H75.1273V43.3689H77.978V41.6645H75.1273V41.082H78.2599ZM78.4041 41.2269H75.2715V41.5203H78.1215V43.5131H75.2715V43.8065H78.4041V45.9939C76.446 45.9947 74.4878 45.9939 72.529 45.9939V39.0395H78.4041V41.2269Z" fill="white"/>
<path d="M9.14532 38.0661L12.3046 37.901C16.6621 37.6725 21.1682 37.436 25.6007 37.2132C26.1191 37.1873 26.5149 37.1757 26.8848 37.1757C27.3108 37.1757 27.6922 37.1916 28.0513 37.2248C29.3901 37.3473 30.7556 37.5059 32.075 37.6595C32.6251 37.7237 33.1774 37.7878 33.7325 37.8498L33.8673 37.865L34.08 36.6574L33.9409 36.6307C33.8327 36.6098 33.7296 36.5889 33.6287 36.5687C33.4203 36.5269 33.2228 36.4872 33.0231 36.4548C32.3619 36.3466 31.6842 36.2587 31.0296 36.1729C29.6115 35.9883 28.1457 35.7972 26.7737 35.3935C23.582 34.4541 20.3708 33.382 17.2641 32.3453C15.9505 31.9062 14.5922 31.4527 13.2534 31.0158C12.1698 30.6618 11.0999 30.3179 9.96795 29.9538C9.91676 29.9372 9.86557 29.9206 9.81438 29.9041C10.7754 30.1052 11.7422 30.3042 12.6838 30.4989C15.213 31.0201 17.8287 31.5601 20.3895 32.1391C21.3001 32.3445 22.2323 32.5248 23.1336 32.6992C25.6252 33.1809 28.2012 33.679 30.5754 34.7677C31.3411 35.1195 32.1147 35.413 32.9337 35.7237C33.3014 35.8629 33.6813 36.0071 34.0591 36.1563L34.1961 36.2104L34.638 35.0251C34.638 35.0251 34.3042 34.8787 34.2098 34.8376C34.0223 34.7555 33.8558 34.6834 33.69 34.6084C33.0923 34.3387 32.473 34.0842 31.8746 33.8384C30.566 33.3013 29.2135 32.7454 28.0131 31.9999C24.4154 29.7642 20.812 27.3994 17.3283 25.1125C15.9412 24.2026 14.5079 23.2618 13.0933 22.3418C13.0443 22.3094 12.9946 22.2769 12.9448 22.2452C13.9996 22.7809 15.0544 23.3151 16.1099 23.8494C18.5316 25.0765 21.0363 26.3454 23.4919 27.607C24.0932 27.9156 24.7089 28.2206 25.3051 28.5147C27.6879 29.6928 30.1522 30.9105 32.2336 32.6877C32.7765 33.1513 33.3475 33.5579 33.9517 33.9876C34.222 34.1801 34.5018 34.3791 34.7772 34.5824L34.8947 34.6697L35.6344 33.6387L35.5277 33.5536C35.4362 33.4808 35.3489 33.4116 35.2653 33.3452C35.0959 33.2119 34.9365 33.0857 34.783 32.9566C34.2372 32.4981 33.6669 32.0482 33.1161 31.6127C31.8998 30.651 30.6424 29.6575 29.5768 28.5248C26.6454 25.4074 23.7507 22.1551 20.9519 19.0095C20.1033 18.0557 19.2295 17.0744 18.3607 16.1033C19.9015 17.5106 21.4905 18.8833 23.0377 20.2193C27.5747 24.137 32.2668 28.1881 35.8507 33.2429L35.9372 33.3647L36.9689 32.5731L36.8839 32.4592C36.656 32.1528 36.4289 31.8521 36.2033 31.5529C35.6921 30.8759 35.2098 30.2357 34.7411 29.5681C34.5515 29.2984 34.3547 29.0259 34.1644 28.762C33.5458 27.9063 32.9063 27.0209 32.4189 26.0829C30.4456 22.2841 28.4788 18.401 26.5769 14.6455C25.8977 13.3052 25.2193 11.9649 24.5387 10.6261C25.3361 11.851 26.1335 13.0752 26.9309 14.3001C29.2531 17.8668 31.6547 21.5545 34.0058 25.1889C34.3871 25.7787 34.7411 26.4434 35.1197 27.279C35.6409 28.4311 36.1305 29.5688 36.6495 30.7735C36.8579 31.258 37.0677 31.7461 37.2811 32.2378L37.3395 32.3712L38.488 31.86L38.3265 31.4318C38.2544 31.2393 38.1903 31.0691 38.1247 30.899C37.8954 30.3035 37.6423 29.7036 37.3972 29.1232C36.8608 27.8515 36.3064 26.5371 35.9733 25.1969C35.2869 22.4327 34.7101 19.5899 34.1528 16.8401C33.9135 15.6577 33.6655 14.4342 33.4117 13.2338C33.0678 11.6023 32.726 10.0046 32.3648 8.31321C32.3036 8.02699 32.2423 7.74004 32.181 7.45238C32.5328 8.52662 32.889 9.60879 33.235 10.66C34.1053 13.303 35.005 16.0362 35.8594 18.7334C36.0843 19.445 36.3294 20.163 36.5666 20.8573C37.341 23.1284 38.142 25.4766 38.3712 27.9336C38.4498 28.7779 38.5825 29.5969 38.7223 30.4642C38.7843 30.8485 38.8485 31.2465 38.9069 31.643L38.9285 31.7916L40.1758 31.5587L40.1607 31.4246C40.1354 31.2068 40.1102 30.9992 40.0864 30.7981C40.0367 30.3857 39.9898 29.9963 39.953 29.6099C39.8989 29.036 39.8254 28.4527 39.754 27.8882C39.5947 26.6208 39.4296 25.31 39.4765 24.0347C39.6358 19.7052 39.8853 15.3059 40.1268 11.0515C40.2169 9.45378 40.3106 7.80133 40.3986 6.17626C40.3986 6.17554 40.3986 6.17482 40.3986 6.1741C40.4808 7.71193 40.5622 9.25047 40.6437 10.7883C40.8312 14.3261 41.0251 17.985 41.2255 21.5826C41.3373 23.5977 41.4108 25.5725 41.0842 27.5732C40.9415 28.4513 40.8499 29.3561 40.7612 30.2299C40.7216 30.6272 40.6798 31.0374 40.6336 31.4433L40.6185 31.581L41.8355 31.7656L41.86 31.6279C41.8816 31.5097 41.9025 31.3972 41.9227 31.2869C41.966 31.0569 42.0063 30.8391 42.0424 30.6214C42.1505 29.9689 42.2385 29.3013 42.3236 28.6561C42.5089 27.2559 42.6999 25.8082 43.1029 24.4535C44.1217 21.0268 45.2687 17.5741 46.3783 14.2352C46.8318 12.8683 47.3011 11.4552 47.7561 10.0623C48.0344 9.20794 48.3112 8.35287 48.5953 7.47401C48.4049 8.37954 48.216 9.28941 48.0322 10.1755C47.5535 12.4797 47.0582 14.8618 46.5369 17.197C46.317 18.1804 46.1195 19.1854 45.9284 20.158C45.3387 23.1601 44.7294 26.2646 43.387 29.1146C43.1166 29.6899 42.896 30.2725 42.6624 30.8889C42.5586 31.165 42.4505 31.4505 42.338 31.7339L42.2854 31.8651L43.4584 32.3611L43.5153 32.2299C43.5982 32.0417 43.6761 31.8644 43.7518 31.6935C43.9039 31.3482 44.0481 31.0223 44.1844 30.6978C45.3855 27.8356 46.4958 25.4723 48.0062 23.243C50.0805 20.1832 52.1194 17.0261 54.0912 13.9728C54.7978 12.8777 55.5259 11.7501 56.2512 10.6347C55.5779 11.9584 54.9059 13.2828 54.234 14.6065C52.3191 18.3787 50.3386 22.2784 48.3797 26.1082C48.0589 26.7354 47.6501 27.3922 47.1288 28.1175C46.3891 29.147 45.6472 30.1398 44.8607 31.191C44.5463 31.612 44.2298 32.0352 43.9126 32.4621L43.8275 32.576L44.8369 33.346L44.9248 33.2364C45.0524 33.0763 45.1772 32.9191 45.3004 32.7641C45.5679 32.4274 45.8203 32.1088 46.0834 31.7923C46.4576 31.3424 46.8246 30.873 47.18 30.4181C47.9774 29.3972 48.8022 28.3417 49.751 27.4593C52.9975 24.4398 56.363 21.437 59.6174 18.5329C60.6729 17.5914 61.763 16.6188 62.8344 15.6584L61.9491 16.6447C58.3731 20.6288 54.6759 24.7484 51.0285 28.7909C50.6587 29.2004 50.2095 29.6185 49.6551 30.067C48.6126 30.9105 47.5376 31.7598 46.498 32.581C46.0813 32.909 45.6638 33.2393 45.2449 33.5709L45.131 33.6617L45.927 34.6502L46.0387 34.5687C46.1707 34.4721 46.2976 34.3784 46.4216 34.2875C46.6739 34.1015 46.9118 33.9263 47.1512 33.754C47.6349 33.4058 48.1173 33.0388 48.5845 32.6841C49.6291 31.8896 50.7092 31.0684 51.8562 30.4195C53.7596 29.3417 55.7574 28.3511 57.6896 27.3936C58.5259 26.9791 59.3903 26.5508 60.236 26.1204C62.2778 25.0822 64.3189 24.0426 66.3895 22.9878L67.8913 22.2229C67.0881 22.7463 66.2857 23.2711 65.4832 23.7953C63.6203 25.013 61.6938 26.2718 59.7905 27.4946C59.0226 27.9877 58.2498 28.5018 57.5028 28.9985C54.5101 30.9877 51.415 33.0453 47.9233 34.2666C47.5347 34.4022 47.1692 34.5709 46.782 34.749C46.6068 34.8297 46.4259 34.9133 46.2428 34.9926L46.1065 35.0525L46.6379 36.1714L46.7604 36.1267C46.857 36.0921 46.9486 36.0597 47.0373 36.0287C47.2211 35.9631 47.3941 35.9018 47.5657 35.8362C48.1663 35.604 48.7705 35.3466 49.3545 35.0972C50.6205 34.5579 51.929 33.9999 53.265 33.6798C56.6312 32.8737 60.0825 32.1679 63.4198 31.4851C64.8365 31.1953 66.3008 30.8961 67.7399 30.5926C68.8026 30.3691 69.8415 30.1427 70.941 29.9026C71.0152 29.8868 71.0902 29.8702 71.1645 29.8543C70.0448 30.2191 68.9259 30.5854 67.8069 30.9523C65.0233 31.8636 62.1452 32.806 59.3074 33.7086C58.6658 33.9134 58.0176 34.134 57.3904 34.3467C55.2304 35.0813 52.9975 35.8412 50.6609 36.0575C49.7964 36.1376 48.9572 36.2738 48.069 36.418C47.6753 36.4814 47.268 36.5471 46.8621 36.6076L46.7186 36.6285L46.9125 37.8794L47.0495 37.8635C47.2651 37.839 47.4713 37.8152 47.6703 37.7914C48.0819 37.7431 48.4705 37.697 48.8563 37.6617C49.4482 37.6069 50.0502 37.5319 50.632 37.4598C51.7798 37.3171 52.9665 37.17 54.1244 37.17C54.2844 37.17 54.4438 37.1729 54.5966 37.1779C58.9123 37.3358 63.2973 37.5809 67.5373 37.8181C69.0138 37.9003 70.5322 37.9854 72.0397 38.0661H9.14532ZM73.5884 38.0661L73.6439 38.0625V37.9277C73.6439 37.7222 73.6432 37.5232 73.6432 37.3286C73.6417 36.8859 73.641 36.4685 73.6453 36.0503C73.6511 35.5564 73.4362 35.3027 72.9265 35.201C72.2459 35.0662 71.8393 34.5976 71.7816 33.8809C71.729 33.222 72.0195 32.7302 72.6453 32.4188C72.7477 32.3676 72.8414 32.307 72.9417 32.2429C72.9878 32.2133 73.0354 32.1823 73.0866 32.1506L73.1745 32.0965L72.592 29.5443L72.6006 29.5421L72.5538 29.3922C72.4889 29.1838 72.4291 28.9812 72.3714 28.7851C72.2286 28.2992 72.0931 27.8399 71.91 27.4009C71.8047 27.1485 71.4312 26.8976 71.1565 26.894C70.3764 26.8839 69.8977 26.5883 69.6497 25.9632C69.3844 25.2949 69.5509 24.703 70.1436 24.2048C70.2193 24.1406 70.2798 24.0664 70.3433 23.9885C70.3721 23.9532 70.4017 23.9171 70.4341 23.8796L70.4997 23.8054L69.2871 21.512L69.3008 21.5055L67.768 19.0967L67.6555 19.1443C67.2568 19.313 66.9187 19.3952 66.6231 19.3952C66.1963 19.3952 65.8466 19.22 65.5532 18.8588C65.0189 18.1999 65.0918 17.5236 65.7961 16.5979L65.8769 16.4919L63.8423 14.6707L61.9721 12.5994L61.8661 12.6866C61.3701 13.0903 60.9347 13.2872 60.5331 13.2872C60.2526 13.2872 59.9837 13.1934 59.7119 13.0002C59.0407 12.5237 58.9239 11.8532 59.3348 10.8272L59.3795 10.7162L57.1135 9.27066L57.1164 9.26633L57.0645 9.23966L57.0169 9.20866L57.014 9.21298L54.6096 7.96066L54.5361 8.05727C54.0653 8.67802 53.6118 8.96785 53.1078 8.96785C52.9456 8.96785 52.774 8.93685 52.5981 8.87557C51.8021 8.59872 51.5202 8.00752 51.6248 6.83306L51.6349 6.71699L49.0942 5.93258L49.0985 5.92104L46.3286 5.31543L46.2824 5.42646C45.9111 6.31902 45.4439 6.71699 44.7662 6.71699C44.7165 6.71699 44.6646 6.71483 44.6119 6.70978C43.8419 6.64345 43.3834 6.19212 43.2089 5.32912C43.1685 5.12725 42.8946 4.89366 42.6949 4.89077C41.6653 4.87708 40.6452 4.87564 39.7836 4.87564C39.4491 4.87564 37.6524 4.87636 37.6524 4.87636L37.6337 4.99892C37.4722 6.06523 37.0749 6.57063 36.3071 6.69031C36.2076 6.70617 36.1117 6.71411 36.0201 6.71411C35.3576 6.71411 34.8882 6.31469 34.4989 5.41997L34.4506 5.31038L31.8501 5.90013L31.8472 5.88715L29.1262 6.75232L29.1407 6.87128C29.2719 7.93038 29.0217 8.51509 28.3029 8.82726C28.0888 8.91955 27.8819 8.96713 27.6865 8.96713C27.2005 8.96713 26.7535 8.68812 26.2366 8.06232L26.1623 7.97291L23.7622 9.22019L23.7601 9.21659L23.7219 9.2411L23.688 9.25912L23.6901 9.26201L21.3931 10.7313L21.4436 10.8438C21.8459 11.7522 21.7789 12.3816 21.2244 12.8849C20.9288 13.1545 20.6217 13.285 20.2872 13.285C19.8914 13.285 19.4508 13.1077 18.8597 12.709L18.7551 12.6383L16.9743 14.6469L14.903 16.5207L14.9895 16.6267C15.6701 17.4609 15.766 18.1249 15.3002 18.781C15.0068 19.1941 14.6355 19.3952 14.1654 19.3952C13.8713 19.3952 13.531 19.3181 13.1243 19.1602L13.014 19.1169L11.58 21.3714L11.575 21.3678L11.5382 21.437L11.5195 21.4666L11.5224 21.468L10.2607 23.8789L10.3573 23.9525C11.1929 24.5891 11.4373 25.2062 11.1496 25.9553C10.8987 26.6071 10.4207 26.8854 9.54978 26.8854C9.42722 26.8854 9.29312 26.8803 9.14028 26.8695L9.02708 26.8616L8.23113 29.3936L8.22609 29.3922L8.21383 29.4484L8.19869 29.496L8.20302 29.4974L7.61831 32.1859L7.73366 32.2299C8.65506 32.5839 9.06169 33.0994 9.01411 33.8521C8.96075 34.6942 8.43589 35.157 7.31334 35.3531L7.19366 35.374V38.0661H2.44536C2.44536 38.0524 2.44536 38.0387 2.44536 38.0243C2.46339 32.9105 3.47995 27.9495 5.46622 23.2791C7.38399 18.768 10.1215 14.7169 13.6024 11.2382C17.0825 7.75951 21.13 5.02848 25.6324 3.12008C30.2928 1.14535 35.2386 0.143921 40.3323 0.143921L40.4664 0.144643C45.5924 0.161946 50.5642 1.18284 55.244 3.17704C59.7631 5.10274 63.8192 7.85107 67.3008 11.3449C70.7816 14.8387 73.5105 18.9006 75.411 23.4175C77.3655 28.0649 78.354 32.9927 78.3482 38.0661H73.5884Z" fill="white"/>
<path d="M47.0335 37.7203C46.9787 37.3707 46.9383 37.1061 46.8828 36.7499C48.1755 36.5596 49.4192 36.3181 50.6744 36.202C53.7075 35.9208 56.4947 34.7557 59.3512 33.8466C63.5271 32.5178 67.6863 31.1372 71.8535 29.7818C72.0294 29.7241 72.2133 29.6902 72.4627 29.6282C72.6502 30.4472 72.8261 31.2194 73.0107 32.0283C72.8521 32.1256 72.7223 32.2194 72.581 32.29C71.9162 32.6202 71.5788 33.1645 71.638 33.8927C71.6992 34.6591 72.1397 35.1926 72.8982 35.3426C73.3423 35.4313 73.506 35.631 73.5009 36.0491C73.4945 36.6526 73.4995 37.256 73.4995 37.928C73.3185 37.9402 73.1376 37.9684 72.958 37.9684C72.9314 37.9684 72.9047 37.9676 72.8787 37.9669C66.7866 37.6461 60.6973 37.2568 54.6022 37.0347C54.4429 37.0282 54.2835 37.0261 54.1242 37.0261C52.3694 37.0261 50.603 37.3548 48.8424 37.5185C48.2692 37.5711 47.6982 37.6454 47.0335 37.7203ZM46.7119 35.9915C46.5778 35.7096 46.4632 35.468 46.3002 35.1256C46.8749 34.8747 47.4091 34.5993 47.9707 34.4032C52.3535 32.8697 56.0225 30.0875 59.8681 27.6167C62.7239 25.7818 65.558 23.9138 68.403 22.0624C68.6301 21.9138 68.8673 21.7805 69.1693 21.5981C69.5673 22.3507 69.9379 23.0515 70.3258 23.7847C70.2227 23.9023 70.1484 24.0126 70.0504 24.0948C69.4318 24.6146 69.2148 25.2598 69.5154 26.0169C69.8031 26.7422 70.3784 27.0284 71.1549 27.0385C71.3705 27.0414 71.6935 27.2584 71.7771 27.4574C72.0294 28.063 72.1895 28.7075 72.4159 29.435C70.8117 29.7818 69.2624 30.1249 67.7101 30.4523C62.8803 31.4695 58.0282 32.3909 53.2309 33.5395C51.2656 34.0102 49.4163 34.9677 47.5136 35.7016C47.2627 35.7982 47.0075 35.8848 46.7119 35.9915ZM9.5496 27.0298C10.3073 27.0298 10.9649 26.838 11.2843 26.0075C11.6368 25.0883 11.2057 24.4185 10.4443 23.8381C10.8365 23.089 11.2143 22.3666 11.6296 21.5743C12.1422 21.903 12.5806 22.1799 13.0146 22.4625C17.9813 25.6946 22.9048 28.9959 27.9372 32.1227C29.6978 33.2165 31.7251 33.8805 33.6307 34.7399C33.8801 34.8531 34.1317 34.9605 34.4547 35.1025C34.3466 35.3938 34.2471 35.6613 34.1123 36.0225C32.9147 35.5495 31.7497 35.1479 30.635 34.6368C27.3849 33.1465 23.8507 32.7738 20.4211 31.9987C16.6612 31.1487 12.8783 30.4032 9.1062 29.608C8.89424 29.564 8.68877 29.489 8.38019 29.3989C8.64407 28.5597 8.88198 27.8041 9.13 27.014C9.27203 27.0233 9.41262 27.0298 9.5496 27.0298ZM20.287 13.4295C20.6352 13.4295 20.9791 13.3026 21.3216 12.9919C21.9892 12.3848 21.951 11.6328 21.5754 10.7857C22.2761 10.3372 22.9647 9.89746 23.7109 9.41945C23.8767 9.70352 24.0202 9.92413 24.1384 10.1577C26.8507 15.4914 29.5327 20.8403 32.2911 26.1495C32.9335 27.3867 33.8167 28.5028 34.6227 29.6513C35.3033 30.621 36.0322 31.5568 36.7683 32.546C36.4944 32.7565 36.2579 32.9374 35.968 33.1595C30.8362 25.9217 23.607 20.88 17.2842 14.9067C17.4615 15.1785 17.6079 15.4785 17.822 15.7178C21.69 20.0343 25.5025 24.4033 29.4721 28.6239C31.0272 30.2778 32.9393 31.5972 34.6898 33.0672C34.9212 33.2612 35.1606 33.445 35.4374 33.6663C35.2471 33.9309 35.0776 34.1674 34.8628 34.4666C33.9911 33.8221 33.1152 33.2511 32.3272 32.5784C29.71 30.3441 26.5681 29.0255 23.5573 27.479C19.8551 25.5771 16.1371 23.7069 12.427 21.8201C12.2085 21.7098 12.0016 21.5779 11.7219 21.4171C12.179 20.6983 12.6188 20.0076 13.0723 19.2946C13.4529 19.4431 13.8221 19.5397 14.1652 19.5397C14.6418 19.5397 15.0701 19.3544 15.4183 18.8649C15.9612 18.0992 15.7665 17.3508 15.1011 16.5361C15.7593 15.9406 16.4183 15.3444 17.0765 14.7489C17.6338 14.1202 18.1918 13.4915 18.7787 12.8289C19.292 13.175 19.7938 13.4295 20.287 13.4295ZM44.8122 33.1465C44.5425 32.9403 44.3068 32.7608 44.0285 32.5481C45.1193 31.0788 46.2022 29.6542 47.2462 28.2021C47.7097 27.5561 48.1466 26.8806 48.5078 26.174C51.2302 20.8511 53.931 15.5174 56.6396 10.188C56.7622 9.9472 56.9006 9.71433 57.0679 9.41296C57.7982 9.87871 58.4875 10.3192 59.2005 10.7742C58.8364 11.6847 58.7867 12.5203 59.6281 13.118C59.9309 13.3329 60.2308 13.4316 60.5329 13.4316C60.9957 13.4316 61.4637 13.2009 61.9568 12.7986C62.5509 13.4562 63.1457 14.1151 63.7397 14.7734C64.3829 15.3487 65.026 15.924 65.6813 16.5109C65.0339 17.3609 64.7931 18.1518 65.4412 18.9499C65.7808 19.3688 66.1781 19.5397 66.6229 19.5397C66.9603 19.5397 67.3244 19.4409 67.7116 19.2773C68.1614 19.9845 68.6121 20.6925 69.0937 21.4488C66.0605 22.9931 63.1161 24.4942 60.1702 25.9924C57.3693 27.4163 54.5164 28.7479 51.7847 30.2944C50.1156 31.2388 48.6326 32.5106 47.0674 33.6368C46.7098 33.8942 46.3565 34.1573 45.9527 34.4529C45.7509 34.202 45.5677 33.9742 45.3341 33.6844C46.8229 32.5049 48.2937 31.3542 49.7458 30.1797C50.236 29.7825 50.7133 29.3557 51.1358 28.8878C55.1285 24.4617 59.1097 20.0242 63.0909 15.5881C63.256 15.4049 63.3973 15.1995 63.5494 15.0041C63.2992 15.1656 63.0217 15.2975 62.8025 15.4936C58.4067 19.4337 53.9742 23.3341 49.6527 27.3543C48.2721 28.6383 47.1878 30.2403 45.9722 31.7003C45.5858 32.1653 45.2152 32.6433 44.8122 33.1465ZM43.3832 32.1725C43.0595 32.0355 42.8144 31.9324 42.4719 31.7875C42.8266 30.8928 43.1244 30.0125 43.5173 29.1769C45.3024 25.3853 45.779 21.2505 46.6773 17.229C47.4516 13.7618 48.1495 10.2774 48.8842 6.80161C48.9289 6.58965 49.0032 6.38345 49.0897 6.08209C49.8936 6.3301 50.6693 6.57018 51.4811 6.82036C51.3946 7.7915 51.5273 8.65667 52.551 9.0121C52.7471 9.0806 52.9324 9.11232 53.1076 9.11232C53.7219 9.11232 54.2136 8.72155 54.6512 8.14478C55.3967 8.53338 56.1206 8.91045 56.9115 9.32284C56.724 9.62349 56.5863 9.85564 56.4392 10.0813C53.5964 14.4475 50.8099 18.8512 47.8871 23.1626C46.2945 25.5129 45.1388 28.0514 44.0508 30.6426C43.849 31.1235 43.6341 31.5993 43.3832 32.1725ZM27.6863 9.11088C27.8954 9.11088 28.1189 9.06402 28.3604 8.95948C29.2457 8.5752 29.4036 7.82179 29.2839 6.85425C30.077 6.60191 30.8722 6.34885 31.7396 6.07272C32.2623 8.52617 32.7705 10.8938 33.2709 13.2637C34.1137 17.2557 34.8505 21.2743 35.8332 25.2317C36.3213 27.1956 37.2571 29.0485 37.9904 30.9512C38.0877 31.2042 38.1821 31.4587 38.3054 31.7839C38.0091 31.9158 37.7481 32.0319 37.4136 32.1804C36.6804 30.4912 35.9868 28.8459 35.2507 27.2202C34.9226 26.4949 34.5578 25.7775 34.1267 25.1106C30.8895 20.1064 27.6315 15.1158 24.3814 10.1195C24.2328 9.89169 24.098 9.65521 23.8911 9.31635C24.6856 8.90324 25.3893 8.53771 26.1254 8.15487C26.5767 8.70137 27.0691 9.11088 27.6863 9.11088ZM36.02 6.85857C36.118 6.85857 36.2211 6.84992 36.3293 6.83334C37.2701 6.68626 37.6277 5.99774 37.7762 5.02082C38.4446 5.02082 39.1136 5.0201 39.7827 5.0201C40.7524 5.0201 41.7228 5.02226 42.6932 5.03524C42.8245 5.0374 43.0407 5.22558 43.0674 5.35824C43.2412 6.21691 43.7149 6.77782 44.5995 6.85425C44.6564 6.85857 44.7119 6.86145 44.766 6.86145C45.5987 6.86145 46.0796 6.28973 46.4149 5.48224C47.2274 5.6596 48.0226 5.83408 48.9116 6.02802C48.4631 7.41228 48.0435 8.71579 47.6182 10.0179C46.0544 14.8123 44.4012 19.5808 42.9643 24.4127C42.3717 26.404 42.2419 28.5323 41.9002 30.5979C41.8468 30.9187 41.7848 31.2374 41.7185 31.6022C41.3933 31.5532 41.1295 31.5128 40.7769 31.4595C40.9254 30.1523 41.0199 28.8654 41.2268 27.5972C41.5534 25.5908 41.4806 23.5872 41.3688 21.575C41.0747 16.2838 40.8007 10.9912 40.5174 5.69925C40.5116 5.59183 40.4885 5.48513 40.3234 5.35824C40.2996 5.62788 40.2693 5.89824 40.2542 6.16861C39.9334 12.1216 39.5513 18.0725 39.3321 24.0299C39.2636 25.8864 39.6334 27.7587 39.8094 29.6239C39.8634 30.1985 39.9399 30.7717 40.017 31.4414C39.6803 31.5042 39.4179 31.5532 39.0495 31.6224C38.8635 30.3607 38.6284 29.1459 38.5145 27.9202C38.2139 24.6932 36.9594 21.7314 35.9962 18.6904C34.7402 14.7236 33.418 10.7778 32.1267 6.82252C32.0517 6.59254 31.9998 6.35462 31.914 6.03378C32.754 5.84345 33.5456 5.66393 34.3661 5.47792C34.715 6.27819 35.1923 6.85857 36.02 6.85857ZM40.3321 0C19.4153 0 2.37452 17.0221 2.30099 38.0239C2.30099 38.0866 2.30171 38.1486 2.30171 38.2106H7.33767V35.4954C8.31314 35.3253 9.08962 34.9302 9.15812 33.8617C9.21435 32.9692 8.67579 32.4371 7.78539 32.0953C7.96203 31.2814 8.13867 30.4703 8.33261 29.5785C10.024 30.1242 11.6181 30.6332 13.2085 31.153C17.7131 32.6245 22.1889 34.1941 26.7332 35.5322C28.7512 36.1263 30.9068 36.2546 32.9998 36.5978C33.2918 36.6454 33.5816 36.7088 33.9133 36.7723C33.8549 37.1054 33.808 37.3685 33.7482 37.7066C31.8326 37.4918 29.9516 37.2539 28.0648 37.0816C27.674 37.0455 27.2797 37.0318 26.8853 37.0318C26.4541 37.0318 26.0223 37.0484 25.5933 37.07C19.9164 37.3548 14.2395 37.6562 8.56332 37.9525C8.31819 37.9655 8.07306 37.9849 7.80702 38.1205C7.92887 38.1486 8.04999 38.1904 8.17255 38.2106H78.4915C78.4915 38.1955 78.4915 38.1803 78.4915 38.1652C78.5686 17.1872 61.5184 0.0735395 40.4669 0.000721672C40.4222 7.0408e-07 40.3768 0 40.3321 0ZM26.8853 37.3202C27.3063 37.3202 27.6841 37.3361 28.0381 37.3685C29.3755 37.4911 30.7396 37.6497 32.0582 37.8033C32.3964 37.8422 32.7417 37.8826 33.0885 37.9222H14.6533C18.2719 37.7326 21.9654 37.5408 25.6077 37.3577C26.1239 37.3317 26.5176 37.3202 26.8853 37.3202ZM54.1242 37.3144C54.2828 37.3144 54.44 37.3173 54.5914 37.3224C58.6634 37.4709 62.7989 37.698 66.8161 37.9222H47.7955C48.1661 37.879 48.5194 37.8379 48.8698 37.8054C49.4639 37.7499 50.0666 37.6756 50.6498 37.6028C51.7933 37.4608 52.9757 37.3144 54.1242 37.3144ZM40.3962 8.83907C40.4301 9.48866 40.4647 10.1383 40.4993 10.7879C40.6868 14.3285 40.8807 17.9903 41.0812 21.5908C41.1929 23.598 41.2657 25.5641 40.942 27.5504C40.7978 28.4328 40.7062 29.3398 40.6176 30.2165C40.5779 30.6123 40.5361 31.0226 40.4907 31.427L40.459 31.7031L40.7344 31.745L40.7596 31.7486L41.9521 31.9288L42.0018 31.6534C42.0235 31.5352 42.0444 31.422 42.0653 31.3117C42.1078 31.0817 42.1482 30.8639 42.1842 30.6448C42.2931 29.9908 42.3811 29.3218 42.4669 28.6751C42.6507 27.2807 42.841 25.8381 43.2405 24.4956C44.2592 21.071 45.4055 17.6205 46.5136 14.2831C46.9679 12.9154 47.4379 11.5009 47.8929 10.1073C47.8979 10.0907 47.9037 10.0734 47.9094 10.0568C47.903 10.0871 47.8965 10.1181 47.89 10.1484C47.4113 12.4511 46.9167 14.8325 46.3954 17.1663C46.1755 18.1511 45.978 19.1576 45.7869 20.1309C45.1993 23.1243 44.5908 26.2202 43.2563 29.0536C42.9838 29.634 42.7625 30.2187 42.5281 30.8373C42.4236 31.1134 42.3155 31.3989 42.2037 31.6808L42.0992 31.9432L42.5736 32.1429L43.5332 32.5496L43.6478 32.2886C43.73 32.1004 43.8078 31.923 43.8828 31.7522C44.0357 31.4068 44.1799 31.0795 44.3169 30.7543C45.5151 27.8993 46.6218 25.5432 48.1257 23.3248C50.2 20.2643 52.2389 17.1064 54.2107 14.0531C54.4306 13.7121 54.6527 13.3682 54.8762 13.0229C54.6195 13.529 54.3621 14.0344 54.1054 14.5405C52.1906 18.3126 50.2101 22.2123 48.2512 26.0428C47.9332 26.6636 47.528 27.3146 47.0118 28.0334C46.2728 29.0615 45.531 30.0536 44.7466 31.1033C44.4358 31.5193 44.1143 31.9483 43.7963 32.3758L43.6269 32.6044L43.8533 32.7774L43.9499 32.8509L44.637 33.3758L44.8612 33.5467L45.0371 33.3268C45.1662 33.166 45.2916 33.0081 45.4149 32.8524C45.6809 32.5164 45.9326 32.1992 46.1943 31.8848C46.5699 31.4335 46.9376 30.9627 47.2937 30.5071C48.0875 29.4912 48.9087 28.44 49.8488 27.5655C53.0946 24.5461 56.4594 21.544 59.7131 18.6406C60.1291 18.2701 60.5495 17.8944 60.9727 17.5166C57.6692 21.1979 54.2741 24.9787 50.9216 28.6945C50.5568 29.099 50.1127 29.5114 49.5641 29.9555C48.5237 30.7976 47.4502 31.6447 46.4127 32.4645C45.9946 32.7947 45.5757 33.1256 45.1553 33.4587L44.9275 33.6389L45.9015 34.8487L46.1236 34.6858C46.2541 34.5899 46.3796 34.4976 46.5014 34.4075C46.7552 34.2208 46.9953 34.0441 47.2353 33.8711C47.7205 33.5221 48.2036 33.1545 48.6708 32.799C49.7119 32.0081 50.7883 31.1898 51.9267 30.5453C53.8272 29.4696 55.8235 28.4797 57.7535 27.523C58.5899 27.1084 59.4543 26.6802 60.3007 26.249C62.0498 25.3601 63.7974 24.4697 65.5645 23.5699C65.509 23.6059 65.4542 23.642 65.3994 23.678C63.5386 24.8943 61.6136 26.1517 59.7124 27.3737C58.9439 27.8676 58.1703 28.3816 57.4226 28.8784C54.4378 30.8632 51.3506 32.9151 47.8756 34.1306C47.4805 34.2691 47.1113 34.4385 46.7213 34.6187C46.5468 34.6988 46.3666 34.7817 46.1849 34.861L45.9124 34.9799L46.4509 36.1155L46.5634 36.3512L46.8092 36.2625C46.9059 36.2279 46.9974 36.1955 47.0861 36.1645C47.2707 36.0989 47.4444 36.0376 47.6175 35.9706C48.2202 35.7384 48.8258 35.4803 49.4112 35.2301C50.6715 34.693 51.9743 34.1371 53.298 33.8206C56.662 33.0146 60.1118 32.3095 63.4485 31.6267C64.8652 31.3369 66.3302 31.0377 67.7692 30.7342C67.9978 30.6859 68.2249 30.6376 68.4513 30.5892C68.2198 30.6649 67.9884 30.7407 67.7591 30.8164C64.9769 31.7269 62.1003 32.6692 59.264 33.5719C58.6202 33.7766 57.9713 33.9973 57.344 34.2107C55.1919 34.9425 52.967 35.6995 50.6477 35.9143C49.7782 35.9951 48.9361 36.1313 48.0457 36.2755C47.6521 36.339 47.2462 36.4053 46.841 36.4651L46.5533 36.5077L46.598 36.7946L46.7184 37.5733L46.7487 37.765L46.7732 37.9222H34.0034L34.0322 37.7571L34.0431 37.6973L34.1973 36.8227L34.2464 36.543L33.9681 36.4889C33.8607 36.4687 33.7576 36.4478 33.6581 36.4284C33.4468 36.3858 33.2486 36.3462 33.046 36.313C32.3827 36.2041 31.7035 36.1155 31.0474 36.0304C29.6358 35.8465 28.1758 35.6562 26.8146 35.2554C23.6258 34.3167 20.4153 33.2453 17.3101 32.2085C15.9965 31.7702 14.6375 31.3167 13.2979 30.8791C13.0009 30.7817 12.7046 30.6859 12.4082 30.5892C12.4912 30.6065 12.5741 30.6239 12.657 30.6404C15.1847 31.1624 17.7989 31.7017 20.3576 32.2799C21.2704 32.4861 22.2033 32.6664 23.106 32.8408C25.589 33.321 28.1571 33.8177 30.5146 34.8992C31.2854 35.2525 32.0611 35.5466 32.8823 35.8588C33.2493 35.998 33.6285 36.1414 34.0063 36.2907L34.2795 36.3988L34.3819 36.1234L34.8203 34.9475L34.5708 34.8379C34.4634 34.791 34.3632 34.7471 34.2687 34.706C34.0784 34.6231 33.914 34.5517 33.7496 34.4774C33.1491 34.2063 32.529 33.9518 31.9285 33.7053C30.6257 33.1703 29.2789 32.6166 28.0893 31.8776C24.4924 29.6426 20.8897 27.2786 17.406 24.9916C16.693 24.5237 15.9677 24.0479 15.2395 23.5706C15.5091 23.7076 15.778 23.8439 16.0448 23.9787C18.4665 25.2058 20.9705 26.4747 23.4261 27.7357C24.0281 28.045 24.6445 28.3499 25.2408 28.6441C27.6163 29.8185 30.072 31.0319 32.1397 32.7976C32.6876 33.2655 33.2608 33.6735 33.8679 34.1054C34.1382 34.2972 34.4172 34.4962 34.6912 34.6988L34.927 34.8725L35.5903 33.9475L35.6717 33.8343L35.8311 33.6123L35.6177 33.4414C35.5261 33.3686 35.4396 33.2994 35.3552 33.233C35.1865 33.0997 35.0272 32.9742 34.8751 32.8466C34.3278 32.3866 33.7576 31.936 33.2053 31.4998C31.9933 30.5417 30.7396 29.5511 29.6819 28.4263C26.7512 25.3103 23.8579 22.0587 21.0591 18.9139C20.7693 18.588 20.4766 18.2585 20.1817 17.9276C21.1046 18.7401 22.031 19.5404 22.943 20.3284C27.4743 24.2404 32.1592 28.2858 35.733 33.3268L35.906 33.5705L36.144 33.3888L37.1692 32.6015L36.9997 32.3736C36.7712 32.0672 36.5412 31.7615 36.3184 31.4667C35.808 30.7904 35.3257 30.1516 34.8585 29.4862C34.6689 29.2151 34.4713 28.9418 34.281 28.678C33.666 27.8265 33.0294 26.9455 32.547 26.0169C30.5738 22.2181 28.607 18.3357 26.705 14.5801C26.4325 14.0423 26.1564 13.4972 25.8795 12.95C26.1903 13.428 26.5017 13.9068 26.8132 14.3848C29.1347 17.9492 31.5348 21.6348 33.8844 25.2671C34.2622 25.851 34.6126 26.5093 34.9883 27.3391C35.5088 28.4891 35.9976 29.6253 36.516 30.8286C36.7222 31.3081 36.9349 31.8034 37.149 32.2958L37.2651 32.5625L38.4222 32.0478L38.671 31.9367L38.5751 31.6822C38.534 31.5734 38.4958 31.4732 38.4597 31.3773C38.3883 31.1869 38.3242 31.0168 38.2593 30.8474C38.0286 30.2497 37.7755 29.6484 37.5304 29.0673C36.9961 27.8013 36.4432 26.492 36.113 25.1625C35.4273 22.4012 34.8513 19.5606 34.2947 16.813C34.0546 15.6292 33.8066 14.4057 33.5528 13.2038C33.3307 12.1526 33.1101 11.1159 32.8845 10.0582C32.9558 10.2752 33.0272 10.4908 33.0979 10.7049C33.9674 13.348 34.8671 16.0805 35.7215 18.7776C35.9471 19.4899 36.1923 20.2087 36.4295 20.9045C37.2016 23.1669 37.9997 25.5071 38.2276 27.9469C38.3061 28.7962 38.4388 29.6174 38.5794 30.4869C38.6414 30.8711 38.7056 31.2684 38.764 31.6642L38.8079 31.9605L39.1021 31.9057L39.3984 31.8502L40.0696 31.7255L40.3342 31.6757L40.3032 31.4083C40.2787 31.1905 40.2535 30.9829 40.229 30.7817C40.1792 30.3701 40.1331 29.9815 40.0963 29.5965C40.0422 29.0204 39.9687 28.4357 39.8973 27.8705C39.738 26.6088 39.5736 25.3038 39.6205 24.04C39.7798 19.7127 40.0293 15.3141 40.2701 11.0604C40.3119 10.3286 40.3537 9.58527 40.3962 8.83907ZM40.3321 0.288387C40.3768 0.288387 40.4215 0.288388 40.4654 0.289109C45.5721 0.306412 50.5251 1.32298 55.1869 3.30997C59.6893 5.22846 63.7304 7.9667 67.1982 11.4468C70.6661 14.9277 73.3841 18.9737 75.2774 23.474C77.2067 28.0594 78.1908 32.9194 78.2038 37.9222H73.7879C73.7879 37.7189 73.7872 37.5214 73.7872 37.3289C73.7857 36.8869 73.785 36.4695 73.7893 36.052C73.7958 35.4897 73.5305 35.1746 72.9544 35.06C72.3337 34.9367 71.9783 34.525 71.9249 33.8697C71.8773 33.2756 72.1412 32.8307 72.7093 32.5481C72.8189 32.4933 72.9162 32.4306 73.0193 32.3643C73.0647 32.3347 73.1116 32.3044 73.1621 32.2742L73.338 32.1653L73.2919 31.9641L72.7648 29.6542L72.785 29.6498L72.7064 29.3982L72.679 29.2771L72.6697 29.28C72.6134 29.0968 72.5608 28.918 72.5096 28.7443C72.3654 28.2547 72.2291 27.7919 72.0431 27.3456C71.917 27.0435 71.4865 26.7544 71.1585 26.7501C70.4339 26.7407 70.01 26.4819 69.7836 25.9109C69.5407 25.2973 69.6885 24.7761 70.2364 24.3154C70.3222 24.2426 70.39 24.1596 70.4548 24.0803C70.483 24.0457 70.5118 24.0104 70.5428 23.9751L70.674 23.8258L69.483 21.5743L69.5075 21.562L69.3366 21.2945L69.3244 21.2743L69.2811 21.1936L69.2753 21.1972L67.9552 19.1222L67.824 18.9168L67.5991 19.0119C67.2184 19.1734 66.899 19.252 66.6229 19.252C66.2372 19.252 65.9329 19.0977 65.6647 18.7683C65.1745 18.1634 65.2451 17.5599 65.9106 16.6854L66.0721 16.4734L63.9438 14.5693L62.1709 12.6054L61.9871 12.4014L61.7751 12.5751C61.3058 12.9572 60.8999 13.1433 60.5329 13.1433C60.2834 13.1433 60.0419 13.0582 59.7953 12.883C59.1796 12.4461 59.0816 11.847 59.4687 10.8809L59.5574 10.6595L59.3563 10.5305L57.3109 9.22623L57.3202 9.21109L57.1371 9.1152L56.9648 9.0049L56.9562 9.02076L54.7846 7.88883L54.5683 7.77636L54.4212 7.9703C53.98 8.55285 53.5626 8.82393 53.1076 8.82393C52.9613 8.82393 52.8063 8.79581 52.6455 8.73958C51.9151 8.4858 51.6693 7.95517 51.7681 6.84632L51.789 6.61416L51.5662 6.54495L49.2764 5.83768L49.2843 5.81389L48.9923 5.75044L48.8943 5.72016L48.8914 5.72809L46.4769 5.20035L46.2411 5.14916L46.1488 5.37194C45.8035 6.20249 45.3774 6.57307 44.766 6.57307C44.7206 6.57307 44.6723 6.57091 44.624 6.56658C43.9268 6.50674 43.5101 6.09218 43.35 5.30128C43.2967 5.03524 42.9607 4.75046 42.6968 4.74685C41.6659 4.73315 40.645 4.73172 39.7827 4.73172C39.4482 4.73172 39.1136 4.73172 38.7791 4.73244C38.4446 4.73244 38.1108 4.73244 37.7762 4.73244H37.5282L37.4914 4.97756C37.3386 5.98332 36.9889 6.43825 36.2845 6.54856C36.193 6.56298 36.1036 6.57019 36.02 6.57019C35.4223 6.57019 34.994 6.19744 34.6306 5.36256L34.5355 5.14411L31.9602 5.72737L31.9551 5.70142L31.6588 5.79587L31.5579 5.81894L31.56 5.82687L30.5082 6.16211L29.196 6.57884L28.9682 6.65166L28.9977 6.88957C29.121 7.88595 28.9033 8.40937 28.245 8.69488C28.0468 8.78067 27.8644 8.82249 27.6863 8.82249C27.2472 8.82249 26.8348 8.56006 26.3474 7.97103L26.1989 7.79151L25.9927 7.89893L23.8176 9.02941L23.8089 9.01427L23.6496 9.11665L23.4845 9.20244L23.4931 9.21686L21.2113 10.6768L21.3115 10.9032C21.6849 11.7446 21.628 12.3235 21.1276 12.7784C20.8587 13.0229 20.584 13.1411 20.287 13.1411C19.9222 13.1411 19.5062 12.9709 18.9402 12.5896L18.7304 12.449L16.871 14.5455L14.7045 16.5059L14.8776 16.7185C15.5185 17.5037 15.6101 18.0956 15.1825 18.6976C14.915 19.0754 14.5913 19.2513 14.1652 19.2513C13.8891 19.2513 13.5661 19.1778 13.1768 19.0264L12.9562 18.9398L11.5359 21.172L11.52 21.1619L11.4133 21.3652L11.3167 21.5166L11.3297 21.5245L10.1891 23.7047L10.0759 23.9203L10.2698 24.0674C11.0564 24.6665 11.2792 25.2159 11.0146 25.9037C10.7861 26.4992 10.3614 26.7414 9.5496 26.7414C9.42992 26.7414 9.29943 26.7364 9.15019 26.7263L8.9238 26.7104L8.85531 26.9274L8.13651 29.2122L8.11848 29.2064L8.07378 29.4112L8.01682 29.5936L8.0334 29.5986L7.45086 32.2763L7.68157 32.365C8.54746 32.6974 8.91371 33.153 8.86973 33.843C8.8207 34.6173 8.34775 35.0261 7.28792 35.2114L7.04928 35.2532V37.9222H2.59009C2.6211 32.8639 3.63262 27.957 5.5987 23.3356C7.50926 18.8418 10.2367 14.8065 13.7045 11.3401C17.171 7.87514 21.2033 5.1542 25.6885 3.25373C30.3308 1.28621 35.2579 0.288387 40.3321 0.288387Z" fill="white"/>
</svg>
