<svg width="157.647" height="80" viewBox="0 0 157.647 80" fill="none" xmlns="http://www.w3.org/2000/svg"><path d="M157.535 36.889H92.404c0.594 -5.109 2.648 -9.93 5.908 -13.87s7.584 -6.828 12.441 -8.309a25.647 25.647 0 0 1 14.895 -0.022c4.861 1.465 9.194 4.34 12.465 8.271l9.473 -9.664c-5.152 -5.831 -11.878 -9.998 -19.344 -11.985a38.871 38.871 0 0 0 -22.653 0.805c-7.311 2.513 -13.733 7.148 -18.47 13.329 -4.737 6.182 -7.581 13.639 -8.178 21.445h-0.227c-0.597 -7.806 -3.44 -15.263 -8.178 -21.445S59.376 4.627 52.066 2.115a38.871 38.871 0 0 0 -22.653 -0.805c-7.466 1.988 -14.192 6.155 -19.344 11.986l9.473 9.664c3.272 -3.931 7.605 -6.805 12.465 -8.271a25.661 25.661 0 0 1 14.895 0.022c4.856 1.48 9.181 4.368 12.441 8.309 3.26 3.94 5.314 8.761 5.908 13.87H0.117A42.353 42.353 0 0 0 0 39.978c0.001 9.806 3.554 19.269 9.984 26.591 6.43 7.322 15.288 11.992 24.889 13.123s19.279 -1.358 27.191 -6.992c7.912 -5.634 13.507 -14.02 15.722 -23.565h2.076c2.205 9.554 7.797 17.952 15.712 23.594 7.914 5.642 17.597 8.135 27.206 7.004s18.472 -5.808 24.901 -13.138 9.977 -16.804 9.967 -26.616a38.588 38.588 0 0 0 -0.112 -3.089M39.414 66.365c-5.325 0 -10.521 -1.656 -14.888 -4.747 -4.367 -3.091 -7.694 -7.467 -9.531 -12.537h48.834c-1.837 5.069 -5.163 9.444 -9.529 12.535 -4.366 3.091 -9.561 4.749 -14.886 4.75m78.823 0c-5.325 0 -10.522 -1.656 -14.89 -4.747s-7.695 -7.467 -9.533 -12.537H142.649c-1.837 5.068 -5.162 9.442 -9.527 12.533a25.769 25.769 0 0 1 -14.885 4.751" fill="white"/></svg>