<svg width="61" height="31" viewBox="0 0 61 31" fill="none" xmlns="http://www.w3.org/2000/svg">
<path d="M60.24 14.6837H35.7214C35.9452 12.7613 36.7182 10.9473 37.9455 9.46457C39.1727 7.98184 40.8006 6.89518 42.6289 6.33824C44.4572 5.78129 46.4062 5.77834 48.2362 6.32978C50.0661 6.88122 51.6972 7.96291 52.9287 9.44194L56.495 5.80555C54.5555 3.61161 52.0233 2.04344 49.2128 1.29553C46.4022 0.54763 43.437 0.652931 40.6849 1.59843C37.9329 2.54393 35.5152 4.28796 33.7319 6.61415C31.9486 8.94034 30.8781 11.7462 30.6533 14.6837H30.5679C30.3432 11.7462 29.2727 8.94034 27.4894 6.61415C25.7061 4.28796 23.2884 2.54393 20.5363 1.59843C17.7843 0.652931 14.819 0.54763 12.0084 1.29553C9.19789 2.04344 6.66578 3.61161 4.72629 5.80555L8.29252 9.44194C9.5241 7.96291 11.1552 6.88122 12.9851 6.32978C14.815 5.77834 16.764 5.78129 18.5923 6.33824C20.4206 6.89518 22.0485 7.98184 23.2758 9.46457C24.503 10.9473 25.2761 12.7613 25.4999 14.6837H0.980227C0.95143 15.0674 0.936705 15.4549 0.936035 15.8461C0.936431 19.5359 2.27396 23.0968 4.69436 25.852C7.11476 28.6072 10.4492 30.3646 14.0639 30.79C17.6786 31.2154 21.3214 30.2791 24.2998 28.1592C27.2782 26.0393 29.3845 22.8836 30.2183 19.292H30.9999C31.8301 22.887 33.9353 26.047 36.9145 28.1701C39.8937 30.2933 43.5389 31.2312 47.1561 30.8056C50.7733 30.3799 54.1097 28.6203 56.5302 25.8617C58.9507 23.1032 60.2861 19.5384 60.2822 15.8461C60.2835 15.4549 60.2695 15.0674 60.24 14.6837ZM15.7736 25.7754C13.769 25.7756 11.8127 25.1521 10.1687 23.989C8.5248 22.8259 7.27242 21.1793 6.58072 19.2716H24.9644C24.2727 21.1789 23.0206 22.8252 21.3771 23.9883C19.7336 25.1513 17.7778 25.775 15.7736 25.7754ZM45.4467 25.7754C43.442 25.7756 41.4855 25.1522 39.8414 23.9891C38.1973 22.8261 36.9447 21.1794 36.2528 19.2716H54.6365C53.9449 21.1786 52.6931 22.8246 51.05 23.9876C49.4069 25.1506 47.4505 25.7746 45.4467 25.7754Z" fill="white"/>
</svg>
