<svg width="20" height="21" viewBox="0 0 20 21" fill="none" xmlns="http://www.w3.org/2000/svg">
<g opacity="0.4">
<path fill-rule="evenodd" clip-rule="evenodd" d="M10.0001 2.44287C5.39591 2.44287 1.66675 6.17204 1.66675 10.7762C1.66675 14.4637 4.05216 17.5783 7.36466 18.6825C7.78133 18.7554 7.93758 18.5054 7.93758 18.2866C7.93758 18.0887 7.92716 17.4325 7.92716 16.7346C5.83341 17.12 5.29175 16.2241 5.12508 15.7554C5.03133 15.5158 4.62508 14.7762 4.27091 14.5783C3.97925 14.4221 3.56258 14.0366 4.2605 14.0262C4.91675 14.0158 5.3855 14.6304 5.54175 14.8804C6.29175 16.1408 7.48966 15.7866 7.96883 15.5679C8.04175 15.0262 8.2605 14.6616 8.50008 14.4533C6.64591 14.245 4.70841 13.5262 4.70841 10.3387C4.70841 9.43248 5.03133 8.68245 5.56258 8.09912C5.47925 7.89079 5.18758 7.03662 5.64591 5.89079C5.64591 5.89079 6.34383 5.67204 7.93758 6.74495C8.60425 6.55745 9.31258 6.4637 10.0209 6.4637C10.7292 6.4637 11.4376 6.55745 12.1042 6.74495C13.698 5.66162 14.3959 5.89079 14.3959 5.89079C14.8542 7.03662 14.5626 7.89079 14.4792 8.09912C15.0105 8.68245 15.3334 9.42206 15.3334 10.3387C15.3334 13.5366 13.3855 14.245 11.5313 14.4533C11.8334 14.7137 12.0938 15.2137 12.0938 15.995C12.0938 17.1096 12.0834 18.0054 12.0834 18.2866C12.0834 18.5054 12.2397 18.7658 12.6563 18.6825C14.3107 18.124 15.7482 17.0607 16.7666 15.6425C17.785 14.2242 18.333 12.5222 18.3334 10.7762C18.3334 6.17204 14.6042 2.44287 10.0001 2.44287Z" fill="#EDEDED"/>
</g>
</svg>