<?xml version="1.0" encoding="UTF-8" standalone="no" ?>
<!DOCTYPE svg PUBLIC "-//W3C//DTD SVG 1.1//EN" "http://www.w3.org/Graphics/SVG/1.1/DTD/svg11.dtd">
<svg xmlns="http://www.w3.org/2000/svg" xmlns:xlink="http://www.w3.org/1999/xlink" version="1.1" width="1080" height="1080" viewBox="0 0 1080 1080" xml:space="preserve">
<desc>Created with Fabric.js 5.2.4</desc>
<defs>
</defs>
<rect x="0" y="0" width="100%" height="100%" fill="transparent"></rect>
<g transform="matrix(1 0 0 1 540 540)" id="737373ee-1638-44ef-90b9-372066a320b2"  >
<rect style="stroke: none; stroke-width: 1; stroke-dasharray: none; stroke-linecap: butt; stroke-dashoffset: 0; stroke-linejoin: miter; stroke-miterlimit: 4; fill: rgb(0,0,0); fill-rule: nonzero; opacity: 1; visibility: hidden;" vector-effect="non-scaling-stroke"  x="-540" y="-540" rx="0" ry="0" width="1080" height="1080" />
</g>
<g transform="matrix(1 0 0 1 540 540)" id="d49b52f6-2c52-46c9-983c-4066e5a2d615"  >
</g>
<g transform="matrix(0.87 0 0 0.87 540 540)"  >
<path style="stroke: rgb(237,237,237); stroke-opacity: 0.15; stroke-width: 1; stroke-dasharray: none; stroke-linecap: butt; stroke-dashoffset: 0; stroke-linejoin: miter; stroke-miterlimit: 4; fill: none; fill-rule: nonzero; opacity: 1;"  transform=" translate(-623, -266.5)" d="M 0 88.5 L 1246 88.5 M 0 177.5 L 1246 177.5 M 0 266.5 L 1246 266.5 M 0 355.5 L 1246 355.5 M 0 444.5 L 1246 444.5 M 89.5 0 L 89.5 533 M 178.5 0 L 178.5 533 M 267.5 0 L 267.5 533 M 356.5 0 L 356.5 533 M 445.5 0 L 445.5 533 M 534.5 0 L 534.5 533 M 623.5 0 L 623.5 533 M 712.5 0 L 712.5 533 M 801.5 0 L 801.5 533 M 890.5 0 L 890.5 533 M 979.5 0 L 979.5 533 M 1068.5 0 L 1068.5 533 M 1157.5 0 L 1157.5 533" stroke-linecap="round" />
</g>
<g transform="matrix(0.87 0 0 0.87 540 540)"  >
<path style="stroke: rgb(237,237,237); stroke-opacity: 0.15; stroke-width: 1; stroke-dasharray: none; stroke-linecap: butt; stroke-dashoffset: 0; stroke-linejoin: miter; stroke-miterlimit: 4; fill: none; fill-rule: nonzero; opacity: 1;"  transform=" translate(-623, -266.5)" d="M 0 88.5 L 1246 88.5 M 0 177.5 L 1246 177.5 M 0 266.5 L 1246 266.5 M 0 355.5 L 1246 355.5 M 0 444.5 L 1246 444.5 M 89.5 0 L 89.5 533 M 178.5 0 L 178.5 533 M 267.5 0 L 267.5 533 M 356.5 0 L 356.5 533 M 445.5 0 L 445.5 533 M 534.5 0 L 534.5 533 M 623.5 0 L 623.5 533 M 712.5 0 L 712.5 533 M 801.5 0 L 801.5 533 M 890.5 0 L 890.5 533 M 979.5 0 L 979.5 533 M 1068.5 0 L 1068.5 533 M 1157.5 0 L 1157.5 533" stroke-linecap="round" />
</g>
<g transform="matrix(0.87 0 0 0.87 540 540)"  >
<path style="stroke: rgb(237,237,237); stroke-opacity: 0.15; stroke-width: 1; stroke-dasharray: none; stroke-linecap: butt; stroke-dashoffset: 0; stroke-linejoin: miter; stroke-miterlimit: 4; fill: none; fill-rule: nonzero; opacity: 1;"  transform=" translate(-623, -266.5)" d="M 0 88.5 L 1246 88.5 M 0 177.5 L 1246 177.5 M 0 266.5 L 1246 266.5 M 0 355.5 L 1246 355.5 M 0 444.5 L 1246 444.5 M 89.5 0 L 89.5 533 M 178.5 0 L 178.5 533 M 267.5 0 L 267.5 533 M 356.5 0 L 356.5 533 M 445.5 0 L 445.5 533 M 534.5 0 L 534.5 533 M 623.5 0 L 623.5 533 M 712.5 0 L 712.5 533 M 801.5 0 L 801.5 533 M 890.5 0 L 890.5 533 M 979.5 0 L 979.5 533 M 1068.5 0 L 1068.5 533 M 1157.5 0 L 1157.5 533" stroke-linecap="round" />
</g>
<g transform="matrix(0.87 0 0 0.87 540 540)"  >
<path style="stroke: rgb(237,237,237); stroke-opacity: 0.15; stroke-width: 1; stroke-dasharray: none; stroke-linecap: butt; stroke-dashoffset: 0; stroke-linejoin: miter; stroke-miterlimit: 4; fill: none; fill-rule: nonzero; opacity: 1;"  transform=" translate(-623, -266.5)" d="M 0 88.5 L 1246 88.5 M 0 177.5 L 1246 177.5 M 0 266.5 L 1246 266.5 M 0 355.5 L 1246 355.5 M 0 444.5 L 1246 444.5 M 89.5 0 L 89.5 533 M 178.5 0 L 178.5 533 M 267.5 0 L 267.5 533 M 356.5 0 L 356.5 533 M 445.5 0 L 445.5 533 M 534.5 0 L 534.5 533 M 623.5 0 L 623.5 533 M 712.5 0 L 712.5 533 M 801.5 0 L 801.5 533 M 890.5 0 L 890.5 533 M 979.5 0 L 979.5 533 M 1068.5 0 L 1068.5 533 M 1157.5 0 L 1157.5 533" stroke-linecap="round" />
</g>
<g transform="matrix(0.48 0 0 0.53 541.52 540)" id="42e0eddf-6184-4a30-8164-6294472b7236"  >
<path style="stroke: rgb(237,237,237); stroke-opacity: 0.15; stroke-width: 0; stroke-dasharray: none; stroke-linecap: butt; stroke-dashoffset: 0; stroke-linejoin: miter; stroke-miterlimit: 4; fill: rgb(0,0,0); fill-rule: nonzero; opacity: 1;" vector-effect="non-scaling-stroke"  transform=" translate(-623, -266.5)" d="M 0 88.5 L 1246 88.5 M 0 177.5 L 1246 177.5 M 0 266.5 L 1246 266.5 M 0 355.5 L 1246 355.5 M 0 444.5 L 1246 444.5 M 89.5 0 L 89.5 533 M 178.5 0 L 178.5 533 M 267.5 0 L 267.5 533 M 356.5 0 L 356.5 533 M 445.5 0 L 445.5 533 M 534.5 0 L 534.5 533 M 623.5 0 L 623.5 533 M 712.5 0 L 712.5 533 M 801.5 0 L 801.5 533 M 890.5 0 L 890.5 533 M 979.5 0 L 979.5 533 M 1068.5 0 L 1068.5 533 M 1157.5 0 L 1157.5 533" stroke-linecap="round" />
</g>
</svg>