<svg width="92" height="11" viewBox="0 0 92 11" fill="none" xmlns="http://www.w3.org/2000/svg">
<path d="M0.275773 0.699999H6.82777V2.464H4.47577V8.736H6.82777V10.5H0.275773V8.736H2.62777V2.464H0.275773V0.699999ZM13.804 9.576H14.056V0.699999H15.904V10.5H12.292L11.144 1.624H10.892V10.5H9.04404V0.699999H12.656L13.804 9.576ZM23.0763 3.696C23.0763 3.304 22.9223 2.96333 22.6143 2.674C22.3156 2.38467 21.891 2.24 21.3403 2.24C20.8736 2.24 20.505 2.338 20.2343 2.534C19.9636 2.72067 19.8283 2.97733 19.8283 3.304C19.8283 3.472 19.861 3.626 19.9263 3.766C19.9916 3.89667 20.1036 4.018 20.2623 4.13C20.4303 4.23267 20.645 4.326 20.9063 4.41C21.177 4.494 21.5176 4.57333 21.9283 4.648C22.955 4.83467 23.739 5.14733 24.2803 5.586C24.8216 6.02467 25.0923 6.67333 25.0923 7.532V7.7C25.0923 8.15733 25.0083 8.57267 24.8403 8.946C24.6816 9.31 24.4483 9.62267 24.1403 9.884C23.8323 10.1453 23.459 10.346 23.0203 10.486C22.5816 10.626 22.087 10.696 21.5363 10.696C20.8923 10.696 20.323 10.6073 19.8283 10.43C19.343 10.2433 18.937 9.99133 18.6103 9.674C18.2836 9.34733 18.0363 8.96933 17.8683 8.54C17.7003 8.10133 17.6163 7.62533 17.6163 7.112V6.692H19.4643V7.028C19.4643 7.616 19.6323 8.08733 19.9683 8.442C20.3136 8.78733 20.8456 8.96 21.5643 8.96C22.1243 8.96 22.5396 8.83867 22.8103 8.596C23.081 8.35333 23.2163 8.064 23.2163 7.728C23.2163 7.56933 23.1883 7.42 23.1323 7.28C23.0763 7.13067 22.9783 7 22.8383 6.888C22.6983 6.76667 22.507 6.65933 22.2643 6.566C22.0216 6.47267 21.7136 6.39333 21.3403 6.328C20.8456 6.244 20.393 6.13667 19.9823 6.006C19.5716 5.866 19.2123 5.684 18.9043 5.46C18.6056 5.236 18.3723 4.956 18.2043 4.62C18.0363 4.284 17.9523 3.87333 17.9523 3.388V3.304C17.9523 2.90267 18.0316 2.534 18.1903 2.198C18.3583 1.85267 18.587 1.554 18.8763 1.302C19.175 1.05 19.5296 0.854 19.9403 0.713999C20.3603 0.573999 20.827 0.503999 21.3403 0.503999C21.919 0.503999 22.4323 0.587999 22.8803 0.755999C23.3283 0.914666 23.7016 1.134 24.0003 1.414C24.3083 1.694 24.537 2.016 24.6863 2.38C24.845 2.744 24.9243 3.12667 24.9243 3.528V4.032H23.0763V3.696ZM26.7906 0.699999H33.8466V2.464H31.2426V10.5H29.3946V2.464H26.7906V0.699999ZM40.9068 8.4H37.5748L37.0988 10.5H35.1668L37.5048 0.699999H40.9768L43.3148 10.5H41.3828L40.9068 8.4ZM37.9668 6.636H40.5008L39.3668 1.624H39.1148L37.9668 6.636ZM47.5191 5.544H51.7191V10.5H50.0391V9.408H49.7871C49.6751 9.772 49.4604 10.08 49.1431 10.332C48.8258 10.5747 48.3498 10.696 47.7151 10.696C47.2671 10.696 46.8471 10.612 46.4551 10.444C46.0631 10.276 45.7224 10.0287 45.4331 9.702C45.1438 9.366 44.9151 8.95533 44.7471 8.47C44.5791 7.97533 44.4951 7.40133 44.4951 6.748V4.452C44.4951 3.81733 44.5838 3.25733 44.7611 2.772C44.9478 2.27733 45.1998 1.862 45.5171 1.526C45.8438 1.19 46.2311 0.937999 46.6791 0.769999C47.1271 0.592666 47.6218 0.503999 48.1631 0.503999C48.7231 0.503999 49.2224 0.597333 49.6611 0.784C50.0998 0.961333 50.4731 1.21333 50.7811 1.54C51.0891 1.85733 51.3224 2.23533 51.4811 2.674C51.6398 3.10333 51.7191 3.56533 51.7191 4.06V4.228H49.8711V4.06C49.8711 3.472 49.7171 3.02867 49.4091 2.73C49.1104 2.422 48.6858 2.268 48.1351 2.268C47.6124 2.268 47.1831 2.44533 46.8471 2.8C46.5111 3.14533 46.3431 3.74267 46.3431 4.592V6.664C46.3431 8.176 46.9591 8.932 48.1911 8.932C48.7418 8.932 49.1571 8.78733 49.4371 8.498C49.7264 8.19933 49.8711 7.80267 49.8711 7.308H47.5191V5.544ZM60.4034 10.5H58.5554V7.56C58.5554 7.336 58.4947 7.154 58.3734 7.014C58.2614 6.874 58.07 6.804 57.7994 6.804H55.6714V10.5H53.8234V0.699999H57.5754C58.0794 0.699999 58.5227 0.769999 58.9054 0.909999C59.288 1.05 59.6054 1.246 59.8574 1.498C60.1187 1.74067 60.3147 2.02533 60.4454 2.352C60.5854 2.67867 60.6554 3.02867 60.6554 3.402V3.738C60.6554 4.13933 60.548 4.51733 60.3334 4.872C60.1187 5.21733 59.7874 5.48333 59.3394 5.67V5.922C59.666 5.95933 59.9227 6.08533 60.1094 6.3C60.3054 6.51467 60.4034 6.78533 60.4034 7.112V10.5ZM55.6714 5.04H57.4354C57.8834 5.04 58.224 4.93733 58.4574 4.732C58.6907 4.51733 58.8074 4.21867 58.8074 3.836V3.668C58.8074 3.34133 58.6907 3.06133 58.4574 2.828C58.224 2.58533 57.8834 2.464 57.4354 2.464H55.6714V5.04ZM67.6736 8.4H64.3416L63.8656 10.5H61.9336L64.2716 0.699999H67.7436L70.0816 10.5H68.1496L67.6736 8.4ZM64.7336 6.636H67.2676L66.1336 1.624H65.8816L64.7336 6.636ZM70.9539 0.699999H74.2019L74.7619 8.064V9.492H75.0979V8.064L75.6579 0.699999H78.9059V10.5H77.2259V3.948L77.3939 1.708H77.0579L76.3299 10.5H73.5579L72.8019 1.708H72.4659L72.6339 3.948V10.5H70.9539V0.699999ZM91.9822 8.11426C91.9822 8.68848 91.5447 9.13281 91.0115 9.13281C90.4783 9.13281 90.0682 8.68848 90.0682 8.12793V5.5166L90.1639 3.34277L89.0975 4.53906L83.0477 10.582C82.8289 10.7939 82.576 10.9102 82.3162 10.9102C81.7898 10.9102 81.3113 10.4248 81.3113 9.90527C81.3113 9.64551 81.4344 9.39258 81.6463 9.17383L87.6824 3.12402L88.8787 2.06445L86.6297 2.14648H84.0936C83.533 2.14648 83.0887 1.73633 83.0887 1.20996C83.0887 0.676758 83.5193 0.239258 84.1004 0.239258H90.95C91.5721 0.239258 91.9891 0.65625 91.9891 1.27148L91.9822 8.11426Z" fill="#EDEDED"/>
</svg>
