<svg xmlns="http://www.w3.org/2000/svg" fill="#EDEDED" viewBox="0 0 20 22.857" width="20" height="22.857"><path d="M10.004 6.295c-2.839 0-5.129 2.29-5.129 5.129s2.29 5.129 5.129 5.129 5.13-2.29 5.13-5.129-2.29-5.129-5.13-5.129m0 8.464c-1.835 0-3.335-1.496-3.335-3.335s1.496-3.335 3.335-3.335 3.335 1.496 3.335 3.335-1.5 3.335-3.335 3.335m6.536-8.674c0 .665-.536 1.196-1.196 1.196a1.197 1.197 0 1 1 1.196-1.196m3.397 1.214c-.076-1.603-.442-3.022-1.616-4.192-1.17-1.17-2.589-1.536-4.192-1.616-1.652-.094-6.603-.094-8.254 0-1.598.076-3.018.442-4.192 1.612S.147 5.692.067 7.295c-.094 1.652-.094 6.603 0 8.254.076 1.603.442 3.022 1.616 4.192s2.589 1.536 4.192 1.616c1.652.094 6.603.094 8.254 0 1.603-.076 3.022-.442 4.192-1.616 1.17-1.17 1.536-2.589 1.616-4.192.094-1.652.094-6.598 0-8.25m-2.133 10.022a3.38 3.38 0 0 1-1.902 1.902c-1.317.522-4.442.402-5.897.402s-4.585.116-5.897-.402a3.38 3.38 0 0 1-1.902-1.902c-.522-1.317-.402-4.442-.402-5.897s-.116-4.585.402-5.897a3.38 3.38 0 0 1 1.902-1.902c1.317-.522 4.442-.402 5.897-.402s4.585-.116 5.897.402a3.38 3.38 0 0 1 1.902 1.902c.522 1.317.402 4.442.402 5.897s.121 4.585-.402 5.897"/></svg>