<svg width="119" height="61" viewBox="0 0 119 61" fill="none" xmlns="http://www.w3.org/2000/svg">
<path d="M62.3933 0.992874C60.7812 1.14334 59.2364 1.4769 57.656 1.95948C58.343 2.2988 58.9711 2.61653 59.6081 2.91505C59.699 2.95763 59.8366 2.92251 59.9467 2.89738C61.9701 2.43568 64.0183 2.27862 66.087 2.4111C67.9628 2.53122 69.7905 2.90796 71.5738 3.5025C71.6221 3.51862 71.667 3.54526 71.7123 3.58519C68.2319 2.8993 64.7819 2.99605 61.3493 3.92647C68.7367 9.17799 72.3569 16.3033 72.2189 25.3883C71.2733 25.3883 70.4041 25.3883 69.4882 25.3883C69.4882 25.1323 69.4923 24.8829 69.4876 24.6337C69.3816 19.0564 67.5775 14.0975 64.0933 9.7558C62.6183 7.91773 60.8907 6.35198 58.952 5.0173C58.7621 4.88656 58.6121 4.87023 58.4089 4.97437C57.9819 5.19317 57.5429 5.38832 57.0477 5.62202C60.4515 7.78062 63.0829 10.5818 64.9303 14.1029C66.7787 17.6258 67.5978 21.3807 67.408 25.3815C66.583 25.3815 65.7806 25.3815 64.8864 25.3815C64.8864 24.7186 64.9255 24.0646 64.88 23.4165C64.5891 19.2717 63.2024 15.5216 60.7796 12.1591C59.2988 10.104 57.5007 8.37127 55.4192 6.93222C55.2273 6.7995 55.0979 6.78358 54.8974 6.92457C50.103 10.2971 47.0526 14.8373 45.8086 20.586C45.493 22.0446 45.3533 23.5244 45.3578 25.0175C45.3581 25.1316 45.3578 25.2458 45.3578 25.3817C44.5374 25.3817 43.7434 25.3817 42.8772 25.3817C42.7666 16.929 46.2098 10.3669 53.22 5.60097C52.702 5.36009 52.1984 5.1113 51.6798 4.89928C51.595 4.86461 51.4324 4.97444 51.3259 5.04716C48.5658 6.93156 46.2958 9.29451 44.5113 12.1239C42.5574 15.222 41.3807 18.6011 40.9662 22.2407C40.8614 23.1615 40.86 24.0942 40.8128 25.0215C40.807 25.1353 40.812 25.2496 40.812 25.3832C39.9142 25.3832 39.0456 25.3832 38.1274 25.3832C37.9437 21.119 38.7674 17.0693 40.6972 13.2572C42.6297 9.43983 45.395 6.3593 48.9477 3.98325C48.442 3.68199 45.5838 3.18784 43.8532 3.15381C42.129 3.11991 40.4198 3.23061 38.7262 3.57841C38.7196 3.54528 38.7129 3.51215 38.7063 3.47902C39.5051 3.26951 40.2984 3.03489 41.1039 2.85521C43.4973 2.32129 45.915 2.23102 48.3449 2.54122C49.0105 2.62619 49.6663 2.78667 50.3308 2.88361C50.5228 2.91162 50.7491 2.88343 50.9257 2.80435C51.4904 2.55132 52.0392 2.26234 52.6457 1.96171C48.6384 0.719582 44.619 0.552693 40.5453 1.34532C40.5402 1.30786 40.535 1.2704 40.5299 1.23293C41.4814 0.990487 42.4263 0.717011 43.3858 0.511997C45.4326 0.0746341 47.5065 -0.0613584 49.5951 0.066401C51.3945 0.176462 53.1616 0.48018 54.8945 0.984162C55.0366 1.02548 55.2092 1.04134 55.3481 1.00115C57.3374 0.425778 59.3631 0.106807 61.4341 0.0413582C64.1829 -0.045512 66.8595 0.344178 69.4758 1.18033C69.553 1.20498 69.6277 1.23711 69.6912 1.33052C69.3744 1.27679 69.0578 1.222 68.7408 1.1695C66.6743 0.827248 64.5979 0.790861 62.5148 0.970439C62.4836 0.973135 62.4529 0.98313 62.3933 0.992874ZM53.6845 3.61588C53.5938 3.67018 53.5031 3.72448 53.3921 3.79094C53.9685 4.04863 54.5018 4.28867 55.0373 4.52385C55.0908 4.54737 55.168 4.56609 55.2161 4.54518C55.7778 4.3012 56.3361 4.04919 56.9277 3.78479C56.7884 3.70917 56.6901 3.64989 56.587 3.60094C56.1057 3.3725 55.6242 2.97303 55.1406 2.96992C54.6704 2.9669 54.1977 3.3712 53.6845 3.61588Z" fill="white"/>
<path d="M78.9417 48.781C78.0367 48.6747 77.1464 48.6388 76.2893 48.4508C74.345 48.0243 73.3015 46.8918 73.0434 44.9109C72.8001 43.0431 72.774 41.1578 73.0083 39.2875C73.2638 37.2488 74.4988 36.0047 76.5161 35.6571C78.8706 35.2514 81.2478 35.2317 83.6247 35.3174C84.8201 35.3605 86.0161 35.4653 87.204 35.6078C87.9454 35.6968 88.6368 35.9886 89.2779 36.3974C90.2284 37.0035 90.7065 37.9032 90.8615 38.977C91.1573 41.0247 91.1933 43.0852 90.8353 45.1247C90.4741 47.1829 89.3809 48.1795 87.3145 48.5209C85.2178 48.8672 83.1039 48.8562 80.9898 48.8403C80.3169 48.8353 79.6443 48.8025 78.9417 48.781ZM86.1993 42.9428C86.2024 42.331 86.2341 41.7177 86.2024 41.1078C86.1424 39.9535 85.6666 39.3514 84.6034 39.1505C82.8626 38.8216 81.1125 38.8458 79.3652 39.1292C78.4791 39.273 77.923 39.7958 77.8202 40.6779C77.7245 41.4996 77.6978 42.3376 77.7325 43.1645C77.7773 44.232 78.1819 44.7928 79.536 45.0265C81.1743 45.3093 82.8236 45.302 84.4648 45.0291C85.5088 44.8554 85.9288 44.4212 86.1351 43.3753C86.1595 43.2513 86.172 43.1249 86.1993 42.9428Z" fill="white"/>
<path d="M33.5605 42.7736C30.3329 42.7736 27.1368 42.7736 23.8657 42.7736C23.9352 43.2864 23.9581 43.7713 24.0746 44.2323C24.2049 44.7476 24.6134 45.0603 25.1143 45.1394C25.9212 45.2667 26.7388 45.3762 27.5538 45.3909C29.5732 45.4272 31.5938 45.3936 33.6136 45.4159C34.0916 45.4211 34.5772 45.4982 35.0438 45.6084C35.8489 45.7986 36.2922 46.353 36.3926 47.1675C36.4441 47.5848 36.4467 48.0081 36.4748 48.4867C36.0705 48.4867 35.6979 48.4863 35.3252 48.4868C32.2324 48.4906 29.1391 48.5244 26.0469 48.4824C24.939 48.4673 23.8164 48.3551 22.7307 48.1362C20.5313 47.6927 19.4717 46.4545 19.2392 44.2122C19.0667 42.5493 19.0557 40.8818 19.224 39.2181C19.4517 36.968 20.6781 35.6665 22.9036 35.272C24.7992 34.9359 26.7147 34.9192 28.628 34.9646C29.9711 34.9964 31.3193 35.0654 32.6514 35.2302C33.6829 35.3579 34.6355 35.7747 35.3567 36.588C35.9547 37.2624 36.1751 38.0985 36.3229 38.9543C36.5393 40.2074 36.54 41.4718 36.4533 42.7736C35.4981 42.7736 34.5451 42.7736 33.5605 42.7736ZM24.8343 38.3244C24.0905 38.6886 23.9731 39.3748 23.907 40.1111C26.5064 40.1111 29.0835 40.1111 31.6597 40.1111C31.7028 38.7556 31.3984 38.2881 30.0919 38.1105C29.0267 37.9657 27.9351 37.9584 26.8576 37.9849C26.1963 38.0012 25.5393 38.196 24.8343 38.3244Z" fill="white"/>
<path d="M69.8645 36.4747C70.849 37.174 71.2413 38.1691 71.3708 39.3001C71.4282 39.8023 71.466 40.3069 71.5152 40.838C69.8656 40.838 68.2435 40.838 66.6231 40.838C66.3505 39.6616 65.9328 39.2563 64.7131 39.0698C63.322 38.8571 61.9243 38.8609 60.5336 39.0784C59.3838 39.2581 58.9341 39.667 58.8138 40.8303C58.7245 41.6934 58.7501 42.5788 58.8247 43.4456C58.8907 44.2122 59.352 44.7249 60.128 44.9285C61.2933 45.2344 62.4774 45.2453 63.6668 45.1918C63.9813 45.1776 64.2958 45.143 64.6081 45.1007C65.8662 44.9301 66.2759 44.5662 66.6003 43.3392C68.2161 43.3392 69.8343 43.3392 71.4525 43.3392C71.4781 45.731 70.9178 47.9022 67.7692 48.5122C65.8586 48.8823 63.918 48.8463 61.9829 48.844C60.5515 48.8424 59.1209 48.8066 57.712 48.5191C56.4896 48.2695 55.4146 47.7691 54.7406 46.6402C54.3854 46.0453 54.2407 45.387 54.2246 44.7052C54.1846 43.006 54.1832 41.3056 54.1306 39.6068C54.0618 37.3858 55.5188 36.1728 57.0307 35.7924C57.9615 35.5581 58.9297 35.4248 59.8887 35.3615C62.0212 35.2207 64.158 35.2427 66.2899 35.4133C67.5449 35.5136 68.768 35.745 69.8645 36.4747Z" fill="white"/>
<path d="M99.5185 35.8231C100.895 35.2911 102.312 35.2569 103.734 35.2951C104.784 35.3234 105.839 35.3726 106.847 35.7116C108.769 36.3578 109.936 37.6538 110.144 39.7149C110.231 40.5742 110.268 41.4412 110.276 42.3052C110.295 44.3631 110.282 46.4213 110.282 48.5128C109.876 48.5128 109.48 48.5257 109.084 48.5097C108.517 48.4868 107.947 48.4753 107.386 48.4009C106.197 48.2432 105.689 47.7376 105.61 46.5254C105.524 45.179 105.532 43.8267 105.485 42.4774C105.463 41.8357 105.451 41.1896 105.362 40.5556C105.265 39.8567 104.83 39.3906 104.143 39.2155C102.599 38.8218 101.039 38.7974 99.494 39.1731C98.3214 39.4582 97.7397 40.2562 97.7144 41.5746C97.6732 43.7169 97.6736 45.8601 97.6568 48.0029C97.6555 48.161 97.6566 48.3191 97.6566 48.4975C96.0651 48.4975 94.4833 48.4975 92.884 48.4975C92.884 44.2201 92.884 39.9476 92.884 35.6836C93.5915 35.6836 94.3029 35.6607 95.0119 35.6926C95.4066 35.7103 95.8058 35.788 96.1879 35.8937C96.9805 36.1131 97.2935 36.512 97.3795 37.3287C97.3883 37.4116 97.3915 37.4951 97.4053 37.6945C97.5582 37.5628 97.6772 37.5006 97.737 37.4022C98.1651 36.6974 98.7299 36.1529 99.5185 35.8231Z" fill="white"/>
<path d="M15.5828 48.4988C15.2283 48.47 14.9009 48.4604 14.5796 48.4111C13.2932 48.2136 12.8003 47.7077 12.7339 46.3873C12.6649 45.0177 12.6759 43.6442 12.6384 42.2728C12.6237 41.7356 12.5945 41.1968 12.5319 40.6635C12.4429 39.9048 12.0098 39.4178 11.2751 39.2092C10.0917 38.8732 8.88429 38.8929 7.67498 38.9829C7.37303 39.0054 7.0711 39.0663 6.77613 39.1383C5.57811 39.4307 5.0036 40.0823 4.90453 41.3226C4.84076 42.1211 4.82327 42.9246 4.81598 43.7261C4.80263 45.1939 4.81218 46.6618 4.81218 48.1297C4.81218 48.2443 4.81218 48.359 4.81218 48.4955C3.2103 48.4955 1.62938 48.4955 0.0335693 48.4955C0.0335693 44.2202 0.0335693 39.9479 0.0335693 35.6815C0.745132 35.6815 1.45531 35.656 2.16249 35.6912C2.57769 35.7118 2.99773 35.7952 3.39861 35.9101C4.14566 36.1242 4.46219 36.5538 4.51789 37.3313C4.52382 37.4141 4.53207 37.4968 4.54666 37.665C4.67912 37.5766 4.8041 37.538 4.85137 37.4549C5.59844 36.1415 6.80522 35.5883 8.22549 35.4169C10.117 35.1885 12.0125 35.1762 13.8644 35.6701C15.538 36.1164 16.6705 37.2121 17.158 38.8899C17.3262 39.4685 17.371 40.0982 17.3797 40.7058C17.4161 43.2608 17.4176 45.8162 17.431 48.3715C17.4313 48.4118 17.4204 48.4522 17.4136 48.4999C16.8065 48.4999 16.2096 48.4999 15.5828 48.4988Z" fill="white"/>
<path d="M40.0047 32.7407C40.0047 32.3949 40.0047 32.0808 40.0047 31.7328C41.185 31.7467 42.3422 31.6553 43.4818 31.8938C44.3118 32.0674 44.6581 32.5238 44.731 33.4815C44.7757 34.0689 44.7915 34.6584 44.8215 35.2707C44.9059 35.2745 44.9965 35.2821 45.0871 35.2822C46.3913 35.2829 47.6957 35.2718 48.9998 35.2883C49.492 35.2945 49.9879 35.3352 50.4744 35.4108C51.7224 35.6047 52.2952 36.2603 52.3655 37.5478C52.3856 37.916 52.3686 38.2863 52.3686 38.6925C49.8611 38.6925 47.3454 38.6925 44.7987 38.6925C44.7987 38.8206 44.7978 38.9124 44.7989 39.0042C44.8178 40.5763 44.818 42.149 44.8641 43.7204C44.8868 44.4982 45.2522 44.8566 46.0212 44.9713C46.2903 45.0115 46.5648 45.0246 46.8372 45.0301C48.1192 45.0557 49.4015 45.0672 50.6832 45.1016C50.9309 45.1082 51.1821 45.1763 51.4221 45.2483C52.1543 45.4678 52.6487 45.946 52.8061 46.7014C52.9253 47.273 52.9717 47.8599 53.0535 48.4623C52.9155 48.4702 52.8551 48.4767 52.7948 48.4766C50.1128 48.4699 47.4305 48.4805 44.749 48.4434C44.0406 48.4335 43.3191 48.3392 42.63 48.1735C41.0722 47.7988 40.1199 46.5887 40.0711 44.9094C40.0146 42.9688 40.0239 41.0262 40.0049 39.0845C40.0037 38.9701 40.0047 38.8557 40.0047 38.7081C39.2541 38.7081 38.5241 38.7081 37.7823 38.7081C37.7823 37.5591 37.7823 36.4434 37.7823 35.2953C38.513 35.2953 39.2425 35.2953 40.0047 35.2953C40.0047 34.4331 40.0047 33.6027 40.0047 32.7407Z" fill="white"/>
<path d="M64.7289 59.6181C64.6525 59.3935 64.5898 59.1882 64.5092 58.9239C64.8727 58.9961 65.204 58.8906 65.3394 59.3179C65.38 59.4461 65.6046 59.5582 65.7647 59.5988C66.7736 59.8544 67.368 59.2588 67.2067 58.261C66.8566 58.3707 66.5032 58.5528 66.1383 58.5804C65.4336 58.6339 64.9287 58.261 64.6521 57.621C64.2839 56.7691 64.3293 55.9263 64.8575 55.1514C65.3374 54.4475 66.3728 54.3109 67.0413 54.8312C67.1052 54.881 67.1686 54.9315 67.2666 55.0087C67.2853 54.86 67.2989 54.7523 67.3149 54.626C67.5061 54.626 67.6894 54.626 67.8692 54.626C67.8844 54.6508 67.9041 54.668 67.9041 54.6852C67.9041 56.0151 67.934 57.3459 67.891 58.6744C67.8577 59.7063 67.0701 60.3057 65.9857 60.2121C65.5033 60.1705 65.0486 60.0649 64.7289 59.6181ZM65.1349 56.8849C65.1643 57.0184 65.1835 57.1551 65.2249 57.2847C65.3762 57.7576 65.739 58.0299 66.2044 58.0301C66.6635 58.0302 67.0975 57.7592 67.1762 57.2859C67.2535 56.8203 67.255 56.3211 67.1762 55.856C67.0945 55.3733 66.6425 55.088 66.1828 55.0921C65.7292 55.0961 65.3199 55.4034 65.21 55.888C65.1412 56.1916 65.1544 56.5139 65.1349 56.8849Z" fill="white"/>
<path d="M83.0615 56.3698C82.8637 56.3698 82.6972 56.3698 82.4958 56.3698C82.4958 57.1126 82.4958 57.8339 82.4958 58.5758C82.2365 58.5758 82.0116 58.5758 81.7662 58.5758C81.7662 56.7619 81.7662 54.9529 81.7662 53.1419C81.7798 53.1304 81.7956 53.1056 81.8112 53.1057C82.7236 53.1147 83.6391 53.084 84.5477 53.1486C85.4297 53.2113 85.9296 53.8149 85.9384 54.6856C85.9473 55.5582 85.4034 56.2082 84.5381 56.3062C84.06 56.3603 83.5748 56.3507 83.0615 56.3698ZM82.4856 55.2021C82.4856 55.357 82.4856 55.5118 82.4856 55.6852C83.0956 55.6852 83.6696 55.6947 84.2428 55.6792C84.4045 55.6748 84.5739 55.6182 84.7227 55.5489C85.0574 55.393 85.2345 54.9964 85.1756 54.5904C85.1116 54.1491 84.8662 53.8129 84.4925 53.7933C83.8372 53.7589 83.1789 53.7837 82.4856 53.7837C82.4856 54.24 82.4856 54.6899 82.4856 55.2021Z" fill="white"/>
<path d="M114.792 30.106C116.858 29.919 118.528 31.4571 118.402 33.3989C118.293 35.068 116.924 36.3863 115.279 36.4061C113.657 36.4256 112.272 35.1676 112.11 33.5263C111.946 31.8777 113.094 30.403 114.792 30.106ZM113.703 35.4763C114.321 35.9044 114.996 36.0445 115.737 35.9166C117.206 35.6632 118.189 34.2196 117.913 32.7007C117.654 31.2746 116.181 30.2629 114.764 30.5539C113.643 30.7841 112.892 31.4609 112.621 32.5745C112.339 33.7398 112.723 34.7104 113.703 35.4763Z" fill="white"/>
<path d="M88.0587 56.5046C88.6045 56.3932 89.1308 56.3029 89.6498 56.1809C89.8203 56.1408 90.0662 56.0539 90.1128 55.9272C90.2193 55.6385 90.0299 55.3285 89.7613 55.1968C89.1713 54.9075 88.5208 55.1172 88.1861 55.6956C88.1535 55.7517 88.0649 55.8089 88.0033 55.8078C87.8394 55.805 87.6761 55.7706 87.5022 55.7473C87.6052 55.1613 87.9108 54.7592 88.4514 54.6539C88.9158 54.5635 89.4133 54.5324 89.8803 54.5948C90.5256 54.6809 90.7959 55.0544 90.8125 55.7083C90.8266 56.2671 90.8069 56.8269 90.8264 57.3853C90.8401 57.7802 90.8944 58.1737 90.9311 58.5724C90.3642 58.6656 90.3391 58.6534 90.1987 58.2456C89.7457 58.39 89.3003 58.549 88.8446 58.6682C88.6802 58.7112 88.4876 58.6767 88.3136 58.6458C87.8101 58.5562 87.482 58.2219 87.3936 57.7337C87.3028 57.2319 87.5181 56.823 88.0587 56.5046ZM89.7907 56.7022C89.3707 56.7876 88.9465 56.8564 88.5323 56.9644C88.2709 57.0325 88.103 57.2184 88.1025 57.5159C88.102 57.8204 88.2529 58.015 88.5367 58.0969C88.9902 58.2277 89.4128 58.153 89.773 57.8413C90.1463 57.5181 90.1633 57.0891 90.1076 56.6219C90.0027 56.6502 89.923 56.6718 89.7907 56.7022Z" fill="white"/>
<path d="M43.7357 55.1348C42.9049 55.0567 42.4729 55.4305 42.4563 56.2465C42.4408 57.0149 42.453 57.7838 42.453 58.5743C42.2188 58.5743 42.0145 58.5743 41.7885 58.5743C41.7885 56.7656 41.7885 54.9545 41.7885 53.1162C41.9848 53.1162 42.1885 53.1162 42.433 53.1162C42.433 53.7207 42.433 54.3355 42.433 55.0432C42.8578 54.6507 43.2804 54.4955 43.7787 54.5299C44.4888 54.5789 44.9543 54.9861 44.9769 55.7021C45.0068 56.6504 44.9842 57.6002 44.9842 58.5729C44.7725 58.5729 44.5679 58.5729 44.3133 58.5729C44.3133 58.4675 44.3133 58.3564 44.3133 58.2453C44.313 57.4957 44.3163 56.746 44.3111 55.9963C44.3083 55.5988 44.1949 55.2638 43.7357 55.1348Z" fill="white"/>
<path d="M104.039 58.1316C103.44 57.385 103.37 56.096 103.873 55.3158C104.282 54.6816 105.076 54.3795 105.837 54.5684C106.584 54.7537 107.101 55.3733 107.173 56.1818C107.189 56.3589 107.175 56.5386 107.175 56.7591C106.213 56.7591 105.252 56.7591 104.298 56.7591C104.217 57.3441 104.556 57.9073 105.056 58.0693C105.612 58.2496 106.103 58.055 106.38 57.5212C106.461 57.3648 106.548 57.2956 106.721 57.3336C106.864 57.365 107.009 57.3827 107.154 57.4065C106.83 58.7425 105.125 59.1435 104.039 58.1316ZM106.181 56.2311C106.273 56.2265 106.365 56.2218 106.456 56.2173C106.47 55.5552 106.018 55.0712 105.405 55.0718C104.774 55.0724 104.302 55.5536 104.303 56.2311C104.909 56.2311 105.515 56.2311 106.181 56.2311Z" fill="white"/>
<path d="M34.2612 57.4401C34.505 57.3949 34.739 57.3726 34.993 57.3485C34.8226 58.2016 34.1477 58.6953 33.2682 58.685C31.9319 58.6694 31.3213 57.7439 31.3793 56.4814C31.4117 55.7769 31.6275 55.1501 32.2775 54.769C33.4609 54.0751 34.8879 54.8183 35.0088 56.1895C35.0244 56.3659 35.011 56.5449 35.011 56.7638C34.0426 56.7638 33.0821 56.7638 32.1268 56.7638C32.0631 57.3655 32.3982 57.9137 32.8968 58.0718C33.475 58.2551 33.9424 58.0451 34.2612 57.4401ZM34.3117 56.1536C34.2106 55.4212 33.7541 55.0084 33.1279 55.0832C32.5111 55.1568 32.0895 55.6429 32.1531 56.2022C32.8657 56.2022 33.5777 56.2022 34.3117 56.1536Z" fill="white"/>
<path d="M7.94955 58.6678C6.86962 58.7427 6.1213 58.1921 5.96686 57.1412C5.90146 56.6962 5.92843 56.2096 6.03666 55.7727C6.2482 54.9189 6.95058 54.4913 7.91094 54.5317C8.72892 54.5661 9.42205 55.1192 9.54851 55.9289C9.6186 56.3777 9.61453 56.8562 9.54312 57.3051C9.42081 58.074 8.78661 58.5856 7.94955 58.6678ZM6.65003 56.0935C6.67306 56.5196 6.63766 56.9596 6.73418 57.3682C6.85016 57.8592 7.30193 58.1391 7.77334 58.1339C8.24765 58.1287 8.68669 57.8426 8.80172 57.3519C8.89304 56.9624 8.91925 56.5379 8.87438 56.1402C8.8006 55.4864 8.37572 55.1095 7.8131 55.0923C7.21792 55.074 6.83236 55.3911 6.65003 56.0935Z" fill="white"/>
<path d="M53.7336 58.6718C52.6687 58.7147 51.9554 58.1803 51.8062 57.1517C51.7403 56.6965 51.7666 56.1986 51.8793 55.7529C52.0955 54.8982 52.8195 54.478 53.8003 54.5351C54.5924 54.5812 55.2704 55.1489 55.3888 55.9504C55.4537 56.3902 55.4515 56.8567 55.3825 57.2958C55.2584 58.0853 54.6033 58.6048 53.7336 58.6718ZM52.4867 56.094C52.5098 56.5201 52.4744 56.9601 52.5709 57.3687C52.6869 57.8597 53.1386 58.1396 53.6101 58.1345C54.0844 58.1293 54.5234 57.8431 54.6384 57.3525C54.7297 56.9629 54.7559 56.5384 54.7111 56.1408C54.6373 55.4869 54.2124 55.1101 53.6498 55.0928C53.0546 55.0746 52.6691 55.3916 52.4867 56.094Z" fill="white"/>
<path d="M59.6503 57.8097C59.3227 57.1299 59.2997 56.4458 59.505 55.7577C59.7552 54.9186 60.4399 54.4885 61.4018 54.5331C62.204 54.5703 62.8944 55.1154 63.0202 55.9143C63.0939 56.3824 63.0908 56.8858 63.0036 57.351C62.8657 58.0868 62.3452 58.5202 61.6221 58.6447C60.8156 58.7836 60.1216 58.5708 59.6503 57.8097ZM61.5434 58.0875C61.7548 57.9249 62.042 57.8054 62.1631 57.5913C62.5158 56.968 62.5152 56.2929 62.1962 55.6517C61.9979 55.2529 61.6353 55.069 61.1794 55.093C60.737 55.1162 60.4199 55.3315 60.2411 55.7297C60.0205 56.2207 60.0275 56.7368 60.1538 57.2482C60.3107 57.8839 60.8418 58.2103 61.5434 58.0875Z" fill="white"/>
<path d="M26.6236 53.0903C27.9457 53.0903 29.2374 53.0903 30.5141 53.0903C30.5406 53.1312 30.5601 53.1477 30.5616 53.1658C30.6129 53.7547 30.6127 53.7547 30.0283 53.7547C29.6196 53.7547 29.211 53.7547 28.773 53.7547C28.773 55.3687 28.773 56.958 28.773 58.5718C28.5188 58.5718 28.2935 58.5718 28.024 58.5718C28.024 56.9837 28.024 55.3875 28.024 53.7555C27.408 53.7555 26.8348 53.7555 26.247 53.7555C26.247 53.523 26.247 53.3271 26.247 53.0903C26.3691 53.0903 26.4811 53.0903 26.6236 53.0903Z" fill="white"/>
<path d="M3.88709 55.554C3.45739 56.014 3.33187 56.5361 3.38251 57.1362C3.42215 57.6059 3.39046 58.0816 3.39046 58.5749C3.1526 58.5749 2.9377 58.5749 2.67809 58.5749C2.67809 58.0094 2.6557 57.4431 2.68544 56.8795C2.70774 56.4569 2.59144 56.112 2.35039 55.7687C1.80603 54.9933 1.29285 54.1959 0.767872 53.4069C0.711288 53.3218 0.660576 53.2329 0.573842 53.0914C0.858677 53.0914 1.09733 53.0687 1.32791 53.1021C1.4264 53.1163 1.53112 53.2324 1.59375 53.3281C2.08862 54.0844 2.57401 54.8469 3.08957 55.6499C3.20037 55.4693 3.29758 55.3032 3.40204 55.1419C3.76841 54.5761 4.14928 54.0194 4.49978 53.444C4.6578 53.1845 4.82849 53.0263 5.14867 53.0861C5.26005 53.1069 5.37852 53.0894 5.58357 53.0894C4.99864 53.9384 4.44878 54.7365 3.88709 55.554Z" fill="white"/>
<path d="M69.9118 54.6069C70.1422 54.5628 70.1837 54.71 70.2333 54.853C70.5511 55.7682 70.8702 56.6829 71.1894 57.5976C71.2014 57.6319 71.2191 57.6642 71.2488 57.7301C71.5733 56.8326 71.8832 55.9766 72.1922 55.1203C72.3927 54.5645 72.3922 54.5643 73.0416 54.6339C72.9078 54.9938 72.7782 55.344 72.6473 55.6937C72.2043 56.8771 71.7679 58.0631 71.3115 59.2414C71.2182 59.4821 71.0755 59.7157 70.909 59.913C70.6441 60.2267 70.2588 60.3053 69.9068 60.1493C69.7645 60.0862 69.7318 59.7742 69.6456 59.5667C69.731 59.536 69.7596 59.515 69.7854 59.5181C70.6261 59.6195 71.0813 59.0237 70.7774 58.2204C70.3601 57.1173 69.9448 56.0135 69.5294 54.9097C69.4966 54.8226 69.4701 54.7331 69.428 54.6065C69.5982 54.6065 69.7413 54.6065 69.9118 54.6069Z" fill="white"/>
<path d="M14.4171 57.707C14.4171 58.011 14.4171 58.2835 14.4171 58.5753C14.2059 58.5753 14.0229 58.5753 13.8134 58.5753C13.8066 58.4213 13.7999 58.2709 13.7903 58.0534C13.3662 58.5753 12.8646 58.7448 12.2709 58.6602C11.6904 58.5774 11.2537 58.2104 11.2301 57.643C11.1887 56.6446 11.2185 55.6433 11.2185 54.6244C11.4282 54.6244 11.6235 54.6244 11.8543 54.6244C11.8607 54.7361 11.8719 54.8476 11.8727 54.9591C11.8781 55.719 11.8721 56.4791 11.8884 57.2388C11.8996 57.7659 12.129 58.0416 12.5509 58.0889C13.0874 58.1489 13.5746 57.8582 13.662 57.3743C13.7251 57.0247 13.7256 56.6617 13.7325 56.3042C13.7431 55.7559 13.7353 55.2072 13.7353 54.6321C13.9608 54.6321 14.1723 54.6321 14.4172 54.6321C14.4172 55.6538 14.4172 56.6646 14.4171 57.707Z" fill="white"/>
<path d="M46.8814 56.5671C46.8814 55.9045 46.8814 55.2735 46.8814 54.6243C47.0939 54.6243 47.2764 54.6243 47.4766 54.6243C47.4886 54.7788 47.4996 54.9199 47.5146 55.1145C47.9714 54.5626 48.5348 54.4391 49.1584 54.5702C49.7024 54.6846 50.0564 55.041 50.0775 55.5955C50.115 56.5834 50.088 57.5738 50.088 58.5793C49.8684 58.5793 49.6637 58.5793 49.4207 58.5793C49.4207 58.0431 49.4215 57.5184 49.4205 56.9938C49.4198 56.6455 49.4241 56.2969 49.4129 55.9488C49.3971 55.4573 49.202 55.2065 48.7899 55.1232C48.3407 55.0325 47.8333 55.2611 47.6864 55.6589C47.608 55.8711 47.5736 56.1097 47.5692 56.3373C47.555 57.0743 47.5639 57.8117 47.5639 58.5722C47.3359 58.5722 47.1316 58.5722 46.8814 58.5722C46.8814 57.9197 46.8814 57.2593 46.8814 56.5671Z" fill="white"/>
<path d="M99.3463 56.0867C99.3447 56.9268 99.3447 57.7381 99.3447 58.5726C99.1071 58.5726 98.9028 58.5726 98.6753 58.5726C98.6753 57.2671 98.6753 55.9548 98.6753 54.6241C98.8663 54.6241 99.0489 54.6241 99.2484 54.6241C99.2605 54.7801 99.2715 54.9212 99.2867 55.1173C99.6796 54.6349 100.16 54.489 100.715 54.5341C101.335 54.5843 101.812 54.9547 101.843 55.5672C101.892 56.5645 101.856 57.5661 101.856 58.5803C101.637 58.5803 101.433 58.5803 101.192 58.5803C101.192 57.9979 101.193 57.4307 101.192 56.8634C101.191 56.5572 101.195 56.2508 101.184 55.9449C101.167 55.456 100.969 55.2034 100.557 55.1225C100.119 55.0365 99.632 55.2577 99.4652 55.6339C99.4065 55.7665 99.3859 55.9161 99.3463 56.0867Z" fill="white"/>
<path d="M36.7012 55.5463C37.1252 54.4911 38.371 54.3626 39.0613 54.664C39.531 54.8691 39.7908 55.2404 39.8897 55.7819C39.6706 55.8173 39.4702 55.8497 39.2604 55.8836C39.0921 55.3763 38.813 55.0496 38.2482 55.0908C37.7177 55.1295 37.3321 55.4712 37.2516 56.096C37.2026 56.4761 37.2201 56.8784 37.2868 57.2567C37.3851 57.8153 37.7829 58.1262 38.2913 58.1309C38.7811 58.1354 39.1045 57.8623 39.2643 57.3103C39.2787 57.2602 39.2988 57.2118 39.3246 57.139C39.5184 57.1649 39.7126 57.1908 39.9046 57.2163C39.9594 57.9836 39.2195 58.5881 38.6238 58.6617C37.4223 58.8101 36.5522 58.0912 36.5338 56.8758C36.5273 56.4411 36.6364 56.0047 36.7012 55.5463Z" fill="white"/>
<path d="M96.9299 55.8707C96.9299 56.3879 96.9293 56.8735 96.93 57.359C96.9309 57.9884 96.9506 58.0091 97.5851 58.0251C97.6033 58.1043 97.6265 58.1914 97.6427 58.2799C97.6594 58.371 97.6692 58.4634 97.6877 58.5963C97.4774 58.6152 97.2822 58.6517 97.088 58.6466C96.5483 58.6324 96.2719 58.3636 96.2611 57.8217C96.2458 57.0619 96.2535 56.3017 96.2514 55.5417C96.2511 55.4269 96.2514 55.3122 96.2514 55.173C96.0815 55.1553 95.931 55.1397 95.767 55.1226C95.767 54.9557 95.767 54.8019 95.767 54.6239C95.9181 54.6135 96.0612 54.6036 96.2514 54.5905C96.2514 54.4587 96.2745 54.3212 96.2474 54.1945C96.1341 53.666 96.4343 53.4299 96.9136 53.2592C96.9136 53.7057 96.9136 54.138 96.9136 54.6002C97.1561 54.6002 97.3509 54.6002 97.5677 54.6002C97.5677 54.7832 97.5677 54.9357 97.5677 55.1231C97.3718 55.1371 97.1697 55.1515 96.9299 55.1687C96.9299 55.4016 96.9299 55.6203 96.9299 55.8707Z" fill="white"/>
<path d="M110.5 54.5385C110.684 54.595 110.84 54.6493 111.031 54.7153C110.952 54.9352 110.884 55.1277 110.817 55.3139C110.785 55.3232 110.763 55.3382 110.747 55.3329C110.043 55.0909 109.629 55.3487 109.582 56.116C109.54 56.8095 109.561 57.5068 109.554 58.2024C109.553 58.317 109.554 58.4317 109.554 58.5711C109.332 58.5711 109.128 58.5711 108.9 58.5711C108.9 57.2684 108.9 55.9576 108.9 54.6263C109.078 54.6263 109.252 54.6263 109.457 54.6263C109.474 54.7562 109.492 54.8934 109.52 55.1006C109.774 54.7258 110.038 54.4658 110.5 54.5385Z" fill="white"/>
<path d="M93.0915 58.5958C92.9592 58.5958 92.8561 58.5958 92.7335 58.5958C92.7335 57.2608 92.7335 55.9504 92.7335 54.6229C92.9225 54.6229 93.0971 54.6229 93.2968 54.6229C93.3121 54.7555 93.3274 54.8881 93.3529 55.1099C93.7548 54.4436 94.2565 54.3903 94.8606 54.7401C94.785 54.9477 94.7146 55.1409 94.6394 55.3474C94.5659 55.3232 94.5078 55.3041 94.4496 55.285C93.9574 55.1233 93.5957 55.3123 93.4774 55.8242C93.4188 56.0779 93.3991 56.3444 93.3938 56.6058C93.3821 57.1851 93.3804 57.7651 93.3962 58.3442C93.4023 58.5675 93.3128 58.6222 93.0915 58.5958Z" fill="white"/>
<path d="M16.9979 56.6953C16.9978 57.3358 16.9978 57.9449 16.9978 58.5747C16.7677 58.5747 16.5641 58.5747 16.3396 58.5747C16.3396 57.2623 16.3396 55.9522 16.3396 54.6238C16.5255 54.6238 16.7 54.6238 16.9014 54.6238C16.917 54.7531 16.933 54.8852 16.9469 54.9997C17.175 54.8473 17.3891 54.6177 17.6421 54.56C17.8908 54.5033 18.1791 54.6211 18.4911 54.6686C18.3914 54.9446 18.3217 55.1377 18.2464 55.346C18.1551 55.3142 18.0793 55.2838 18.0014 55.2613C17.578 55.1387 17.1998 55.3281 17.0978 55.758C17.0282 56.0512 17.0287 56.3613 16.9979 56.6953Z" fill="white"/>
<path d="M57.0387 54.1592C57.0387 53.793 57.0387 53.4585 57.0387 53.1075C57.2686 53.1075 57.4625 53.1075 57.6756 53.1075C57.6756 54.9351 57.6756 56.7446 57.6756 58.5746C57.4751 58.5746 57.2805 58.5746 57.0387 58.5746C57.0387 57.1146 57.0387 55.6527 57.0387 54.1592Z" fill="white"/>
<path d="M114.183 31.8584C114.182 31.7018 114.182 31.5764 114.182 31.4438C114.706 31.4438 115.218 31.4145 115.724 31.4527C116.157 31.4853 116.475 31.7352 116.564 32.1838C116.646 32.6055 116.52 32.9556 116.039 33.1792C116.884 33.5254 116.386 34.332 116.724 34.8534C116.677 34.8652 116.648 34.8772 116.62 34.8785C116.066 34.9046 116.013 34.8549 116.006 34.2981C116.004 34.1821 116.014 34.0649 116.001 33.9502C115.966 33.635 115.779 33.4557 115.462 33.4402C115.243 33.4295 115.022 33.4382 114.767 33.4382C114.767 33.9118 114.767 34.3798 114.767 34.8636C114.56 34.8636 114.388 34.8636 114.183 34.8636C114.183 33.866 114.183 32.8778 114.183 31.8584ZM115.219 31.8559C115.067 31.8559 114.916 31.8559 114.769 31.8559C114.769 32.2471 114.769 32.5906 114.769 32.9418C115.049 32.9418 115.321 32.9702 115.584 32.9349C115.943 32.8868 116.123 32.4859 115.947 32.1648C115.803 31.9037 115.555 31.839 115.219 31.8559Z" fill="white"/>
</svg>
