<svg width="120" height="36" viewBox="0 0 120 36" fill="none" xmlns="http://www.w3.org/2000/svg">
<path d="M39.5444 22.3207H38.6248C38.1369 22.3207 37.6691 22.1269 37.3242 21.7818C36.9793 21.4368 36.7855 20.9689 36.7855 20.4809V8.52259C36.7855 8.27863 36.6886 8.04465 36.5161 7.87214C36.3437 7.69964 36.1098 7.60272 35.8658 7.60272H34.0266C33.8827 7.60421 33.7412 7.63944 33.6134 7.70558C33.4856 7.77172 33.3752 7.86693 33.2909 7.98355C32.6463 7.73077 31.96 7.60158 31.2677 7.60272H29.4284C27.965 7.60272 26.5615 8.18421 25.5267 9.21927C24.4919 10.2543 23.9106 11.6582 23.9106 13.122V20.4809C23.9106 21.2057 24.0533 21.9234 24.3306 22.5931C24.6079 23.2627 25.0143 23.8711 25.5267 24.3836C26.5615 25.4187 27.965 26.0002 29.4284 26.0002H31.2677C32.6249 26.0001 33.9346 25.4997 34.9462 24.5946C35.9578 25.4997 37.2675 26.0001 38.6248 26.0002H39.5444C39.7883 26.0002 40.0222 25.9033 40.1947 25.7308C40.3671 25.5582 40.464 25.3243 40.464 25.0803V23.2406C40.464 22.9966 40.3671 22.7626 40.1947 22.5901C40.0222 22.4176 39.7883 22.3207 39.5444 22.3207ZM33.1069 20.4809C33.1069 20.9689 32.9132 21.4368 32.5682 21.7818C32.2233 22.1269 31.7555 22.3207 31.2677 22.3207H29.4284C28.9406 22.3207 28.4728 22.1269 28.1278 21.7818C27.7829 21.4368 27.5891 20.9689 27.5891 20.4809V13.122C27.5891 12.634 27.7829 12.1661 28.1278 11.8211C28.4728 11.476 28.9406 11.2822 29.4284 11.2822H31.2677C31.7555 11.2822 32.2233 11.476 32.5682 11.8211C32.9132 12.1661 33.1069 12.634 33.1069 13.122V20.4809Z" fill="white"/>
<path d="M16.5534 7.60271H14.7142C13.2508 7.60271 11.8473 8.1842 10.8125 9.21926C9.7777 10.2543 9.19636 11.6582 9.19636 13.122V22.3207H6.43746C6.19355 22.3207 5.95964 22.4176 5.78717 22.5901C5.61471 22.7626 5.51782 22.9966 5.51782 23.2406V25.0803C5.51782 25.3243 5.61471 25.5582 5.78717 25.7307C5.95964 25.9033 6.19355 26.0002 6.43746 26.0002H9.19636V29.6797C9.19636 30.1676 9.00258 30.6355 8.65765 30.9806C8.31272 31.3256 7.84489 31.5194 7.35709 31.5194H6.43746C6.19355 31.5194 5.95964 31.6163 5.78717 31.7888C5.61471 31.9613 5.51782 32.1953 5.51782 32.4393V34.279C5.51782 34.523 5.61471 34.757 5.78717 34.9295C5.95964 35.102 6.19355 35.1989 6.43746 35.1989H7.35709C8.0817 35.1989 8.79921 35.0561 9.46867 34.7788C10.1381 34.5014 10.7464 34.0949 11.2588 33.5824C11.7711 33.0699 12.1776 32.4614 12.4549 31.7918C12.7322 31.1222 12.8749 30.4045 12.8749 29.6797V26.0002H16.5534C17.2781 26.0002 17.9956 25.8574 18.665 25.58C19.3345 25.3027 19.9427 24.8961 20.4551 24.3836C20.9675 23.8711 21.3739 23.2627 21.6512 22.5931C21.9285 21.9234 22.0713 21.2057 22.0713 20.4809V13.122C22.0713 11.6582 21.4899 10.2543 20.4551 9.21926C19.4203 8.1842 18.0169 7.60271 16.5534 7.60271ZM18.3927 20.4809C18.3927 20.9689 18.1989 21.4368 17.854 21.7818C17.5091 22.1269 17.0412 22.3207 16.5534 22.3207H12.8749V13.122C12.8749 12.634 13.0687 12.1661 13.4136 11.8211C13.7585 11.476 14.2264 11.2822 14.7142 11.2822H16.5534C17.0412 11.2822 17.5091 11.476 17.854 11.8211C18.1989 12.1661 18.3927 12.634 18.3927 13.122V20.4809Z" fill="white"/>
<path d="M2.75891 22.3204H0.919635C0.411735 22.3204 0 22.7322 0 23.2403V25.08C0 25.588 0.411735 25.9999 0.919635 25.9999H2.75891C3.26681 25.9999 3.67854 25.588 3.67854 25.08V23.2403C3.67854 22.7322 3.26681 22.3204 2.75891 22.3204Z" fill="white"/>
<path d="M48.7406 7.60264H45.9817V1.16353C45.9817 0.91956 45.8848 0.685587 45.7124 0.513077C45.5399 0.340567 45.306 0.243652 45.0621 0.243652H43.2228C42.9789 0.243652 42.745 0.340567 42.5725 0.513077C42.4001 0.685587 42.3032 0.91956 42.3032 1.16353V7.60264H39.5443C39.3004 7.60264 39.0664 7.69955 38.894 7.87206C38.7215 8.04457 38.6246 8.27855 38.6246 8.52251V10.3623C38.6246 10.6062 38.7215 10.8402 38.894 11.0127C39.0664 11.1852 39.3004 11.2821 39.5443 11.2821H42.3032V25.0802C42.3032 25.3242 42.4001 25.5582 42.5725 25.7307C42.745 25.9032 42.9789 26.0001 43.2228 26.0001H45.0621C45.306 26.0001 45.5399 25.9032 45.7124 25.7307C45.8848 25.5582 45.9817 25.3242 45.9817 25.0802V11.2821H48.7406C48.9845 11.2821 49.2184 11.1852 49.3909 11.0127C49.5634 10.8402 49.6602 10.6062 49.6602 10.3623V8.52251C49.6602 8.27855 49.5634 8.04457 49.3909 7.87206C49.2184 7.69955 48.9845 7.60264 48.7406 7.60264Z" fill="white"/>
<path d="M118.633 7.60271H116.794C116.55 7.60271 116.316 7.69963 116.143 7.87214C115.971 8.04465 115.874 8.27862 115.874 8.52259V22.3207H112.195C111.708 22.3207 111.24 22.1269 110.895 21.7818C110.55 21.4368 110.356 20.9689 110.356 20.4809V8.52259C110.356 8.27862 110.259 8.04465 110.087 7.87214C109.914 7.69963 109.68 7.60271 109.437 7.60271H107.597C107.353 7.60271 107.119 7.69963 106.947 7.87214C106.775 8.04465 106.678 8.27862 106.678 8.52259V20.4809C106.678 21.2057 106.82 21.9234 107.098 22.5931C107.375 23.2627 107.781 23.8711 108.294 24.3836C109.329 25.4187 110.732 26.0002 112.195 26.0002H115.874V27.8399C115.874 28.3279 115.68 28.7958 115.335 29.1408C114.99 29.4858 114.523 29.6797 114.035 29.6797H107.597C107.353 29.6797 107.119 29.7766 106.947 29.9491C106.775 30.1216 106.678 30.3556 106.678 30.5995V32.4393C106.678 32.6833 106.775 32.9172 106.947 33.0897C107.119 33.2622 107.353 33.3592 107.597 33.3592H114.035C115.498 33.3592 116.902 32.7777 117.936 31.7426C118.971 30.7076 119.553 29.3037 119.553 27.8399V8.52259C119.553 8.27862 119.456 8.04465 119.283 7.87214C119.111 7.69963 118.877 7.60271 118.633 7.60271Z" fill="white"/>
<path d="M87.3653 7.60271H85.5261C85.2822 7.60271 85.0482 7.69963 84.8758 7.87214C84.7033 8.04465 84.6064 8.27862 84.6064 8.52259V22.3207H80.9279C80.4401 22.3207 79.9723 22.1269 79.6273 21.7818C79.2824 21.4368 79.0886 20.9689 79.0886 20.4809V8.52259C79.0886 8.27862 78.9917 8.04465 78.8193 7.87214C78.6468 7.69963 78.4129 7.60271 78.169 7.60271H76.3297C76.0858 7.60271 75.8519 7.69963 75.6794 7.87214C75.507 8.04465 75.4101 8.27862 75.4101 8.52259V22.3207H71.7315C71.2437 22.3207 70.7759 22.1269 70.431 21.7818C70.086 21.4368 69.8923 20.9689 69.8923 20.4809V8.52259C69.8923 8.27862 69.7954 8.04465 69.6229 7.87214C69.4504 7.69963 69.2165 7.60271 68.9726 7.60271H67.1334C66.8895 7.60271 66.6555 7.69963 66.4831 7.87214C66.3106 8.04465 66.2137 8.27862 66.2137 8.52259V20.4809C66.2137 21.2057 66.3564 21.9234 66.6337 22.5931C66.911 23.2627 67.3175 23.8711 67.8298 24.3836C68.8646 25.4187 70.2681 26.0002 71.7315 26.0002H78.169C78.3144 26.0001 78.4577 25.9656 78.5872 25.8994C78.7167 25.8332 78.8287 25.7372 78.9139 25.6193C79.5555 25.871 80.2387 26.0002 80.9279 26.0002H87.3653C87.6092 26.0002 87.8431 25.9033 88.0156 25.7307C88.1881 25.5582 88.285 25.3243 88.285 25.0803V8.52259C88.285 8.27862 88.1881 8.04465 88.0156 7.87214C87.8431 7.69963 87.6092 7.60271 87.3653 7.60271Z" fill="white"/>
<path d="M106.678 23.2406C106.678 22.9966 106.581 22.7626 106.408 22.5901C106.236 22.4176 106.002 22.3207 105.758 22.3207H104.838C104.351 22.3207 103.883 22.1269 103.538 21.7818C103.193 21.4368 102.999 20.9689 102.999 20.4809V8.52259C102.999 8.27863 102.902 8.04465 102.73 7.87214C102.557 7.69964 102.323 7.60272 102.08 7.60272H100.24C100.096 7.60421 99.9549 7.63944 99.8271 7.70558C99.6994 7.77172 99.5889 7.86693 99.5046 7.98355C98.8601 7.73077 98.1737 7.60158 97.4814 7.60272H95.6421C94.1787 7.60272 92.7752 8.18421 91.7404 9.21927C90.7057 10.2543 90.1243 11.6582 90.1243 13.122V20.4809C90.1243 21.2057 90.267 21.9234 90.5443 22.5931C90.8216 23.2627 91.2281 23.8711 91.7404 24.3836C92.7752 25.4187 94.1787 26.0002 95.6421 26.0002H97.4814C98.8387 26.0001 100.148 25.4997 101.16 24.5946C102.172 25.4997 103.481 26.0001 104.838 26.0002H105.758C106.002 26.0002 106.236 25.9033 106.408 25.7308C106.581 25.5582 106.678 25.3243 106.678 25.0803V23.2406ZM99.3207 20.4809C99.3207 20.9689 99.1269 21.4368 98.782 21.7818C98.437 22.1269 97.9692 22.3207 97.4814 22.3207H95.6421C95.1543 22.3207 94.6865 22.1269 94.3416 21.7818C93.9966 21.4368 93.8029 20.9689 93.8029 20.4809V13.122C93.8029 12.634 93.9966 12.1661 94.3416 11.8211C94.6865 11.476 95.1543 11.2822 95.6421 11.2822H97.4814C97.9692 11.2822 98.437 11.476 98.782 11.8211C99.1269 12.1661 99.3207 12.634 99.3207 13.122V20.4809Z" fill="white"/>
<path d="M58.8565 7.60264H55.178V1.16353C55.178 0.91956 55.0811 0.685587 54.9086 0.513077C54.7362 0.340567 54.5023 0.243652 54.2584 0.243652H52.4191C52.1752 0.243652 51.9413 0.340567 51.7688 0.513077C51.5964 0.685587 51.4995 0.91956 51.4995 1.16353V25.0802C51.4995 25.3242 51.5964 25.5582 51.7688 25.7307C51.9413 25.9032 52.1752 26.0001 52.4191 26.0001H54.2584C54.5023 26.0001 54.7362 25.9032 54.9086 25.7307C55.0811 25.5582 55.178 25.3242 55.178 25.0802V11.2821H58.8565C59.3443 11.2821 59.8122 11.476 60.1571 11.821C60.502 12.166 60.6958 12.6339 60.6958 13.1219V25.0802C60.6958 25.3242 60.7927 25.5582 60.9652 25.7307C61.1376 25.9032 61.3715 26.0001 61.6154 26.0001H63.4547C63.6986 26.0001 63.9325 25.9032 64.105 25.7307C64.2775 25.5582 64.3744 25.3242 64.3744 25.0802V13.1219C64.3744 11.6581 63.793 10.2542 62.7582 9.21918C61.7234 8.18413 60.32 7.60264 58.8565 7.60264Z" fill="white"/>
</svg>
