<svg width="84" height="11" viewBox="0 0 84 11" fill="none" xmlns="http://www.w3.org/2000/svg">
<path d="M6.83091 10.5H4.9829V7.56C4.9829 7.336 4.92224 7.154 4.80091 7.014C4.6889 6.874 4.49757 6.804 4.22691 6.804H2.0989V10.5H0.250905V0.699999H4.00291C4.5069 0.699999 4.95024 0.769999 5.3329 0.909999C5.71557 1.05 6.03291 1.246 6.2849 1.498C6.54624 1.74067 6.74224 2.02533 6.8729 2.352C7.01291 2.67867 7.08291 3.02867 7.08291 3.402V3.738C7.08291 4.13933 6.97557 4.51733 6.76091 4.872C6.54624 5.21733 6.21491 5.48333 5.7669 5.67V5.922C6.09357 5.95933 6.35024 6.08533 6.5369 6.3C6.73291 6.51467 6.83091 6.78533 6.83091 7.112V10.5ZM2.0989 5.04H3.86291C4.3109 5.04 4.65157 4.93733 4.8849 4.732C5.11824 4.51733 5.23491 4.21867 5.23491 3.836V3.668C5.23491 3.34133 5.11824 3.06133 4.8849 2.828C4.65157 2.58533 4.3109 2.464 3.86291 2.464H2.0989V5.04ZM9.29917 0.699999H15.4872V2.464H11.1472V4.704H15.3192V6.468H11.1472V8.736H15.6552V10.5H9.29917V0.699999ZM20.7134 5.544H24.9134V10.5H23.2334V9.408H22.9814C22.8694 9.772 22.6548 10.08 22.3374 10.332C22.0201 10.5747 21.5441 10.696 20.9094 10.696C20.4614 10.696 20.0414 10.612 19.6494 10.444C19.2574 10.276 18.9168 10.0287 18.6274 9.702C18.3381 9.366 18.1094 8.95533 17.9414 8.47C17.7734 7.97533 17.6894 7.40133 17.6894 6.748V4.452C17.6894 3.81733 17.7781 3.25733 17.9554 2.772C18.1421 2.27733 18.3941 1.862 18.7114 1.526C19.0381 1.19 19.4254 0.937999 19.8734 0.769999C20.3214 0.592666 20.8161 0.503999 21.3574 0.503999C21.9174 0.503999 22.4168 0.597333 22.8554 0.784C23.2941 0.961333 23.6674 1.21333 23.9754 1.54C24.2834 1.85733 24.5168 2.23533 24.6754 2.674C24.8341 3.10333 24.9134 3.56533 24.9134 4.06V4.228H23.0654V4.06C23.0654 3.472 22.9114 3.02867 22.6034 2.73C22.3048 2.422 21.8801 2.268 21.3294 2.268C20.8068 2.268 20.3774 2.44533 20.0414 2.8C19.7054 3.14533 19.5374 3.74267 19.5374 4.592V6.664C19.5374 8.176 20.1534 8.932 21.3854 8.932C21.9361 8.932 22.3514 8.78733 22.6314 8.498C22.9208 8.19933 23.0654 7.80267 23.0654 7.308H20.7134V5.544ZM27.0037 0.699999H33.5557V2.464H31.2037V8.736H33.5557V10.5H27.0037V8.736H29.3557V2.464H27.0037V0.699999ZM40.882 3.696C40.882 3.304 40.728 2.96333 40.42 2.674C40.1213 2.38467 39.6966 2.24 39.146 2.24C38.6793 2.24 38.3106 2.338 38.04 2.534C37.7693 2.72067 37.634 2.97733 37.634 3.304C37.634 3.472 37.6666 3.626 37.732 3.766C37.7973 3.89667 37.9093 4.018 38.068 4.13C38.236 4.23267 38.4506 4.326 38.712 4.41C38.9826 4.494 39.3233 4.57333 39.734 4.648C40.7606 4.83467 41.5446 5.14733 42.086 5.586C42.6273 6.02467 42.898 6.67333 42.898 7.532V7.7C42.898 8.15733 42.814 8.57267 42.646 8.946C42.4873 9.31 42.254 9.62267 41.946 9.884C41.638 10.1453 41.2646 10.346 40.826 10.486C40.3873 10.626 39.8926 10.696 39.342 10.696C38.698 10.696 38.1286 10.6073 37.634 10.43C37.1486 10.2433 36.7426 9.99133 36.416 9.674C36.0893 9.34733 35.842 8.96933 35.674 8.54C35.506 8.10133 35.422 7.62533 35.422 7.112V6.692H37.27V7.028C37.27 7.616 37.438 8.08733 37.774 8.442C38.1193 8.78733 38.6513 8.96 39.37 8.96C39.93 8.96 40.3453 8.83867 40.616 8.596C40.8866 8.35333 41.022 8.064 41.022 7.728C41.022 7.56933 40.994 7.42 40.938 7.28C40.882 7.13067 40.784 7 40.644 6.888C40.504 6.76667 40.3126 6.65933 40.07 6.566C39.8273 6.47267 39.5193 6.39333 39.146 6.328C38.6513 6.244 38.1986 6.13667 37.788 6.006C37.3773 5.866 37.018 5.684 36.71 5.46C36.4113 5.236 36.178 4.956 36.01 4.62C35.842 4.284 35.758 3.87333 35.758 3.388V3.304C35.758 2.90267 35.8373 2.534 35.996 2.198C36.164 1.85267 36.3926 1.554 36.682 1.302C36.9806 1.05 37.3353 0.854 37.746 0.713999C38.166 0.573999 38.6326 0.503999 39.146 0.503999C39.7246 0.503999 40.238 0.587999 40.686 0.755999C41.134 0.914666 41.5073 1.134 41.806 1.414C42.114 1.694 42.3426 2.016 42.492 2.38C42.6506 2.744 42.73 3.12667 42.73 3.528V4.032H40.882V3.696ZM44.5962 0.699999H51.6522V2.464H49.0482V10.5H47.2002V2.464H44.5962V0.699999ZM53.9105 0.699999H60.0985V2.464H55.7585V4.704H59.9305V6.468H55.7585V8.736H60.2665V10.5H53.9105V0.699999ZM69.2868 10.5H67.4388V7.56C67.4388 7.336 67.3781 7.154 67.2568 7.014C67.1448 6.874 66.9534 6.804 66.6828 6.804H64.5548V10.5H62.7068V0.699999H66.4588C66.9628 0.699999 67.4061 0.769999 67.7888 0.909999C68.1714 1.05 68.4888 1.246 68.7408 1.498C69.0021 1.74067 69.1981 2.02533 69.3288 2.352C69.4688 2.67867 69.5388 3.02867 69.5388 3.402V3.738C69.5388 4.13933 69.4314 4.51733 69.2168 4.872C69.0021 5.21733 68.6708 5.48333 68.2228 5.67V5.922C68.5494 5.95933 68.8061 6.08533 68.9928 6.3C69.1888 6.51467 69.2868 6.78533 69.2868 7.112V10.5ZM64.5548 5.04H66.3188C66.7668 5.04 67.1074 4.93733 67.3408 4.732C67.5741 4.51733 67.6908 4.21867 67.6908 3.836V3.668C67.6908 3.34133 67.5741 3.06133 67.3408 2.828C67.1074 2.58533 66.7668 2.464 66.3188 2.464H64.5548V5.04ZM83.0211 8.11426C83.0211 8.68848 82.5836 9.13281 82.0504 9.13281C81.5172 9.13281 81.107 8.68848 81.107 8.12793V5.5166L81.2027 3.34277L80.1363 4.53906L74.0865 10.582C73.8678 10.7939 73.6148 10.9102 73.3551 10.9102C72.8287 10.9102 72.3502 10.4248 72.3502 9.90527C72.3502 9.64551 72.4732 9.39258 72.6852 9.17383L78.7213 3.12402L79.9176 2.06445L77.6686 2.14648H75.1324C74.5719 2.14648 74.1275 1.73633 74.1275 1.20996C74.1275 0.676758 74.5582 0.239258 75.1393 0.239258H81.9889C82.6109 0.239258 83.0279 0.65625 83.0279 1.27148L83.0211 8.11426Z" fill="#EDEDED"/>
</svg>
