<svg width="71" height="67" viewBox="0 0 71 67" fill="none" xmlns="http://www.w3.org/2000/svg">
<path d="M51.7925 38.3742C51.8185 38.4432 51.8444 38.5121 51.8296 38.6096C51.5804 38.7886 51.2349 38.9091 51.194 39.0962C51.1232 39.4202 51.4734 39.3298 51.6783 39.352C51.091 40.6675 50.3472 41.8876 49.2784 42.861C48.6956 43.3919 48.0249 43.834 47.3613 44.266C46.8029 44.6295 46.2223 44.9835 45.6064 45.2278C44.8405 45.5315 44.0358 45.7493 43.2334 45.9448C42.6453 46.0881 42.0358 46.1536 41.4321 46.2201C40.9245 46.2761 40.4119 46.3017 39.9011 46.3084C38.9048 46.3217 37.9064 46.3499 36.9125 46.3C36.1624 46.2624 35.4091 46.1553 34.6734 46.0019C33.808 45.8215 32.9413 45.6098 32.1109 45.3121C31.541 45.1078 31.0008 44.7775 30.5042 44.4238C29.9813 44.0513 29.5066 43.6037 29.0466 43.1525C28.5614 42.6766 28.227 42.087 27.9787 41.4565C27.7722 40.9322 27.5196 40.4274 27.6633 39.8114C27.7253 39.5456 27.4989 39.2227 27.5234 38.9361C27.5955 38.0961 27.8298 37.2807 28.456 36.688C29.011 36.1627 29.6897 35.8313 30.4696 35.6806C31.4718 35.487 32.3739 35.7582 33.1722 36.2672C34.1567 36.8949 34.5574 38.5142 34.3027 39.6645C34.1257 40.4642 33.6099 40.9299 33.0645 41.4174C32.9957 41.4788 32.8859 41.4943 32.6995 41.5697C32.8734 41.7732 33.0054 41.9819 33.1867 42.1306C34.0287 42.8216 35.0334 43.0707 36.0918 43.1972C36.6741 43.2668 37.2453 43.4271 37.8247 43.5276C37.9411 43.5478 38.0711 43.4719 38.1967 43.4591C39.1099 43.3664 40.0278 43.3078 40.9353 43.1771C41.4107 43.1085 41.8904 42.9652 42.3292 42.7686C43.1492 42.4013 43.911 41.9372 44.5635 41.294C45.5385 40.3328 46.1379 39.1558 46.4812 37.8689C46.7147 36.9939 46.8292 36.0682 46.853 35.1613C46.8788 34.1807 46.5998 33.2561 46.2043 32.3225C45.5849 30.8606 44.587 29.7363 43.4702 28.6961C42.6512 27.9333 41.7309 27.2854 40.6812 26.8405C40.0034 26.5532 39.3769 26.1294 38.6835 25.8986C37.6711 25.5617 36.6193 25.3429 35.5841 25.0744C35.3491 25.0135 35.0916 24.995 34.8855 24.8822C34.7409 24.803 34.582 24.6008 34.5744 24.4465C34.5409 23.764 34.5469 23.0786 34.569 22.3952C34.5746 22.2227 34.6497 22.0139 34.7656 21.8898C35.533 21.0683 36.3093 20.2545 37.1028 19.4582C39.6341 16.9176 42.1742 14.3858 44.7505 11.8112C40.1529 11.8112 35.6013 11.8112 31.0103 11.8112C31.0045 11.9147 30.9914 12.042 30.9914 12.1692C30.9903 16.9579 30.9842 21.7467 30.9994 26.5354C31.001 27.0683 30.9849 27.6774 31.2247 28.1157C31.591 28.7856 31.9572 29.5483 32.8055 29.8012C33.048 29.8735 33.2992 29.9164 33.5429 29.9851C33.6526 30.016 33.7537 30.077 33.8637 30.1266C33.9287 30.0879 34.0164 29.9909 34.1057 29.9893C34.9848 29.9737 35.7196 29.5416 36.4759 29.1782C36.8395 29.0035 37.054 29.1123 37.058 29.5156C37.0607 29.7833 37.0389 30.0527 37.0621 30.3184C37.136 31.1628 36.6846 31.669 36.0089 32.0684C34.7472 32.8143 33.381 33.1319 31.9357 33.0058C30.4007 32.8719 28.9658 32.4346 27.7373 31.4282C26.9641 30.7947 26.3881 30.0156 26.0072 29.123C25.7395 28.4954 25.668 27.7847 25.5019 27.1129C25.0194 25.161 25.3333 23.1784 25.2954 21.2118C25.2354 18.09 25.2794 14.9661 25.2794 11.8074C23.364 11.8074 21.4537 11.8074 19.4791 11.8074C19.4791 10.9928 19.4868 10.2121 19.4724 9.4317C19.4697 9.28185 19.3601 9.13645 19.3388 8.98356C19.3256 8.889 19.359 8.72233 19.419 8.69579C19.5855 8.62223 19.7768 8.57179 19.9585 8.5709C21.7125 8.56226 23.4665 8.56572 25.2578 8.56572C25.2654 8.42918 25.2783 8.30195 25.2785 8.17471C25.2801 6.99983 25.2265 5.82175 25.2972 4.65114C25.3482 3.80729 24.4997 3.01779 23.7532 3.12189C23.4644 3.16216 23.205 3.12322 23.0692 2.82021C22.9638 2.58481 23.0515 1.72825 23.2264 1.64059C23.4748 1.51608 23.7557 1.45277 24.0269 1.37835C24.3058 1.3018 24.5875 1.23101 24.8719 1.17959C25.3902 1.08587 25.9135 1.01867 26.4304 0.918487C26.6154 0.882639 26.7829 0.762016 26.9674 0.717201C27.4402 0.602336 27.9163 0.498614 28.3944 0.408156C29.1537 0.264507 29.9156 0.134998 30.6767 0.00107592C30.7037 -0.00367141 30.7336 0.00829119 30.7962 0.0174392C30.7962 2.84613 30.7962 5.67972 30.7962 8.56572C30.9867 8.56572 31.1441 8.56572 31.3014 8.56572C37.7409 8.56572 44.1805 8.56567 50.62 8.5658C51.2732 8.56581 51.3742 8.72004 51.438 9.3557C51.519 10.1628 51.2378 10.7336 50.6489 11.2866C49.3068 12.5471 48.0311 13.8786 46.7284 15.1811C45.3941 16.5152 44.0608 17.8504 42.7248 19.1827C42.0275 19.878 41.3252 20.5682 40.6583 21.2279C41.7542 21.773 42.8363 22.2899 43.8974 22.8468C44.5639 23.1966 45.2175 23.5787 45.8431 23.9968C46.5334 24.4581 47.2171 24.94 47.8452 25.4808C48.5858 26.1185 49.3366 26.7694 49.9515 27.5221C50.8635 28.6385 51.6103 29.8654 52.0767 31.2622C52.4863 32.4887 52.7188 33.7247 52.6668 35.0093C52.6458 35.5287 52.551 36.0469 52.4636 36.5612C52.4059 36.9004 52.3014 37.2317 52.1523 37.5557C51.8759 37.4465 51.6961 37.4308 51.6026 37.7035C51.5097 37.9742 51.4027 38.2428 51.7925 38.3742Z" fill="white"/>
<path d="M59.189 61.8392C59.189 63.1901 59.189 64.4964 59.189 65.8287C58.5698 65.8287 57.9683 65.8287 57.3217 65.8287C57.3217 65.6414 57.3217 65.446 57.3217 65.18C57.1904 65.2646 57.1118 65.2967 57.0579 65.3527C55.6954 66.7674 52.9422 66.2432 52.1566 64.1519C51.6417 62.7813 51.6927 61.3949 52.5892 60.149C53.0957 59.4451 53.7912 59.068 54.6712 58.9739C55.6587 58.8683 56.5233 59.0567 57.3151 59.9179C57.3151 59.1153 57.3151 58.4457 57.3151 57.7761C57.3151 57.0944 57.3151 56.4128 57.3151 55.7067C57.937 55.7067 58.5382 55.7067 59.189 55.7067C59.189 57.7335 59.189 59.764 59.189 61.8392ZM53.9233 63.1955C54.2463 64.227 55.2786 64.5039 56.0732 64.2814C57.336 63.9278 57.7456 62.2423 56.8231 61.211C56.37 60.7044 55.4263 60.4537 54.6515 60.9504C53.9261 61.4155 53.6599 62.1202 53.9233 63.1955Z" fill="white"/>
<path d="M65.2645 65.6775C64.3572 65.1189 63.9184 64.3027 63.7322 63.3006C63.55 62.3198 63.6829 61.3889 64.136 60.5262C64.6309 59.5838 65.4341 59.071 66.5247 58.9735C67.492 58.887 68.3373 59.0749 69.0696 59.8793C69.0696 59.5913 69.0696 59.4065 69.0696 59.192C69.7005 59.192 70.3022 59.192 70.9361 59.192C70.9361 61.3856 70.9361 63.6021 70.9361 65.8369C70.3317 65.8369 69.7298 65.8369 69.1016 65.8369C69.1016 65.6359 69.1016 65.4481 69.1016 65.1741C67.9166 66.3006 66.6525 66.3944 65.2645 65.6775ZM67.2764 60.6794C66.0704 60.9244 65.5878 61.4929 65.617 62.6714C65.6344 63.3749 66.0175 63.8858 66.6077 64.2026C67.1763 64.5077 68.1569 64.3502 68.5649 63.9218C69.1247 63.3342 69.2493 62.6215 68.9983 61.8649C68.7412 61.0898 68.1505 60.7303 67.2764 60.6794Z" fill="white"/>
<path d="M25.645 66.1226C23.9008 66.0152 22.5055 65.2366 22.1104 63.3948C21.6452 61.2269 22.8271 59.1752 25.3577 58.9772C26.3326 58.9009 27.2452 59.0246 28.0442 59.6123C28.919 60.2557 29.4092 61.1215 29.4766 62.2224C29.5406 63.2668 29.2907 64.2084 28.5736 64.9821C28.0663 65.5295 27.4254 65.8855 26.6874 66.0277C26.3599 66.0908 26.0207 66.0929 25.645 66.1226ZM26.9396 61.1221C26.1899 60.5152 25.3456 60.573 24.5921 61.0671C24.0107 61.4484 23.7695 62.4013 24.0323 63.1518C24.2927 63.8951 24.825 64.2526 25.4935 64.3289C26.4068 64.4331 26.9867 64.1089 27.3532 63.3823C27.7738 62.5482 27.5916 61.8077 26.9396 61.1221Z" fill="white"/>
<path d="M14.9538 62.0742C14.9952 62.3569 15.0148 62.6049 15.0379 62.8985C13.3501 62.8985 11.6932 62.8985 10.0142 62.8985C10.123 63.6085 10.4506 64.1238 11.0966 64.3268C12.1426 64.6554 13.0295 64.3004 13.8377 63.5225C14.1565 63.976 14.4715 64.4243 14.8037 64.8971C13.7312 65.816 12.5983 66.2867 11.1845 66.0562C10.4239 65.9322 9.75415 65.6911 9.21567 65.1697C8.56921 64.5437 8.26882 63.7464 8.23112 62.8409C8.19726 62.0276 8.27864 61.2459 8.70432 60.5321C9.26801 59.587 10.1006 59.0441 11.199 58.9951C11.7791 58.9692 12.3847 58.9814 12.9435 59.1192C14.1014 59.4047 14.9538 60.6464 14.9538 62.0742ZM13.0542 61.4733C12.87 60.6656 12.1686 60.3517 11.1444 60.5018C10.6399 60.5757 10.1696 61.113 10.1398 61.6601C11.061 61.6601 11.9812 61.6618 12.9014 61.6554C12.9522 61.6551 13.0026 61.5873 13.0542 61.4733Z" fill="white"/>
<path d="M44.2868 60.8578C44.2868 60.2799 44.2868 59.7467 44.2868 59.1879C44.9072 59.1879 45.5086 59.1879 46.1564 59.1879C46.1564 59.406 46.1564 59.6324 46.1564 59.9415C46.458 59.7021 46.6773 59.4981 46.9245 59.337C47.9893 58.6427 49.7864 58.8051 50.4744 59.9779C50.7184 60.3938 50.8551 60.9266 50.8718 61.4118C50.9224 62.8783 50.8901 64.3477 50.8901 65.8353C50.2576 65.8353 49.6564 65.8353 49.0163 65.8353C49.0163 64.5939 49.0202 63.3645 49.0145 62.1351C49.0119 61.5957 48.8815 61.0663 48.3737 60.8153C47.8295 60.5463 47.2229 60.5746 46.7376 60.9771C46.2901 61.3484 46.1734 61.9071 46.1654 62.4655C46.1496 63.5782 46.1607 64.6914 46.1607 65.8296C45.54 65.8296 44.9387 65.8296 44.2868 65.8296C44.2868 64.1908 44.2868 62.5466 44.2868 60.8578Z" fill="white"/>
<path d="M5.02304 58.8055C5.02304 61.1677 5.02304 63.4854 5.02304 65.8288C4.40347 65.8288 3.80216 65.8288 3.16542 65.8288C3.16542 63.0634 3.16542 60.291 3.16542 57.4832C2.23246 57.4832 1.3333 57.4832 0.408691 57.4832C0.408691 56.8768 0.408691 56.3052 0.408691 55.7076C2.84718 55.7076 5.2923 55.7076 7.76342 55.7076C7.76342 56.2717 7.76342 56.8433 7.76342 57.4508C6.872 57.4508 5.97283 57.4508 5.02304 57.4508C5.02304 57.9102 5.02304 58.3355 5.02304 58.8055Z" fill="white"/>
<path d="M32.3562 66.1226C31.6528 65.9442 30.9902 65.769 30.3302 65.5848C30.1953 65.5471 30.0698 65.4756 29.928 65.4146C30.1819 64.8597 30.4228 64.3334 30.6715 63.7899C31.5548 64.1852 32.3938 64.7372 33.4163 64.4203C33.5578 64.3765 33.6674 64.2296 33.8041 64.1206C33.3648 63.4713 32.6731 63.3617 32.0848 63.0939C30.8664 62.5391 30.1632 61.6835 30.5522 60.2635C30.758 59.5123 31.4205 59.1033 32.293 58.9872C33.3701 58.8438 34.4146 59.0077 35.5004 59.4063C35.3009 59.918 35.1016 60.4292 34.9014 60.9427C34.028 60.8484 33.2079 60.0981 32.2979 60.8033C32.5854 61.4494 33.2213 61.4887 33.7083 61.7475C34.2712 62.0467 34.907 62.2073 35.3021 62.7894C36.0085 63.8305 35.7245 65.8043 33.844 66.0292C33.3651 66.0865 32.8802 66.0929 32.3562 66.1226Z" fill="white"/>
<path d="M15.7341 59.2716C15.7577 59.2081 15.7789 59.1697 15.8001 59.1697C17.5788 59.1669 19.3575 59.1671 21.1748 59.1671C21.1748 59.6196 21.2191 60.0526 21.1572 60.4699C21.123 60.7009 20.9422 60.9342 20.7738 61.1172C19.826 62.147 18.862 63.1618 17.8703 64.2171C19.0589 64.2171 20.2185 64.2171 21.4102 64.2171C21.4102 64.7648 21.4102 65.2771 21.4102 65.8223C19.4887 65.8223 17.5401 65.8223 15.553 65.8223C15.553 65.397 15.4696 64.9476 15.5786 64.551C15.6706 64.2166 15.9596 63.9195 16.2073 63.6477C17.0701 62.7012 17.9528 61.7728 18.864 60.7989C17.8175 60.7989 16.806 60.7989 15.7318 60.7989C15.7318 60.2806 15.7318 59.7976 15.7341 59.2716Z" fill="white"/>
<path d="M40.7171 60.5006C40.7171 58.8817 40.7171 57.3075 40.7171 55.7076C41.3668 55.7076 41.998 55.7076 42.6549 55.7076C42.6549 59.069 42.6549 62.4361 42.6549 65.829C42.0306 65.829 41.3994 65.829 40.7171 65.829C40.7171 64.0719 40.7171 62.3086 40.7171 60.5006Z" fill="white"/>
<path d="M60.7059 63.3563C60.7059 61.9457 60.7059 60.5797 60.7059 59.188C61.3256 59.188 61.927 59.188 62.5542 59.188C62.5542 61.3889 62.5542 63.5961 62.5542 65.8291C61.96 65.8291 61.3586 65.8291 60.7059 65.8291C60.7059 65.0245 60.7059 64.2127 60.7059 63.3563Z" fill="white"/>
<path d="M62.2132 55.7716C62.3854 55.7716 62.5141 55.7716 62.6557 55.7716C62.6557 56.4654 62.6557 57.1156 62.6557 57.7949C61.9969 57.7949 61.3359 57.7949 60.6457 57.7949C60.6457 57.1513 60.6457 56.4903 60.6457 55.7716C61.142 55.7716 61.6558 55.7716 62.2132 55.7716Z" fill="white"/>
<path d="M51.8209 38.3628C51.4026 38.2425 51.5097 37.9742 51.6026 37.7035C51.6961 37.4308 51.8758 37.4463 52.1177 37.5579C52.3667 37.9532 52.0373 38.1253 51.8209 38.3628Z" fill="white"/>
<path d="M51.6851 39.3177C51.4733 39.3299 51.1232 39.4202 51.194 39.0962C51.2349 38.9091 51.5803 38.7887 51.8227 38.6381C51.8017 38.8532 51.7468 39.0683 51.6851 39.3177Z" fill="white"/>
<path d="M53.9179 63.1583C53.66 62.1205 53.9261 61.4155 54.6515 60.9504C55.4263 60.4537 56.37 60.7044 56.8231 61.211C57.7456 62.2423 57.336 63.9278 56.0732 64.2814C55.2786 64.5039 54.2463 64.2273 53.9179 63.1583Z" fill="black"/>
<path d="M67.3152 60.6794C68.1505 60.7304 68.7412 61.0898 68.9983 61.8649C69.2493 62.6215 69.1247 63.3342 68.5649 63.9218C68.1569 64.3502 67.1763 64.5077 66.6077 64.2026C66.0175 63.8858 65.6344 63.3749 65.617 62.6714C65.5878 61.4929 66.0704 60.9244 67.3152 60.6794Z" fill="black"/>
<path d="M26.9735 61.1253C27.5916 61.8077 27.7738 62.5482 27.3532 63.3823C26.9867 64.1089 26.4068 64.4331 25.4935 64.3289C24.825 64.2526 24.2927 63.8951 24.0323 63.1518C23.7695 62.4013 24.0107 61.4484 24.5921 61.0671C25.3456 60.573 26.1899 60.5153 26.9735 61.1253Z" fill="black"/>
<path d="M13.0536 61.5125C13.0025 61.5877 12.9522 61.6551 12.9014 61.6554C11.9812 61.6618 11.061 61.6601 10.1398 61.6601C10.1696 61.113 10.6399 60.5757 11.1444 60.5018C12.1686 60.3517 12.8699 60.666 13.0536 61.5125Z" fill="black"/>
</svg>
