<svg width="1342" height="172" viewBox="0 0 1342 172" fill="none" xmlns="http://www.w3.org/2000/svg">
<mask id="path-1-inside-1_469_1058" fill="white">
<path d="M0 0.570068H1342V168.57H0V0.570068Z"/>
</mask>
<path d="M1342 167.57H0V169.57H1342V167.57Z" fill="url(#paint0_linear_469_1058)" mask="url(#path-1-inside-1_469_1058)"/>
<mask id="path-3-outside-2_469_1058" maskUnits="userSpaceOnUse" x="87.5" y="-0.429932" width="1162" height="174" fill="black">
<rect fill="white" x="87.5" y="-0.429932" width="1162" height="174"/>
<path d="M145.14 168.57C137.94 168.57 132.18 166.41 127.86 162.09C123.7 157.77 121.62 152.01 121.62 144.81V71.1301H88.98V50.2501H121.62V11.1301H146.34V50.2501H181.62V71.1301H146.34V140.49C146.34 145.29 148.58 147.69 153.06 147.69H177.78V168.57H145.14ZM196.262 168.57V50.2501H220.502V64.1701H224.342C226.262 59.2101 229.302 55.6101 233.462 53.3701C237.782 50.9701 243.062 49.7701 249.302 49.7701H263.462V72.0901H248.342C240.342 72.0901 233.782 74.3301 228.662 78.8101C223.542 83.1301 220.982 89.8501 220.982 98.9701V168.57H196.262ZM308.113 171.93C299.633 171.93 292.033 170.49 285.313 167.61C278.753 164.73 273.473 160.49 269.473 154.89C265.633 149.29 263.713 142.49 263.713 134.49C263.713 126.33 265.633 119.61 269.473 114.33C273.473 108.89 278.833 104.81 285.553 102.09C292.433 99.3701 300.193 98.0101 308.833 98.0101H344.833V90.3301C344.833 83.4501 342.753 77.9301 338.593 73.7701C334.433 69.6101 328.033 67.5301 319.393 67.5301C310.913 67.5301 304.433 69.5301 299.953 73.5301C295.473 77.5301 292.513 82.7301 291.073 89.1301L268.033 81.6901C269.953 75.2901 272.993 69.5301 277.153 64.4101C281.473 59.1301 287.153 54.8901 294.193 51.6901C301.233 48.4901 309.713 46.8901 319.633 46.8901C334.993 46.8901 347.073 50.8101 355.873 58.6501C364.673 66.4901 369.073 77.6101 369.073 92.0101V140.73C369.073 145.53 371.313 147.93 375.793 147.93H385.873V168.57H367.393C361.793 168.57 357.233 167.13 353.713 164.25C350.193 161.37 348.433 157.45 348.433 152.49V151.77H344.833C343.553 154.17 341.633 156.97 339.073 160.17C336.513 163.37 332.753 166.17 327.793 168.57C322.833 170.81 316.273 171.93 308.113 171.93ZM311.713 151.53C321.633 151.53 329.633 148.73 335.713 143.13C341.793 137.37 344.833 129.53 344.833 119.61V117.21H310.273C303.713 117.21 298.433 118.65 294.433 121.53C290.433 124.25 288.433 128.33 288.433 133.77C288.433 139.21 290.513 143.53 294.673 146.73C298.833 149.93 304.513 151.53 311.713 151.53ZM395.509 168.57V50.2501H419.749V68.0101H423.589C425.829 63.2101 429.829 58.7301 435.589 54.5701C441.349 50.4101 449.909 48.3301 461.269 48.3301C470.229 48.3301 478.149 50.3301 485.029 54.3301C492.069 58.3301 497.589 64.0101 501.589 71.3701C505.589 78.5701 507.589 87.2901 507.589 97.5301V168.57H482.869V99.4501C482.869 89.2101 480.309 81.6901 475.189 76.8901C470.069 71.9301 463.029 69.4501 454.069 69.4501C443.829 69.4501 435.589 72.8101 429.349 79.5301C423.269 86.2501 420.229 96.0101 420.229 108.81V168.57H395.509ZM577.245 171.93C562.205 171.93 549.725 168.57 539.805 161.85C529.885 155.13 523.805 144.97 521.565 131.37L544.605 125.85C545.885 132.41 548.045 137.61 551.085 141.45C554.125 145.29 557.885 148.01 562.365 149.61C567.005 151.21 571.965 152.01 577.245 152.01C585.085 152.01 591.085 150.49 595.245 147.45C599.565 144.41 601.725 140.49 601.725 135.69C601.725 130.89 599.725 127.37 595.725 125.13C591.725 122.89 585.805 121.05 577.965 119.61L569.805 118.17C561.805 116.73 554.525 114.65 547.965 111.93C541.405 109.21 536.205 105.45 532.365 100.65C528.525 95.8501 526.605 89.6901 526.605 82.1701C526.605 70.9701 530.765 62.3301 539.085 56.2501C547.405 50.0101 558.445 46.8901 572.205 46.8901C585.485 46.8901 596.365 49.9301 604.845 56.0101C613.485 61.9301 619.085 70.0101 621.645 80.2501L598.605 86.7301C597.165 79.5301 594.125 74.4901 589.485 71.6101C584.845 68.5701 579.085 67.0501 572.205 67.0501C565.485 67.0501 560.205 68.3301 556.365 70.8901C552.525 73.2901 550.605 76.7301 550.605 81.2101C550.605 86.0101 552.445 89.5301 556.125 91.7701C559.965 94.0101 565.085 95.6901 571.485 96.8101L579.885 98.2501C588.365 99.6901 596.125 101.69 603.165 104.25C610.205 106.81 615.725 110.49 619.725 115.29C623.885 120.09 625.965 126.49 625.965 134.49C625.965 146.33 621.565 155.53 612.765 162.09C603.965 168.65 592.125 171.93 577.245 171.93ZM659.241 168.57V71.1301H626.121V50.2501H659.241V24.3301C659.241 17.1301 661.401 11.3701 665.721 7.05006C670.041 2.73006 675.801 0.570057 683.001 0.570057H711.801V21.4501H690.921C686.281 21.4501 683.961 23.8501 683.961 28.6501V50.2501H737.001V71.1301H683.961V168.57H659.241ZM737.001 168.57V50.2501H761.721V168.57H737.001ZM749.481 34.8901C744.681 34.8901 740.601 33.3701 737.241 30.3301C734.041 27.1301 732.441 23.0501 732.441 18.0901C732.441 12.9701 734.041 8.89006 737.241 5.85006C740.601 2.81006 744.681 1.29006 749.481 1.29006C754.281 1.29006 758.281 2.81006 761.481 5.85006C764.841 8.89006 766.521 12.9701 766.521 18.0901C766.521 23.0501 764.841 27.1301 761.481 30.3301C758.281 33.3701 754.281 34.8901 749.481 34.8901ZM783.793 168.57V50.2501H808.033V68.0101H811.873C814.113 63.2101 818.113 58.7301 823.873 54.5701C829.633 50.4101 838.193 48.3301 849.553 48.3301C858.513 48.3301 866.433 50.3301 873.313 54.3301C880.353 58.3301 885.873 64.0101 889.873 71.3701C893.873 78.5701 895.873 87.2901 895.873 97.5301V168.57H871.153V99.4501C871.153 89.2101 868.593 81.6901 863.473 76.8901C858.353 71.9301 851.313 69.4501 842.353 69.4501C832.113 69.4501 823.873 72.8101 817.633 79.5301C811.553 86.2501 808.513 96.0101 808.513 108.81V168.57H783.793ZM917.049 168.57V50.2501H941.769V168.57H917.049ZM929.529 34.1701C924.729 34.1701 920.649 32.6501 917.289 29.6101C914.089 26.4101 912.489 22.3301 912.489 17.3701C912.489 12.4101 914.089 8.41007 917.289 5.37007C920.649 2.17006 924.729 0.570057 929.529 0.570057C934.489 0.570057 938.569 2.17006 941.769 5.37007C944.969 8.41007 946.569 12.4101 946.569 17.3701C946.569 22.3301 944.969 26.4101 941.769 29.6101C938.569 32.6501 934.489 34.1701 929.529 34.1701ZM1008.46 168.57C1001.26 168.57 995.496 166.41 991.176 162.09C987.016 157.77 984.936 152.01 984.936 144.81V71.1301H952.296V50.2501H984.936V11.1301H1009.66V50.2501H1037.5V71.1301H1009.66V140.49C1009.66 145.29 1011.9 147.69 1016.38 147.69H1041.1V168.57H1008.46ZM1086.22 168.57C1079.02 168.57 1073.26 166.41 1068.94 162.09C1064.62 157.77 1062.46 152.01 1062.46 144.81V71.1301H1037.5V50.2501H1062.46V11.1301H1087.18V50.2501H1122.7V71.1301H1087.18V140.49C1087.18 145.29 1089.5 147.69 1094.14 147.69H1118.62V168.57H1086.22ZM1191.63 171.93C1179.63 171.93 1169.15 169.45 1160.19 164.49C1151.23 159.37 1144.19 152.25 1139.07 143.13C1134.11 133.85 1131.63 123.13 1131.63 110.97V108.09C1131.63 95.7701 1134.11 85.0501 1139.07 75.9301C1144.03 66.6501 1150.91 59.5301 1159.71 54.5701C1168.67 49.4501 1178.99 46.8901 1190.67 46.8901C1202.03 46.8901 1211.95 49.4501 1220.43 54.5701C1229.07 59.5301 1235.79 66.4901 1240.59 75.4501C1245.39 84.4101 1247.79 94.8901 1247.79 106.89V116.25H1156.83C1157.15 126.65 1160.59 134.97 1167.15 141.21C1173.87 147.29 1182.19 150.33 1192.11 150.33C1201.39 150.33 1208.35 148.25 1212.99 144.09C1217.79 139.93 1221.47 135.13 1224.03 129.69L1244.43 140.25C1242.19 144.73 1238.91 149.45 1234.59 154.41C1230.43 159.37 1224.91 163.53 1218.03 166.89C1211.15 170.25 1202.35 171.93 1191.63 171.93ZM1157.07 97.2901H1222.59C1221.95 88.3301 1218.75 81.3701 1212.99 76.4101C1207.23 71.2901 1199.71 68.7301 1190.43 68.7301C1181.15 68.7301 1173.55 71.2901 1167.63 76.4101C1161.87 81.3701 1158.35 88.3301 1157.07 97.2901Z"/>
</mask>
<path d="M127.86 162.09L127.14 162.784L127.146 162.791L127.153 162.797L127.86 162.09ZM121.62 71.1301H122.62V70.1301H121.62V71.1301ZM88.98 71.1301H87.98V72.1301H88.98V71.1301ZM88.98 50.2501V49.2501H87.98V50.2501H88.98ZM121.62 50.2501V51.2501H122.62V50.2501H121.62ZM121.62 11.1301V10.1301H120.62V11.1301H121.62ZM146.34 11.1301H147.34V10.1301H146.34V11.1301ZM146.34 50.2501H145.34V51.2501H146.34V50.2501ZM181.62 50.2501H182.62V49.2501H181.62V50.2501ZM181.62 71.1301V72.1301H182.62V71.1301H181.62ZM146.34 71.1301V70.1301H145.34V71.1301H146.34ZM177.78 147.69H178.78V146.69H177.78V147.69ZM177.78 168.57V169.57H178.78V168.57H177.78ZM145.14 167.57C138.154 167.57 132.666 165.482 128.567 161.383L127.153 162.797C131.694 167.338 137.726 169.57 145.14 169.57V167.57ZM128.58 161.396C124.635 157.299 122.62 151.807 122.62 144.81H120.62C120.62 152.214 122.765 158.241 127.14 162.784L128.58 161.396ZM122.62 144.81V71.1301H120.62V144.81H122.62ZM121.62 70.1301H88.98V72.1301H121.62V70.1301ZM89.98 71.1301V50.2501H87.98V71.1301H89.98ZM88.98 51.2501H121.62V49.2501H88.98V51.2501ZM122.62 50.2501V11.1301H120.62V50.2501H122.62ZM121.62 12.1301H146.34V10.1301H121.62V12.1301ZM145.34 11.1301V50.2501H147.34V11.1301H145.34ZM146.34 51.2501H181.62V49.2501H146.34V51.2501ZM180.62 50.2501V71.1301H182.62V50.2501H180.62ZM181.62 70.1301H146.34V72.1301H181.62V70.1301ZM145.34 71.1301V140.49H147.34V71.1301H145.34ZM145.34 140.49C145.34 143.028 145.931 145.117 147.289 146.572C148.659 148.041 150.648 148.69 153.06 148.69V146.69C150.992 146.69 149.621 146.14 148.751 145.208C147.869 144.263 147.34 142.752 147.34 140.49H145.34ZM153.06 148.69H177.78V146.69H153.06V148.69ZM176.78 147.69V168.57H178.78V147.69H176.78ZM177.78 167.57H145.14V169.57H177.78V167.57ZM196.262 168.57H195.262V169.57H196.262V168.57ZM196.262 50.2501V49.2501H195.262V50.2501H196.262ZM220.502 50.2501H221.502V49.2501H220.502V50.2501ZM220.502 64.1701H219.502V65.1701H220.502V64.1701ZM224.342 64.1701V65.1701H225.027L225.274 64.5311L224.342 64.1701ZM233.462 53.3701L233.936 54.2506L233.948 54.2442L233.462 53.3701ZM263.462 49.7701H264.462V48.7701H263.462V49.7701ZM263.462 72.0901V73.0901H264.462V72.0901H263.462ZM228.662 78.8101L229.307 79.5744L229.314 79.5686L229.32 79.5626L228.662 78.8101ZM220.982 168.57V169.57H221.982V168.57H220.982ZM197.262 168.57V50.2501H195.262V168.57H197.262ZM196.262 51.2501H220.502V49.2501H196.262V51.2501ZM219.502 50.2501V64.1701H221.502V50.2501H219.502ZM220.502 65.1701H224.342V63.1701H220.502V65.1701ZM225.274 64.5311C227.12 59.7635 230.012 56.3633 233.936 54.2505L232.988 52.4896C228.591 54.8569 225.404 58.6566 223.409 63.8091L225.274 64.5311ZM233.948 54.2442C238.085 51.9457 243.188 50.7701 249.302 50.7701V48.7701C242.936 48.7701 237.479 49.9944 232.976 52.4959L233.948 54.2442ZM249.302 50.7701H263.462V48.7701H249.302V50.7701ZM262.462 49.7701V72.0901H264.462V49.7701H262.462ZM263.462 71.0901H248.342V73.0901H263.462V71.0901ZM248.342 71.0901C240.145 71.0901 233.337 73.3907 228.003 78.0575L229.32 79.5626C234.227 75.2695 240.539 73.0901 248.342 73.0901V71.0901ZM228.017 78.0458C222.598 82.6179 219.982 89.6677 219.982 98.9701H221.982C221.982 90.0324 224.486 83.6422 229.307 79.5744L228.017 78.0458ZM219.982 98.9701V168.57H221.982V98.9701H219.982ZM220.982 167.57H196.262V169.57H220.982V167.57ZM285.313 167.61L284.911 168.526L284.919 168.529L285.313 167.61ZM269.473 154.89L268.648 155.456L268.654 155.464L268.659 155.471L269.473 154.89ZM269.473 114.33L268.667 113.738L268.664 113.742L269.473 114.33ZM285.553 102.09L285.185 101.16L285.178 101.163L285.553 102.09ZM344.833 98.0101V99.0101H345.833V98.0101H344.833ZM338.593 73.7701L337.886 74.4772L338.593 73.7701ZM291.073 89.1301L290.766 90.0817L291.808 90.4183L292.049 89.3496L291.073 89.1301ZM268.033 81.6901L267.075 81.4027L266.794 82.3407L267.726 82.6417L268.033 81.6901ZM277.153 64.4101L276.379 63.7768L276.377 63.7795L277.153 64.4101ZM294.193 51.6901L294.607 52.6004L294.193 51.6901ZM355.873 58.6501L356.538 57.9034L355.873 58.6501ZM385.873 147.93H386.873V146.93H385.873V147.93ZM385.873 168.57V169.57H386.873V168.57H385.873ZM353.713 164.25L354.346 163.476L353.713 164.25ZM348.433 151.77H349.433V150.77H348.433V151.77ZM344.833 151.77V150.77H344.233L343.951 151.299L344.833 151.77ZM339.073 160.17L339.854 160.795L339.073 160.17ZM327.793 168.57L328.205 169.481L328.217 169.476L328.229 169.47L327.793 168.57ZM335.713 143.13L336.391 143.866L336.401 143.856L335.713 143.13ZM344.833 117.21H345.833V116.21H344.833V117.21ZM294.433 121.53L294.995 122.357L295.007 122.349L295.017 122.342L294.433 121.53ZM308.113 170.93C299.747 170.93 292.284 169.51 285.707 166.691L284.919 168.529C291.782 171.47 299.519 172.93 308.113 172.93V170.93ZM285.715 166.694C279.313 163.884 274.178 159.756 270.287 154.309L268.659 155.471C272.768 161.224 278.193 165.576 284.911 168.526L285.715 166.694ZM270.298 154.325C266.591 148.919 264.713 142.325 264.713 134.49H262.713C262.713 142.655 264.675 149.661 268.648 155.456L270.298 154.325ZM264.713 134.49C264.713 126.488 266.594 119.989 270.282 114.918L268.664 113.742C264.672 119.231 262.713 126.172 262.713 134.49H264.713ZM270.279 114.922C274.161 109.643 279.367 105.673 285.928 103.017L285.178 101.163C278.299 103.947 272.785 108.137 268.667 113.738L270.279 114.922ZM285.921 103.02C292.666 100.353 300.298 99.0101 308.833 99.0101V97.0101C300.088 97.0101 292.2 98.3868 285.185 101.16L285.921 103.02ZM308.833 99.0101H344.833V97.0101H308.833V99.0101ZM345.833 98.0101V90.3301H343.833V98.0101H345.833ZM345.833 90.3301C345.833 83.2333 343.679 77.4422 339.3 73.063L337.886 74.4772C341.827 78.4179 343.833 83.6668 343.833 90.3301H345.833ZM339.3 73.063C334.88 68.643 328.174 66.5301 319.393 66.5301V68.5301C327.892 68.5301 333.986 70.5771 337.886 74.4772L339.3 73.063ZM319.393 66.5301C310.768 66.5301 304.014 68.564 299.287 72.7841L300.619 74.276C304.853 70.4961 311.058 68.5301 319.393 68.5301V66.5301ZM299.287 72.7841C294.637 76.9359 291.579 82.3268 290.098 88.9105L292.049 89.3496C293.447 83.1333 296.309 78.1242 300.619 74.276L299.287 72.7841ZM291.38 88.1784L268.34 80.7384L267.726 82.6417L290.766 90.0817L291.38 88.1784ZM268.991 81.9774C270.874 75.701 273.853 70.0579 277.929 65.0407L276.377 63.7795C272.134 69.0022 269.032 74.8792 267.075 81.4027L268.991 81.9774ZM277.927 65.0433C282.138 59.8971 287.688 55.7455 294.607 52.6004L293.779 50.7797C286.618 54.0347 280.809 58.363 276.379 63.7768L277.927 65.0433ZM294.607 52.6004C301.486 49.4737 309.817 47.8901 319.633 47.8901V45.8901C309.609 45.8901 300.981 47.5064 293.779 50.7797L294.607 52.6004ZM319.633 47.8901C334.824 47.8901 346.641 51.7643 355.208 59.3967L356.538 57.9034C347.505 49.8558 335.162 45.8901 319.633 45.8901V47.8901ZM355.208 59.3967C363.749 67.0057 368.073 77.8267 368.073 92.0101H370.073C370.073 77.3934 365.598 65.9744 356.538 57.9034L355.208 59.3967ZM368.073 92.0101V140.73H370.073V92.0101H368.073ZM368.073 140.73C368.073 143.268 368.664 145.357 370.022 146.812C371.392 148.281 373.381 148.93 375.793 148.93V146.93C373.726 146.93 372.354 146.38 371.484 145.448C370.602 144.503 370.073 142.992 370.073 140.73H368.073ZM375.793 148.93H385.873V146.93H375.793V148.93ZM384.873 147.93V168.57H386.873V147.93H384.873ZM385.873 167.57H367.393V169.57H385.873V167.57ZM367.393 167.57C361.969 167.57 357.649 166.178 354.346 163.476L353.08 165.024C356.817 168.082 361.617 169.57 367.393 169.57V167.57ZM354.346 163.476C351.081 160.805 349.433 157.181 349.433 152.49H347.433C347.433 157.719 349.305 161.935 353.08 165.024L354.346 163.476ZM349.433 152.49V151.77H347.433V152.49H349.433ZM348.433 150.77H344.833V152.77H348.433V150.77ZM343.951 151.299C342.71 153.625 340.831 156.372 338.292 159.545L339.854 160.795C342.435 157.568 344.396 154.715 345.715 152.241L343.951 151.299ZM338.292 159.545C335.852 162.596 332.227 165.314 327.358 167.67L328.229 169.47C333.279 167.027 337.175 164.144 339.854 160.795L338.292 159.545ZM327.382 167.659C322.599 169.819 316.196 170.93 308.113 170.93V172.93C316.351 172.93 323.067 171.802 328.205 169.481L327.382 167.659ZM311.713 152.53C321.831 152.53 330.09 149.669 336.391 143.866L335.036 142.395C329.176 147.792 321.435 150.53 311.713 150.53V152.53ZM336.401 143.856C342.717 137.872 345.833 129.75 345.833 119.61H343.833C343.833 129.31 340.869 136.868 335.025 142.404L336.401 143.856ZM345.833 119.61V117.21H343.833V119.61H345.833ZM344.833 116.21H310.273V118.21H344.833V116.21ZM310.273 116.21C303.572 116.21 298.067 117.681 293.849 120.719L295.017 122.342C298.799 119.619 303.854 118.21 310.273 118.21V116.21ZM293.871 120.703C289.559 123.635 287.433 128.047 287.433 133.77H289.433C289.433 128.613 291.307 124.865 294.995 122.357L293.871 120.703ZM287.433 133.77C287.433 139.507 289.647 144.125 294.063 147.523L295.283 145.937C291.379 142.935 289.433 138.913 289.433 133.77H287.433ZM294.063 147.523C298.453 150.899 304.373 152.53 311.713 152.53V150.53C304.653 150.53 299.213 148.961 295.283 145.937L294.063 147.523ZM395.509 168.57H394.509V169.57H395.509V168.57ZM395.509 50.2501V49.2501H394.509V50.2501H395.509ZM419.749 50.2501H420.749V49.2501H419.749V50.2501ZM419.749 68.0101H418.749V69.0101H419.749V68.0101ZM423.589 68.0101V69.0101H424.226L424.495 68.4329L423.589 68.0101ZM435.589 54.5701L436.174 55.3807L435.589 54.5701ZM485.029 54.3301L484.526 55.1946L484.535 55.1995L485.029 54.3301ZM501.589 71.3701L500.71 71.8476L500.715 71.8557L501.589 71.3701ZM507.589 168.57V169.57H508.589V168.57H507.589ZM482.869 168.57H481.869V169.57H482.869V168.57ZM475.189 76.8901L474.493 77.6083L474.499 77.614L474.505 77.6196L475.189 76.8901ZM429.349 79.5301L428.616 78.8496L428.607 78.8591L429.349 79.5301ZM420.229 168.57V169.57H421.229V168.57H420.229ZM396.509 168.57V50.2501H394.509V168.57H396.509ZM395.509 51.2501H419.749V49.2501H395.509V51.2501ZM418.749 50.2501V68.0101H420.749V50.2501H418.749ZM419.749 69.0101H423.589V67.0101H419.749V69.0101ZM424.495 68.4329C426.642 63.8313 430.507 59.4737 436.174 55.3807L435.003 53.7594C429.15 57.9864 425.015 62.5888 422.683 67.5872L424.495 68.4329ZM436.174 55.3807C441.689 51.3978 450.003 49.3301 461.269 49.3301V47.3301C449.815 47.3301 441.008 49.4224 435.003 53.7594L436.174 55.3807ZM461.269 49.3301C470.075 49.3301 477.817 51.2941 484.526 55.1946L485.531 53.4656C478.48 49.3661 470.383 47.3301 461.269 47.3301V49.3301ZM484.535 55.1995C491.407 59.104 496.796 64.6456 500.71 71.8476L502.467 70.8925C498.382 63.3745 492.731 57.5561 485.523 53.4606L484.535 55.1995ZM500.715 71.8557C504.614 78.8752 506.589 87.4192 506.589 97.5301H508.589C508.589 87.1609 506.563 78.265 502.463 70.8844L500.715 71.8557ZM506.589 97.5301V168.57H508.589V97.5301H506.589ZM507.589 167.57H482.869V169.57H507.589V167.57ZM483.869 168.57V99.4501H481.869V168.57H483.869ZM483.869 99.4501C483.869 89.0617 481.272 81.2222 475.873 76.1605L474.505 77.6196C479.346 82.1579 481.869 89.3584 481.869 99.4501H483.869ZM475.885 76.1718C470.533 70.9876 463.218 68.4501 454.069 68.4501V70.4501C462.839 70.4501 469.604 72.8725 474.493 77.6083L475.885 76.1718ZM454.069 68.4501C443.587 68.4501 435.068 71.9009 428.616 78.8496L430.082 80.2105C436.109 73.7192 444.071 70.4501 454.069 70.4501V68.4501ZM428.607 78.8591C422.303 85.8267 419.229 95.864 419.229 108.81H421.229C421.229 96.1561 424.234 86.6734 430.09 80.201L428.607 78.8591ZM419.229 108.81V168.57H421.229V108.81H419.229ZM420.229 167.57H395.509V169.57H420.229V167.57ZM539.805 161.85L540.366 161.022L539.805 161.85ZM521.565 131.37L521.332 130.398L520.427 130.614L520.578 131.533L521.565 131.37ZM544.605 125.85L545.586 125.659L545.387 124.634L544.372 124.878L544.605 125.85ZM551.085 141.45L551.869 140.829L551.085 141.45ZM562.365 149.61L562.029 150.552L562.039 150.555L562.365 149.61ZM595.245 147.45L594.669 146.632L594.662 146.637L594.655 146.643L595.245 147.45ZM577.965 119.61L578.146 118.626L578.139 118.625L577.965 119.61ZM569.805 118.17L569.628 119.154L569.631 119.155L569.805 118.17ZM547.965 111.93L547.582 112.854L547.965 111.93ZM532.365 100.65L533.146 100.025L532.365 100.65ZM539.085 56.2501L539.675 57.0575L539.685 57.0501L539.085 56.2501ZM604.845 56.0101L604.262 56.8228L604.271 56.829L604.28 56.835L604.845 56.0101ZM621.645 80.2501L621.916 81.2127L622.851 80.9498L622.615 80.0075L621.645 80.2501ZM598.605 86.7301L597.624 86.9262L597.836 87.9851L598.876 87.6927L598.605 86.7301ZM589.485 71.6101L588.937 72.4465L588.947 72.4532L588.958 72.4597L589.485 71.6101ZM556.365 70.8901L556.895 71.7381L556.907 71.7303L556.92 71.7221L556.365 70.8901ZM556.125 91.7701L555.605 92.6243L555.613 92.6291L555.621 92.6338L556.125 91.7701ZM571.485 96.8101L571.313 97.7951L571.316 97.7957L571.485 96.8101ZM579.885 98.2501L579.716 99.2357L579.718 99.236L579.885 98.2501ZM619.725 115.29L618.957 115.93L618.963 115.938L618.969 115.945L619.725 115.29ZM612.765 162.09L613.363 162.892L612.765 162.09ZM577.245 170.93C562.354 170.93 550.082 167.604 540.366 161.022L539.244 162.678C549.367 169.536 562.056 172.93 577.245 172.93V170.93ZM540.366 161.022C530.708 154.48 524.754 144.581 522.552 131.208L520.578 131.533C522.856 145.359 529.062 155.78 539.244 162.678L540.366 161.022ZM521.798 132.343L544.838 126.823L544.372 124.878L521.332 130.398L521.798 132.343ZM543.624 126.042C544.923 132.704 547.132 138.068 550.301 142.071L551.869 140.829C548.958 137.152 546.846 132.116 545.586 125.659L543.624 126.042ZM550.301 142.071C553.454 146.053 557.367 148.887 562.029 150.552L562.701 148.668C558.403 147.133 554.796 144.527 551.869 140.829L550.301 142.071ZM562.039 150.555C566.792 152.194 571.862 153.01 577.245 153.01V151.01C572.068 151.01 567.218 150.226 562.691 148.665L562.039 150.555ZM577.245 153.01C585.193 153.01 591.435 151.473 595.835 148.257L594.655 146.643C590.735 149.508 584.977 151.01 577.245 151.01V153.01ZM595.82 148.268C600.375 145.063 602.725 140.852 602.725 135.69H600.725C600.725 140.128 598.755 143.758 594.669 146.632L595.82 148.268ZM602.725 135.69C602.725 130.549 600.547 126.684 596.214 124.258L595.236 126.003C598.903 128.056 600.725 131.231 600.725 135.69H602.725ZM596.214 124.258C592.072 121.938 586.026 120.074 578.146 118.627L577.784 120.594C585.584 122.026 591.378 123.842 595.236 126.003L596.214 124.258ZM578.139 118.625L569.979 117.185L569.631 119.155L577.791 120.595L578.139 118.625ZM569.982 117.186C562.043 115.757 554.833 113.695 548.348 111.006L547.582 112.854C554.217 115.605 561.567 117.703 569.628 119.154L569.982 117.186ZM548.348 111.006C541.919 108.341 536.865 104.675 533.146 100.025L531.584 101.275C535.545 106.226 540.891 110.079 547.582 112.854L548.348 111.006ZM533.146 100.025C529.477 95.4396 527.605 89.5153 527.605 82.1701H525.605C525.605 89.8649 527.573 96.2605 531.584 101.275L533.146 100.025ZM527.605 82.1701C527.605 71.2569 531.638 62.9309 539.675 57.0575L538.495 55.4427C529.892 61.7292 525.605 70.6832 525.605 82.1701H527.605ZM539.685 57.0501C547.783 50.9762 558.592 47.8901 572.205 47.8901V45.8901C558.298 45.8901 547.027 49.0439 538.485 55.4501L539.685 57.0501ZM572.205 47.8901C585.333 47.8901 595.993 50.8941 604.262 56.8228L605.428 55.1974C596.737 48.966 585.637 45.8901 572.205 45.8901V47.8901ZM604.28 56.835C612.716 62.6157 618.174 70.4876 620.675 80.4926L622.615 80.0075C619.996 69.5325 614.254 61.2444 605.41 55.1851L604.28 56.835ZM621.374 79.2874L598.334 85.7674L598.876 87.6927L621.916 81.2127L621.374 79.2874ZM599.586 86.534C598.111 79.16 594.96 73.8314 590.012 70.7604L588.958 72.4597C593.29 75.1488 596.219 79.9001 597.624 86.9262L599.586 86.534ZM590.033 70.7736C585.195 67.6038 579.233 66.0501 572.205 66.0501V68.0501C578.937 68.0501 584.495 69.5363 588.937 72.4465L590.033 70.7736ZM572.205 66.0501C565.373 66.0501 559.874 67.3492 555.81 70.058L556.92 71.7221C560.536 69.311 565.597 68.0501 572.205 68.0501V66.0501ZM555.835 70.0421C551.706 72.6224 549.605 76.3808 549.605 81.2101H551.605C551.605 77.0794 553.344 73.9577 556.895 71.7381L555.835 70.0421ZM549.605 81.2101C549.605 86.3114 551.588 90.1793 555.605 92.6243L556.645 90.9159C553.302 88.8808 551.605 85.7087 551.605 81.2101H549.605ZM555.621 92.6338C559.599 94.9544 564.845 96.6632 571.313 97.7951L571.657 95.825C565.325 94.7169 560.331 93.0658 556.629 90.9063L555.621 92.6338ZM571.316 97.7957L579.716 99.2357L580.054 97.2644L571.654 95.8244L571.316 97.7957ZM579.718 99.236C588.147 100.667 595.847 102.653 602.823 105.19L603.507 103.31C596.403 100.727 588.583 98.7128 580.052 97.2642L579.718 99.236ZM602.823 105.19C609.73 107.701 615.091 111.291 618.957 115.93L620.493 114.65C616.359 109.689 610.68 105.919 603.507 103.31L602.823 105.19ZM618.969 115.945C622.934 120.52 624.965 126.666 624.965 134.49H626.965C626.965 126.314 624.836 119.66 620.481 114.635L618.969 115.945ZM624.965 134.49C624.965 146.043 620.692 154.934 612.167 161.288L613.363 162.892C622.438 156.126 626.965 146.617 626.965 134.49H624.965ZM612.167 161.288C603.592 167.681 591.985 170.93 577.245 170.93V172.93C592.265 172.93 604.338 169.619 613.363 162.892L612.167 161.288ZM659.241 168.57H658.241V169.57H659.241V168.57ZM659.241 71.1301H660.241V70.1301H659.241V71.1301ZM626.121 71.1301H625.121V72.1301H626.121V71.1301ZM626.121 50.2501V49.2501H625.121V50.2501H626.121ZM659.241 50.2501V51.2501H660.241V50.2501H659.241ZM665.721 7.05006L665.013 6.34295L665.721 7.05006ZM711.801 0.570057H712.801V-0.429943H711.801V0.570057ZM711.801 21.4501V22.4501H712.801V21.4501H711.801ZM683.961 50.2501H682.961V51.2501H683.961V50.2501ZM737.001 50.2501H738.001V49.2501H737.001V50.2501ZM737.001 71.1301V72.1301H738.001V71.1301H737.001ZM683.961 71.1301V70.1301H682.961V71.1301H683.961ZM683.961 168.57V169.57H684.961V168.57H683.961ZM737.001 168.57H736.001V169.57H737.001V168.57ZM737.001 50.2501V49.2501H736.001V50.2501H737.001ZM761.721 50.2501H762.721V49.2501H761.721V50.2501ZM761.721 168.57V169.57H762.721V168.57H761.721ZM737.241 30.3301L736.534 31.0372L736.551 31.0548L736.57 31.0716L737.241 30.3301ZM737.241 5.85006L736.57 5.10852L736.561 5.11668L736.552 5.12506L737.241 5.85006ZM761.481 5.85006L760.792 6.57506L760.801 6.58344L760.81 6.5916L761.481 5.85006ZM761.481 30.3301L762.169 31.0551L762.17 31.0542L761.481 30.3301ZM660.241 168.57V71.1301H658.241V168.57H660.241ZM659.241 70.1301H626.121V72.1301H659.241V70.1301ZM627.121 71.1301V50.2501H625.121V71.1301H627.121ZM626.121 51.2501H659.241V49.2501H626.121V51.2501ZM660.241 50.2501V24.3301H658.241V50.2501H660.241ZM660.241 24.3301C660.241 17.3443 662.328 11.8564 666.428 7.75717L665.013 6.34295C660.473 10.8837 658.241 16.9158 658.241 24.3301H660.241ZM666.428 7.75717C670.527 3.6579 676.015 1.57006 683.001 1.57006V-0.429943C675.586 -0.429943 669.554 1.80222 665.013 6.34295L666.428 7.75717ZM683.001 1.57006H711.801V-0.429943H683.001V1.57006ZM710.801 0.570057V21.4501H712.801V0.570057H710.801ZM711.801 20.4501H690.921V22.4501H711.801V20.4501ZM690.921 20.4501C688.438 20.4501 686.394 21.0941 684.982 22.555C683.575 24.0097 682.961 26.1043 682.961 28.6501H684.961C684.961 26.3959 685.506 24.8904 686.42 23.9451C687.327 23.006 688.764 22.4501 690.921 22.4501V20.4501ZM682.961 28.6501V50.2501H684.961V28.6501H682.961ZM683.961 51.2501H737.001V49.2501H683.961V51.2501ZM736.001 50.2501V71.1301H738.001V50.2501H736.001ZM737.001 70.1301H683.961V72.1301H737.001V70.1301ZM682.961 71.1301V168.57H684.961V71.1301H682.961ZM683.961 167.57H659.241V169.57H683.961V167.57ZM738.001 168.57V50.2501H736.001V168.57H738.001ZM737.001 51.2501H761.721V49.2501H737.001V51.2501ZM760.721 50.2501V168.57H762.721V50.2501H760.721ZM761.721 167.57H737.001V169.57H761.721V167.57ZM749.481 33.8901C744.912 33.8901 741.076 32.4517 737.912 29.5885L736.57 31.0716C740.125 34.2884 744.449 35.8901 749.481 35.8901V33.8901ZM737.948 29.623C734.954 26.6294 733.441 22.8129 733.441 18.0901H731.441C731.441 23.2873 733.127 27.6307 736.534 31.0372L737.948 29.623ZM733.441 18.0901C733.441 13.1963 734.96 9.39568 737.929 6.57506L736.552 5.12506C733.121 8.38444 731.441 12.7438 731.441 18.0901H733.441ZM737.912 6.5916C741.076 3.72844 744.912 2.29006 749.481 2.29006V0.290062C744.449 0.290062 740.125 1.89169 736.57 5.10852L737.912 6.5916ZM749.481 2.29006C754.049 2.29006 757.795 3.72782 760.792 6.57506L762.169 5.12506C758.766 1.8923 754.512 0.290062 749.481 0.290062V2.29006ZM760.81 6.5916C763.932 9.41633 765.521 13.2119 765.521 18.0901H767.521C767.521 12.7282 765.749 8.36379 762.152 5.10852L760.81 6.5916ZM765.521 18.0901C765.521 22.7975 763.938 26.6087 760.791 29.6059L762.17 31.0542C765.743 27.6514 767.521 23.3027 767.521 18.0901H765.521ZM760.792 29.6051C757.795 32.4523 754.049 33.8901 749.481 33.8901V35.8901C754.512 35.8901 758.766 34.2878 762.169 31.0551L760.792 29.6051ZM783.793 168.57H782.793V169.57H783.793V168.57ZM783.793 50.2501V49.2501H782.793V50.2501H783.793ZM808.033 50.2501H809.033V49.2501H808.033V50.2501ZM808.033 68.0101H807.033V69.0101H808.033V68.0101ZM811.873 68.0101V69.0101H812.51L812.779 68.4329L811.873 68.0101ZM823.873 54.5701L824.459 55.3807L823.873 54.5701ZM873.313 54.3301L872.81 55.1946L872.819 55.1995L873.313 54.3301ZM889.873 71.3701L888.994 71.8476L888.999 71.8557L889.873 71.3701ZM895.873 168.57V169.57H896.873V168.57H895.873ZM871.153 168.57H870.153V169.57H871.153V168.57ZM863.473 76.8901L862.777 77.6083L862.783 77.614L862.789 77.6196L863.473 76.8901ZM817.633 79.5301L816.9 78.8496L816.892 78.8591L817.633 79.5301ZM808.513 168.57V169.57H809.513V168.57H808.513ZM784.793 168.57V50.2501H782.793V168.57H784.793ZM783.793 51.2501H808.033V49.2501H783.793V51.2501ZM807.033 50.2501V68.0101H809.033V50.2501H807.033ZM808.033 69.0101H811.873V67.0101H808.033V69.0101ZM812.779 68.4329C814.927 63.8313 818.791 59.4737 824.459 55.3807L823.288 53.7594C817.435 57.9864 813.299 62.5888 810.967 67.5872L812.779 68.4329ZM824.459 55.3807C829.974 51.3978 838.287 49.3301 849.553 49.3301V47.3301C838.099 47.3301 829.293 49.4224 823.288 53.7594L824.459 55.3807ZM849.553 49.3301C858.359 49.3301 866.102 51.2941 872.81 55.1946L873.816 53.4656C866.765 49.3661 858.667 47.3301 849.553 47.3301V49.3301ZM872.819 55.1995C879.691 59.104 885.08 64.6456 888.995 71.8476L890.752 70.8925C886.666 63.3745 881.015 57.5561 873.807 53.4606L872.819 55.1995ZM888.999 71.8557C892.899 78.8752 894.873 87.4192 894.873 97.5301H896.873C896.873 87.1609 894.848 78.265 890.747 70.8844L888.999 71.8557ZM894.873 97.5301V168.57H896.873V97.5301H894.873ZM895.873 167.57H871.153V169.57H895.873V167.57ZM872.153 168.57V99.4501H870.153V168.57H872.153ZM872.153 99.4501C872.153 89.0617 869.556 81.2222 864.157 76.1605L862.789 77.6196C867.63 82.1579 870.153 89.3584 870.153 99.4501H872.153ZM864.169 76.1718C858.818 70.9876 851.503 68.4501 842.353 68.4501V70.4501C851.123 70.4501 857.889 72.8725 862.777 77.6083L864.169 76.1718ZM842.353 68.4501C831.871 68.4501 823.353 71.9009 816.9 78.8496L818.366 80.2105C824.394 73.7192 832.355 70.4501 842.353 70.4501V68.4501ZM816.892 78.8591C810.588 85.8267 807.513 95.864 807.513 108.81H809.513C809.513 96.1561 812.519 86.6734 818.375 80.201L816.892 78.8591ZM807.513 108.81V168.57H809.513V108.81H807.513ZM808.513 167.57H783.793V169.57H808.513V167.57ZM917.049 168.57H916.049V169.57H917.049V168.57ZM917.049 50.2501V49.2501H916.049V50.2501H917.049ZM941.769 50.2501H942.769V49.2501H941.769V50.2501ZM941.769 168.57V169.57H942.769V168.57H941.769ZM917.289 29.6101L916.582 30.3172L916.6 30.3348L916.618 30.3516L917.289 29.6101ZM917.289 5.37007L917.978 6.09507L917.979 6.0942L917.289 5.37007ZM941.769 5.37007L941.062 6.07717L941.071 6.08624L941.081 6.09507L941.769 5.37007ZM941.769 29.6101L942.458 30.3351L942.467 30.3262L942.477 30.3172L941.769 29.6101ZM918.049 168.57V50.2501H916.049V168.57H918.049ZM917.049 51.2501H941.769V49.2501H917.049V51.2501ZM940.769 50.2501V168.57H942.769V50.2501H940.769ZM941.769 167.57H917.049V169.57H941.769V167.57ZM929.529 33.1701C924.961 33.1701 921.125 31.7317 917.96 28.8685L916.618 30.3516C920.174 33.5684 924.498 35.1701 929.529 35.1701V33.1701ZM917.997 28.9029C915.003 25.9094 913.489 22.0928 913.489 17.3701H911.489C911.489 22.5673 913.176 26.9107 916.582 30.3172L917.997 28.9029ZM913.489 17.3701C913.489 12.6468 915.002 8.92201 917.978 6.09507L916.601 4.64507C913.176 7.89812 911.489 12.1733 911.489 17.3701H913.489ZM917.979 6.0942C921.146 3.07794 924.976 1.57006 929.529 1.57006V-0.429943C924.482 -0.429943 920.153 1.26218 916.6 4.64593L917.979 6.0942ZM929.529 1.57006C934.252 1.57006 938.069 3.08362 941.062 6.07717L942.477 4.66296C939.07 1.2565 934.727 -0.429943 929.529 -0.429943V1.57006ZM941.081 6.09507C944.056 8.92201 945.569 12.6468 945.569 17.3701H947.569C947.569 12.1733 945.882 7.89812 942.458 4.64507L941.081 6.09507ZM945.569 17.3701C945.569 22.0928 944.056 25.9094 941.062 28.9029L942.477 30.3172C945.883 26.9107 947.569 22.5673 947.569 17.3701H945.569ZM941.081 28.8851C938.09 31.7262 934.267 33.1701 929.529 33.1701V35.1701C934.711 35.1701 939.049 33.5739 942.458 30.3351L941.081 28.8851ZM991.176 162.09L990.455 162.784L990.462 162.791L990.469 162.797L991.176 162.09ZM984.936 71.1301H985.936V70.1301H984.936V71.1301ZM952.296 71.1301H951.296V72.1301H952.296V71.1301ZM952.296 50.2501V49.2501H951.296V50.2501H952.296ZM984.936 50.2501V51.2501H985.936V50.2501H984.936ZM984.936 11.1301V10.1301H983.936V11.1301H984.936ZM1009.66 11.1301H1010.66V10.1301H1009.66V11.1301ZM1009.66 50.2501H1008.66V51.2501H1009.66V50.2501ZM1037.5 50.2501H1038.5V49.2501H1037.5V50.2501ZM1037.5 71.1301V72.1301H1038.5V71.1301H1037.5ZM1009.66 71.1301V70.1301H1008.66V71.1301H1009.66ZM1041.1 147.69H1042.1V146.69H1041.1V147.69ZM1041.1 168.57V169.57H1042.1V168.57H1041.1ZM1068.94 162.09L1068.23 162.797L1068.94 162.09ZM1062.46 71.1301H1063.46V70.1301H1062.46V71.1301ZM1037.5 71.1301H1036.5V72.1301H1037.5V71.1301ZM1037.5 50.2501V49.2501H1036.5V50.2501H1037.5ZM1062.46 50.2501V51.2501H1063.46V50.2501H1062.46ZM1062.46 11.1301V10.1301H1061.46V11.1301H1062.46ZM1087.18 11.1301H1088.18V10.1301H1087.18V11.1301ZM1087.18 50.2501H1086.18V51.2501H1087.18V50.2501ZM1122.7 50.2501H1123.7V49.2501H1122.7V50.2501ZM1122.7 71.1301V72.1301H1123.7V71.1301H1122.7ZM1087.18 71.1301V70.1301H1086.18V71.1301H1087.18ZM1118.62 147.69H1119.62V146.69H1118.62V147.69ZM1118.62 168.57V169.57H1119.62V168.57H1118.62ZM1008.46 167.57C1001.47 167.57 995.982 165.482 991.883 161.383L990.469 162.797C995.009 167.338 1001.04 169.57 1008.46 169.57V167.57ZM991.896 161.396C987.95 157.299 985.936 151.807 985.936 144.81H983.936C983.936 152.214 986.081 158.241 990.455 162.784L991.896 161.396ZM985.936 144.81V71.1301H983.936V144.81H985.936ZM984.936 70.1301H952.296V72.1301H984.936V70.1301ZM953.296 71.1301V50.2501H951.296V71.1301H953.296ZM952.296 51.2501H984.936V49.2501H952.296V51.2501ZM985.936 50.2501V11.1301H983.936V50.2501H985.936ZM984.936 12.1301H1009.66V10.1301H984.936V12.1301ZM1008.66 11.1301V50.2501H1010.66V11.1301H1008.66ZM1009.66 51.2501H1037.5V49.2501H1009.66V51.2501ZM1036.5 50.2501V71.1301H1038.5V50.2501H1036.5ZM1037.5 70.1301H1009.66V72.1301H1037.5V70.1301ZM1008.66 71.1301V140.49H1010.66V71.1301H1008.66ZM1008.66 140.49C1008.66 143.028 1009.25 145.117 1010.6 146.572C1011.97 148.041 1013.96 148.69 1016.38 148.69V146.69C1014.31 146.69 1012.94 146.14 1012.07 145.208C1011.18 144.263 1010.66 142.752 1010.66 140.49H1008.66ZM1016.38 148.69H1041.1V146.69H1016.38V148.69ZM1040.1 147.69V168.57H1042.1V147.69H1040.1ZM1041.1 167.57H1008.46V169.57H1041.1V167.57ZM1086.22 167.57C1079.23 167.57 1073.74 165.482 1069.64 161.383L1068.23 162.797C1072.77 167.338 1078.8 169.57 1086.22 169.57V167.57ZM1069.64 161.383C1065.54 157.284 1063.46 151.796 1063.46 144.81H1061.46C1061.46 152.224 1063.69 158.256 1068.23 162.797L1069.64 161.383ZM1063.46 144.81V71.1301H1061.46V144.81H1063.46ZM1062.46 70.1301H1037.5V72.1301H1062.46V70.1301ZM1038.5 71.1301V50.2501H1036.5V71.1301H1038.5ZM1037.5 51.2501H1062.46V49.2501H1037.5V51.2501ZM1063.46 50.2501V11.1301H1061.46V50.2501H1063.46ZM1062.46 12.1301H1087.18V10.1301H1062.46V12.1301ZM1086.18 11.1301V50.2501H1088.18V11.1301H1086.18ZM1087.18 51.2501H1122.7V49.2501H1087.18V51.2501ZM1121.7 50.2501V71.1301H1123.7V50.2501H1121.7ZM1122.7 70.1301H1087.18V72.1301H1122.7V70.1301ZM1086.18 71.1301V140.49H1088.18V71.1301H1086.18ZM1086.18 140.49C1086.18 143.036 1086.79 145.13 1088.2 146.585C1089.61 148.046 1091.65 148.69 1094.14 148.69V146.69C1091.98 146.69 1090.54 146.134 1089.63 145.195C1088.72 144.25 1088.18 142.744 1088.18 140.49H1086.18ZM1094.14 148.69H1118.62V146.69H1094.14V148.69ZM1117.62 147.69V168.57H1119.62V147.69H1117.62ZM1118.62 167.57H1086.22V169.57H1118.62V167.57ZM1160.19 164.49L1159.69 165.358L1159.71 165.365L1160.19 164.49ZM1139.07 143.13L1138.19 143.601L1138.19 143.611L1138.2 143.62L1139.07 143.13ZM1139.07 75.9301L1139.95 76.4079L1139.95 76.4014L1139.07 75.9301ZM1159.71 54.5701L1160.2 55.4412L1160.21 55.4383L1159.71 54.5701ZM1220.43 54.5701L1219.91 55.4261L1219.92 55.4318L1219.93 55.4373L1220.43 54.5701ZM1240.59 75.4501L1241.47 74.9778L1240.59 75.4501ZM1247.79 116.25V117.25H1248.79V116.25H1247.79ZM1156.83 116.25V115.25H1155.8L1155.83 116.281L1156.83 116.25ZM1167.15 141.21L1166.46 141.935L1166.47 141.943L1166.48 141.952L1167.15 141.21ZM1212.99 144.09L1212.34 143.334L1212.33 143.34L1212.32 143.346L1212.99 144.09ZM1224.03 129.69L1224.49 128.802L1223.57 128.325L1223.13 129.264L1224.03 129.69ZM1244.43 140.25L1245.32 140.697L1245.77 139.815L1244.89 139.362L1244.43 140.25ZM1234.59 154.41L1233.84 153.753L1233.83 153.76L1233.82 153.767L1234.59 154.41ZM1218.03 166.89L1218.47 167.789L1218.03 166.89ZM1157.07 97.2901L1156.08 97.1486L1155.92 98.2901H1157.07V97.2901ZM1222.59 97.2901V98.2901H1223.66L1223.59 97.2188L1222.59 97.2901ZM1212.99 76.4101L1212.33 77.1575L1212.33 77.1627L1212.34 77.1678L1212.99 76.4101ZM1167.63 76.4101L1168.28 77.1678L1168.28 77.1664L1167.63 76.4101ZM1191.63 170.93C1179.77 170.93 1169.46 168.48 1160.67 163.615L1159.71 165.365C1168.84 170.42 1179.49 172.93 1191.63 172.93V170.93ZM1160.69 163.622C1151.89 158.593 1144.97 151.605 1139.94 142.641L1138.2 143.62C1143.41 152.895 1150.57 160.147 1159.69 165.358L1160.69 163.622ZM1139.95 142.659C1135.08 133.545 1132.63 122.991 1132.63 110.97H1130.63C1130.63 123.269 1133.14 134.155 1138.19 143.601L1139.95 142.659ZM1132.63 110.97V108.09H1130.63V110.97H1132.63ZM1132.63 108.09C1132.63 95.9058 1135.08 85.3561 1139.95 76.4078L1138.19 75.4523C1133.14 84.744 1130.63 95.6343 1130.63 108.09H1132.63ZM1139.95 76.4014C1144.83 67.2818 1151.57 60.3038 1160.2 55.4412L1159.22 53.6989C1150.25 58.7563 1143.23 66.0183 1138.19 75.4587L1139.95 76.4014ZM1160.21 55.4383C1169 50.4155 1179.14 47.8901 1190.67 47.8901V45.8901C1178.84 45.8901 1168.34 48.4846 1159.21 53.7018L1160.21 55.4383ZM1190.67 47.8901C1201.88 47.8901 1211.61 50.4134 1219.91 55.4261L1220.95 53.714C1212.29 48.4867 1202.18 45.8901 1190.67 45.8901V47.8901ZM1219.93 55.4373C1228.41 60.3022 1234.99 67.1237 1239.71 75.9223L1241.47 74.9778C1236.58 65.8564 1229.73 58.758 1220.93 53.7028L1219.93 55.4373ZM1239.71 75.9223C1244.42 84.7129 1246.79 95.0251 1246.79 106.89H1248.79C1248.79 94.755 1246.36 84.1072 1241.47 74.9778L1239.71 75.9223ZM1246.79 106.89V116.25H1248.79V106.89H1246.79ZM1247.79 115.25H1156.83V117.25H1247.79V115.25ZM1155.83 116.281C1156.16 126.901 1159.68 135.486 1166.46 141.935L1167.84 140.486C1161.5 134.454 1158.14 126.399 1157.83 116.219L1155.83 116.281ZM1166.48 141.952C1173.4 148.214 1181.97 151.33 1192.11 151.33V149.33C1182.41 149.33 1174.34 146.366 1167.82 140.469L1166.48 141.952ZM1192.11 151.33C1201.52 151.33 1208.76 149.224 1213.66 144.835L1212.32 143.346C1207.94 147.277 1201.26 149.33 1192.11 149.33V151.33ZM1213.65 144.846C1218.54 140.6 1222.31 135.689 1224.93 130.116L1223.13 129.264C1220.63 134.571 1217.04 139.26 1212.34 143.334L1213.65 144.846ZM1223.57 130.578L1243.97 141.138L1244.89 139.362L1224.49 128.802L1223.57 130.578ZM1243.54 139.803C1241.34 144.188 1238.12 148.838 1233.84 153.753L1235.34 155.067C1239.7 150.062 1243.04 145.272 1245.32 140.697L1243.54 139.803ZM1233.82 153.767C1229.77 158.602 1224.37 162.682 1217.59 165.992L1218.47 167.789C1225.45 164.378 1231.09 160.138 1235.36 155.053L1233.82 153.767ZM1217.59 165.992C1210.89 169.264 1202.26 170.93 1191.63 170.93V172.93C1202.45 172.93 1211.41 171.237 1218.47 167.789L1217.59 165.992ZM1157.07 98.2901H1222.59V96.2901H1157.07V98.2901ZM1223.59 97.2188C1222.93 88.0452 1219.64 80.8174 1213.64 75.6523L1212.34 77.1678C1217.86 81.9228 1220.97 88.615 1221.59 97.3613L1223.59 97.2188ZM1213.65 75.6627C1207.68 70.3481 1199.9 67.7301 1190.43 67.7301V69.7301C1199.52 69.7301 1206.78 72.232 1212.33 77.1575L1213.65 75.6627ZM1190.43 67.7301C1180.96 67.7301 1173.11 70.3484 1166.98 75.6537L1168.28 77.1664C1173.99 72.2318 1181.34 69.7301 1190.43 69.7301V67.7301ZM1166.98 75.6523C1161 80.7992 1157.39 87.9972 1156.08 97.1486L1158.06 97.4315C1159.31 88.663 1162.74 81.9409 1168.28 77.1678L1166.98 75.6523Z" fill="url(#paint1_linear_469_1058)" mask="url(#path-3-outside-2_469_1058)"/>
<defs>
<linearGradient id="paint0_linear_469_1058" x1="0" y1="84.5701" x2="1342" y2="84.5701" gradientUnits="userSpaceOnUse">
<stop stop-color="white" stop-opacity="0.05"/>
<stop offset="0.505" stop-color="white" stop-opacity="0.7"/>
<stop offset="1" stop-color="white" stop-opacity="0.05"/>
</linearGradient>
<linearGradient id="paint1_linear_469_1058" x1="670.407" y1="42.4054" x2="671" y2="150.57" gradientUnits="userSpaceOnUse">
<stop stop-color="white"/>
<stop offset="1" stop-color="#999999" stop-opacity="0"/>
</linearGradient>
</defs>
</svg>
