<svg width="343" height="49" viewBox="0 0 343 49" fill="none" xmlns="http://www.w3.org/2000/svg">
<mask id="path-1-inside-1_674_577" fill="white">
<path d="M0 0H343V49H0V0Z"/>
</mask>
<path d="M343 48H0V50H343V48Z" fill="url(#paint0_linear_674_577)" mask="url(#path-1-inside-1_674_577)"/>
<mask id="path-3-outside-2_674_577" maskUnits="userSpaceOnUse" x="14.5" y="1" width="312" height="48" fill="black">
<rect fill="white" x="14.5" y="1" width="312" height="48"/>
<path d="M31.204 47C29.284 47 27.748 46.424 26.596 45.272C25.4867 44.12 24.932 42.584 24.932 40.664V21.016H16.228V15.448H24.932V5.016H31.524V15.448H40.932V21.016H31.524V39.512C31.524 40.792 32.1213 41.432 33.316 41.432H39.908V47H31.204ZM44.8365 47V15.448H51.3005V19.16H52.3245C52.8365 17.8373 53.6472 16.8773 54.7565 16.28C55.9085 15.64 57.3165 15.32 58.9805 15.32H62.7565V21.272H58.7245C56.5912 21.272 54.8418 21.8693 53.4765 23.064C52.1112 24.216 51.4285 26.008 51.4285 28.44V47H44.8365ZM74.6635 47.896C72.4022 47.896 70.3755 47.512 68.5835 46.744C66.8342 45.976 65.4262 44.8453 64.3595 43.352C63.3355 41.8587 62.8235 40.0453 62.8235 37.912C62.8235 35.736 63.3355 33.944 64.3595 32.536C65.4262 31.0853 66.8555 29.9973 68.6475 29.272C70.4822 28.5467 72.5515 28.184 74.8555 28.184H84.4555V26.136C84.4555 24.3013 83.9008 22.8293 82.7915 21.72C81.6822 20.6107 79.9755 20.056 77.6715 20.056C75.4102 20.056 73.6822 20.5893 72.4875 21.656C71.2928 22.7227 70.5035 24.1093 70.1195 25.816L63.9755 23.832C64.4875 22.1253 65.2982 20.5893 66.4075 19.224C67.5595 17.816 69.0742 16.6853 70.9515 15.832C72.8288 14.9787 75.0902 14.552 77.7355 14.552C81.8315 14.552 85.0528 15.5973 87.3995 17.688C89.7462 19.7787 90.9195 22.744 90.9195 26.584V39.576C90.9195 40.856 91.5168 41.496 92.7115 41.496H95.3995V47H90.4715C88.9782 47 87.7622 46.616 86.8235 45.848C85.8848 45.08 85.4155 44.0347 85.4155 42.712V42.52H84.4555C84.1142 43.16 83.6022 43.9067 82.9195 44.76C82.2368 45.6133 81.2342 46.36 79.9115 47C78.5888 47.5973 76.8395 47.896 74.6635 47.896ZM75.6235 42.456C78.2688 42.456 80.4022 41.7093 82.0235 40.216C83.6448 38.68 84.4555 36.5893 84.4555 33.944V33.304H75.2395C73.4902 33.304 72.0822 33.688 71.0155 34.456C69.9488 35.1813 69.4155 36.2693 69.4155 37.72C69.4155 39.1707 69.9702 40.3227 71.0795 41.176C72.1888 42.0293 73.7035 42.456 75.6235 42.456ZM97.969 47V15.448H104.433V20.184H105.457C106.054 18.904 107.121 17.7093 108.657 16.6C110.193 15.4907 112.476 14.936 115.505 14.936C117.894 14.936 120.006 15.4693 121.841 16.536C123.718 17.6027 125.19 19.1173 126.257 21.08C127.324 23 127.857 25.3253 127.857 28.056V47H121.265V28.568C121.265 25.8373 120.582 23.832 119.217 22.552C117.852 21.2293 115.974 20.568 113.585 20.568C110.854 20.568 108.657 21.464 106.993 23.256C105.372 25.048 104.561 27.6507 104.561 31.064V47H97.969ZM146.432 47.896C142.421 47.896 139.093 47 136.448 45.208C133.803 43.416 132.181 40.7067 131.584 37.08L137.728 35.608C138.069 37.3573 138.645 38.744 139.456 39.768C140.267 40.792 141.269 41.5173 142.464 41.944C143.701 42.3707 145.024 42.584 146.432 42.584C148.523 42.584 150.123 42.1787 151.232 41.368C152.384 40.5573 152.96 39.512 152.96 38.232C152.96 36.952 152.427 36.0133 151.36 35.416C150.293 34.8187 148.715 34.328 146.624 33.944L144.448 33.56C142.315 33.176 140.373 32.6213 138.624 31.896C136.875 31.1707 135.488 30.168 134.464 28.888C133.44 27.608 132.928 25.9653 132.928 23.96C132.928 20.9733 134.037 18.6693 136.256 17.048C138.475 15.384 141.419 14.552 145.088 14.552C148.629 14.552 151.531 15.3627 153.792 16.984C156.096 18.5627 157.589 20.7173 158.272 23.448L152.128 25.176C151.744 23.256 150.933 21.912 149.696 21.144C148.459 20.3333 146.923 19.928 145.088 19.928C143.296 19.928 141.888 20.2693 140.864 20.952C139.84 21.592 139.328 22.5093 139.328 23.704C139.328 24.984 139.819 25.9227 140.8 26.52C141.824 27.1173 143.189 27.5653 144.896 27.864L147.136 28.248C149.397 28.632 151.467 29.1653 153.344 29.848C155.221 30.5307 156.693 31.512 157.76 32.792C158.869 34.072 159.424 35.7787 159.424 37.912C159.424 41.0693 158.251 43.5227 155.904 45.272C153.557 47.0213 150.4 47.896 146.432 47.896ZM168.298 47V21.016H159.466V15.448H168.298V8.536C168.298 6.616 168.874 5.08 170.026 3.928C171.178 2.776 172.714 2.2 174.634 2.2H182.314V7.768H176.746C175.508 7.768 174.89 8.408 174.89 9.688V15.448H189.034V21.016H174.89V47H168.298ZM189.034 47V15.448H195.626V47H189.034ZM192.362 11.352C191.082 11.352 189.994 10.9467 189.098 10.136C188.244 9.28267 187.818 8.19467 187.818 6.872C187.818 5.50666 188.244 4.41866 189.098 3.608C189.994 2.79733 191.082 2.392 192.362 2.392C193.642 2.392 194.708 2.79733 195.562 3.608C196.458 4.41866 196.906 5.50666 196.906 6.872C196.906 8.19467 196.458 9.28267 195.562 10.136C194.708 10.9467 193.642 11.352 192.362 11.352ZM201.512 47V15.448H207.976V20.184H209C209.597 18.904 210.664 17.7093 212.2 16.6C213.736 15.4907 216.018 14.936 219.048 14.936C221.437 14.936 223.549 15.4693 225.384 16.536C227.261 17.6027 228.733 19.1173 229.8 21.08C230.866 23 231.4 25.3253 231.4 28.056V47H224.808V28.568C224.808 25.8373 224.125 23.832 222.76 22.552C221.394 21.2293 219.517 20.568 217.128 20.568C214.397 20.568 212.2 21.464 210.536 23.256C208.914 25.048 208.104 27.6507 208.104 31.064V47H201.512ZM237.046 47V15.448H243.638V47H237.046ZM240.374 11.16C239.094 11.16 238.006 10.7547 237.11 9.944C236.257 9.09066 235.83 8.00266 235.83 6.68C235.83 5.35733 236.257 4.29067 237.11 3.48C238.006 2.62666 239.094 2.2 240.374 2.2C241.697 2.2 242.785 2.62666 243.638 3.48C244.492 4.29067 244.918 5.35733 244.918 6.68C244.918 8.00266 244.492 9.09066 243.638 9.944C242.785 10.7547 241.697 11.16 240.374 11.16ZM261.421 47C259.501 47 257.965 46.424 256.813 45.272C255.704 44.12 255.149 42.584 255.149 40.664V21.016H246.445V15.448H255.149V5.016H261.741V15.448H269.166V21.016H261.741V39.512C261.741 40.792 262.339 41.432 263.533 41.432H270.125V47H261.421ZM282.158 47C280.238 47 278.701 46.424 277.549 45.272C276.398 44.12 275.822 42.584 275.822 40.664V21.016H269.166V15.448H275.822V5.016H282.414V15.448H291.886V21.016H282.414V39.512C282.414 40.792 283.032 41.432 284.27 41.432H290.798V47H282.158ZM310.268 47.896C307.068 47.896 304.273 47.2347 301.884 45.912C299.495 44.5467 297.617 42.648 296.252 40.216C294.929 37.7413 294.268 34.8827 294.268 31.64V30.872C294.268 27.5867 294.929 24.728 296.252 22.296C297.575 19.8213 299.409 17.9227 301.756 16.6C304.145 15.2347 306.897 14.552 310.012 14.552C313.041 14.552 315.687 15.2347 317.948 16.6C320.252 17.9227 322.044 19.7787 323.324 22.168C324.604 24.5573 325.244 27.352 325.244 30.552V33.048H300.988C301.073 35.8213 301.991 38.04 303.74 39.704C305.532 41.3253 307.751 42.136 310.396 42.136C312.871 42.136 314.727 41.5813 315.964 40.472C317.244 39.3627 318.225 38.0827 318.908 36.632L324.348 39.448C323.751 40.6427 322.876 41.9013 321.724 43.224C320.615 44.5467 319.143 45.656 317.308 46.552C315.473 47.448 313.127 47.896 310.268 47.896ZM301.052 27.992H318.524C318.353 25.6027 317.5 23.7467 315.964 22.424C314.428 21.0587 312.423 20.376 309.948 20.376C307.473 20.376 305.447 21.0587 303.868 22.424C302.332 23.7467 301.393 25.6027 301.052 27.992Z"/>
</mask>
<path d="M26.596 45.272L25.8757 45.9656L25.8822 45.9724L25.8889 45.9791L26.596 45.272ZM24.932 21.016H25.932V20.016H24.932V21.016ZM16.228 21.016H15.228V22.016H16.228V21.016ZM16.228 15.448V14.448H15.228V15.448H16.228ZM24.932 15.448V16.448H25.932V15.448H24.932ZM24.932 5.016V4.016H23.932V5.016H24.932ZM31.524 5.016H32.524V4.016H31.524V5.016ZM31.524 15.448H30.524V16.448H31.524V15.448ZM40.932 15.448H41.932V14.448H40.932V15.448ZM40.932 21.016V22.016H41.932V21.016H40.932ZM31.524 21.016V20.016H30.524V21.016H31.524ZM39.908 41.432H40.908V40.432H39.908V41.432ZM39.908 47V48H40.908V47H39.908ZM31.204 46C29.4983 46 28.2344 45.4962 27.3031 44.5649L25.8889 45.9791C27.2616 47.3518 29.0697 48 31.204 48V46ZM27.3163 44.5784C26.4214 43.649 25.932 42.3805 25.932 40.664H23.932C23.932 42.7875 24.552 44.591 25.8757 45.9656L27.3163 44.5784ZM25.932 40.664V21.016H23.932V40.664H25.932ZM24.932 20.016H16.228V22.016H24.932V20.016ZM17.228 21.016V15.448H15.228V21.016H17.228ZM16.228 16.448H24.932V14.448H16.228V16.448ZM25.932 15.448V5.016H23.932V15.448H25.932ZM24.932 6.016H31.524V4.016H24.932V6.016ZM30.524 5.016V15.448H32.524V5.016H30.524ZM31.524 16.448H40.932V14.448H31.524V16.448ZM39.932 15.448V21.016H41.932V15.448H39.932ZM40.932 20.016H31.524V22.016H40.932V20.016ZM30.524 21.016V39.512H32.524V21.016H30.524ZM30.524 39.512C30.524 40.2896 30.7041 41.0591 31.2409 41.6343C31.79 42.2225 32.5462 42.432 33.316 42.432V40.432C32.8912 40.432 32.7514 40.3215 32.7031 40.2697C32.6426 40.2049 32.524 40.0144 32.524 39.512H30.524ZM33.316 42.432H39.908V40.432H33.316V42.432ZM38.908 41.432V47H40.908V41.432H38.908ZM39.908 46H31.204V48H39.908V46ZM44.8365 47H43.8365V48H44.8365V47ZM44.8365 15.448V14.448H43.8365V15.448H44.8365ZM51.3005 15.448H52.3005V14.448H51.3005V15.448ZM51.3005 19.16H50.3005V20.16H51.3005V19.16ZM52.3245 19.16V20.16H53.0097L53.2571 19.521L52.3245 19.16ZM54.7565 16.28L55.2306 17.1605L55.2421 17.1542L54.7565 16.28ZM62.7565 15.32H63.7565V14.32H62.7565V15.32ZM62.7565 21.272V22.272H63.7565V21.272H62.7565ZM53.4765 23.064L54.1214 23.8283L54.1282 23.8225L54.135 23.8166L53.4765 23.064ZM51.4285 47V48H52.4285V47H51.4285ZM45.8365 47V15.448H43.8365V47H45.8365ZM44.8365 16.448H51.3005V14.448H44.8365V16.448ZM50.3005 15.448V19.16H52.3005V15.448H50.3005ZM51.3005 20.16H52.3245V18.16H51.3005V20.16ZM53.2571 19.521C53.6946 18.3908 54.3576 17.6305 55.2306 17.1605L54.2824 15.3995C52.9367 16.1241 51.9784 17.2839 51.3919 18.799L53.2571 19.521ZM55.2421 17.1542C56.2115 16.6156 57.4426 16.32 58.9805 16.32V14.32C57.1904 14.32 55.6055 14.6644 54.2709 15.4058L55.2421 17.1542ZM58.9805 16.32H62.7565V14.32H58.9805V16.32ZM61.7565 15.32V21.272H63.7565V15.32H61.7565ZM62.7565 20.272H58.7245V22.272H62.7565V20.272ZM58.7245 20.272C56.3939 20.272 54.3969 20.9299 52.818 22.3114L54.135 23.8166C55.2868 22.8087 56.7884 22.272 58.7245 22.272V20.272ZM52.8316 22.2997C51.1675 23.7038 50.4285 25.8256 50.4285 28.44H52.4285C52.4285 26.1904 53.0548 24.7282 54.1214 23.8283L52.8316 22.2997ZM50.4285 28.44V47H52.4285V28.44H50.4285ZM51.4285 46H44.8365V48H51.4285V46ZM68.5835 46.744L68.1815 47.6597L68.1896 47.6631L68.5835 46.744ZM64.3595 43.352L63.5348 43.9175L63.5402 43.9254L63.5458 43.9332L64.3595 43.352ZM64.3595 32.536L63.5538 31.9436L63.5508 31.9478L64.3595 32.536ZM68.6475 29.272L68.2798 28.342L68.2723 28.3451L68.6475 29.272ZM84.4555 28.184V29.184H85.4555V28.184H84.4555ZM82.7915 21.72L82.0844 22.4271V22.4271L82.7915 21.72ZM70.1195 25.816L69.8122 26.7676L70.8546 27.1042L71.0951 26.0355L70.1195 25.816ZM63.9755 23.832L63.0177 23.5447L62.7363 24.4827L63.6682 24.7836L63.9755 23.832ZM66.4075 19.224L65.6335 18.5908L65.6314 18.5934L66.4075 19.224ZM70.9515 15.832L71.3653 16.7424L70.9515 15.832ZM87.3995 17.688L88.0647 16.9413V16.9413L87.3995 17.688ZM95.3995 41.496H96.3995V40.496H95.3995V41.496ZM95.3995 47V48H96.3995V47H95.3995ZM86.8235 45.848L87.4567 45.074L86.8235 45.848ZM85.4155 42.52H86.4155V41.52H85.4155V42.52ZM84.4555 42.52V41.52H83.8555L83.5732 42.0494L84.4555 42.52ZM82.9195 44.76L83.7004 45.3847V45.3847L82.9195 44.76ZM79.9115 47L80.3231 47.9114L80.3352 47.9059L80.3471 47.9002L79.9115 47ZM82.0235 40.216L82.701 40.9516L82.7112 40.942L82.0235 40.216ZM84.4555 33.304H85.4555V32.304H84.4555V33.304ZM71.0155 34.456L71.5778 35.2829L71.5889 35.2754L71.5998 35.2675L71.0155 34.456ZM74.6635 46.896C72.5162 46.896 70.6266 46.5317 68.9774 45.8249L68.1896 47.6631C70.1244 48.4923 72.2882 48.896 74.6635 48.896V46.896ZM68.9855 45.8284C67.3939 45.1296 66.1309 44.1114 65.1732 42.7708L63.5458 43.9332C64.7215 45.5792 66.2744 46.8224 68.1815 47.6596L68.9855 45.8284ZM65.1842 42.7865C64.2936 41.4876 63.8235 39.8803 63.8235 37.912H61.8235C61.8235 40.2104 62.3774 42.2297 63.5348 43.9175L65.1842 42.7865ZM63.8235 37.912C63.8235 35.8939 64.2966 34.3226 65.1682 33.1242L63.5508 31.9478C62.3743 33.5654 61.8235 35.5781 61.8235 37.912H63.8235ZM65.1651 33.1284C66.114 31.838 67.3892 30.8601 69.0227 30.1989L68.2723 28.3451C66.3218 29.1346 64.7384 30.3327 63.5538 31.9436L65.1651 33.1284ZM69.0152 30.202C70.7149 29.53 72.6566 29.184 74.8555 29.184V27.184C72.4464 27.184 70.2495 27.5634 68.2798 28.342L69.0152 30.202ZM74.8555 29.184H84.4555V27.184H74.8555V29.184ZM85.4555 28.184V26.136H83.4555V28.184H85.4555ZM85.4555 26.136C85.4555 24.0846 84.8272 22.3415 83.4986 21.0129L82.0844 22.4271C82.9745 23.3172 83.4555 24.5181 83.4555 26.136H85.4555ZM83.4986 21.0129C82.1293 19.6436 80.1169 19.056 77.6715 19.056V21.056C79.8341 21.056 81.235 21.5777 82.0844 22.4271L83.4986 21.0129ZM77.6715 19.056C75.2652 19.056 73.2627 19.6232 71.8215 20.9101L73.1535 22.4019C74.1016 21.5554 75.5551 21.056 77.6715 21.056V19.056ZM71.8215 20.9101C70.4568 22.1285 69.5692 23.7061 69.1439 25.5965L71.0951 26.0355C71.4378 24.5126 72.1289 23.3168 73.1535 22.4019L71.8215 20.9101ZM70.4268 24.8644L64.2828 22.8804L63.6682 24.7836L69.8122 26.7676L70.4268 24.8644ZM64.9333 24.1193C65.4083 22.5362 66.1578 21.1172 67.1836 19.8546L65.6314 18.5934C64.4386 20.0615 63.5667 21.7144 63.0177 23.5447L64.9333 24.1193ZM67.1815 19.8572C68.224 18.583 69.6089 17.5407 71.3653 16.7424L70.5377 14.9216C68.5394 15.8299 66.895 17.049 65.6335 18.5908L67.1815 19.8572ZM71.3653 16.7424C73.0814 15.9623 75.1941 15.552 77.7355 15.552V13.552C74.9863 13.552 72.5762 13.995 70.5377 14.9216L71.3653 16.7424ZM77.7355 15.552C81.6624 15.552 84.6206 16.5516 86.7343 18.4347L88.0647 16.9413C85.485 14.6431 82.0006 13.552 77.7355 13.552V15.552ZM86.7343 18.4347C88.8216 20.2943 89.9195 22.9606 89.9195 26.584H91.9195C91.9195 22.5274 90.6707 19.2631 88.0647 16.9413L86.7343 18.4347ZM89.9195 26.584V39.576H91.9195V26.584H89.9195ZM89.9195 39.576C89.9195 40.3536 90.0996 41.1231 90.6364 41.6983C91.1855 42.2865 91.9417 42.496 92.7115 42.496V40.496C92.2867 40.496 92.1469 40.3855 92.0986 40.3337C92.0381 40.2689 91.9195 40.0784 91.9195 39.576H89.9195ZM92.7115 42.496H95.3995V40.496H92.7115V42.496ZM94.3995 41.496V47H96.3995V41.496H94.3995ZM95.3995 46H90.4715V48H95.3995V46ZM90.4715 46C89.1539 46 88.1783 45.6644 87.4567 45.074L86.1903 46.622C87.346 47.5676 88.8024 48 90.4715 48V46ZM87.4567 45.074C86.7731 44.5147 86.4155 43.7657 86.4155 42.712H84.4155C84.4155 44.3037 84.9965 45.6453 86.1903 46.622L87.4567 45.074ZM86.4155 42.712V42.52H84.4155V42.712H86.4155ZM85.4155 41.52H84.4555V43.52H85.4155V41.52ZM83.5732 42.0494C83.2714 42.6151 82.8 43.3085 82.1386 44.1353L83.7004 45.3847C84.4043 44.5048 84.9569 43.7049 85.3379 42.9906L83.5732 42.0494ZM82.1386 44.1353C81.5754 44.8393 80.7084 45.5035 79.4759 46.0998L80.3471 47.9002C81.76 47.2165 82.8983 46.3873 83.7004 45.3847L82.1386 44.1353ZM79.4999 46.0886C78.3547 46.6058 76.762 46.896 74.6635 46.896V48.896C76.917 48.896 78.823 48.5888 80.3231 47.9114L79.4999 46.0886ZM75.6235 43.456C78.4668 43.456 80.8594 42.6478 82.701 40.9515L81.346 39.4805C79.945 40.7709 78.0709 41.456 75.6235 41.456V43.456ZM82.7112 40.942C84.5686 39.1824 85.4555 36.809 85.4555 33.944H83.4555C83.4555 36.3696 82.7211 38.1776 81.3358 39.49L82.7112 40.942ZM85.4555 33.944V33.304H83.4555V33.944H85.4555ZM84.4555 32.304H75.2395V34.304H84.4555V32.304ZM75.2395 32.304C73.3491 32.304 71.7164 32.7191 70.4312 33.6445L71.5998 35.2675C72.448 34.6569 73.6312 34.304 75.2395 34.304V32.304ZM70.4532 33.6291C69.0751 34.5661 68.4155 35.9864 68.4155 37.72H70.4155C70.4155 36.5523 70.8225 35.7965 71.5778 35.2829L70.4532 33.6291ZM68.4155 37.72C68.4155 39.4679 69.1041 40.9181 70.4698 41.9686L71.6892 40.3834C70.8363 39.7273 70.4155 38.8734 70.4155 37.72H68.4155ZM70.4698 41.9686C71.8087 42.9986 73.5638 43.456 75.6235 43.456V41.456C73.8432 41.456 72.569 41.0601 71.6892 40.3834L70.4698 41.9686ZM97.969 47H96.969V48H97.969V47ZM97.969 15.448V14.448H96.969V15.448H97.969ZM104.433 15.448H105.433V14.448H104.433V15.448ZM104.433 20.184H103.433V21.184H104.433V20.184ZM105.457 20.184V21.184H106.094L106.363 20.6069L105.457 20.184ZM108.657 16.6L109.242 17.4107L108.657 16.6ZM121.841 16.536L121.338 17.4005L121.347 17.4055L121.841 16.536ZM126.257 21.08L125.378 21.5575L125.383 21.5656L126.257 21.08ZM127.857 47V48H128.857V47H127.857ZM121.265 47H120.265V48H121.265V47ZM119.217 22.552L118.521 23.2702L118.527 23.2759L118.533 23.2815L119.217 22.552ZM106.993 23.256L106.26 22.5755L106.251 22.5851L106.993 23.256ZM104.561 47V48H105.561V47H104.561ZM98.969 47V15.448H96.969V47H98.969ZM97.969 16.448H104.433V14.448H97.969V16.448ZM103.433 15.448V20.184H105.433V15.448H103.433ZM104.433 21.184H105.457V19.184H104.433V21.184ZM106.363 20.6069C106.868 19.5252 107.799 18.453 109.242 17.4107L108.072 15.7893C106.443 16.9657 105.241 18.2828 104.551 19.7611L106.363 20.6069ZM109.242 17.4107C110.533 16.4784 112.57 15.936 115.505 15.936V13.936C112.382 13.936 109.853 14.503 108.072 15.7893L109.242 17.4107ZM115.505 15.936C117.74 15.936 119.675 16.4333 121.338 17.4005L122.344 15.6715C120.338 14.5053 118.048 13.936 115.505 13.936V15.936ZM121.347 17.4055C123.056 18.3766 124.398 19.7529 125.378 21.5575L127.136 20.6025C125.983 18.4818 124.38 16.8287 122.335 15.6665L121.347 17.4055ZM125.383 21.5656C126.349 23.3051 126.857 25.4545 126.857 28.056H128.857C128.857 25.1962 128.298 22.6949 127.131 20.5944L125.383 21.5656ZM126.857 28.056V47H128.857V28.056H126.857ZM127.857 46H121.265V48H127.857V46ZM122.265 47V28.568H120.265V47H122.265ZM122.265 28.568C122.265 25.689 121.545 23.3642 119.901 21.8225L118.533 23.2815C119.619 24.2998 120.265 25.9857 120.265 28.568H122.265ZM119.913 21.8338C118.316 20.2869 116.164 19.568 113.585 19.568V21.568C115.785 21.568 117.387 22.1718 118.521 23.2702L119.913 21.8338ZM113.585 19.568C110.612 19.568 108.137 20.5549 106.26 22.5755L107.726 23.9364C109.177 22.3731 111.097 21.568 113.585 21.568V19.568ZM106.251 22.5851C104.406 24.6246 103.561 27.5046 103.561 31.064H105.561C105.561 27.7967 106.337 25.4714 107.735 23.9269L106.251 22.5851ZM103.561 31.064V47H105.561V31.064H103.561ZM104.561 46H97.969V48H104.561V46ZM136.448 45.208L137.009 44.3801L136.448 45.208ZM131.584 37.08L131.351 36.1075L130.446 36.3243L130.597 37.2425L131.584 37.08ZM137.728 35.608L138.709 35.4165L138.51 34.3924L137.495 34.6355L137.728 35.608ZM139.456 39.768L140.24 39.1473L139.456 39.768ZM142.464 41.944L142.128 42.8858L142.138 42.8894L142.464 41.944ZM151.232 41.368L150.657 40.5502L150.649 40.5553L150.642 40.5606L151.232 41.368ZM146.624 33.944L146.805 32.9604L146.798 32.9592L146.624 33.944ZM144.448 33.56L144.271 34.5442L144.274 34.5448L144.448 33.56ZM138.624 31.896L138.241 32.8197L138.624 31.896ZM134.464 28.888L135.245 28.2633L134.464 28.888ZM136.256 17.048L136.846 17.8555L136.856 17.848L136.256 17.048ZM153.792 16.984L153.209 17.7967L153.218 17.8029L153.227 17.8089L153.792 16.984ZM158.272 23.448L158.543 24.4106L159.478 24.1477L159.242 23.2055L158.272 23.448ZM152.128 25.176L151.147 25.3721L151.359 26.431L152.399 26.1386L152.128 25.176ZM149.696 21.144L149.148 21.9805L149.158 21.9872L149.169 21.9936L149.696 21.144ZM140.864 20.952L141.394 21.8L141.406 21.7922L141.419 21.784L140.864 20.952ZM140.8 26.52L140.28 27.3742L140.288 27.3791L140.296 27.3838L140.8 26.52ZM144.896 27.864L144.724 28.849L144.727 28.8496L144.896 27.864ZM147.136 28.248L146.967 29.2336L146.969 29.2339L147.136 28.248ZM157.76 32.792L156.992 33.4322L156.998 33.4396L157.004 33.4469L157.76 32.792ZM155.904 45.272L156.502 46.0737L155.904 45.272ZM146.432 46.896C142.57 46.896 139.451 46.0343 137.009 44.3801L135.887 46.0359C138.736 47.9657 142.273 48.896 146.432 48.896V46.896ZM137.009 44.3801C134.626 42.7656 133.131 40.3178 132.571 36.9175L130.597 37.2425C131.232 41.0955 132.98 44.0664 135.887 46.0359L137.009 44.3801ZM131.817 38.0525L137.961 36.5805L137.495 34.6355L131.351 36.1075L131.817 38.0525ZM136.747 35.7995C137.108 37.6513 137.733 39.2023 138.672 40.3887L140.24 39.1473C139.558 38.2857 139.031 37.0634 138.709 35.4165L136.747 35.7995ZM138.672 40.3887C139.595 41.555 140.751 42.3942 142.128 42.8857L142.8 41.0023C141.787 40.6405 140.938 40.029 140.24 39.1473L138.672 40.3887ZM142.138 42.8894C143.488 43.3549 144.921 43.584 146.432 43.584V41.584C145.127 41.584 143.915 41.3865 142.79 40.9986L142.138 42.8894ZM146.432 43.584C148.631 43.584 150.473 43.1612 151.822 42.1754L150.642 40.5606C149.772 41.1961 148.415 41.584 146.432 41.584V43.584ZM151.807 42.1858C153.194 41.2098 153.96 39.8738 153.96 38.232H151.96C151.96 39.1502 151.574 39.9048 150.657 40.5502L151.807 42.1858ZM153.96 38.232C153.96 36.6111 153.249 35.3277 151.849 34.5435L150.871 36.2885C151.604 36.6989 151.96 37.2929 151.96 38.232H153.96ZM151.849 34.5435C150.64 33.8669 148.936 33.3519 146.805 32.9605L146.443 34.9275C148.493 35.3041 149.946 35.7704 150.871 36.2885L151.849 34.5435ZM146.798 32.9592L144.622 32.5752L144.274 34.5448L146.45 34.9288L146.798 32.9592ZM144.625 32.5758C142.552 32.2027 140.681 31.6665 139.007 30.9723L138.241 32.8197C140.065 33.5762 142.077 34.1493 144.271 34.5442L144.625 32.5758ZM139.007 30.9723C137.389 30.3014 136.148 29.3925 135.245 28.2633L133.683 29.5127C134.828 30.9435 136.36 32.04 138.241 32.8197L139.007 30.9723ZM135.245 28.2633C134.392 27.1975 133.928 25.7905 133.928 23.96H131.928C131.928 26.1401 132.488 28.0185 133.683 29.5127L135.245 28.2633ZM133.928 23.96C133.928 21.2602 134.91 19.2702 136.846 17.8554L135.666 16.2406C133.165 18.0685 131.928 20.6865 131.928 23.96H133.928ZM136.856 17.848C138.853 16.3502 141.565 15.552 145.088 15.552V13.552C141.272 13.552 138.096 14.4178 135.656 16.248L136.856 17.848ZM145.088 15.552C148.478 15.552 151.159 16.3267 153.209 17.7967L154.375 16.1713C151.902 14.3986 148.781 13.552 145.088 13.552V15.552ZM153.227 17.8089C155.327 19.2483 156.678 21.1949 157.302 23.6905L159.242 23.2055C158.501 20.2397 156.865 17.8771 154.357 16.1591L153.227 17.8089ZM158.001 22.4853L151.857 24.2133L152.399 26.1386L158.543 24.4106L158.001 22.4853ZM153.109 24.9799C152.69 22.886 151.768 21.2533 150.223 20.2944L149.169 21.9936C150.098 22.5707 150.798 23.626 151.147 25.3721L153.109 24.9799ZM150.244 20.3075C148.809 19.3671 147.07 18.928 145.088 18.928V20.928C146.775 20.928 148.109 21.2996 149.148 21.9805L150.244 20.3075ZM145.088 18.928C143.184 18.928 141.557 19.2884 140.309 20.1199L141.419 21.784C142.219 21.2502 143.408 20.928 145.088 20.928V18.928ZM140.334 20.104C139.021 20.9243 138.328 22.16 138.328 23.704H140.328C140.328 22.8586 140.659 22.2597 141.394 21.8L140.334 20.104ZM138.328 23.704C138.328 25.2853 138.962 26.5719 140.28 27.3742L141.32 25.6658C140.675 25.2734 140.328 24.6827 140.328 23.704H138.328ZM140.296 27.3838C141.458 28.0616 142.949 28.5385 144.724 28.849L145.068 26.879C143.429 26.5922 142.19 26.173 141.304 25.6562L140.296 27.3838ZM144.727 28.8496L146.967 29.2336L147.305 27.2624L145.065 26.8784L144.727 28.8496ZM146.969 29.2339C149.179 29.6093 151.189 30.1285 153.002 30.7878L153.686 28.9082C151.744 28.2022 149.616 27.6547 147.303 27.2621L146.969 29.2339ZM153.002 30.7878C154.747 31.4221 156.059 32.3127 156.992 33.4322L158.528 32.1518C157.328 30.7113 155.696 29.6392 153.686 28.9082L153.002 30.7878ZM157.004 33.4469C157.918 34.5017 158.424 35.9549 158.424 37.912H160.424C160.424 35.6025 159.82 33.6423 158.516 32.1371L157.004 33.4469ZM158.424 37.912C158.424 40.7824 157.378 42.9263 155.306 44.4703L156.502 46.0737C159.124 44.1191 160.424 41.3562 160.424 37.912H158.424ZM155.306 44.4703C153.184 46.052 150.26 46.896 146.432 46.896V48.896C150.54 48.896 153.93 47.9906 156.502 46.0737L155.306 44.4703ZM168.298 47H167.298V48H168.298V47ZM168.298 21.016H169.298V20.016H168.298V21.016ZM159.465 21.016H158.465V22.016H159.465V21.016ZM159.465 15.448V14.448H158.465V15.448H159.465ZM168.298 15.448V16.448H169.298V15.448H168.298ZM170.025 3.928L169.318 3.22089V3.22089L170.025 3.928ZM182.314 2.2H183.314V1.2H182.314V2.2ZM182.314 7.768V8.768H183.314V7.768H182.314ZM174.889 15.448H173.889V16.448H174.889V15.448ZM189.034 15.448H190.034V14.448H189.034V15.448ZM189.034 21.016V22.016H190.034V21.016H189.034ZM174.889 21.016V20.016H173.889V21.016H174.889ZM174.889 47V48H175.889V47H174.889ZM189.034 47H188.034V48H189.034V47ZM189.034 15.448V14.448H188.034V15.448H189.034ZM195.626 15.448H196.626V14.448H195.626V15.448ZM195.626 47V48H196.626V47H195.626ZM189.098 10.136L188.39 10.8431L188.408 10.8608L188.427 10.8775L189.098 10.136ZM189.098 3.608L188.427 2.86646L188.418 2.87462L188.409 2.883L189.098 3.608ZM195.562 3.608L194.873 4.333L194.882 4.34137L194.891 4.34953L195.562 3.608ZM195.562 10.136L196.25 10.861L196.251 10.8601L195.562 10.136ZM169.298 47V21.016H167.298V47H169.298ZM168.298 20.016H159.465V22.016H168.298V20.016ZM160.465 21.016V15.448H158.465V21.016H160.465ZM159.465 16.448H168.298V14.448H159.465V16.448ZM169.298 15.448V8.536H167.298V15.448H169.298ZM169.298 8.536C169.298 6.83025 169.801 5.56637 170.733 4.6351L169.318 3.22089C167.946 4.59363 167.298 6.40174 167.298 8.536H169.298ZM170.733 4.6351C171.664 3.70384 172.928 3.2 174.633 3.2V1.2C172.499 1.2 170.691 1.84816 169.318 3.22089L170.733 4.6351ZM174.633 3.2H182.314V1.2H174.633V3.2ZM181.314 2.2V7.768H183.314V2.2H181.314ZM182.314 6.768H176.745V8.768H182.314V6.768ZM176.745 6.768C175.964 6.768 175.196 6.97201 174.635 7.55298C174.079 8.12764 173.889 8.90219 173.889 9.688H175.889C175.889 9.19381 176.009 9.00836 176.072 8.94302C176.13 8.88399 176.29 8.768 176.745 8.768V6.768ZM173.889 9.688V15.448H175.889V9.688H173.889ZM174.889 16.448H189.034V14.448H174.889V16.448ZM188.034 15.448V21.016H190.034V15.448H188.034ZM189.034 20.016H174.889V22.016H189.034V20.016ZM173.889 21.016V47H175.889V21.016H173.889ZM174.889 46H168.298V48H174.889V46ZM190.034 47V15.448H188.034V47H190.034ZM189.034 16.448H195.626V14.448H189.034V16.448ZM194.626 15.448V47H196.626V15.448H194.626ZM195.626 46H189.034V48H195.626V46ZM192.362 10.352C191.313 10.352 190.469 10.0283 189.768 9.39446L188.427 10.8775C189.518 11.865 190.85 12.352 192.362 12.352V10.352ZM189.805 9.42889C189.158 8.78201 188.818 7.95746 188.818 6.872H186.818C186.818 8.43188 187.331 9.78332 188.39 10.8431L189.805 9.42889ZM188.818 6.872C188.818 5.73295 189.164 4.92428 189.786 4.333L188.409 2.883C187.324 3.91305 186.818 5.28038 186.818 6.872H188.818ZM189.768 4.34953C190.469 3.71571 191.313 3.392 192.362 3.392V1.392C190.85 1.392 189.518 1.87896 188.427 2.86646L189.768 4.34953ZM192.362 3.392C193.41 3.392 194.222 3.71509 194.873 4.333L196.25 2.883C195.194 1.87957 193.873 1.392 192.362 1.392V3.392ZM194.891 4.34953C195.549 4.94494 195.906 5.74855 195.906 6.872H197.906C197.906 5.26478 197.366 3.89239 196.232 2.86646L194.891 4.34953ZM195.906 6.872C195.906 7.94205 195.555 8.76132 194.872 9.41186L196.251 10.8601C197.36 9.80401 197.906 8.44728 197.906 6.872H195.906ZM194.873 9.411C194.222 10.0289 193.41 10.352 192.362 10.352V12.352C193.873 12.352 195.194 11.8644 196.25 10.861L194.873 9.411ZM201.512 47H200.512V48H201.512V47ZM201.512 15.448V14.448H200.512V15.448H201.512ZM207.976 15.448H208.976V14.448H207.976V15.448ZM207.976 20.184H206.976V21.184H207.976V20.184ZM209 20.184V21.184H209.636L209.906 20.6069L209 20.184ZM212.2 16.6L212.785 17.4107L212.2 16.6ZM225.384 16.536L224.881 17.4005L224.889 17.4055L225.384 16.536ZM229.799 21.08L228.921 21.5575L228.925 21.5656L229.799 21.08ZM231.4 47V48H232.4V47H231.4ZM224.808 47H223.808V48H224.808V47ZM222.76 22.552L222.064 23.2702L222.07 23.2759L222.076 23.2815L222.76 22.552ZM210.536 23.256L209.803 22.5755L209.794 22.5851L210.536 23.256ZM208.104 47V48H209.104V47H208.104ZM202.512 47V15.448H200.512V47H202.512ZM201.512 16.448H207.976V14.448H201.512V16.448ZM206.976 15.448V20.184H208.976V15.448H206.976ZM207.976 21.184H209V19.184H207.976V21.184ZM209.906 20.6069C210.41 19.5252 211.342 18.453 212.785 17.4107L211.614 15.7893C209.985 16.9657 208.783 18.2828 208.093 19.7611L209.906 20.6069ZM212.785 17.4107C214.076 16.4784 216.112 15.936 219.048 15.936V13.936C215.924 13.936 213.395 14.503 211.614 15.7893L212.785 17.4107ZM219.048 15.936C221.283 15.936 223.217 16.4333 224.881 17.4005L225.886 15.6715C223.88 14.5053 221.591 13.936 219.048 13.936V15.936ZM224.889 17.4055C226.599 18.3766 227.94 19.7529 228.921 21.5575L230.678 20.6025C229.526 18.4818 227.923 16.8287 225.878 15.6665L224.889 17.4055ZM228.925 21.5656C229.892 23.3051 230.4 25.4545 230.4 28.056H232.4C232.4 25.1962 231.841 22.6949 230.674 20.5944L228.925 21.5656ZM230.4 28.056V47H232.4V28.056H230.4ZM231.4 46H224.808V48H231.4V46ZM225.808 47V28.568H223.808V47H225.808ZM225.808 28.568C225.808 25.689 225.088 23.3642 223.443 21.8225L222.076 23.2815C223.162 24.2998 223.808 25.9857 223.808 28.568H225.808ZM223.455 21.8338C221.859 20.2869 219.707 19.568 217.128 19.568V21.568C219.327 21.568 220.93 22.1718 222.064 23.2702L223.455 21.8338ZM217.128 19.568C214.155 19.568 211.679 20.5549 209.803 22.5755L211.268 23.9364C212.72 22.3731 214.639 21.568 217.128 21.568V19.568ZM209.794 22.5851C207.949 24.6246 207.104 27.5046 207.104 31.064H209.104C209.104 27.7967 209.88 25.4714 211.277 23.9269L209.794 22.5851ZM207.104 31.064V47H209.104V31.064H207.104ZM208.104 46H201.512V48H208.104V46ZM237.046 47H236.046V48H237.046V47ZM237.046 15.448V14.448H236.046V15.448H237.046ZM243.638 15.448H244.638V14.448H243.638V15.448ZM243.638 47V48H244.638V47H243.638ZM237.11 9.944L236.403 10.6511L236.421 10.6688L236.44 10.6855L237.11 9.944ZM237.11 3.48L237.799 4.205L237.8 4.20414L237.11 3.48ZM243.638 3.48L242.931 4.18711L242.94 4.19617L242.95 4.205L243.638 3.48ZM243.638 9.944L244.327 10.669L244.337 10.6602L244.346 10.6511L243.638 9.944ZM238.046 47V15.448H236.046V47H238.046ZM237.046 16.448H243.638V14.448H237.046V16.448ZM242.638 15.448V47H244.638V15.448H242.638ZM243.638 46H237.046V48H243.638V46ZM240.374 10.16C239.326 10.16 238.482 9.83629 237.781 9.20246L236.44 10.6855C237.531 11.673 238.863 12.16 240.374 12.16V10.16ZM237.818 9.23689C237.171 8.59001 236.83 7.76545 236.83 6.68H234.83C234.83 8.23987 235.344 9.59132 236.403 10.6511L237.818 9.23689ZM236.83 6.68C236.83 5.5941 237.17 4.80261 237.799 4.205L236.422 2.755C235.344 3.77872 234.83 5.12056 234.83 6.68H236.83ZM237.8 4.20414C238.503 3.53455 239.341 3.2 240.374 3.2V1.2C238.848 1.2 237.51 1.71878 236.421 2.75586L237.8 4.20414ZM240.374 3.2C241.46 3.2 242.285 3.54022 242.931 4.18711L244.346 2.77289C243.286 1.71311 241.934 1.2 240.374 1.2V3.2ZM242.95 4.205C243.579 4.80261 243.919 5.5941 243.919 6.68H245.919C245.919 5.12056 245.405 3.77872 244.327 2.755L242.95 4.205ZM243.919 6.68C243.919 7.76545 243.578 8.59001 242.931 9.23689L244.346 10.6511C245.405 9.59132 245.919 8.23987 245.919 6.68H243.919ZM242.95 9.219C242.306 9.83078 241.475 10.16 240.374 10.16V12.16C241.919 12.16 243.265 11.6786 244.327 10.669L242.95 9.219ZM256.814 45.272L256.093 45.9656L256.1 45.9724L256.106 45.9791L256.814 45.272ZM255.15 21.016H256.15V20.016H255.15V21.016ZM246.445 21.016H245.445V22.016H246.445V21.016ZM246.445 15.448V14.448H245.445V15.448H246.445ZM255.15 15.448V16.448H256.15V15.448H255.15ZM255.15 5.016V4.016H254.15V5.016H255.15ZM261.742 5.016H262.742V4.016H261.742V5.016ZM261.742 15.448H260.742V16.448H261.742V15.448ZM269.165 15.448H270.165V14.448H269.165V15.448ZM269.165 21.016V22.016H270.165V21.016H269.165ZM261.742 21.016V20.016H260.742V21.016H261.742ZM270.126 41.432H271.125V40.432H270.126V41.432ZM270.126 47V48H271.125V47H270.126ZM277.549 45.272L276.842 45.9791L277.549 45.272ZM275.822 21.016H276.822V20.016H275.822V21.016ZM269.165 21.016H268.165V22.016H269.165V21.016ZM269.165 15.448V14.448H268.165V15.448H269.165ZM275.822 15.448V16.448H276.822V15.448H275.822ZM275.822 5.016V4.016H274.822V5.016H275.822ZM282.414 5.016H283.414V4.016H282.414V5.016ZM282.414 15.448H281.414V16.448H282.414V15.448ZM291.885 15.448H292.885V14.448H291.885V15.448ZM291.885 21.016V22.016H292.885V21.016H291.885ZM282.414 21.016V20.016H281.414V21.016H282.414ZM290.797 41.432H291.797V40.432H290.797V41.432ZM290.797 47V48H291.797V47H290.797ZM261.421 46C259.716 46 258.452 45.4962 257.521 44.5649L256.106 45.9791C257.479 47.3518 259.287 48 261.421 48V46ZM257.534 44.5784C256.639 43.649 256.15 42.3805 256.15 40.664H254.15C254.15 42.7875 254.769 44.591 256.093 45.9656L257.534 44.5784ZM256.15 40.664V21.016H254.15V40.664H256.15ZM255.15 20.016H246.445V22.016H255.15V20.016ZM247.445 21.016V15.448H245.445V21.016H247.445ZM246.445 16.448H255.15V14.448H246.445V16.448ZM256.15 15.448V5.016H254.15V15.448H256.15ZM255.15 6.016H261.742V4.016H255.15V6.016ZM260.742 5.016V15.448H262.742V5.016H260.742ZM261.742 16.448H269.165V14.448H261.742V16.448ZM268.165 15.448V21.016H270.165V15.448H268.165ZM269.165 20.016H261.742V22.016H269.165V20.016ZM260.742 21.016V39.512H262.742V21.016H260.742ZM260.742 39.512C260.742 40.2896 260.922 41.0591 261.458 41.6343C262.007 42.2225 262.764 42.432 263.533 42.432V40.432C263.109 40.432 262.969 40.3215 262.921 40.2697C262.86 40.2049 262.742 40.0144 262.742 39.512H260.742ZM263.533 42.432H270.126V40.432H263.533V42.432ZM269.126 41.432V47H271.125V41.432H269.126ZM270.126 46H261.421V48H270.126V46ZM282.158 46C280.452 46 279.188 45.4962 278.257 44.5649L276.842 45.9791C278.215 47.3518 280.023 48 282.158 48V46ZM278.257 44.5649C277.325 43.6336 276.822 42.3697 276.822 40.664H274.822C274.822 42.7983 275.47 44.6064 276.842 45.9791L278.257 44.5649ZM276.822 40.664V21.016H274.822V40.664H276.822ZM275.822 20.016H269.165V22.016H275.822V20.016ZM270.165 21.016V15.448H268.165V21.016H270.165ZM269.165 16.448H275.822V14.448H269.165V16.448ZM276.822 15.448V5.016H274.822V15.448H276.822ZM275.822 6.016H282.414V4.016H275.822V6.016ZM281.414 5.016V15.448H283.414V5.016H281.414ZM282.414 16.448H291.885V14.448H282.414V16.448ZM290.885 15.448V21.016H292.885V15.448H290.885ZM291.885 20.016H282.414V22.016H291.885V20.016ZM281.414 21.016V39.512H283.414V21.016H281.414ZM281.414 39.512C281.414 40.2978 281.603 41.0724 282.159 41.647C282.72 42.228 283.488 42.432 284.27 42.432V40.432C283.814 40.432 283.654 40.316 283.596 40.257C283.533 40.1916 283.414 40.0062 283.414 39.512H281.414ZM284.27 42.432H290.797V40.432H284.27V42.432ZM289.797 41.432V47H291.797V41.432H289.797ZM290.797 46H282.158V48H290.797V46ZM301.884 45.912L301.388 46.7803L301.4 46.7869L301.884 45.912ZM296.252 40.216L295.37 40.6874L295.375 40.6965L295.38 40.7055L296.252 40.216ZM296.252 22.296L297.131 22.7738L297.134 22.7674L296.252 22.296ZM301.756 16.6L302.247 17.4712L302.252 17.4682L301.756 16.6ZM317.948 16.6L317.431 17.4561L317.441 17.4618L317.45 17.4673L317.948 16.6ZM323.324 22.168L324.205 21.6958L323.324 22.168ZM325.244 33.048V34.048H326.244V33.048H325.244ZM300.988 33.048V32.048H299.957L299.988 33.0788L300.988 33.048ZM303.74 39.704L303.051 40.4286L303.06 40.4372L303.069 40.4455L303.74 39.704ZM315.964 40.472L315.309 39.7163L315.303 39.7218L315.296 39.7274L315.964 40.472ZM318.908 36.632L319.368 35.7439L318.445 35.2665L318.003 36.2062L318.908 36.632ZM324.348 39.448L325.242 39.8952L325.683 39.0132L324.808 38.5599L324.348 39.448ZM321.724 43.224L320.97 42.5672L320.964 42.5742L320.958 42.5814L321.724 43.224ZM317.308 46.552L317.747 47.4506L317.308 46.552ZM301.052 27.992L300.062 27.8506L299.899 28.992H301.052V27.992ZM318.524 27.992V28.992H319.598L319.521 27.9208L318.524 27.992ZM315.964 22.424L315.3 23.1714L315.306 23.1766L315.311 23.1818L315.964 22.424ZM303.868 22.424L304.521 23.1818L304.522 23.1804L303.868 22.424ZM310.268 46.896C307.208 46.896 304.586 46.2646 302.368 45.0371L301.4 46.7869C303.961 48.2047 306.928 48.896 310.268 48.896V46.896ZM302.38 45.0438C300.15 43.7696 298.402 42.0028 297.124 39.7265L295.38 40.7055C296.833 43.2932 298.839 45.3238 301.388 46.7802L302.38 45.0438ZM297.134 39.7446C295.9 37.4361 295.268 34.744 295.268 31.64H293.268C293.268 35.0214 293.959 38.0466 295.37 40.6874L297.134 39.7446ZM295.268 31.64V30.872H293.268V31.64H295.268ZM295.268 30.872C295.268 27.7224 295.901 25.034 297.13 22.7738L295.374 21.8182C293.957 24.422 293.268 27.4509 293.268 30.872H295.268ZM297.134 22.7674C298.371 20.4531 300.073 18.6964 302.247 17.4712L301.265 15.7288C298.746 17.1489 296.778 19.1896 295.37 21.8246L297.134 22.7674ZM302.252 17.4682C304.471 16.2001 307.048 15.552 310.012 15.552V13.552C306.747 13.552 303.819 14.2692 301.26 15.7318L302.252 17.4682ZM310.012 15.552C312.886 15.552 315.348 16.198 317.431 17.4561L318.465 15.7439C316.026 14.2713 313.196 13.552 310.012 13.552V15.552ZM317.45 17.4673C319.588 18.6948 321.249 20.4123 322.443 22.6402L324.205 21.6958C322.839 19.145 320.916 17.1506 318.446 15.7327L317.45 17.4673ZM322.443 22.6402C323.632 24.8602 324.244 27.487 324.244 30.552H326.244C326.244 27.217 325.576 24.2545 324.205 21.6958L322.443 22.6402ZM324.244 30.552V33.048H326.244V30.552H324.244ZM325.244 32.048H300.988V34.048H325.244V32.048ZM299.988 33.0788C300.081 36.0727 301.082 38.5558 303.051 40.4286L304.429 38.9794C302.899 37.5242 302.066 35.57 301.988 33.0172L299.988 33.0788ZM303.069 40.4455C305.063 42.2495 307.528 43.136 310.396 43.136V41.136C307.973 41.136 306.001 40.4011 304.411 38.9625L303.069 40.4455ZM310.396 43.136C313 43.136 315.139 42.5548 316.632 41.2166L315.296 39.7274C314.314 40.6078 312.742 41.136 310.396 41.136V43.136ZM316.619 41.2277C317.998 40.0323 319.067 38.6417 319.813 37.0578L318.003 36.2062C317.383 37.5236 316.49 38.6931 315.309 39.7163L316.619 41.2277ZM318.448 37.5201L323.888 40.3361L324.808 38.5599L319.368 35.7439L318.448 37.5201ZM323.454 39.0008C322.904 40.1007 322.083 41.2896 320.97 42.5672L322.478 43.8808C323.669 42.5131 324.598 41.1847 325.242 39.8952L323.454 39.0008ZM320.958 42.5814C319.953 43.779 318.601 44.8078 316.869 45.6534L317.747 47.4506C319.685 46.5042 321.276 45.3144 322.49 43.8666L320.958 42.5814ZM316.869 45.6534C315.215 46.4615 313.032 46.896 310.268 46.896V48.896C313.222 48.896 315.732 48.4345 317.747 47.4506L316.869 45.6534ZM301.052 28.992H318.524V26.992H301.052V28.992ZM319.521 27.9208C319.336 25.3178 318.391 23.194 316.617 21.6662L315.311 23.1818C316.609 24.2994 317.371 25.8876 317.527 28.0632L319.521 27.9208ZM316.628 21.6766C314.874 20.1167 312.615 19.376 309.948 19.376V21.376C312.23 21.376 313.982 22.0006 315.3 23.1714L316.628 21.6766ZM309.948 19.376C307.28 19.376 305.007 20.117 303.214 21.6676L304.522 23.1804C305.887 22.0004 307.667 21.376 309.948 21.376V19.376ZM303.215 21.6662C301.462 23.1758 300.431 25.2698 300.062 27.8506L302.042 28.1334C302.356 25.9356 303.202 24.3175 304.521 23.1818L303.215 21.6662Z" fill="url(#paint1_linear_674_577)" mask="url(#path-3-outside-2_674_577)"/>
<defs>
<linearGradient id="paint0_linear_674_577" x1="0" y1="24.5" x2="343" y2="24.5" gradientUnits="userSpaceOnUse">
<stop stop-color="white" stop-opacity="0.05"/>
<stop offset="0.505" stop-color="white" stop-opacity="0.7"/>
<stop offset="1" stop-color="white" stop-opacity="0.05"/>
</linearGradient>
<linearGradient id="paint1_linear_674_577" x1="171.342" y1="13.2059" x2="171.501" y2="42.1786" gradientUnits="userSpaceOnUse">
<stop stop-color="white" stop-opacity="0.7"/>
<stop offset="1" stop-color="#999999" stop-opacity="0"/>
</linearGradient>
</defs>
</svg>