<svg width="310" height="46" viewBox="0 0 310 46" fill="none" xmlns="http://www.w3.org/2000/svg">
<mask id="path-1-outside-1_674_578" maskUnits="userSpaceOnUse" x="-1.5" y="-1" width="312" height="48" fill="black">
<rect fill="white" x="-1.5" y="-1" width="312" height="48"/>
<path d="M15.204 45C13.284 45 11.748 44.424 10.596 43.272C9.48667 42.12 8.932 40.584 8.932 38.664V19.016H0.228V13.448H8.932V3.016H15.524V13.448H24.932V19.016H15.524V37.512C15.524 38.792 16.1213 39.432 17.316 39.432H23.908V45H15.204ZM28.8365 45V13.448H35.3005V17.16H36.3245C36.8365 15.8373 37.6472 14.8773 38.7565 14.28C39.9085 13.64 41.3165 13.32 42.9805 13.32H46.7565V19.272H42.7245C40.5912 19.272 38.8418 19.8693 37.4765 21.064C36.1112 22.216 35.4285 24.008 35.4285 26.44V45H28.8365ZM58.6635 45.896C56.4022 45.896 54.3755 45.512 52.5835 44.744C50.8342 43.976 49.4262 42.8453 48.3595 41.352C47.3355 39.8587 46.8235 38.0453 46.8235 35.912C46.8235 33.736 47.3355 31.944 48.3595 30.536C49.4262 29.0853 50.8555 27.9973 52.6475 27.272C54.4822 26.5467 56.5515 26.184 58.8555 26.184H68.4555V24.136C68.4555 22.3013 67.9008 20.8293 66.7915 19.72C65.6822 18.6107 63.9755 18.056 61.6715 18.056C59.4102 18.056 57.6822 18.5893 56.4875 19.656C55.2928 20.7227 54.5035 22.1093 54.1195 23.816L47.9755 21.832C48.4875 20.1253 49.2982 18.5893 50.4075 17.224C51.5595 15.816 53.0742 14.6853 54.9515 13.832C56.8288 12.9787 59.0902 12.552 61.7355 12.552C65.8315 12.552 69.0528 13.5973 71.3995 15.688C73.7462 17.7787 74.9195 20.744 74.9195 24.584V37.576C74.9195 38.856 75.5168 39.496 76.7115 39.496H79.3995V45H74.4715C72.9782 45 71.7622 44.616 70.8235 43.848C69.8848 43.08 69.4155 42.0347 69.4155 40.712V40.52H68.4555C68.1142 41.16 67.6022 41.9067 66.9195 42.76C66.2368 43.6133 65.2342 44.36 63.9115 45C62.5888 45.5973 60.8395 45.896 58.6635 45.896ZM59.6235 40.456C62.2688 40.456 64.4022 39.7093 66.0235 38.216C67.6448 36.68 68.4555 34.5893 68.4555 31.944V31.304H59.2395C57.4902 31.304 56.0822 31.688 55.0155 32.456C53.9488 33.1813 53.4155 34.2693 53.4155 35.72C53.4155 37.1707 53.9702 38.3227 55.0795 39.176C56.1888 40.0293 57.7035 40.456 59.6235 40.456ZM81.969 45V13.448H88.433V18.184H89.457C90.0543 16.904 91.121 15.7093 92.657 14.6C94.193 13.4907 96.4757 12.936 99.505 12.936C101.894 12.936 104.006 13.4693 105.841 14.536C107.718 15.6027 109.19 17.1173 110.257 19.08C111.324 21 111.857 23.3253 111.857 26.056V45H105.265V26.568C105.265 23.8373 104.582 21.832 103.217 20.552C101.852 19.2293 99.9743 18.568 97.585 18.568C94.8543 18.568 92.657 19.464 90.993 21.256C89.3717 23.048 88.561 25.6507 88.561 29.064V45H81.969ZM130.432 45.896C126.421 45.896 123.093 45 120.448 43.208C117.803 41.416 116.181 38.7067 115.584 35.08L121.728 33.608C122.069 35.3573 122.645 36.744 123.456 37.768C124.267 38.792 125.269 39.5173 126.464 39.944C127.701 40.3707 129.024 40.584 130.432 40.584C132.523 40.584 134.123 40.1787 135.232 39.368C136.384 38.5573 136.96 37.512 136.96 36.232C136.96 34.952 136.427 34.0133 135.36 33.416C134.293 32.8187 132.715 32.328 130.624 31.944L128.448 31.56C126.315 31.176 124.373 30.6213 122.624 29.896C120.875 29.1707 119.488 28.168 118.464 26.888C117.44 25.608 116.928 23.9653 116.928 21.96C116.928 18.9733 118.037 16.6693 120.256 15.048C122.475 13.384 125.419 12.552 129.088 12.552C132.629 12.552 135.531 13.3627 137.792 14.984C140.096 16.5627 141.589 18.7173 142.272 21.448L136.128 23.176C135.744 21.256 134.933 19.912 133.696 19.144C132.459 18.3333 130.923 17.928 129.088 17.928C127.296 17.928 125.888 18.2693 124.864 18.952C123.84 19.592 123.328 20.5093 123.328 21.704C123.328 22.984 123.819 23.9227 124.8 24.52C125.824 25.1173 127.189 25.5653 128.896 25.864L131.136 26.248C133.397 26.632 135.467 27.1653 137.344 27.848C139.221 28.5307 140.693 29.512 141.76 30.792C142.869 32.072 143.424 33.7787 143.424 35.912C143.424 39.0693 142.251 41.5227 139.904 43.272C137.557 45.0213 134.4 45.896 130.432 45.896ZM152.298 45V19.016H143.466V13.448H152.298V6.536C152.298 4.616 152.874 3.08 154.026 1.928C155.178 0.775997 156.714 0.199997 158.634 0.199997H166.314V5.768H160.746C159.508 5.768 158.89 6.408 158.89 7.688V13.448H173.034V19.016H158.89V45H152.298ZM173.034 45V13.448H179.626V45H173.034ZM176.362 9.352C175.082 9.352 173.994 8.94666 173.098 8.136C172.244 7.28267 171.818 6.19467 171.818 4.872C171.818 3.50666 172.244 2.41866 173.098 1.608C173.994 0.797331 175.082 0.391998 176.362 0.391998C177.642 0.391998 178.708 0.797331 179.562 1.608C180.458 2.41866 180.906 3.50666 180.906 4.872C180.906 6.19467 180.458 7.28267 179.562 8.136C178.708 8.94666 177.642 9.352 176.362 9.352ZM185.512 45V13.448H191.976V18.184H193C193.597 16.904 194.664 15.7093 196.2 14.6C197.736 13.4907 200.018 12.936 203.048 12.936C205.437 12.936 207.549 13.4693 209.384 14.536C211.261 15.6027 212.733 17.1173 213.8 19.08C214.866 21 215.4 23.3253 215.4 26.056V45H208.808V26.568C208.808 23.8373 208.125 21.832 206.76 20.552C205.394 19.2293 203.517 18.568 201.128 18.568C198.397 18.568 196.2 19.464 194.536 21.256C192.914 23.048 192.104 25.6507 192.104 29.064V45H185.512ZM221.046 45V13.448H227.638V45H221.046ZM224.374 9.16C223.094 9.16 222.006 8.75467 221.11 7.944C220.257 7.09066 219.83 6.00266 219.83 4.68C219.83 3.35733 220.257 2.29067 221.11 1.48C222.006 0.626664 223.094 0.199997 224.374 0.199997C225.697 0.199997 226.785 0.626664 227.638 1.48C228.492 2.29067 228.918 3.35733 228.918 4.68C228.918 6.00266 228.492 7.09066 227.638 7.944C226.785 8.75467 225.697 9.16 224.374 9.16ZM245.421 45C243.501 45 241.965 44.424 240.813 43.272C239.704 42.12 239.149 40.584 239.149 38.664V19.016H230.445V13.448H239.149V3.016H245.741V13.448H253.166V19.016H245.741V37.512C245.741 38.792 246.339 39.432 247.533 39.432H254.125V45H245.421ZM266.158 45C264.238 45 262.701 44.424 261.549 43.272C260.398 42.12 259.822 40.584 259.822 38.664V19.016H253.166V13.448H259.822V3.016H266.414V13.448H275.886V19.016H266.414V37.512C266.414 38.792 267.032 39.432 268.27 39.432H274.798V45H266.158ZM294.268 45.896C291.068 45.896 288.273 45.2347 285.884 43.912C283.495 42.5467 281.617 40.648 280.252 38.216C278.929 35.7413 278.268 32.8827 278.268 29.64V28.872C278.268 25.5867 278.929 22.728 280.252 20.296C281.575 17.8213 283.409 15.9227 285.756 14.6C288.145 13.2347 290.897 12.552 294.012 12.552C297.041 12.552 299.687 13.2347 301.948 14.6C304.252 15.9227 306.044 17.7787 307.324 20.168C308.604 22.5573 309.244 25.352 309.244 28.552V31.048H284.988C285.073 33.8213 285.991 36.04 287.74 37.704C289.532 39.3253 291.751 40.136 294.396 40.136C296.871 40.136 298.727 39.5813 299.964 38.472C301.244 37.3627 302.225 36.0827 302.908 34.632L308.348 37.448C307.751 38.6427 306.876 39.9013 305.724 41.224C304.615 42.5467 303.143 43.656 301.308 44.552C299.473 45.448 297.127 45.896 294.268 45.896ZM285.052 25.992H302.524C302.353 23.6027 301.5 21.7467 299.964 20.424C298.428 19.0587 296.423 18.376 293.948 18.376C291.473 18.376 289.447 19.0587 287.868 20.424C286.332 21.7467 285.393 23.6027 285.052 25.992Z"/>
</mask>
<path d="M10.596 43.272L9.87568 43.9656L9.88222 43.9724L9.88889 43.9791L10.596 43.272ZM8.932 19.016H9.932V18.016H8.932V19.016ZM0.228 19.016H-0.772V20.016H0.228V19.016ZM0.228 13.448V12.448H-0.772V13.448H0.228ZM8.932 13.448V14.448H9.932V13.448H8.932ZM8.932 3.016V2.016H7.932V3.016H8.932ZM15.524 3.016H16.524V2.016H15.524V3.016ZM15.524 13.448H14.524V14.448H15.524V13.448ZM24.932 13.448H25.932V12.448H24.932V13.448ZM24.932 19.016V20.016H25.932V19.016H24.932ZM15.524 19.016V18.016H14.524V19.016H15.524ZM23.908 39.432H24.908V38.432H23.908V39.432ZM23.908 45V46H24.908V45H23.908ZM15.204 44C13.4983 44 12.2344 43.4962 11.3031 42.5649L9.88889 43.9791C11.2616 45.3518 13.0697 46 15.204 46V44ZM11.3163 42.5784C10.4214 41.649 9.932 40.3805 9.932 38.664H7.932C7.932 40.7875 8.55196 42.591 9.87568 43.9656L11.3163 42.5784ZM9.932 38.664V19.016H7.932V38.664H9.932ZM8.932 18.016H0.228V20.016H8.932V18.016ZM1.228 19.016V13.448H-0.772V19.016H1.228ZM0.228 14.448H8.932V12.448H0.228V14.448ZM9.932 13.448V3.016H7.932V13.448H9.932ZM8.932 4.016H15.524V2.016H8.932V4.016ZM14.524 3.016V13.448H16.524V3.016H14.524ZM15.524 14.448H24.932V12.448H15.524V14.448ZM23.932 13.448V19.016H25.932V13.448H23.932ZM24.932 18.016H15.524V20.016H24.932V18.016ZM14.524 19.016V37.512H16.524V19.016H14.524ZM14.524 37.512C14.524 38.2896 14.7041 39.0591 15.2409 39.6343C15.79 40.2225 16.5462 40.432 17.316 40.432V38.432C16.8912 38.432 16.7514 38.3215 16.7031 38.2697C16.6426 38.2049 16.524 38.0144 16.524 37.512H14.524ZM17.316 40.432H23.908V38.432H17.316V40.432ZM22.908 39.432V45H24.908V39.432H22.908ZM23.908 44H15.204V46H23.908V44ZM28.8365 45H27.8365V46H28.8365V45ZM28.8365 13.448V12.448H27.8365V13.448H28.8365ZM35.3005 13.448H36.3005V12.448H35.3005V13.448ZM35.3005 17.16H34.3005V18.16H35.3005V17.16ZM36.3245 17.16V18.16H37.0097L37.2571 17.521L36.3245 17.16ZM38.7565 14.28L39.2306 15.1605L39.2421 15.1542L38.7565 14.28ZM46.7565 13.32H47.7565V12.32H46.7565V13.32ZM46.7565 19.272V20.272H47.7565V19.272H46.7565ZM37.4765 21.064L38.1214 21.8283L38.1282 21.8225L38.135 21.8166L37.4765 21.064ZM35.4285 45V46H36.4285V45H35.4285ZM29.8365 45V13.448H27.8365V45H29.8365ZM28.8365 14.448H35.3005V12.448H28.8365V14.448ZM34.3005 13.448V17.16H36.3005V13.448H34.3005ZM35.3005 18.16H36.3245V16.16H35.3005V18.16ZM37.2571 17.521C37.6946 16.3908 38.3576 15.6305 39.2306 15.1605L38.2824 13.3995C36.9367 14.1241 35.9784 15.2839 35.3919 16.799L37.2571 17.521ZM39.2421 15.1542C40.2115 14.6156 41.4426 14.32 42.9805 14.32V12.32C41.1904 12.32 39.6055 12.6644 38.2709 13.4058L39.2421 15.1542ZM42.9805 14.32H46.7565V12.32H42.9805V14.32ZM45.7565 13.32V19.272H47.7565V13.32H45.7565ZM46.7565 18.272H42.7245V20.272H46.7565V18.272ZM42.7245 18.272C40.3939 18.272 38.3969 18.9299 36.818 20.3114L38.135 21.8166C39.2868 20.8087 40.7884 20.272 42.7245 20.272V18.272ZM36.8316 20.2997C35.1675 21.7038 34.4285 23.8256 34.4285 26.44H36.4285C36.4285 24.1904 37.0548 22.7282 38.1214 21.8283L36.8316 20.2997ZM34.4285 26.44V45H36.4285V26.44H34.4285ZM35.4285 44H28.8365V46H35.4285V44ZM52.5835 44.744L52.1815 45.6597L52.1896 45.6631L52.5835 44.744ZM48.3595 41.352L47.5348 41.9175L47.5402 41.9254L47.5458 41.9332L48.3595 41.352ZM48.3595 30.536L47.5538 29.9436L47.5508 29.9478L48.3595 30.536ZM52.6475 27.272L52.2798 26.342L52.2723 26.3451L52.6475 27.272ZM68.4555 26.184V27.184H69.4555V26.184H68.4555ZM66.7915 19.72L66.0844 20.4271V20.4271L66.7915 19.72ZM54.1195 23.816L53.8122 24.7676L54.8546 25.1042L55.0951 24.0355L54.1195 23.816ZM47.9755 21.832L47.0177 21.5447L46.7363 22.4827L47.6682 22.7836L47.9755 21.832ZM50.4075 17.224L49.6335 16.5908L49.6314 16.5934L50.4075 17.224ZM54.9515 13.832L55.3653 14.7424L54.9515 13.832ZM71.3995 15.688L72.0647 14.9413V14.9413L71.3995 15.688ZM79.3995 39.496H80.3995V38.496H79.3995V39.496ZM79.3995 45V46H80.3995V45H79.3995ZM70.8235 43.848L71.4567 43.074L70.8235 43.848ZM69.4155 40.52H70.4155V39.52H69.4155V40.52ZM68.4555 40.52V39.52H67.8555L67.5732 40.0494L68.4555 40.52ZM66.9195 42.76L67.7004 43.3847V43.3847L66.9195 42.76ZM63.9115 45L64.3231 45.9114L64.3352 45.9059L64.3471 45.9002L63.9115 45ZM66.0235 38.216L66.701 38.9516L66.7112 38.942L66.0235 38.216ZM68.4555 31.304H69.4555V30.304H68.4555V31.304ZM55.0155 32.456L55.5778 33.2829L55.5889 33.2754L55.5998 33.2675L55.0155 32.456ZM58.6635 44.896C56.5162 44.896 54.6266 44.5317 52.9774 43.8249L52.1896 45.6631C54.1244 46.4923 56.2882 46.896 58.6635 46.896V44.896ZM52.9855 43.8284C51.3939 43.1296 50.1309 42.1114 49.1732 40.7708L47.5458 41.9332C48.7215 43.5792 50.2744 44.8224 52.1815 45.6596L52.9855 43.8284ZM49.1842 40.7865C48.2936 39.4876 47.8235 37.8803 47.8235 35.912H45.8235C45.8235 38.2104 46.3774 40.2297 47.5348 41.9175L49.1842 40.7865ZM47.8235 35.912C47.8235 33.8939 48.2966 32.3226 49.1682 31.1242L47.5508 29.9478C46.3743 31.5654 45.8235 33.5781 45.8235 35.912H47.8235ZM49.1651 31.1284C50.114 29.838 51.3892 28.8601 53.0227 28.1989L52.2723 26.3451C50.3218 27.1346 48.7384 28.3327 47.5538 29.9436L49.1651 31.1284ZM53.0152 28.202C54.7149 27.53 56.6566 27.184 58.8555 27.184V25.184C56.4464 25.184 54.2495 25.5634 52.2798 26.342L53.0152 28.202ZM58.8555 27.184H68.4555V25.184H58.8555V27.184ZM69.4555 26.184V24.136H67.4555V26.184H69.4555ZM69.4555 24.136C69.4555 22.0846 68.8272 20.3415 67.4986 19.0129L66.0844 20.4271C66.9745 21.3172 67.4555 22.5181 67.4555 24.136H69.4555ZM67.4986 19.0129C66.1293 17.6436 64.1169 17.056 61.6715 17.056V19.056C63.8341 19.056 65.235 19.5777 66.0844 20.4271L67.4986 19.0129ZM61.6715 17.056C59.2652 17.056 57.2627 17.6232 55.8215 18.9101L57.1535 20.4019C58.1016 19.5554 59.5551 19.056 61.6715 19.056V17.056ZM55.8215 18.9101C54.4568 20.1285 53.5692 21.7061 53.1439 23.5965L55.0951 24.0355C55.4378 22.5126 56.1289 21.3168 57.1535 20.4019L55.8215 18.9101ZM54.4268 22.8644L48.2828 20.8804L47.6682 22.7836L53.8122 24.7676L54.4268 22.8644ZM48.9333 22.1193C49.4083 20.5362 50.1578 19.1172 51.1836 17.8546L49.6314 16.5934C48.4386 18.0615 47.5667 19.7144 47.0177 21.5447L48.9333 22.1193ZM51.1815 17.8572C52.224 16.583 53.6089 15.5407 55.3653 14.7424L54.5377 12.9216C52.5394 13.8299 50.895 15.049 49.6335 16.5908L51.1815 17.8572ZM55.3653 14.7424C57.0814 13.9623 59.1941 13.552 61.7355 13.552V11.552C58.9863 11.552 56.5762 11.995 54.5377 12.9216L55.3653 14.7424ZM61.7355 13.552C65.6624 13.552 68.6206 14.5516 70.7343 16.4347L72.0647 14.9413C69.485 12.6431 66.0006 11.552 61.7355 11.552V13.552ZM70.7343 16.4347C72.8216 18.2943 73.9195 20.9606 73.9195 24.584H75.9195C75.9195 20.5274 74.6707 17.2631 72.0647 14.9413L70.7343 16.4347ZM73.9195 24.584V37.576H75.9195V24.584H73.9195ZM73.9195 37.576C73.9195 38.3536 74.0996 39.1231 74.6364 39.6983C75.1855 40.2865 75.9417 40.496 76.7115 40.496V38.496C76.2867 38.496 76.1469 38.3855 76.0986 38.3337C76.0381 38.2689 75.9195 38.0784 75.9195 37.576H73.9195ZM76.7115 40.496H79.3995V38.496H76.7115V40.496ZM78.3995 39.496V45H80.3995V39.496H78.3995ZM79.3995 44H74.4715V46H79.3995V44ZM74.4715 44C73.1539 44 72.1783 43.6644 71.4567 43.074L70.1903 44.622C71.346 45.5676 72.8024 46 74.4715 46V44ZM71.4567 43.074C70.7731 42.5147 70.4155 41.7657 70.4155 40.712H68.4155C68.4155 42.3037 68.9965 43.6453 70.1903 44.622L71.4567 43.074ZM70.4155 40.712V40.52H68.4155V40.712H70.4155ZM69.4155 39.52H68.4555V41.52H69.4155V39.52ZM67.5732 40.0494C67.2714 40.6151 66.8 41.3085 66.1386 42.1353L67.7004 43.3847C68.4043 42.5048 68.9569 41.7049 69.3379 40.9906L67.5732 40.0494ZM66.1386 42.1353C65.5754 42.8393 64.7084 43.5035 63.4759 44.0998L64.3471 45.9002C65.76 45.2165 66.8983 44.3873 67.7004 43.3847L66.1386 42.1353ZM63.4999 44.0886C62.3547 44.6058 60.762 44.896 58.6635 44.896V46.896C60.917 46.896 62.823 46.5888 64.3231 45.9114L63.4999 44.0886ZM59.6235 41.456C62.4668 41.456 64.8594 40.6478 66.701 38.9515L65.346 37.4805C63.945 38.7709 62.0709 39.456 59.6235 39.456V41.456ZM66.7112 38.942C68.5686 37.1824 69.4555 34.809 69.4555 31.944H67.4555C67.4555 34.3696 66.7211 36.1776 65.3358 37.49L66.7112 38.942ZM69.4555 31.944V31.304H67.4555V31.944H69.4555ZM68.4555 30.304H59.2395V32.304H68.4555V30.304ZM59.2395 30.304C57.3491 30.304 55.7164 30.7191 54.4312 31.6445L55.5998 33.2675C56.448 32.6569 57.6312 32.304 59.2395 32.304V30.304ZM54.4532 31.6291C53.0751 32.5661 52.4155 33.9864 52.4155 35.72H54.4155C54.4155 34.5523 54.8225 33.7965 55.5778 33.2829L54.4532 31.6291ZM52.4155 35.72C52.4155 37.4679 53.1041 38.9181 54.4698 39.9686L55.6892 38.3834C54.8363 37.7273 54.4155 36.8734 54.4155 35.72H52.4155ZM54.4698 39.9686C55.8087 40.9986 57.5638 41.456 59.6235 41.456V39.456C57.8432 39.456 56.569 39.0601 55.6892 38.3834L54.4698 39.9686ZM81.969 45H80.969V46H81.969V45ZM81.969 13.448V12.448H80.969V13.448H81.969ZM88.433 13.448H89.433V12.448H88.433V13.448ZM88.433 18.184H87.433V19.184H88.433V18.184ZM89.457 18.184V19.184H90.0939L90.3632 18.6069L89.457 18.184ZM92.657 14.6L93.2425 15.4107L92.657 14.6ZM105.841 14.536L105.338 15.4005L105.347 15.4055L105.841 14.536ZM110.257 19.08L109.378 19.5575L109.383 19.5656L110.257 19.08ZM111.857 45V46H112.857V45H111.857ZM105.265 45H104.265V46H105.265V45ZM103.217 20.552L102.521 21.2702L102.527 21.2759L102.533 21.2815L103.217 20.552ZM90.993 21.256L90.2601 20.5755L90.2515 20.5851L90.993 21.256ZM88.561 45V46H89.561V45H88.561ZM82.969 45V13.448H80.969V45H82.969ZM81.969 14.448H88.433V12.448H81.969V14.448ZM87.433 13.448V18.184H89.433V13.448H87.433ZM88.433 19.184H89.457V17.184H88.433V19.184ZM90.3632 18.6069C90.868 17.5252 91.7993 16.453 93.2425 15.4107L92.0715 13.7893C90.4427 14.9657 89.2407 16.2828 88.5508 17.7611L90.3632 18.6069ZM93.2425 15.4107C94.5334 14.4784 96.5698 13.936 99.505 13.936V11.936C96.3816 11.936 93.8526 12.503 92.0715 13.7893L93.2425 15.4107ZM99.505 13.936C101.74 13.936 103.675 14.4333 105.338 15.4005L106.344 13.6715C104.338 12.5053 102.048 11.936 99.505 11.936V13.936ZM105.347 15.4055C107.056 16.3766 108.398 17.7529 109.378 19.5575L111.136 18.6025C109.983 16.4818 108.38 14.8287 106.335 13.6665L105.347 15.4055ZM109.383 19.5656C110.349 21.3051 110.857 23.4545 110.857 26.056H112.857C112.857 23.1962 112.298 20.6949 111.131 18.5944L109.383 19.5656ZM110.857 26.056V45H112.857V26.056H110.857ZM111.857 44H105.265V46H111.857V44ZM106.265 45V26.568H104.265V45H106.265ZM106.265 26.568C106.265 23.689 105.545 21.3642 103.901 19.8225L102.533 21.2815C103.619 22.2998 104.265 23.9857 104.265 26.568H106.265ZM103.913 19.8338C102.316 18.2869 100.164 17.568 97.585 17.568V19.568C99.7846 19.568 101.387 20.1718 102.521 21.2702L103.913 19.8338ZM97.585 17.568C94.6122 17.568 92.1365 18.5549 90.2602 20.5755L91.7258 21.9364C93.1775 20.3731 95.0965 19.568 97.585 19.568V17.568ZM90.2515 20.5851C88.4062 22.6246 87.561 25.5046 87.561 29.064H89.561C89.561 25.7967 90.3372 23.4714 91.7345 21.9269L90.2515 20.5851ZM87.561 29.064V45H89.561V29.064H87.561ZM88.561 44H81.969V46H88.561V44ZM120.448 43.208L121.009 42.3801L120.448 43.208ZM115.584 35.08L115.351 34.1075L114.446 34.3243L114.597 35.2425L115.584 35.08ZM121.728 33.608L122.709 33.4165L122.51 32.3924L121.495 32.6355L121.728 33.608ZM123.456 37.768L124.24 37.1473L123.456 37.768ZM126.464 39.944L126.128 40.8858L126.138 40.8894L126.464 39.944ZM135.232 39.368L134.657 38.5502L134.649 38.5553L134.642 38.5606L135.232 39.368ZM130.624 31.944L130.805 30.9604L130.798 30.9592L130.624 31.944ZM128.448 31.56L128.271 32.5442L128.274 32.5448L128.448 31.56ZM122.624 29.896L122.241 30.8197L122.624 29.896ZM118.464 26.888L119.245 26.2633L118.464 26.888ZM120.256 15.048L120.846 15.8555L120.856 15.848L120.256 15.048ZM137.792 14.984L137.209 15.7967L137.218 15.8029L137.227 15.8089L137.792 14.984ZM142.272 21.448L142.543 22.4106L143.478 22.1477L143.242 21.2055L142.272 21.448ZM136.128 23.176L135.147 23.3721L135.359 24.431L136.399 24.1386L136.128 23.176ZM133.696 19.144L133.148 19.9805L133.158 19.9872L133.169 19.9936L133.696 19.144ZM124.864 18.952L125.394 19.8L125.406 19.7922L125.419 19.784L124.864 18.952ZM124.8 24.52L124.28 25.3742L124.288 25.3791L124.296 25.3838L124.8 24.52ZM128.896 25.864L128.724 26.849L128.727 26.8496L128.896 25.864ZM131.136 26.248L130.967 27.2336L130.969 27.2339L131.136 26.248ZM141.76 30.792L140.992 31.4322L140.998 31.4396L141.004 31.4469L141.76 30.792ZM139.904 43.272L140.502 44.0737L139.904 43.272ZM130.432 44.896C126.57 44.896 123.451 44.0343 121.009 42.3801L119.887 44.0359C122.736 45.9657 126.273 46.896 130.432 46.896V44.896ZM121.009 42.3801C118.626 40.7656 117.131 38.3178 116.571 34.9175L114.597 35.2425C115.232 39.0955 116.98 42.0664 119.887 44.0359L121.009 42.3801ZM115.817 36.0525L121.961 34.5805L121.495 32.6355L115.351 34.1075L115.817 36.0525ZM120.747 33.7995C121.108 35.6513 121.733 37.2023 122.672 38.3887L124.24 37.1473C123.558 36.2857 123.031 35.0634 122.709 33.4165L120.747 33.7995ZM122.672 38.3887C123.595 39.555 124.751 40.3942 126.128 40.8857L126.8 39.0023C125.787 38.6405 124.938 38.029 124.24 37.1473L122.672 38.3887ZM126.138 40.8894C127.488 41.3549 128.921 41.584 130.432 41.584V39.584C129.127 39.584 127.915 39.3865 126.79 38.9986L126.138 40.8894ZM130.432 41.584C132.631 41.584 134.473 41.1612 135.822 40.1754L134.642 38.5606C133.772 39.1961 132.415 39.584 130.432 39.584V41.584ZM135.807 40.1858C137.194 39.2098 137.96 37.8738 137.96 36.232H135.96C135.96 37.1502 135.574 37.9048 134.657 38.5502L135.807 40.1858ZM137.96 36.232C137.96 34.6111 137.249 33.3277 135.849 32.5435L134.871 34.2885C135.604 34.6989 135.96 35.2929 135.96 36.232H137.96ZM135.849 32.5435C134.64 31.8669 132.936 31.3519 130.805 30.9605L130.443 32.9275C132.493 33.3041 133.946 33.7704 134.871 34.2885L135.849 32.5435ZM130.798 30.9592L128.622 30.5752L128.274 32.5448L130.45 32.9288L130.798 30.9592ZM128.625 30.5758C126.552 30.2027 124.681 29.6665 123.007 28.9723L122.241 30.8197C124.065 31.5762 126.077 32.1493 128.271 32.5442L128.625 30.5758ZM123.007 28.9723C121.389 28.3014 120.148 27.3925 119.245 26.2633L117.683 27.5127C118.828 28.9435 120.36 30.04 122.241 30.8197L123.007 28.9723ZM119.245 26.2633C118.392 25.1975 117.928 23.7905 117.928 21.96H115.928C115.928 24.1401 116.488 26.0185 117.683 27.5127L119.245 26.2633ZM117.928 21.96C117.928 19.2602 118.91 17.2702 120.846 15.8554L119.666 14.2406C117.165 16.0685 115.928 18.6865 115.928 21.96H117.928ZM120.856 15.848C122.853 14.3502 125.565 13.552 129.088 13.552V11.552C125.272 11.552 122.096 12.4178 119.656 14.248L120.856 15.848ZM129.088 13.552C132.478 13.552 135.159 14.3267 137.209 15.7967L138.375 14.1713C135.902 12.3986 132.781 11.552 129.088 11.552V13.552ZM137.227 15.8089C139.327 17.2483 140.678 19.1949 141.302 21.6905L143.242 21.2055C142.501 18.2397 140.865 15.8771 138.357 14.1591L137.227 15.8089ZM142.001 20.4853L135.857 22.2133L136.399 24.1386L142.543 22.4106L142.001 20.4853ZM137.109 22.9799C136.69 20.886 135.768 19.2533 134.223 18.2944L133.169 19.9936C134.098 20.5707 134.798 21.626 135.147 23.3721L137.109 22.9799ZM134.244 18.3075C132.809 17.3671 131.07 16.928 129.088 16.928V18.928C130.775 18.928 132.109 19.2996 133.148 19.9805L134.244 18.3075ZM129.088 16.928C127.184 16.928 125.557 17.2884 124.309 18.1199L125.419 19.784C126.219 19.2502 127.408 18.928 129.088 18.928V16.928ZM124.334 18.104C123.021 18.9243 122.328 20.16 122.328 21.704H124.328C124.328 20.8586 124.659 20.2597 125.394 19.8L124.334 18.104ZM122.328 21.704C122.328 23.2853 122.962 24.5719 124.28 25.3742L125.32 23.6658C124.675 23.2734 124.328 22.6827 124.328 21.704H122.328ZM124.296 25.3838C125.458 26.0616 126.949 26.5385 128.724 26.849L129.068 24.879C127.429 24.5922 126.19 24.173 125.304 23.6562L124.296 25.3838ZM128.727 26.8496L130.967 27.2336L131.305 25.2624L129.065 24.8784L128.727 26.8496ZM130.969 27.2339C133.179 27.6093 135.189 28.1285 137.002 28.7878L137.686 26.9082C135.744 26.2022 133.616 25.6547 131.303 25.2621L130.969 27.2339ZM137.002 28.7878C138.747 29.4221 140.059 30.3127 140.992 31.4322L142.528 30.1518C141.328 28.7113 139.696 27.6392 137.686 26.9082L137.002 28.7878ZM141.004 31.4469C141.918 32.5017 142.424 33.9549 142.424 35.912H144.424C144.424 33.6025 143.82 31.6423 142.516 30.1371L141.004 31.4469ZM142.424 35.912C142.424 38.7824 141.378 40.9263 139.306 42.4703L140.502 44.0737C143.124 42.1191 144.424 39.3562 144.424 35.912H142.424ZM139.306 42.4703C137.184 44.052 134.26 44.896 130.432 44.896V46.896C134.54 46.896 137.93 45.9906 140.502 44.0737L139.306 42.4703ZM152.298 45H151.298V46H152.298V45ZM152.298 19.016H153.298V18.016H152.298V19.016ZM143.465 19.016H142.465V20.016H143.465V19.016ZM143.465 13.448V12.448H142.465V13.448H143.465ZM152.298 13.448V14.448H153.298V13.448H152.298ZM154.025 1.928L153.318 1.22089V1.22089L154.025 1.928ZM166.314 0.199997H167.314V-0.800003H166.314V0.199997ZM166.314 5.768V6.768H167.314V5.768H166.314ZM158.889 13.448H157.889V14.448H158.889V13.448ZM173.034 13.448H174.034V12.448H173.034V13.448ZM173.034 19.016V20.016H174.034V19.016H173.034ZM158.889 19.016V18.016H157.889V19.016H158.889ZM158.889 45V46H159.889V45H158.889ZM173.034 45H172.034V46H173.034V45ZM173.034 13.448V12.448H172.034V13.448H173.034ZM179.626 13.448H180.626V12.448H179.626V13.448ZM179.626 45V46H180.626V45H179.626ZM173.098 8.136L172.39 8.8431L172.408 8.86077L172.427 8.87753L173.098 8.136ZM173.098 1.608L172.427 0.866462L172.418 0.874622L172.409 0.882999L173.098 1.608ZM179.562 1.608L178.873 2.333L178.882 2.34137L178.891 2.34953L179.562 1.608ZM179.562 8.136L180.25 8.861L180.251 8.86014L179.562 8.136ZM153.298 45V19.016H151.298V45H153.298ZM152.298 18.016H143.465V20.016H152.298V18.016ZM144.465 19.016V13.448H142.465V19.016H144.465ZM143.465 14.448H152.298V12.448H143.465V14.448ZM153.298 13.448V6.536H151.298V13.448H153.298ZM153.298 6.536C153.298 4.83025 153.801 3.56637 154.733 2.6351L153.318 1.22089C151.946 2.59363 151.298 4.40174 151.298 6.536H153.298ZM154.733 2.6351C155.664 1.70384 156.928 1.2 158.633 1.2V-0.800003C156.499 -0.800003 154.691 -0.151845 153.318 1.22089L154.733 2.6351ZM158.633 1.2H166.314V-0.800003H158.633V1.2ZM165.314 0.199997V5.768H167.314V0.199997H165.314ZM166.314 4.768H160.745V6.768H166.314V4.768ZM160.745 4.768C159.964 4.768 159.196 4.97201 158.635 5.55298C158.079 6.12764 157.889 6.90219 157.889 7.688H159.889C159.889 7.19381 160.009 7.00836 160.072 6.94302C160.13 6.88399 160.29 6.768 160.745 6.768V4.768ZM157.889 7.688V13.448H159.889V7.688H157.889ZM158.889 14.448H173.034V12.448H158.889V14.448ZM172.034 13.448V19.016H174.034V13.448H172.034ZM173.034 18.016H158.889V20.016H173.034V18.016ZM157.889 19.016V45H159.889V19.016H157.889ZM158.889 44H152.298V46H158.889V44ZM174.034 45V13.448H172.034V45H174.034ZM173.034 14.448H179.626V12.448H173.034V14.448ZM178.626 13.448V45H180.626V13.448H178.626ZM179.626 44H173.034V46H179.626V44ZM176.362 8.352C175.313 8.352 174.469 8.02829 173.768 7.39446L172.427 8.87753C173.518 9.86504 174.85 10.352 176.362 10.352V8.352ZM173.805 7.42889C173.158 6.78201 172.818 5.95746 172.818 4.872H170.818C170.818 6.43188 171.331 7.78332 172.39 8.8431L173.805 7.42889ZM172.818 4.872C172.818 3.73295 173.164 2.92428 173.786 2.333L172.409 0.882999C171.324 1.91305 170.818 3.28038 170.818 4.872H172.818ZM173.768 2.34953C174.469 1.71571 175.313 1.392 176.362 1.392V-0.608002C174.85 -0.608002 173.518 -0.121042 172.427 0.866462L173.768 2.34953ZM176.362 1.392C177.41 1.392 178.222 1.71509 178.873 2.333L180.25 0.882999C179.194 -0.120425 177.873 -0.608002 176.362 -0.608002V1.392ZM178.891 2.34953C179.549 2.94494 179.906 3.74855 179.906 4.872H181.906C181.906 3.26478 181.366 1.89239 180.232 0.866462L178.891 2.34953ZM179.906 4.872C179.906 5.94205 179.555 6.76132 178.872 7.41186L180.251 8.86014C181.36 7.80401 181.906 6.44728 181.906 4.872H179.906ZM178.873 7.411C178.222 8.02891 177.41 8.352 176.362 8.352V10.352C177.873 10.352 179.194 9.86442 180.25 8.861L178.873 7.411ZM185.512 45H184.512V46H185.512V45ZM185.512 13.448V12.448H184.512V13.448H185.512ZM191.976 13.448H192.976V12.448H191.976V13.448ZM191.976 18.184H190.976V19.184H191.976V18.184ZM193 18.184V19.184H193.636L193.906 18.6069L193 18.184ZM196.2 14.6L196.785 15.4107L196.2 14.6ZM209.384 14.536L208.881 15.4005L208.889 15.4055L209.384 14.536ZM213.799 19.08L212.921 19.5575L212.925 19.5656L213.799 19.08ZM215.4 45V46H216.4V45H215.4ZM208.808 45H207.808V46H208.808V45ZM206.76 20.552L206.064 21.2702L206.07 21.2759L206.076 21.2815L206.76 20.552ZM194.536 21.256L193.803 20.5755L193.794 20.5851L194.536 21.256ZM192.104 45V46H193.104V45H192.104ZM186.512 45V13.448H184.512V45H186.512ZM185.512 14.448H191.976V12.448H185.512V14.448ZM190.976 13.448V18.184H192.976V13.448H190.976ZM191.976 19.184H193V17.184H191.976V19.184ZM193.906 18.6069C194.41 17.5252 195.342 16.453 196.785 15.4107L195.614 13.7893C193.985 14.9657 192.783 16.2828 192.093 17.7611L193.906 18.6069ZM196.785 15.4107C198.076 14.4784 200.112 13.936 203.048 13.936V11.936C199.924 11.936 197.395 12.503 195.614 13.7893L196.785 15.4107ZM203.048 13.936C205.283 13.936 207.217 14.4333 208.881 15.4005L209.886 13.6715C207.88 12.5053 205.591 11.936 203.048 11.936V13.936ZM208.889 15.4055C210.599 16.3766 211.94 17.7529 212.921 19.5575L214.678 18.6025C213.526 16.4818 211.923 14.8287 209.878 13.6665L208.889 15.4055ZM212.925 19.5656C213.892 21.3051 214.4 23.4545 214.4 26.056H216.4C216.4 23.1962 215.841 20.6949 214.674 18.5944L212.925 19.5656ZM214.4 26.056V45H216.4V26.056H214.4ZM215.4 44H208.808V46H215.4V44ZM209.808 45V26.568H207.808V45H209.808ZM209.808 26.568C209.808 23.689 209.088 21.3642 207.443 19.8225L206.076 21.2815C207.162 22.2998 207.808 23.9857 207.808 26.568H209.808ZM207.455 19.8338C205.859 18.2869 203.707 17.568 201.128 17.568V19.568C203.327 19.568 204.93 20.1718 206.064 21.2702L207.455 19.8338ZM201.128 17.568C198.155 17.568 195.679 18.5549 193.803 20.5755L195.268 21.9364C196.72 20.3731 198.639 19.568 201.128 19.568V17.568ZM193.794 20.5851C191.949 22.6246 191.104 25.5046 191.104 29.064H193.104C193.104 25.7967 193.88 23.4714 195.277 21.9269L193.794 20.5851ZM191.104 29.064V45H193.104V29.064H191.104ZM192.104 44H185.512V46H192.104V44ZM221.046 45H220.046V46H221.046V45ZM221.046 13.448V12.448H220.046V13.448H221.046ZM227.638 13.448H228.638V12.448H227.638V13.448ZM227.638 45V46H228.638V45H227.638ZM221.11 7.944L220.403 8.6511L220.421 8.66877L220.44 8.68553L221.11 7.944ZM221.11 1.48L221.799 2.205L221.8 2.20414L221.11 1.48ZM227.638 1.48L226.931 2.18711L226.94 2.19617L226.95 2.205L227.638 1.48ZM227.638 7.944L228.327 8.66899L228.337 8.66017L228.346 8.6511L227.638 7.944ZM222.046 45V13.448H220.046V45H222.046ZM221.046 14.448H227.638V12.448H221.046V14.448ZM226.638 13.448V45H228.638V13.448H226.638ZM227.638 44H221.046V46H227.638V44ZM224.374 8.16C223.326 8.16 222.482 7.83629 221.781 7.20246L220.44 8.68553C221.531 9.67304 222.863 10.16 224.374 10.16V8.16ZM221.818 7.23689C221.171 6.59001 220.83 5.76545 220.83 4.68H218.83C218.83 6.23987 219.344 7.59132 220.403 8.6511L221.818 7.23689ZM220.83 4.68C220.83 3.5941 221.17 2.80261 221.799 2.205L220.422 0.755C219.344 1.77872 218.83 3.12056 218.83 4.68H220.83ZM221.8 2.20414C222.503 1.53455 223.341 1.2 224.374 1.2V-0.800003C222.848 -0.800003 221.51 -0.281218 220.421 0.755862L221.8 2.20414ZM224.374 1.2C225.46 1.2 226.285 1.54022 226.931 2.18711L228.346 0.772894C227.286 -0.286895 225.934 -0.800003 224.374 -0.800003V1.2ZM226.95 2.205C227.579 2.80261 227.919 3.5941 227.919 4.68H229.919C229.919 3.12056 229.405 1.77872 228.327 0.755L226.95 2.205ZM227.919 4.68C227.919 5.76545 227.578 6.59001 226.931 7.23689L228.346 8.6511C229.405 7.59132 229.919 6.23987 229.919 4.68H227.919ZM226.95 7.219C226.306 7.83078 225.475 8.16 224.374 8.16V10.16C225.919 10.16 227.265 9.67855 228.327 8.66899L226.95 7.219ZM240.814 43.272L240.093 43.9656L240.1 43.9724L240.106 43.9791L240.814 43.272ZM239.15 19.016H240.15V18.016H239.15V19.016ZM230.445 19.016H229.445V20.016H230.445V19.016ZM230.445 13.448V12.448H229.445V13.448H230.445ZM239.15 13.448V14.448H240.15V13.448H239.15ZM239.15 3.016V2.016H238.15V3.016H239.15ZM245.742 3.016H246.742V2.016H245.742V3.016ZM245.742 13.448H244.742V14.448H245.742V13.448ZM253.165 13.448H254.165V12.448H253.165V13.448ZM253.165 19.016V20.016H254.165V19.016H253.165ZM245.742 19.016V18.016H244.742V19.016H245.742ZM254.126 39.432H255.125V38.432H254.126V39.432ZM254.126 45V46H255.125V45H254.126ZM261.549 43.272L260.842 43.9791L261.549 43.272ZM259.822 19.016H260.822V18.016H259.822V19.016ZM253.165 19.016H252.165V20.016H253.165V19.016ZM253.165 13.448V12.448H252.165V13.448H253.165ZM259.822 13.448V14.448H260.822V13.448H259.822ZM259.822 3.016V2.016H258.822V3.016H259.822ZM266.414 3.016H267.414V2.016H266.414V3.016ZM266.414 13.448H265.414V14.448H266.414V13.448ZM275.885 13.448H276.885V12.448H275.885V13.448ZM275.885 19.016V20.016H276.885V19.016H275.885ZM266.414 19.016V18.016H265.414V19.016H266.414ZM274.797 39.432H275.797V38.432H274.797V39.432ZM274.797 45V46H275.797V45H274.797ZM245.421 44C243.716 44 242.452 43.4962 241.521 42.5649L240.106 43.9791C241.479 45.3518 243.287 46 245.421 46V44ZM241.534 42.5784C240.639 41.649 240.15 40.3805 240.15 38.664H238.15C238.15 40.7875 238.769 42.591 240.093 43.9656L241.534 42.5784ZM240.15 38.664V19.016H238.15V38.664H240.15ZM239.15 18.016H230.445V20.016H239.15V18.016ZM231.445 19.016V13.448H229.445V19.016H231.445ZM230.445 14.448H239.15V12.448H230.445V14.448ZM240.15 13.448V3.016H238.15V13.448H240.15ZM239.15 4.016H245.742V2.016H239.15V4.016ZM244.742 3.016V13.448H246.742V3.016H244.742ZM245.742 14.448H253.165V12.448H245.742V14.448ZM252.165 13.448V19.016H254.165V13.448H252.165ZM253.165 18.016H245.742V20.016H253.165V18.016ZM244.742 19.016V37.512H246.742V19.016H244.742ZM244.742 37.512C244.742 38.2896 244.922 39.0591 245.458 39.6343C246.007 40.2225 246.764 40.432 247.533 40.432V38.432C247.109 38.432 246.969 38.3215 246.921 38.2697C246.86 38.2049 246.742 38.0144 246.742 37.512H244.742ZM247.533 40.432H254.126V38.432H247.533V40.432ZM253.126 39.432V45H255.125V39.432H253.126ZM254.126 44H245.421V46H254.126V44ZM266.158 44C264.452 44 263.188 43.4962 262.257 42.5649L260.842 43.9791C262.215 45.3518 264.023 46 266.158 46V44ZM262.257 42.5649C261.325 41.6336 260.822 40.3697 260.822 38.664H258.822C258.822 40.7983 259.47 42.6064 260.842 43.9791L262.257 42.5649ZM260.822 38.664V19.016H258.822V38.664H260.822ZM259.822 18.016H253.165V20.016H259.822V18.016ZM254.165 19.016V13.448H252.165V19.016H254.165ZM253.165 14.448H259.822V12.448H253.165V14.448ZM260.822 13.448V3.016H258.822V13.448H260.822ZM259.822 4.016H266.414V2.016H259.822V4.016ZM265.414 3.016V13.448H267.414V3.016H265.414ZM266.414 14.448H275.885V12.448H266.414V14.448ZM274.885 13.448V19.016H276.885V13.448H274.885ZM275.885 18.016H266.414V20.016H275.885V18.016ZM265.414 19.016V37.512H267.414V19.016H265.414ZM265.414 37.512C265.414 38.2978 265.603 39.0724 266.159 39.647C266.72 40.228 267.488 40.432 268.27 40.432V38.432C267.814 38.432 267.654 38.316 267.596 38.257C267.533 38.1916 267.414 38.0062 267.414 37.512H265.414ZM268.27 40.432H274.797V38.432H268.27V40.432ZM273.797 39.432V45H275.797V39.432H273.797ZM274.797 44H266.158V46H274.797V44ZM285.884 43.912L285.388 44.7803L285.4 44.7869L285.884 43.912ZM280.252 38.216L279.37 38.6874L279.375 38.6965L279.38 38.7055L280.252 38.216ZM280.252 20.296L281.131 20.7738L281.134 20.7674L280.252 20.296ZM285.756 14.6L286.247 15.4712L286.252 15.4682L285.756 14.6ZM301.948 14.6L301.431 15.4561L301.441 15.4618L301.45 15.4673L301.948 14.6ZM307.324 20.168L308.205 19.6958L307.324 20.168ZM309.244 31.048V32.048H310.244V31.048H309.244ZM284.988 31.048V30.048H283.957L283.988 31.0788L284.988 31.048ZM287.74 37.704L287.051 38.4286L287.06 38.4372L287.069 38.4455L287.74 37.704ZM299.964 38.472L299.309 37.7163L299.303 37.7218L299.296 37.7274L299.964 38.472ZM302.908 34.632L303.368 33.7439L302.445 33.2665L302.003 34.2062L302.908 34.632ZM308.348 37.448L309.242 37.8952L309.683 37.0132L308.808 36.5599L308.348 37.448ZM305.724 41.224L304.97 40.5672L304.964 40.5742L304.958 40.5814L305.724 41.224ZM301.308 44.552L301.747 45.4506L301.308 44.552ZM285.052 25.992L284.062 25.8506L283.899 26.992H285.052V25.992ZM302.524 25.992V26.992H303.598L303.521 25.9208L302.524 25.992ZM299.964 20.424L299.3 21.1714L299.306 21.1766L299.311 21.1818L299.964 20.424ZM287.868 20.424L288.521 21.1818L288.522 21.1804L287.868 20.424ZM294.268 44.896C291.208 44.896 288.586 44.2646 286.368 43.0371L285.4 44.7869C287.961 46.2047 290.928 46.896 294.268 46.896V44.896ZM286.38 43.0438C284.15 41.7696 282.402 40.0028 281.124 37.7265L279.38 38.7055C280.833 41.2932 282.839 43.3238 285.388 44.7802L286.38 43.0438ZM281.134 37.7446C279.9 35.4361 279.268 32.744 279.268 29.64H277.268C277.268 33.0214 277.959 36.0466 279.37 38.6874L281.134 37.7446ZM279.268 29.64V28.872H277.268V29.64H279.268ZM279.268 28.872C279.268 25.7224 279.901 23.034 281.13 20.7738L279.374 19.8182C277.957 22.422 277.268 25.4509 277.268 28.872H279.268ZM281.134 20.7674C282.371 18.4531 284.073 16.6964 286.247 15.4712L285.265 13.7288C282.746 15.1489 280.778 17.1896 279.37 19.8246L281.134 20.7674ZM286.252 15.4682C288.471 14.2001 291.048 13.552 294.012 13.552V11.552C290.747 11.552 287.819 12.2692 285.26 13.7318L286.252 15.4682ZM294.012 13.552C296.886 13.552 299.348 14.198 301.431 15.4561L302.465 13.7439C300.026 12.2713 297.196 11.552 294.012 11.552V13.552ZM301.45 15.4673C303.588 16.6948 305.249 18.4123 306.443 20.6402L308.205 19.6958C306.839 17.145 304.916 15.1506 302.446 13.7327L301.45 15.4673ZM306.443 20.6402C307.632 22.8602 308.244 25.487 308.244 28.552H310.244C310.244 25.217 309.576 22.2545 308.205 19.6958L306.443 20.6402ZM308.244 28.552V31.048H310.244V28.552H308.244ZM309.244 30.048H284.988V32.048H309.244V30.048ZM283.988 31.0788C284.081 34.0727 285.082 36.5558 287.051 38.4286L288.429 36.9794C286.899 35.5242 286.066 33.57 285.988 31.0172L283.988 31.0788ZM287.069 38.4455C289.063 40.2495 291.528 41.136 294.396 41.136V39.136C291.973 39.136 290.001 38.4011 288.411 36.9625L287.069 38.4455ZM294.396 41.136C297 41.136 299.139 40.5548 300.632 39.2166L299.296 37.7274C298.314 38.6078 296.742 39.136 294.396 39.136V41.136ZM300.619 39.2277C301.998 38.0323 303.067 36.6417 303.813 35.0578L302.003 34.2062C301.383 35.5236 300.49 36.6931 299.309 37.7163L300.619 39.2277ZM302.448 35.5201L307.888 38.3361L308.808 36.5599L303.368 33.7439L302.448 35.5201ZM307.454 37.0008C306.904 38.1007 306.083 39.2896 304.97 40.5672L306.478 41.8808C307.669 40.5131 308.598 39.1847 309.242 37.8952L307.454 37.0008ZM304.958 40.5814C303.953 41.779 302.601 42.8078 300.869 43.6534L301.747 45.4506C303.685 44.5042 305.276 43.3144 306.49 41.8666L304.958 40.5814ZM300.869 43.6534C299.215 44.4615 297.032 44.896 294.268 44.896V46.896C297.222 46.896 299.732 46.4345 301.747 45.4506L300.869 43.6534ZM285.052 26.992H302.524V24.992H285.052V26.992ZM303.521 25.9208C303.336 23.3178 302.391 21.194 300.617 19.6662L299.311 21.1818C300.609 22.2994 301.371 23.8876 301.527 26.0632L303.521 25.9208ZM300.628 19.6766C298.874 18.1167 296.615 17.376 293.948 17.376V19.376C296.23 19.376 297.982 20.0006 299.3 21.1714L300.628 19.6766ZM293.948 17.376C291.28 17.376 289.007 18.117 287.214 19.6676L288.522 21.1804C289.887 20.0004 291.667 19.376 293.948 19.376V17.376ZM287.215 19.6662C285.462 21.1758 284.431 23.2698 284.062 25.8506L286.042 26.1334C286.356 23.9356 287.202 22.3175 288.521 21.1818L287.215 19.6662Z" fill="url(#paint0_linear_674_578)" mask="url(#path-1-outside-1_674_578)"/>
<defs>
<linearGradient id="paint0_linear_674_578" x1="155.342" y1="11.2059" x2="155.501" y2="40.1786" gradientUnits="userSpaceOnUse">
<stop stop-color="white" stop-opacity="0.7"/>
<stop offset="1" stop-color="#999999" stop-opacity="0"/>
</linearGradient>
</defs>
</svg>
