<svg width="320" height="224" viewBox="0 0 320 224" fill="none" xmlns="http://www.w3.org/2000/svg">
<g clip-path="url(#clip0_62_2349)">
<rect width="320" height="224" fill="black"/>
<line x1="287.5" y1="1" x2="287.5" y2="223" stroke="#EDEDED" stroke-opacity="0.15"/>
<line x1="255.5" y1="1" x2="255.5" y2="223" stroke="#EDEDED" stroke-opacity="0.15"/>
<line x1="223.5" y1="1" x2="223.5" y2="223" stroke="#EDEDED" stroke-opacity="0.15"/>
<line x1="191.5" y1="1" x2="191.5" y2="223" stroke="#EDEDED" stroke-opacity="0.15"/>
<line x1="159.5" y1="1" x2="159.5" y2="223" stroke="#EDEDED" stroke-opacity="0.15"/>
<line x1="127.5" y1="1" x2="127.5" y2="223" stroke="#EDEDED" stroke-opacity="0.15"/>
<line x1="95.5" y1="1" x2="95.5" y2="223" stroke="#EDEDED" stroke-opacity="0.15"/>
<line x1="63.5" y1="1" x2="63.5" y2="223" stroke="#EDEDED" stroke-opacity="0.15"/>
<line x1="31.5" y1="1" x2="31.5" y2="223" stroke="#EDEDED" stroke-opacity="0.15"/>
<line x1="1" y1="31.5" x2="319" y2="31.5" stroke="#EDEDED" stroke-opacity="0.15"/>
<line x1="1" y1="63.5" x2="319" y2="63.5" stroke="#EDEDED" stroke-opacity="0.15"/>
<line x1="1" y1="95.5" x2="319" y2="95.5" stroke="#EDEDED" stroke-opacity="0.15"/>
<line x1="1" y1="127.5" x2="319" y2="127.5" stroke="#EDEDED" stroke-opacity="0.15"/>
<line x1="1" y1="159.5" x2="319" y2="159.5" stroke="#EDEDED" stroke-opacity="0.15"/>
<line x1="1" y1="191.5" x2="319" y2="191.5" stroke="#EDEDED" stroke-opacity="0.15"/>
<mask id="path-18-inside-1_62_2349" fill="white">
<path d="M0 0H10V11.4286H0V0Z"/>
</mask>
<path d="M0 0V-1H-1V0H0ZM0 1H10V-1H0V1ZM1 11.4286V0H-1V11.4286H1Z" fill="#EDEDED" mask="url(#path-18-inside-1_62_2349)"/>
<mask id="path-20-inside-2_62_2349" fill="white">
<path d="M320 0V11.4286H310V0H320Z"/>
</mask>
<path d="M320 0H321V-1H320V0ZM319 0V11.4286H321V0H319ZM310 1H320V-1H310V1Z" fill="#EDEDED" mask="url(#path-20-inside-2_62_2349)"/>
<mask id="path-22-inside-3_62_2349" fill="white">
<path d="M0 224V212.571H10V224H0Z"/>
</mask>
<path d="M0 224H-1V225H0V224ZM1 224V212.571H-1V224H1ZM10 223H0V225H10V223Z" fill="#EDEDED" mask="url(#path-22-inside-3_62_2349)"/>
<mask id="path-24-inside-4_62_2349" fill="white">
<path d="M320 224H310V212.571H320V224Z"/>
</mask>
<path d="M320 224V225H321V224H320ZM320 223H310V225H320V223ZM319 212.571V224H321V212.571H319Z" fill="#EDEDED" mask="url(#path-24-inside-4_62_2349)"/>
<rect x="31.5" y="31.5" width="224" height="64" rx="19.5" fill="#0A0A0A"/>
<rect x="31.5" y="31.5" width="224" height="64" rx="19.5" stroke="#2E2E2E"/>
<rect x="63" y="127" width="225" height="65" rx="20" fill="#EDEDED"/>
<g clip-path="url(#clip1_62_2349)">
<path d="M288 160H257C257 177.673 271.445 192 289.264 192H295C290.798 185.98 288 178.972 288 171.65V160Z" fill="#EDEDED"/>
</g>
<path d="M92.5884 156.183C89.4976 156.183 87.5713 154.081 87.5713 150.719V150.705C87.5713 147.35 89.5122 145.248 92.5884 145.248C95.6719 145.248 97.5981 147.35 97.5981 150.705V150.719C97.5981 154.081 95.6792 156.183 92.5884 156.183ZM92.5884 154.542C94.5 154.542 95.6792 153.048 95.6792 150.719V150.705C95.6792 148.361 94.478 146.889 92.5884 146.889C90.7061 146.889 89.4976 148.354 89.4976 150.705V150.719C89.4976 153.07 90.6987 154.542 92.5884 154.542ZM101.852 156.154C99.5444 156.154 98.1016 154.601 98.1016 152.111V152.104C98.1016 149.628 99.5664 148.075 101.83 148.075C103.873 148.075 105.147 149.372 105.257 150.924L105.265 150.983H103.543L103.529 150.917C103.375 150.163 102.818 149.555 101.852 149.555C100.702 149.555 99.9619 150.529 99.9619 152.118V152.125C99.9619 153.744 100.709 154.682 101.859 154.682C102.782 154.682 103.368 154.132 103.536 153.319L103.551 153.253H105.272L105.265 153.305C105.125 154.923 103.814 156.154 101.852 156.154ZM108.749 156.154C107.123 156.154 106.354 155.495 106.354 153.898V149.643H105.255V148.236H106.354V146.266H108.207V148.236H109.65V149.643H108.207V153.744C108.207 154.506 108.544 154.748 109.21 154.748C109.386 154.748 109.525 154.726 109.65 154.718V156.088C109.438 156.117 109.115 156.154 108.749 156.154ZM115.608 156V147.233H115.564L112.832 149.108V147.372L115.593 145.431H117.461V156H115.608ZM123.392 156.183C120.975 156.183 119.29 154.923 119.29 153.122V153.107C119.29 151.767 120.264 150.727 121.663 150.441V150.397C120.462 150.075 119.671 149.196 119.671 148.068V148.053C119.671 146.435 121.216 145.248 123.392 145.248C125.574 145.248 127.112 146.435 127.112 148.053V148.068C127.112 149.196 126.321 150.075 125.12 150.397V150.441C126.519 150.727 127.5 151.767 127.5 153.107V153.122C127.5 154.923 125.809 156.183 123.392 156.183ZM123.392 149.796C124.49 149.796 125.245 149.159 125.245 148.244V148.229C125.245 147.313 124.483 146.676 123.392 146.676C122.3 146.676 121.539 147.313 121.539 148.229V148.244C121.539 149.159 122.293 149.796 123.392 149.796ZM123.392 154.74C124.659 154.74 125.552 154.015 125.552 153.004V152.99C125.552 151.972 124.666 151.239 123.392 151.239C122.117 151.239 121.231 151.972 121.231 152.99V153.004C121.231 154.015 122.132 154.74 123.392 154.74ZM128.531 152.521V150.895H133.255V152.521H128.531ZM134.455 156V154.711L138.19 151.071C139.574 149.716 139.875 149.181 139.875 148.397V148.383C139.867 147.438 139.157 146.764 138.139 146.764C136.967 146.764 136.146 147.548 136.125 148.566V148.617H134.352V148.566C134.352 146.632 135.978 145.248 138.124 145.248C140.241 145.248 141.72 146.53 141.72 148.273V148.288C141.72 149.533 141.142 150.375 139.281 152.162L136.952 154.374V154.455H141.881V156H134.455ZM146.772 156.183C144.179 156.183 142.619 154.081 142.619 150.719V150.705C142.619 147.343 144.179 145.248 146.772 145.248C149.357 145.248 150.925 147.343 150.925 150.705V150.719C150.925 154.081 149.357 156.183 146.772 156.183ZM146.772 154.638C148.193 154.638 149.021 153.158 149.021 150.719V150.705C149.021 148.266 148.193 146.801 146.772 146.801C145.344 146.801 144.523 148.266 144.523 150.705V150.719C144.523 153.158 145.344 154.638 146.772 154.638ZM151.011 158.161L151.589 154.279H153.354L152.285 158.161H151.011ZM158.397 156.132C156.844 156.132 155.797 155.172 155.797 153.788V153.773C155.797 152.396 156.866 151.569 158.749 151.452L160.777 151.327V150.792C160.777 150.009 160.265 149.533 159.342 149.533C158.478 149.533 157.95 149.936 157.833 150.507L157.818 150.573H156.126L156.134 150.485C156.244 149.108 157.438 148.075 159.408 148.075C161.349 148.075 162.601 149.101 162.601 150.661V156H160.777V154.806H160.733C160.287 155.619 159.422 156.132 158.397 156.132ZM157.613 153.715C157.613 154.352 158.141 154.74 158.939 154.74C159.986 154.74 160.777 154.044 160.777 153.122V152.536L159.005 152.646C158.104 152.704 157.613 153.092 157.613 153.708V153.715ZM163.573 156V148.236H165.397V149.452H165.434C165.836 148.617 166.627 148.075 167.807 148.075C169.513 148.075 170.487 149.174 170.487 150.976V156H168.664V151.342C168.664 150.236 168.151 149.613 167.111 149.613C166.063 149.613 165.397 150.375 165.397 151.496V156H163.573ZM174.338 156.154C172.375 156.154 171.13 154.616 171.13 152.118V152.111C171.13 149.606 172.382 148.075 174.331 148.075C175.429 148.075 176.315 148.639 176.755 149.569H176.799V145.431H178.623V156H176.799V154.682H176.755C176.315 155.597 175.458 156.154 174.338 156.154ZM174.887 154.616C176.015 154.616 176.799 153.642 176.799 152.118V152.111C176.799 150.595 176.008 149.613 174.887 149.613C173.723 149.613 172.99 150.565 172.99 152.111V152.118C172.99 153.664 173.715 154.616 174.887 154.616ZM185.042 156.154C183.416 156.154 182.647 155.495 182.647 153.898V149.643H181.548V148.236H182.647V146.266H184.5V148.236H185.943V149.643H184.5V153.744C184.5 154.506 184.837 154.748 185.503 154.748C185.679 154.748 185.818 154.726 185.943 154.718V156.088C185.73 156.117 185.408 156.154 185.042 156.154ZM186.747 156V145.431H188.57V149.54H188.614C189.017 148.61 189.845 148.075 191.009 148.075C192.679 148.075 193.749 149.291 193.749 151.166V156H191.925V151.525C191.925 150.331 191.324 149.613 190.277 149.613C189.244 149.613 188.57 150.397 188.57 151.525V156H186.747ZM195.688 147.123C195.116 147.123 194.669 146.669 194.669 146.127C194.669 145.57 195.116 145.124 195.688 145.124C196.259 145.124 196.698 145.57 196.698 146.127C196.698 146.669 196.259 147.123 195.688 147.123ZM194.772 156V148.236H196.596V156H194.772ZM200.681 156.154C198.645 156.154 197.48 155.187 197.319 153.744L197.312 153.678H199.106L199.121 153.744C199.26 154.411 199.765 154.806 200.688 154.806C201.574 154.806 202.109 154.447 202.109 153.876V153.869C202.109 153.4 201.838 153.136 201.032 152.953L199.743 152.667C198.256 152.338 197.509 151.613 197.509 150.463V150.456C197.509 149.035 198.747 148.075 200.622 148.075C202.556 148.075 203.684 149.137 203.75 150.478L203.757 150.558H202.058L202.05 150.5C201.97 149.877 201.472 149.423 200.622 149.423C199.816 149.423 199.311 149.796 199.311 150.368V150.375C199.311 150.822 199.611 151.115 200.417 151.298L201.713 151.583C203.317 151.942 203.94 152.572 203.94 153.7V153.708C203.94 155.172 202.585 156.154 200.681 156.154ZM209.993 156.154C208.367 156.154 207.598 155.495 207.598 153.898V149.643H206.5V148.236H207.598V146.266H209.451V148.236H210.894V149.643H209.451V153.744C209.451 154.506 209.788 154.748 210.455 154.748C210.63 154.748 210.77 154.726 210.894 154.718V156.088C210.682 156.117 210.359 156.154 209.993 156.154ZM212.613 147.123C212.042 147.123 211.595 146.669 211.595 146.127C211.595 145.57 212.042 145.124 212.613 145.124C213.185 145.124 213.624 145.57 213.624 146.127C213.624 146.669 213.185 147.123 212.613 147.123ZM211.698 156V148.236H213.521V156H211.698ZM214.574 156V148.236H216.398V149.481H216.435C216.764 148.632 217.562 148.075 218.588 148.075C219.672 148.075 220.456 148.646 220.741 149.643H220.785C221.159 148.676 222.082 148.075 223.202 148.075C224.733 148.075 225.736 149.115 225.736 150.668V156H223.913V151.122C223.913 150.163 223.415 149.613 222.521 149.613C221.642 149.613 221.042 150.265 221.042 151.203V156H219.269V151.027C219.269 150.155 218.742 149.613 217.892 149.613C217.013 149.613 216.398 150.302 216.398 151.247V156H214.574ZM230.114 156.154C227.785 156.154 226.379 154.608 226.379 152.14V152.133C226.379 149.687 227.807 148.075 230.026 148.075C232.246 148.075 233.623 149.635 233.623 151.979V152.565H228.188C228.217 153.927 228.964 154.733 230.151 154.733C231.059 154.733 231.652 154.25 231.828 153.729L231.843 153.678H233.549L233.527 153.759C233.286 154.953 232.143 156.154 230.114 156.154ZM230.048 149.503C229.082 149.503 228.356 150.155 228.21 151.349H231.85C231.718 150.119 231.015 149.503 230.048 149.503ZM237.771 147.123C237.2 147.123 236.753 146.669 236.753 146.127C236.753 145.57 237.2 145.124 237.771 145.124C238.343 145.124 238.782 145.57 238.782 146.127C238.782 146.669 238.343 147.123 237.771 147.123ZM236.856 156V148.236H238.68V156H236.856ZM242.618 156.154C240.992 156.154 240.223 155.495 240.223 153.898V149.643H239.125V148.236H240.223V146.266H242.076V148.236H243.519V149.643H242.076V153.744C242.076 154.506 242.413 154.748 243.08 154.748C243.255 154.748 243.395 154.726 243.519 154.718V156.088C243.307 156.117 242.984 156.154 242.618 156.154ZM243.942 149.313L244.513 145.431H246.286L245.216 149.313H243.942ZM249.104 156.154C247.067 156.154 245.903 155.187 245.742 153.744L245.734 153.678H247.529L247.543 153.744C247.683 154.411 248.188 154.806 249.111 154.806C249.997 154.806 250.532 154.447 250.532 153.876V153.869C250.532 153.4 250.261 153.136 249.455 152.953L248.166 152.667C246.679 152.338 245.932 151.613 245.932 150.463V150.456C245.932 149.035 247.17 148.075 249.045 148.075C250.979 148.075 252.106 149.137 252.172 150.478L252.18 150.558H250.48L250.473 150.5C250.393 149.877 249.895 149.423 249.045 149.423C248.239 149.423 247.734 149.796 247.734 150.368V150.375C247.734 150.822 248.034 151.115 248.84 151.298L250.136 151.583C251.74 151.942 252.363 152.572 252.363 153.7V153.708C252.363 155.172 251.008 156.154 249.104 156.154ZM92.083 174.154C90.9624 174.154 90.1055 173.597 89.666 172.682H89.6221V174H87.7983V163.431H89.6221V167.569H89.666C90.1055 166.639 90.9917 166.075 92.0903 166.075C94.0386 166.075 95.291 167.606 95.291 170.111V170.118C95.291 172.616 94.0459 174.154 92.083 174.154ZM91.5337 172.616C92.7056 172.616 93.4307 171.664 93.4307 170.118V170.111C93.4307 168.565 92.6982 167.613 91.5337 167.613C90.4131 167.613 89.6221 168.595 89.6221 170.111V170.118C89.6221 171.642 90.4058 172.616 91.5337 172.616ZM96.9297 165.123C96.3584 165.123 95.9116 164.669 95.9116 164.127C95.9116 163.57 96.3584 163.124 96.9297 163.124C97.501 163.124 97.9404 163.57 97.9404 164.127C97.9404 164.669 97.501 165.123 96.9297 165.123ZM96.0142 174V166.236H97.8379V174H96.0142ZM102.392 176.717C100.333 176.717 99.0371 175.78 98.8174 174.564L98.8027 174.498H100.597L100.619 174.557C100.817 175.003 101.439 175.34 102.392 175.34C103.578 175.34 104.23 174.71 104.23 173.722V172.601H104.193C103.761 173.429 102.882 173.956 101.769 173.956C99.8208 173.956 98.5684 172.462 98.5684 170.045V170.038C98.5684 167.584 99.8354 166.075 101.798 166.075C102.897 166.075 103.747 166.661 104.186 167.555H104.23V166.236H106.054V173.78C106.054 175.538 104.64 176.717 102.392 176.717ZM102.34 172.55C103.476 172.55 104.237 171.59 104.237 170.082V170.074C104.237 168.573 103.468 167.613 102.34 167.613C101.168 167.613 100.429 168.558 100.429 170.067V170.074C100.429 171.605 101.168 172.55 102.34 172.55ZM110.549 176.717C108.491 176.717 107.194 175.78 106.975 174.564L106.96 174.498H108.754L108.776 174.557C108.974 175.003 109.597 175.34 110.549 175.34C111.735 175.34 112.387 174.71 112.387 173.722V172.601H112.351C111.918 173.429 111.04 173.956 109.926 173.956C107.978 173.956 106.726 172.462 106.726 170.045V170.038C106.726 167.584 107.993 166.075 109.956 166.075C111.054 166.075 111.904 166.661 112.343 167.555H112.387V166.236H114.211V173.78C114.211 175.538 112.797 176.717 110.549 176.717ZM110.498 172.55C111.633 172.55 112.395 171.59 112.395 170.082V170.074C112.395 168.573 111.625 167.613 110.498 167.613C109.326 167.613 108.586 168.558 108.586 170.067V170.074C108.586 171.605 109.326 172.55 110.498 172.55ZM118.618 174.154C116.289 174.154 114.883 172.608 114.883 170.14V170.133C114.883 167.687 116.311 166.075 118.53 166.075C120.75 166.075 122.126 167.635 122.126 169.979V170.565H116.692C116.721 171.927 117.468 172.733 118.655 172.733C119.563 172.733 120.156 172.25 120.332 171.729L120.347 171.678H122.053L122.031 171.759C121.79 172.953 120.647 174.154 118.618 174.154ZM118.552 167.503C117.585 167.503 116.86 168.155 116.714 169.349H120.354C120.222 168.119 119.519 167.503 118.552 167.503ZM122.806 174V166.236H124.629V167.577H124.666C124.908 166.639 125.552 166.075 126.446 166.075C126.673 166.075 126.885 166.112 127.024 166.148V167.796C126.871 167.738 126.592 167.694 126.285 167.694C125.252 167.694 124.629 168.346 124.629 169.496V174H122.806ZM132.851 174.154C131.225 174.154 130.456 173.495 130.456 171.898V167.643H129.357V166.236H130.456V164.266H132.309V166.236H133.751V167.643H132.309V171.744C132.309 172.506 132.646 172.748 133.312 172.748C133.488 172.748 133.627 172.726 133.751 172.718V174.088C133.539 174.117 133.217 174.154 132.851 174.154ZM134.555 174V163.431H136.379V167.54H136.423C136.826 166.61 137.653 166.075 138.818 166.075C140.488 166.075 141.557 167.291 141.557 169.166V174H139.733V169.525C139.733 168.331 139.133 167.613 138.085 167.613C137.053 167.613 136.379 168.397 136.379 169.525V174H134.555ZM144.822 174.132C143.269 174.132 142.222 173.172 142.222 171.788V171.773C142.222 170.396 143.291 169.569 145.173 169.452L147.202 169.327V168.792C147.202 168.009 146.689 167.533 145.767 167.533C144.902 167.533 144.375 167.936 144.258 168.507L144.243 168.573H142.551L142.559 168.485C142.668 167.108 143.862 166.075 145.833 166.075C147.773 166.075 149.026 167.101 149.026 168.661V174H147.202V172.806H147.158C146.711 173.619 145.847 174.132 144.822 174.132ZM144.038 171.715C144.038 172.352 144.565 172.74 145.364 172.74C146.411 172.74 147.202 172.044 147.202 171.122V170.536L145.43 170.646C144.529 170.704 144.038 171.092 144.038 171.708V171.715ZM149.998 174V166.236H151.822V167.452H151.858C152.261 166.617 153.052 166.075 154.231 166.075C155.938 166.075 156.912 167.174 156.912 168.976V174H155.088V169.342C155.088 168.236 154.576 167.613 153.536 167.613C152.488 167.613 151.822 168.375 151.822 169.496V174H149.998ZM163.793 174.154C161.464 174.154 160.058 172.608 160.058 170.14V170.133C160.058 167.687 161.486 166.075 163.705 166.075C165.924 166.075 167.301 167.635 167.301 169.979V170.565H161.867C161.896 171.927 162.643 172.733 163.83 172.733C164.738 172.733 165.331 172.25 165.507 171.729L165.521 171.678H167.228L167.206 171.759C166.964 172.953 165.822 174.154 163.793 174.154ZM163.727 167.503C162.76 167.503 162.035 168.155 161.889 169.349H165.529C165.397 168.119 164.694 167.503 163.727 167.503ZM169.782 174L167.036 166.236H168.977L170.778 172.308H170.822L172.617 166.236H174.521L171.789 174H169.782ZM177.998 174.154C175.669 174.154 174.263 172.608 174.263 170.14V170.133C174.263 167.687 175.691 166.075 177.91 166.075C180.129 166.075 181.506 167.635 181.506 169.979V170.565H176.072C176.101 171.927 176.848 172.733 178.035 172.733C178.943 172.733 179.536 172.25 179.712 171.729L179.727 171.678H181.433L181.411 171.759C181.169 172.953 180.027 174.154 177.998 174.154ZM177.932 167.503C176.965 167.503 176.24 168.155 176.094 169.349H179.734C179.602 168.119 178.899 167.503 177.932 167.503ZM182.186 174V166.236H184.009V167.577H184.046C184.288 166.639 184.932 166.075 185.826 166.075C186.053 166.075 186.265 166.112 186.404 166.148V167.796C186.25 167.738 185.972 167.694 185.665 167.694C184.632 167.694 184.009 168.346 184.009 169.496V174H182.186ZM193.681 174.154C192.56 174.154 191.703 173.597 191.264 172.682H191.22V174H189.396V163.431H191.22V167.569H191.264C191.703 166.639 192.589 166.075 193.688 166.075C195.636 166.075 196.889 167.606 196.889 170.111V170.118C196.889 172.616 195.644 174.154 193.681 174.154ZM193.131 172.616C194.303 172.616 195.028 171.664 195.028 170.118V170.111C195.028 168.565 194.296 167.613 193.131 167.613C192.011 167.613 191.22 168.595 191.22 170.111V170.118C191.22 171.642 192.003 172.616 193.131 172.616ZM200.974 174.154C198.645 174.154 197.238 172.608 197.238 170.14V170.133C197.238 167.687 198.667 166.075 200.886 166.075C203.105 166.075 204.482 167.635 204.482 169.979V170.565H199.047C199.077 171.927 199.824 172.733 201.01 172.733C201.918 172.733 202.512 172.25 202.688 171.729L202.702 171.678H204.409L204.387 171.759C204.145 172.953 203.002 174.154 200.974 174.154ZM200.908 167.503C199.941 167.503 199.216 168.155 199.069 169.349H202.709C202.578 168.119 201.875 167.503 200.908 167.503ZM205.667 174V167.643H204.604V166.236H205.667V165.497C205.667 163.98 206.384 163.277 208.069 163.277C208.428 163.277 208.816 163.307 209.043 163.351V164.625C208.896 164.603 208.691 164.588 208.494 164.588C207.783 164.588 207.454 164.918 207.454 165.548V166.236H209.014V167.643H207.49V174H205.667ZM212.535 174.154C210.25 174.154 208.777 172.63 208.777 170.118V170.104C208.777 167.613 210.271 166.075 212.527 166.075C214.791 166.075 216.292 167.599 216.292 170.104V170.118C216.292 172.638 214.812 174.154 212.535 174.154ZM212.542 172.682C213.692 172.682 214.432 171.744 214.432 170.118V170.104C214.432 168.485 213.685 167.555 212.527 167.555C211.392 167.555 210.638 168.492 210.638 170.104V170.118C210.638 171.751 211.377 172.682 212.542 172.682ZM216.964 174V166.236H218.788V167.577H218.824C219.066 166.639 219.71 166.075 220.604 166.075C220.831 166.075 221.043 166.112 221.183 166.148V167.796C221.029 167.738 220.75 167.694 220.443 167.694C219.41 167.694 218.788 168.346 218.788 169.496V174H216.964ZM224.74 174.154C222.411 174.154 221.005 172.608 221.005 170.14V170.133C221.005 167.687 222.433 166.075 224.652 166.075C226.872 166.075 228.249 167.635 228.249 169.979V170.565H222.814C222.843 171.927 223.59 172.733 224.777 172.733C225.685 172.733 226.278 172.25 226.454 171.729L226.469 171.678H228.175L228.153 171.759C227.912 172.953 226.769 174.154 224.74 174.154ZM224.674 167.503C223.708 167.503 222.982 168.155 222.836 169.349H226.476C226.344 168.119 225.641 167.503 224.674 167.503ZM229.624 170.462L229.477 163.431H231.359L231.213 170.462H229.624ZM230.415 174.081C229.821 174.081 229.353 173.626 229.353 173.048C229.353 172.462 229.821 172.015 230.415 172.015C231.015 172.015 231.484 172.462 231.484 173.048C231.484 173.626 231.015 174.081 230.415 174.081Z" fill="black"/>
<path d="M31.9961 60H62C61.813 79.3664 47.9828 95 30.9494 95H26C29.9171 87.8046 31.9961 79.5003 31.9961 71.0224V60Z" fill="#0A0A0A" stroke="#2E2E2E"/>
<rect x="32" y="32" width="223" height="63" rx="19" fill="#0A0A0A"/>
<path d="M54.5156 60V51.0205H51.3516V49.4312H59.5547V51.0205H56.3979V60H54.5156ZM58.9229 60V52.2363H60.7466V53.5767H60.7832C61.0249 52.6392 61.6694 52.0752 62.563 52.0752C62.79 52.0752 63.0024 52.1118 63.1416 52.1484V53.7964C62.9878 53.7378 62.7095 53.6938 62.4019 53.6938C61.3691 53.6938 60.7466 54.3457 60.7466 55.4956V60H58.9229ZM65.6958 60.1318C64.1431 60.1318 63.0957 59.1724 63.0957 57.7881V57.7734C63.0957 56.3965 64.165 55.5688 66.0474 55.4517L68.0762 55.3271V54.7925C68.0762 54.0088 67.5635 53.5327 66.6406 53.5327C65.7764 53.5327 65.249 53.9355 65.1318 54.5068L65.1172 54.5728H63.4253L63.4326 54.4849C63.5425 53.1079 64.7363 52.0752 66.7065 52.0752C68.6475 52.0752 69.8999 53.1006 69.8999 54.6606V60H68.0762V58.8062H68.0322C67.5854 59.6191 66.7212 60.1318 65.6958 60.1318ZM64.9121 57.7148C64.9121 58.3521 65.4395 58.7402 66.2378 58.7402C67.2852 58.7402 68.0762 58.0444 68.0762 57.1216V56.5356L66.3037 56.6455C65.4028 56.7041 64.9121 57.0923 64.9121 57.7075V57.7148ZM70.8721 60V52.2363H72.6958V53.4521H72.7324C73.1353 52.6172 73.9263 52.0752 75.1055 52.0752C76.812 52.0752 77.7861 53.1738 77.7861 54.9756V60H75.9624V55.3418C75.9624 54.2358 75.4497 53.6133 74.4097 53.6133C73.3623 53.6133 72.6958 54.375 72.6958 55.4956V60H70.8721ZM81.7832 60.1538C79.7471 60.1538 78.5825 59.187 78.4214 57.7441L78.4141 57.6782H80.2085L80.2231 57.7441C80.3623 58.4106 80.8677 58.8062 81.7905 58.8062C82.6768 58.8062 83.2114 58.4473 83.2114 57.876V57.8687C83.2114 57.3999 82.9404 57.1362 82.1348 56.9531L80.8457 56.6675C79.3589 56.3379 78.6118 55.6128 78.6118 54.4629V54.4556C78.6118 53.0347 79.8496 52.0752 81.7246 52.0752C83.6582 52.0752 84.7861 53.1372 84.8521 54.4775L84.8594 54.5581H83.1602L83.1528 54.4995C83.0723 53.877 82.5742 53.4229 81.7246 53.4229C80.9189 53.4229 80.4136 53.7964 80.4136 54.3677V54.375C80.4136 54.8218 80.7139 55.1147 81.5195 55.2979L82.8159 55.5835C84.4199 55.9424 85.0425 56.5723 85.0425 57.7002V57.7075C85.0425 59.1724 83.6875 60.1538 81.7832 60.1538ZM86.2124 60V53.6426H85.1504V52.2363H86.2124V51.4966C86.2124 49.9805 86.9302 49.2773 88.6147 49.2773C88.9736 49.2773 89.3618 49.3066 89.5889 49.3506V50.625C89.4424 50.603 89.2373 50.5884 89.0396 50.5884C88.3291 50.5884 87.9995 50.918 87.9995 51.5479V52.2363H89.5596V53.6426H88.0361V60H86.2124ZM91.2275 51.123C90.6562 51.123 90.2095 50.6689 90.2095 50.127C90.2095 49.5703 90.6562 49.1235 91.2275 49.1235C91.7988 49.1235 92.2383 49.5703 92.2383 50.127C92.2383 50.6689 91.7988 51.123 91.2275 51.123ZM90.312 60V52.2363H92.1357V60H90.312ZM93.3716 60V49.4312H95.0708L100.22 56.8359H100.264V49.4312H102.139V60H100.454L95.2905 52.5659H95.2539V60H93.3716ZM103.506 60V49.4312H105.396V60H103.506ZM109.342 60V51.0205H106.178V49.4312H114.381V51.0205H111.224V60H109.342ZM117.763 60V51.0205H114.599V49.4312H122.802V51.0205H119.645V60H117.763ZM125.012 60.1538C122.683 60.1538 121.276 58.6084 121.276 56.1401V56.1328C121.276 53.6865 122.705 52.0752 124.924 52.0752C127.143 52.0752 128.52 53.6353 128.52 55.979V56.5649H123.085C123.115 57.9272 123.862 58.7329 125.048 58.7329C125.957 58.7329 126.55 58.2495 126.726 57.7295L126.74 57.6782H128.447L128.425 57.7588C128.183 58.9526 127.041 60.1538 125.012 60.1538ZM124.946 53.5034C123.979 53.5034 123.254 54.1553 123.107 55.3491H126.748C126.616 54.1187 125.913 53.5034 124.946 53.5034ZM133.863 49.4312L133.292 53.313H131.519L132.588 49.4312H133.863ZM134.608 60V58.7109L138.343 55.0708C139.728 53.7158 140.028 53.1812 140.028 52.3975V52.3828C140.021 51.438 139.31 50.7642 138.292 50.7642C137.12 50.7642 136.3 51.5479 136.278 52.5659V52.6172H134.505V52.5659C134.505 50.6323 136.131 49.248 138.277 49.248C140.394 49.248 141.874 50.5298 141.874 52.2729V52.2876C141.874 53.5327 141.295 54.375 139.435 56.1621L137.105 58.374V58.4546H142.035V60H134.608ZM146.757 60.1831C144.435 60.1831 142.926 58.938 142.78 57.1655L142.772 57.0776H144.582L144.589 57.1582C144.691 58.0151 145.512 58.6377 146.75 58.6377C147.973 58.6377 148.786 57.9639 148.786 57.0044V56.9897C148.786 55.8765 147.965 55.2612 146.618 55.2612H145.365V53.855H146.574C147.738 53.855 148.515 53.1958 148.515 52.2729V52.2583C148.515 51.3062 147.87 50.7495 146.735 50.7495C145.622 50.7495 144.86 51.3281 144.765 52.2363L144.757 52.3096H143L143.007 52.2217C143.161 50.4346 144.604 49.248 146.735 49.248C148.917 49.248 150.331 50.3687 150.331 52.0093V52.0239C150.331 53.335 149.379 54.2065 148.112 54.4702V54.5068C149.672 54.6533 150.705 55.5762 150.705 57.041V57.0557C150.705 58.894 149.093 60.1831 146.757 60.1831ZM155.681 60L153.579 52.2363H155.41L156.721 58.1982H156.758L158.274 52.2363H160.024L161.541 58.1982H161.584L162.896 52.2363H164.697L162.595 60H160.676L159.146 54.3237H159.109L157.585 60H155.681ZM167.178 60.1318C165.625 60.1318 164.578 59.1724 164.578 57.7881V57.7734C164.578 56.3965 165.647 55.5688 167.53 55.4517L169.559 55.3271V54.7925C169.559 54.0088 169.046 53.5327 168.123 53.5327C167.259 53.5327 166.731 53.9355 166.614 54.5068L166.6 54.5728H164.908L164.915 54.4849C165.025 53.1079 166.219 52.0752 168.189 52.0752C170.13 52.0752 171.382 53.1006 171.382 54.6606V60H169.559V58.8062H169.515C169.068 59.6191 168.204 60.1318 167.178 60.1318ZM166.395 57.7148C166.395 58.3521 166.922 58.7402 167.72 58.7402C168.768 58.7402 169.559 58.0444 169.559 57.1216V56.5356L167.786 56.6455C166.885 56.7041 166.395 57.0923 166.395 57.7075V57.7148ZM175.387 60.1538C173.351 60.1538 172.186 59.187 172.025 57.7441L172.018 57.6782H173.812L173.827 57.7441C173.966 58.4106 174.471 58.8062 175.394 58.8062C176.28 58.8062 176.815 58.4473 176.815 57.876V57.8687C176.815 57.3999 176.544 57.1362 175.738 56.9531L174.449 56.6675C172.962 56.3379 172.215 55.6128 172.215 54.4629V54.4556C172.215 53.0347 173.453 52.0752 175.328 52.0752C177.262 52.0752 178.39 53.1372 178.456 54.4775L178.463 54.5581H176.764L176.756 54.4995C176.676 53.877 176.178 53.4229 175.328 53.4229C174.522 53.4229 174.017 53.7964 174.017 54.3677V54.375C174.017 54.8218 174.317 55.1147 175.123 55.2979L176.419 55.5835C178.023 55.9424 178.646 56.5723 178.646 57.7002V57.7075C178.646 59.1724 177.291 60.1538 175.387 60.1538ZM182.78 51.123C182.209 51.123 181.762 50.6689 181.762 50.127C181.762 49.5703 182.209 49.1235 182.78 49.1235C183.352 49.1235 183.791 49.5703 183.791 50.127C183.791 50.6689 183.352 51.123 182.78 51.123ZM181.865 60V52.2363H183.688V60H181.865ZM184.741 60V52.2363H186.565V53.4521H186.602C187.004 52.6172 187.795 52.0752 188.975 52.0752C190.681 52.0752 191.655 53.1738 191.655 54.9756V60H189.832V55.3418C189.832 54.2358 189.319 53.6133 188.279 53.6133C187.231 53.6133 186.565 54.375 186.565 55.4956V60H184.741ZM195.652 60.1538C193.616 60.1538 192.452 59.187 192.291 57.7441L192.283 57.6782H194.078L194.092 57.7441C194.231 58.4106 194.737 58.8062 195.66 58.8062C196.546 58.8062 197.081 58.4473 197.081 57.876V57.8687C197.081 57.3999 196.81 57.1362 196.004 56.9531L194.715 56.6675C193.228 56.3379 192.481 55.6128 192.481 54.4629V54.4556C192.481 53.0347 193.719 52.0752 195.594 52.0752C197.527 52.0752 198.655 53.1372 198.721 54.4775L198.729 54.5581H197.029L197.022 54.4995C196.941 53.877 196.443 53.4229 195.594 53.4229C194.788 53.4229 194.283 53.7964 194.283 54.3677V54.375C194.283 54.8218 194.583 55.1147 195.389 55.2979L196.685 55.5835C198.289 55.9424 198.912 56.5723 198.912 57.7002V57.7075C198.912 59.1724 197.557 60.1538 195.652 60.1538ZM201.869 60.1318C200.316 60.1318 199.269 59.1724 199.269 57.7881V57.7734C199.269 56.3965 200.338 55.5688 202.22 55.4517L204.249 55.3271V54.7925C204.249 54.0088 203.736 53.5327 202.813 53.5327C201.949 53.5327 201.422 53.9355 201.305 54.5068L201.29 54.5728H199.598L199.605 54.4849C199.715 53.1079 200.909 52.0752 202.879 52.0752C204.82 52.0752 206.073 53.1006 206.073 54.6606V60H204.249V58.8062H204.205C203.758 59.6191 202.894 60.1318 201.869 60.1318ZM201.085 57.7148C201.085 58.3521 201.612 58.7402 202.411 58.7402C203.458 58.7402 204.249 58.0444 204.249 57.1216V56.5356L202.477 56.6455C201.576 56.7041 201.085 57.0923 201.085 57.7075V57.7148ZM207.045 60V52.2363H208.869V53.4521H208.905C209.308 52.6172 210.099 52.0752 211.278 52.0752C212.985 52.0752 213.959 53.1738 213.959 54.9756V60H212.135V55.3418C212.135 54.2358 211.623 53.6133 210.583 53.6133C209.535 53.6133 208.869 54.375 208.869 55.4956V60H207.045ZM218.337 60.1538C216.008 60.1538 214.602 58.6084 214.602 56.1401V56.1328C214.602 53.6865 216.03 52.0752 218.249 52.0752C220.468 52.0752 221.845 53.6353 221.845 55.979V56.5649H216.411C216.44 57.9272 217.187 58.7329 218.374 58.7329C219.282 58.7329 219.875 58.2495 220.051 57.7295L220.065 57.6782H221.772L221.75 57.7588C221.508 58.9526 220.366 60.1538 218.337 60.1538ZM218.271 53.5034C217.304 53.5034 216.579 54.1553 216.433 55.3491H220.073C219.941 54.1187 219.238 53.5034 218.271 53.5034ZM223.22 56.4624L223.074 49.4312H224.956L224.81 56.4624H223.22ZM224.011 60.0806C223.418 60.0806 222.949 59.6265 222.949 59.0479C222.949 58.4619 223.418 58.0151 224.011 58.0151C224.612 58.0151 225.081 58.4619 225.081 59.0479C225.081 59.6265 224.612 60.0806 224.011 60.0806Z" fill="#EDEDED"/>
<path d="M54.1714 78L51.3223 67.4312H53.0288L54.999 75.7148H55.0283L57.2622 67.4312H58.8149L61.0488 75.7148H61.0854L63.0557 67.4312H64.7622L61.9058 78H60.3311L58.0605 70.0312H58.0239L55.7461 78H54.1714ZM65.4341 78V67.4312H67.0161V71.562H67.0527C67.4629 70.6685 68.2905 70.1484 69.4404 70.1484C71.0884 70.1484 72.1724 71.3789 72.1724 73.2393V78H70.5903V73.5396C70.5903 72.2651 69.9458 71.5034 68.8325 71.5034C67.7412 71.5034 67.0161 72.3384 67.0161 73.5396V78H65.4341ZM76.499 78.1538C74.2358 78.1538 72.8662 76.6084 72.8662 74.1768V74.1694C72.8662 71.7598 74.2578 70.1484 76.4185 70.1484C78.5791 70.1484 79.9048 71.7012 79.9048 74.0156V74.5503H74.4482C74.4775 76.0078 75.2759 76.8574 76.5356 76.8574C77.4731 76.8574 78.0957 76.374 78.2935 75.7954L78.3154 75.7368H79.8169L79.8022 75.8174C79.5532 77.0405 78.3667 78.1538 76.499 78.1538ZM76.4258 71.4448C75.4004 71.4448 74.6094 72.1406 74.4702 73.4297H78.3374C78.2056 72.0967 77.4585 71.4448 76.4258 71.4448ZM80.6353 78V70.2949H82.2173V71.4595H82.2539C82.6567 70.6758 83.4478 70.1484 84.6123 70.1484C86.3042 70.1484 87.2783 71.2397 87.2783 73.0122V78H85.689V73.3125C85.689 72.1553 85.147 71.5034 84.0483 71.5034C82.9351 71.5034 82.2173 72.3091 82.2173 73.5103V78H80.6353ZM91.7129 69.1084C91.2002 69.1084 90.79 68.6982 90.79 68.2002C90.79 67.6948 91.2002 67.2847 91.7129 67.2847C92.2329 67.2847 92.6357 67.6948 92.6357 68.2002C92.6357 68.6982 92.2329 69.1084 91.7129 69.1084ZM90.9219 78V70.2949H92.5039V78H90.9219ZM96.5229 78.1538C94.5967 78.1538 93.4688 77.2017 93.3076 75.7954L93.3003 75.7295H94.8677L94.8823 75.8027C95.0288 76.5132 95.5562 76.9307 96.5303 76.9307C97.4824 76.9307 98.0537 76.5352 98.0537 75.9126V75.9053C98.0537 75.4072 97.7754 75.1216 96.9478 74.9238L95.688 74.6382C94.2231 74.3013 93.498 73.5981 93.498 72.4775V72.4702C93.498 71.0933 94.6992 70.1484 96.4717 70.1484C98.2954 70.1484 99.394 71.1665 99.4746 72.4775L99.4819 72.5654H97.9951L97.9878 72.5142C97.8926 71.8403 97.3652 71.3716 96.4717 71.3716C95.6221 71.3716 95.0874 71.7744 95.0874 72.3896V72.397C95.0874 72.873 95.4023 73.1953 96.23 73.3931L97.4824 73.6787C99.0571 74.0449 99.6577 74.6675 99.6577 75.7734V75.7808C99.6577 77.187 98.3394 78.1538 96.5229 78.1538ZM103.792 69.1084C103.279 69.1084 102.869 68.6982 102.869 68.2002C102.869 67.6948 103.279 67.2847 103.792 67.2847C104.312 67.2847 104.715 67.6948 104.715 68.2002C104.715 68.6982 104.312 69.1084 103.792 69.1084ZM103.001 78V70.2949H104.583V78H103.001ZM108.419 78.1538C106.896 78.1538 106.163 77.5093 106.163 75.9712V71.5547H105.057V70.2949H106.163V68.2881H107.782V70.2949H109.225V71.5547H107.782V75.876C107.782 76.6597 108.133 76.894 108.8 76.894C108.968 76.894 109.107 76.8794 109.225 76.8647V78.0879C109.042 78.1172 108.741 78.1538 108.419 78.1538ZM112.641 78V67.4312H114.223V71.562H114.26C114.67 70.6685 115.498 70.1484 116.647 70.1484C118.295 70.1484 119.379 71.3789 119.379 73.2393V78H117.797V73.5396C117.797 72.2651 117.153 71.5034 116.04 71.5034C114.948 71.5034 114.223 72.3384 114.223 73.5396V78H112.641ZM122.681 78.1392C121.143 78.1392 120.11 77.1943 120.11 75.8101V75.7954C120.11 74.4551 121.15 73.6348 122.974 73.5249L125.068 73.4004V72.8218C125.068 71.9722 124.519 71.4595 123.538 71.4595C122.622 71.4595 122.058 71.8916 121.926 72.5068L121.912 72.5728H120.417L120.425 72.4922C120.535 71.1665 121.685 70.1484 123.582 70.1484C125.464 70.1484 126.658 71.1445 126.658 72.6899V78H125.068V76.7842H125.039C124.592 77.6118 123.699 78.1392 122.681 78.1392ZM121.707 75.7734C121.707 76.4473 122.263 76.8721 123.113 76.8721C124.226 76.8721 125.068 76.1177 125.068 75.1143V74.5137L123.186 74.6309C122.234 74.6895 121.707 75.1069 121.707 75.7588V75.7734ZM127.696 80.5635V70.2949H129.278V71.6206H129.314C129.776 70.7051 130.625 70.1484 131.724 70.1484C133.687 70.1484 134.947 71.6865 134.947 74.1475V74.1548C134.947 76.6084 133.68 78.1538 131.746 78.1538C130.655 78.1538 129.769 77.5972 129.314 76.7036H129.278V80.5635H127.696ZM131.314 76.7915C132.559 76.7915 133.335 75.7808 133.335 74.1548V74.1475C133.335 72.5068 132.552 71.5034 131.314 71.5034C130.113 71.5034 129.271 72.5435 129.271 74.1475V74.1548C129.271 75.7515 130.12 76.7915 131.314 76.7915ZM135.677 80.5635V70.2949H137.259V71.6206H137.296C137.757 70.7051 138.607 70.1484 139.706 70.1484C141.668 70.1484 142.928 71.6865 142.928 74.1475V74.1548C142.928 76.6084 141.661 78.1538 139.728 78.1538C138.636 78.1538 137.75 77.5972 137.296 76.7036H137.259V80.5635H135.677ZM139.295 76.7915C140.541 76.7915 141.317 75.7808 141.317 74.1548V74.1475C141.317 72.5068 140.533 71.5034 139.295 71.5034C138.094 71.5034 137.252 72.5435 137.252 74.1475V74.1548C137.252 75.7515 138.102 76.7915 139.295 76.7915ZM146.947 78.1538C144.684 78.1538 143.314 76.6084 143.314 74.1768V74.1694C143.314 71.7598 144.706 70.1484 146.867 70.1484C149.027 70.1484 150.353 71.7012 150.353 74.0156V74.5503H144.896C144.926 76.0078 145.724 76.8574 146.984 76.8574C147.921 76.8574 148.544 76.374 148.742 75.7954L148.764 75.7368H150.265L150.25 75.8174C150.001 77.0405 148.815 78.1538 146.947 78.1538ZM146.874 71.4448C145.849 71.4448 145.058 72.1406 144.918 73.4297H148.786C148.654 72.0967 147.907 71.4448 146.874 71.4448ZM151.083 78V70.2949H152.666V71.4595H152.702C153.105 70.6758 153.896 70.1484 155.061 70.1484C156.752 70.1484 157.727 71.2397 157.727 73.0122V78H156.137V73.3125C156.137 72.1553 155.595 71.5034 154.497 71.5034C153.383 71.5034 152.666 72.3091 152.666 73.5103V78H151.083ZM159.614 69.1084C159.102 69.1084 158.691 68.6982 158.691 68.2002C158.691 67.6948 159.102 67.2847 159.614 67.2847C160.134 67.2847 160.537 67.6948 160.537 68.2002C160.537 68.6982 160.134 69.1084 159.614 69.1084ZM158.823 78V70.2949H160.405V78H158.823ZM161.539 78V70.2949H163.121V71.4595H163.157C163.56 70.6758 164.351 70.1484 165.516 70.1484C167.208 70.1484 168.182 71.2397 168.182 73.0122V78H166.592V73.3125C166.592 72.1553 166.05 71.5034 164.952 71.5034C163.838 71.5034 163.121 72.3091 163.121 73.5103V78H161.539ZM172.589 80.7173C170.611 80.7173 169.359 79.8018 169.125 78.6226L169.117 78.5566H170.685L170.714 78.6152C170.926 79.106 171.593 79.4429 172.582 79.4429C173.841 79.4429 174.537 78.769 174.537 77.6924V76.6377H174.5C174.061 77.4727 173.182 78.0073 172.076 78.0073C170.143 78.0073 168.868 76.4912 168.868 74.0889V74.0815C168.868 71.6646 170.157 70.1484 172.113 70.1484C173.197 70.1484 174.046 70.7344 174.5 71.606H174.537V70.2949H176.126V77.7876C176.126 79.5454 174.764 80.7173 172.589 80.7173ZM172.523 76.7183C173.731 76.7183 174.537 75.7002 174.537 74.1108V74.1035C174.537 72.5215 173.724 71.5034 172.523 71.5034C171.271 71.5034 170.487 72.5142 170.487 74.1035V74.1108C170.487 75.7222 171.271 76.7183 172.523 76.7183ZM182.443 78.1538C180.92 78.1538 180.188 77.5093 180.188 75.9712V71.5547H179.082V70.2949H180.188V68.2881H181.806V70.2949H183.249V71.5547H181.806V75.876C181.806 76.6597 182.158 76.894 182.824 76.894C182.993 76.894 183.132 76.8794 183.249 76.8647V78.0879C183.066 78.1172 182.766 78.1538 182.443 78.1538ZM184.119 78V67.4312H185.701V71.562H185.737C186.147 70.6685 186.975 70.1484 188.125 70.1484C189.773 70.1484 190.857 71.3789 190.857 73.2393V78H189.275V73.5396C189.275 72.2651 188.63 71.5034 187.517 71.5034C186.426 71.5034 185.701 72.3384 185.701 73.5396V78H184.119ZM192.752 69.1084C192.239 69.1084 191.829 68.6982 191.829 68.2002C191.829 67.6948 192.239 67.2847 192.752 67.2847C193.272 67.2847 193.675 67.6948 193.675 68.2002C193.675 68.6982 193.272 69.1084 192.752 69.1084ZM191.961 78V70.2949H193.543V78H191.961ZM197.562 78.1538C195.636 78.1538 194.508 77.2017 194.347 75.7954L194.339 75.7295H195.907L195.921 75.8027C196.068 76.5132 196.595 76.9307 197.569 76.9307C198.521 76.9307 199.093 76.5352 199.093 75.9126V75.9053C199.093 75.4072 198.814 75.1216 197.987 74.9238L196.727 74.6382C195.262 74.3013 194.537 73.5981 194.537 72.4775V72.4702C194.537 71.0933 195.738 70.1484 197.511 70.1484C199.334 70.1484 200.433 71.1665 200.514 72.4775L200.521 72.5654H199.034L199.027 72.5142C198.932 71.8403 198.404 71.3716 197.511 71.3716C196.661 71.3716 196.126 71.7744 196.126 72.3896V72.397C196.126 72.873 196.441 73.1953 197.269 73.3931L198.521 73.6787C200.096 74.0449 200.697 74.6675 200.697 75.7734V75.7808C200.697 77.187 199.378 78.1538 197.562 78.1538ZM204.882 80.5708C204.575 80.5708 204.245 80.5342 204.055 80.4976V79.2598C204.179 79.2891 204.362 79.3184 204.575 79.3184C205.322 79.3184 205.732 79.1206 205.996 78.3735L206.127 78.0073L203.322 70.2949H205.036L206.977 76.5645H207.028L208.969 70.2949H210.639L207.768 78.3589C207.197 79.9556 206.391 80.5708 204.882 80.5708ZM214.058 78.1538C211.794 78.1538 210.425 76.6084 210.425 74.1768V74.1694C210.425 71.7598 211.816 70.1484 213.977 70.1484C216.138 70.1484 217.463 71.7012 217.463 74.0156V74.5503H212.007C212.036 76.0078 212.834 76.8574 214.094 76.8574C215.032 76.8574 215.654 76.374 215.852 75.7954L215.874 75.7368H217.375L217.361 75.8174C217.112 77.0405 215.925 78.1538 214.058 78.1538ZM213.984 71.4448C212.959 71.4448 212.168 72.1406 212.029 73.4297H215.896C215.764 72.0967 215.017 71.4448 213.984 71.4448ZM220.457 78.1392C218.919 78.1392 217.886 77.1943 217.886 75.8101V75.7954C217.886 74.4551 218.926 73.6348 220.75 73.5249L222.845 73.4004V72.8218C222.845 71.9722 222.295 71.4595 221.314 71.4595C220.398 71.4595 219.834 71.8916 219.703 72.5068L219.688 72.5728H218.194L218.201 72.4922C218.311 71.1665 219.461 70.1484 221.358 70.1484C223.24 70.1484 224.434 71.1445 224.434 72.6899V78H222.845V76.7842H222.815C222.369 77.6118 221.475 78.1392 220.457 78.1392ZM219.483 75.7734C219.483 76.4473 220.04 76.8721 220.889 76.8721C222.002 76.8721 222.845 76.1177 222.845 75.1143V74.5137L220.962 74.6309C220.01 74.6895 219.483 75.1069 219.483 75.7588V75.7734ZM225.472 78V70.2949H227.054V71.6133H227.091C227.34 70.7124 227.984 70.1484 228.863 70.1484C229.09 70.1484 229.288 70.1851 229.413 70.207V71.6792C229.288 71.6279 229.01 71.5913 228.702 71.5913C227.684 71.5913 227.054 72.2578 227.054 73.4077V78H225.472ZM231.806 74.6821L231.798 74.0962C231.776 73.1001 232.208 72.4409 233.212 71.8403C234.098 71.3057 234.413 70.8809 234.413 70.1338V70.1265C234.413 69.2915 233.754 68.6909 232.758 68.6909C231.747 68.6909 231.117 69.3062 231.037 70.1997L231.029 70.2656H229.513L229.521 70.1777C229.616 68.603 230.714 67.3433 232.838 67.3433C234.765 67.3433 236.076 68.4858 236.076 70.0605V70.0679C236.076 71.1958 235.504 71.9941 234.538 72.5728C233.593 73.1294 233.322 73.5249 233.322 74.2646V74.6821H231.806ZM232.575 78.0806C232.04 78.0806 231.615 77.6631 231.615 77.1284C231.615 76.5938 232.04 76.1836 232.575 76.1836C233.124 76.1836 233.542 76.5938 233.542 77.1284C233.542 77.6631 233.124 78.0806 232.575 78.0806Z" fill="#A1A1A1"/>
</g>
<rect x="0.5" y="0.5" width="319" height="223" stroke="#EDEDED" stroke-opacity="0.15"/>
<defs>
<clipPath id="clip0_62_2349">
<rect width="320" height="224" fill="white"/>
</clipPath>
<clipPath id="clip1_62_2349">
<rect width="38" height="32" fill="white" transform="translate(257 160)"/>
</clipPath>
</defs>
</svg>
