<svg width="1246" height="104" viewBox="0 0 1246 104" fill="none" xmlns="http://www.w3.org/2000/svg">
<mask id="path-1-outside-1_20_1319" maskUnits="userSpaceOnUse" x="-1" y="-1" width="1248" height="106" fill="black">
<rect fill="white" x="-1" y="-1" width="1248" height="106"/>
<path d="M31.4019 102V16.516H0.871899V2.59999H77.2679V16.516H46.7379V102H31.4019ZM87.0504 102V2.59999H128.798C134.952 2.59999 140.348 3.68866 144.986 5.86599C149.72 7.94866 153.364 10.978 155.92 14.954C158.571 18.93 159.896 23.6633 159.896 29.154V30.716C159.896 36.964 158.382 41.9813 155.352 45.768C152.418 49.46 148.82 52.0633 144.56 53.578V55.85C148.158 56.0393 151.045 57.27 153.222 59.542C155.4 61.7193 156.488 64.8907 156.488 69.056V102H141.01V71.186C141.01 68.63 140.348 66.5947 139.022 65.08C137.697 63.5653 135.567 62.808 132.632 62.808H102.386V102H87.0504ZM102.386 48.892H127.094C132.585 48.892 136.845 47.5193 139.874 44.774C142.904 41.934 144.418 38.1 144.418 33.272V32.136C144.418 27.308 142.904 23.5213 139.874 20.776C136.94 17.936 132.68 16.516 127.094 16.516H102.386V48.892ZM165.269 102L193.669 2.59999H220.649L248.907 102H233.145L226.613 78.57H187.705L181.173 102H165.269ZM191.539 64.37H222.779L208.295 12.114H206.023L191.539 64.37ZM258.256 102V2.59999H287.792L314.772 91.776H317.044V2.59999H332.238V102H302.702L275.722 12.682H273.45V102H258.256ZM382.647 103.988C375.168 103.988 368.541 102.663 362.767 100.012C356.992 97.3613 352.448 93.48 349.135 88.368C345.916 83.1613 344.307 76.866 344.307 69.482V65.932H359.501V69.482C359.501 76.4873 361.583 81.7413 365.749 85.244C370.009 88.7467 375.641 90.498 382.647 90.498C389.747 90.498 395.095 89.0307 398.693 86.096C402.29 83.0667 404.089 79.1853 404.089 74.452C404.089 71.328 403.237 68.772 401.533 66.784C399.829 64.796 397.415 63.234 394.291 62.098C391.167 60.8673 387.427 59.7313 383.073 58.69L377.819 57.412C371.476 55.8973 365.938 54.0513 361.205 51.874C356.566 49.602 352.969 46.62 350.413 42.928C347.857 39.236 346.579 34.5027 346.579 28.728C346.579 22.8587 347.999 17.8413 350.839 13.676C353.773 9.51066 357.797 6.292 362.909 4.01999C368.021 1.74799 374.032 0.611993 380.943 0.611993C387.853 0.611993 394.007 1.79533 399.403 4.162C404.893 6.52866 409.201 10.0313 412.325 14.67C415.449 19.3087 417.011 25.1307 417.011 32.136V37.248H401.817V32.136C401.817 27.876 400.917 24.4207 399.119 21.77C397.415 19.1193 395.001 17.1787 391.877 15.948C388.753 14.7173 385.108 14.102 380.943 14.102C374.884 14.102 370.151 15.38 366.743 17.936C363.429 20.3973 361.773 23.8527 361.773 28.302C361.773 31.3313 362.483 33.84 363.903 35.828C365.417 37.7213 367.595 39.2833 370.435 40.514C373.275 41.7447 376.825 42.8333 381.085 43.78L386.339 45.058C392.776 46.478 398.456 48.324 403.379 50.596C408.301 52.7733 412.183 55.7553 415.023 59.542C417.863 63.3287 419.283 68.204 419.283 74.168C419.283 80.132 417.768 85.3387 414.739 89.788C411.804 94.2373 407.591 97.74 402.101 100.296C396.61 102.757 390.125 103.988 382.647 103.988ZM431.264 102V2.59999H492.608V16.516H446.6V45.2H488.916V59.116H446.6V102H431.264ZM503.415 102V2.59999H518.751V102H503.415ZM535.352 102V2.59999H564.888L591.868 91.776H594.14V2.59999H609.334V102H579.798L552.818 12.682H550.546V102H535.352ZM625.947 102V2.59999H641.283V102H625.947ZM681.598 102V16.516H651.068V2.59999H727.464V16.516H696.934V102H681.598ZM760.96 102V16.516H730.43V2.59999H806.826V16.516H776.296V102H760.96ZM816.609 102V2.59999H879.231V16.516H831.945V45.058H875.255V58.974H831.945V88.084H879.941V102H816.609ZM920.336 102V90.782C920.336 83.8713 921.52 78.1913 923.886 73.742C926.253 69.2927 929.614 65.6953 933.968 62.95C938.418 60.11 943.766 57.7433 950.014 55.85L958.676 53.152C962.558 51.9213 965.871 50.4067 968.616 48.608C971.456 46.8093 973.634 44.5847 975.148 41.934C976.663 39.1887 977.42 36.0173 977.42 32.42V31.852C977.42 26.2667 975.527 21.912 971.74 18.788C967.954 15.5693 962.984 13.96 956.83 13.96C950.488 13.96 945.328 15.664 941.352 19.072C937.471 22.48 935.53 27.4973 935.53 34.124V36.396H920.762V34.266C920.762 27.0713 922.324 21.0127 925.448 16.09C928.572 11.0727 932.88 7.23866 938.37 4.58799C943.861 1.93733 950.014 0.611993 956.83 0.611993C963.646 0.611993 969.705 1.88999 975.006 4.44599C980.402 7.002 984.615 10.5993 987.644 15.238C990.768 19.8767 992.33 25.32 992.33 31.568V32.846C992.33 39.2833 991.052 44.632 988.496 48.892C985.94 53.152 982.39 56.6547 977.846 59.4C973.397 62.1453 968.238 64.4647 962.368 66.358L953.99 68.914C949.541 70.2393 945.944 71.7067 943.198 73.316C940.548 74.8307 938.56 76.6767 937.234 78.854C936.004 81.0313 935.388 83.824 935.388 87.232V88.652H991.478V102H920.336ZM1039.99 103.988C1028.44 103.988 1019.21 100.722 1012.3 94.19C1005.49 87.5633 1002.08 77.6233 1002.08 64.37V40.23C1002.08 27.2607 1005.49 17.4153 1012.3 10.694C1019.21 3.97266 1028.44 0.611993 1039.99 0.611993C1051.64 0.611993 1060.87 3.97266 1067.68 10.694C1074.59 17.4153 1078.05 27.2607 1078.05 40.23V64.37C1078.05 77.6233 1074.59 87.5633 1067.68 94.19C1060.87 100.722 1051.64 103.988 1039.99 103.988ZM1039.99 90.64C1047.85 90.64 1053.67 88.4153 1057.46 83.966C1061.25 79.422 1063.14 73.0793 1063.14 64.938V39.378C1063.14 31.2367 1061.1 24.9887 1057.03 20.634C1052.96 16.1847 1047.28 13.96 1039.99 13.96C1032.61 13.96 1026.93 16.232 1022.95 20.776C1018.98 25.2253 1016.99 31.426 1016.99 39.378V64.938C1016.99 73.2687 1018.88 79.6587 1022.67 84.108C1026.55 88.4627 1032.33 90.64 1039.99 90.64ZM1088.49 102V90.782C1088.49 83.8713 1089.67 78.1913 1092.04 73.742C1094.41 69.2927 1097.77 65.6953 1102.12 62.95C1106.57 60.11 1111.92 57.7433 1118.17 55.85L1126.83 53.152C1130.71 51.9213 1134.03 50.4067 1136.77 48.608C1139.61 46.8093 1141.79 44.5847 1143.3 41.934C1144.82 39.1887 1145.57 36.0173 1145.57 32.42V31.852C1145.57 26.2667 1143.68 21.912 1139.89 18.788C1136.11 15.5693 1131.14 13.96 1124.98 13.96C1118.64 13.96 1113.48 15.664 1109.51 19.072C1105.63 22.48 1103.68 27.4973 1103.68 34.124V36.396H1088.92V34.266C1088.92 27.0713 1090.48 21.0127 1093.6 16.09C1096.73 11.0727 1101.03 7.23866 1106.52 4.58799C1112.02 1.93733 1118.17 0.611993 1124.98 0.611993C1131.8 0.611993 1137.86 1.88999 1143.16 4.44599C1148.56 7.002 1152.77 10.5993 1155.8 15.238C1158.92 19.8767 1160.48 25.32 1160.48 31.568V32.846C1160.48 39.2833 1159.21 44.632 1156.65 48.892C1154.09 53.152 1150.54 56.6547 1146 59.4C1141.55 62.1453 1136.39 64.4647 1130.52 66.358L1122.14 68.914C1117.7 70.2393 1114.1 71.7067 1111.35 73.316C1108.7 74.8307 1106.71 76.6767 1105.39 78.854C1104.16 81.0313 1103.54 83.824 1103.54 87.232V88.652H1159.63V102H1088.49ZM1213.62 102V81.694H1163.35V64.37L1201.41 2.59999H1228.53V68.488H1245.29V81.694H1228.53V102H1213.62ZM1177.84 68.488H1213.62V11.972H1211.35L1177.84 66.5V68.488Z"/>
</mask>
<path d="M31.4019 102V16.516H0.871899V2.59999H77.2679V16.516H46.7379V102H31.4019ZM87.0504 102V2.59999H128.798C134.952 2.59999 140.348 3.68866 144.986 5.86599C149.72 7.94866 153.364 10.978 155.92 14.954C158.571 18.93 159.896 23.6633 159.896 29.154V30.716C159.896 36.964 158.382 41.9813 155.352 45.768C152.418 49.46 148.82 52.0633 144.56 53.578V55.85C148.158 56.0393 151.045 57.27 153.222 59.542C155.4 61.7193 156.488 64.8907 156.488 69.056V102H141.01V71.186C141.01 68.63 140.348 66.5947 139.022 65.08C137.697 63.5653 135.567 62.808 132.632 62.808H102.386V102H87.0504ZM102.386 48.892H127.094C132.585 48.892 136.845 47.5193 139.874 44.774C142.904 41.934 144.418 38.1 144.418 33.272V32.136C144.418 27.308 142.904 23.5213 139.874 20.776C136.94 17.936 132.68 16.516 127.094 16.516H102.386V48.892ZM165.269 102L193.669 2.59999H220.649L248.907 102H233.145L226.613 78.57H187.705L181.173 102H165.269ZM191.539 64.37H222.779L208.295 12.114H206.023L191.539 64.37ZM258.256 102V2.59999H287.792L314.772 91.776H317.044V2.59999H332.238V102H302.702L275.722 12.682H273.45V102H258.256ZM382.647 103.988C375.168 103.988 368.541 102.663 362.767 100.012C356.992 97.3613 352.448 93.48 349.135 88.368C345.916 83.1613 344.307 76.866 344.307 69.482V65.932H359.501V69.482C359.501 76.4873 361.583 81.7413 365.749 85.244C370.009 88.7467 375.641 90.498 382.647 90.498C389.747 90.498 395.095 89.0307 398.693 86.096C402.29 83.0667 404.089 79.1853 404.089 74.452C404.089 71.328 403.237 68.772 401.533 66.784C399.829 64.796 397.415 63.234 394.291 62.098C391.167 60.8673 387.427 59.7313 383.073 58.69L377.819 57.412C371.476 55.8973 365.938 54.0513 361.205 51.874C356.566 49.602 352.969 46.62 350.413 42.928C347.857 39.236 346.579 34.5027 346.579 28.728C346.579 22.8587 347.999 17.8413 350.839 13.676C353.773 9.51066 357.797 6.292 362.909 4.01999C368.021 1.74799 374.032 0.611993 380.943 0.611993C387.853 0.611993 394.007 1.79533 399.403 4.162C404.893 6.52866 409.201 10.0313 412.325 14.67C415.449 19.3087 417.011 25.1307 417.011 32.136V37.248H401.817V32.136C401.817 27.876 400.917 24.4207 399.119 21.77C397.415 19.1193 395.001 17.1787 391.877 15.948C388.753 14.7173 385.108 14.102 380.943 14.102C374.884 14.102 370.151 15.38 366.743 17.936C363.429 20.3973 361.773 23.8527 361.773 28.302C361.773 31.3313 362.483 33.84 363.903 35.828C365.417 37.7213 367.595 39.2833 370.435 40.514C373.275 41.7447 376.825 42.8333 381.085 43.78L386.339 45.058C392.776 46.478 398.456 48.324 403.379 50.596C408.301 52.7733 412.183 55.7553 415.023 59.542C417.863 63.3287 419.283 68.204 419.283 74.168C419.283 80.132 417.768 85.3387 414.739 89.788C411.804 94.2373 407.591 97.74 402.101 100.296C396.61 102.757 390.125 103.988 382.647 103.988ZM431.264 102V2.59999H492.608V16.516H446.6V45.2H488.916V59.116H446.6V102H431.264ZM503.415 102V2.59999H518.751V102H503.415ZM535.352 102V2.59999H564.888L591.868 91.776H594.14V2.59999H609.334V102H579.798L552.818 12.682H550.546V102H535.352ZM625.947 102V2.59999H641.283V102H625.947ZM681.598 102V16.516H651.068V2.59999H727.464V16.516H696.934V102H681.598ZM760.96 102V16.516H730.43V2.59999H806.826V16.516H776.296V102H760.96ZM816.609 102V2.59999H879.231V16.516H831.945V45.058H875.255V58.974H831.945V88.084H879.941V102H816.609ZM920.336 102V90.782C920.336 83.8713 921.52 78.1913 923.886 73.742C926.253 69.2927 929.614 65.6953 933.968 62.95C938.418 60.11 943.766 57.7433 950.014 55.85L958.676 53.152C962.558 51.9213 965.871 50.4067 968.616 48.608C971.456 46.8093 973.634 44.5847 975.148 41.934C976.663 39.1887 977.42 36.0173 977.42 32.42V31.852C977.42 26.2667 975.527 21.912 971.74 18.788C967.954 15.5693 962.984 13.96 956.83 13.96C950.488 13.96 945.328 15.664 941.352 19.072C937.471 22.48 935.53 27.4973 935.53 34.124V36.396H920.762V34.266C920.762 27.0713 922.324 21.0127 925.448 16.09C928.572 11.0727 932.88 7.23866 938.37 4.58799C943.861 1.93733 950.014 0.611993 956.83 0.611993C963.646 0.611993 969.705 1.88999 975.006 4.44599C980.402 7.002 984.615 10.5993 987.644 15.238C990.768 19.8767 992.33 25.32 992.33 31.568V32.846C992.33 39.2833 991.052 44.632 988.496 48.892C985.94 53.152 982.39 56.6547 977.846 59.4C973.397 62.1453 968.238 64.4647 962.368 66.358L953.99 68.914C949.541 70.2393 945.944 71.7067 943.198 73.316C940.548 74.8307 938.56 76.6767 937.234 78.854C936.004 81.0313 935.388 83.824 935.388 87.232V88.652H991.478V102H920.336ZM1039.99 103.988C1028.44 103.988 1019.21 100.722 1012.3 94.19C1005.49 87.5633 1002.08 77.6233 1002.08 64.37V40.23C1002.08 27.2607 1005.49 17.4153 1012.3 10.694C1019.21 3.97266 1028.44 0.611993 1039.99 0.611993C1051.64 0.611993 1060.87 3.97266 1067.68 10.694C1074.59 17.4153 1078.05 27.2607 1078.05 40.23V64.37C1078.05 77.6233 1074.59 87.5633 1067.68 94.19C1060.87 100.722 1051.64 103.988 1039.99 103.988ZM1039.99 90.64C1047.85 90.64 1053.67 88.4153 1057.46 83.966C1061.25 79.422 1063.14 73.0793 1063.14 64.938V39.378C1063.14 31.2367 1061.1 24.9887 1057.03 20.634C1052.96 16.1847 1047.28 13.96 1039.99 13.96C1032.61 13.96 1026.93 16.232 1022.95 20.776C1018.98 25.2253 1016.99 31.426 1016.99 39.378V64.938C1016.99 73.2687 1018.88 79.6587 1022.67 84.108C1026.55 88.4627 1032.33 90.64 1039.99 90.64ZM1088.49 102V90.782C1088.49 83.8713 1089.67 78.1913 1092.04 73.742C1094.41 69.2927 1097.77 65.6953 1102.12 62.95C1106.57 60.11 1111.92 57.7433 1118.17 55.85L1126.83 53.152C1130.71 51.9213 1134.03 50.4067 1136.77 48.608C1139.61 46.8093 1141.79 44.5847 1143.3 41.934C1144.82 39.1887 1145.57 36.0173 1145.57 32.42V31.852C1145.57 26.2667 1143.68 21.912 1139.89 18.788C1136.11 15.5693 1131.14 13.96 1124.98 13.96C1118.64 13.96 1113.48 15.664 1109.51 19.072C1105.63 22.48 1103.68 27.4973 1103.68 34.124V36.396H1088.92V34.266C1088.92 27.0713 1090.48 21.0127 1093.6 16.09C1096.73 11.0727 1101.03 7.23866 1106.52 4.58799C1112.02 1.93733 1118.17 0.611993 1124.98 0.611993C1131.8 0.611993 1137.86 1.88999 1143.16 4.44599C1148.56 7.002 1152.77 10.5993 1155.8 15.238C1158.92 19.8767 1160.48 25.32 1160.48 31.568V32.846C1160.48 39.2833 1159.21 44.632 1156.65 48.892C1154.09 53.152 1150.54 56.6547 1146 59.4C1141.55 62.1453 1136.39 64.4647 1130.52 66.358L1122.14 68.914C1117.7 70.2393 1114.1 71.7067 1111.35 73.316C1108.7 74.8307 1106.71 76.6767 1105.39 78.854C1104.16 81.0313 1103.54 83.824 1103.54 87.232V88.652H1159.63V102H1088.49ZM1213.62 102V81.694H1163.35V64.37L1201.41 2.59999H1228.53V68.488H1245.29V81.694H1228.53V102H1213.62ZM1177.84 68.488H1213.62V11.972H1211.35L1177.84 66.5V68.488Z" fill="url(#paint0_linear_20_1319)"/>
<path d="M31.4019 102H30.4019V103H31.4019V102ZM31.4019 16.516H32.4019V15.516H31.4019V16.516ZM0.871899 16.516H-0.128101V17.516H0.871899V16.516ZM0.871899 2.59999V1.59999H-0.128101V2.59999H0.871899ZM77.2679 2.59999H78.2679V1.59999H77.2679V2.59999ZM77.2679 16.516V17.516H78.2679V16.516H77.2679ZM46.7379 16.516V15.516H45.7379V16.516H46.7379ZM46.7379 102V103H47.7379V102H46.7379ZM32.4019 102V16.516H30.4019V102H32.4019ZM31.4019 15.516H0.871899V17.516H31.4019V15.516ZM1.8719 16.516V2.59999H-0.128101V16.516H1.8719ZM0.871899 3.59999H77.2679V1.59999H0.871899V3.59999ZM76.2679 2.59999V16.516H78.2679V2.59999H76.2679ZM77.2679 15.516H46.7379V17.516H77.2679V15.516ZM45.7379 16.516V102H47.7379V16.516H45.7379ZM46.7379 101H31.4019V103H46.7379V101ZM87.0504 102H86.0504V103H87.0504V102ZM87.0504 2.59999V1.59999H86.0504V2.59999H87.0504ZM144.986 5.86599L144.561 6.77123L144.572 6.77641L144.584 6.78131L144.986 5.86599ZM155.92 14.954L155.079 15.4948L155.084 15.5018L155.088 15.5087L155.92 14.954ZM155.352 45.768L154.572 45.1433L154.57 45.1458L155.352 45.768ZM144.56 53.578L144.225 52.6358L143.56 52.8722V53.578H144.56ZM144.56 55.85H143.56V56.7988L144.508 56.8486L144.56 55.85ZM153.222 59.542L152.5 60.2339L152.508 60.2416L152.515 60.2491L153.222 59.542ZM156.488 102V103H157.488V102H156.488ZM141.01 102H140.01V103H141.01V102ZM102.386 62.808V61.808H101.386V62.808H102.386ZM102.386 102V103H103.386V102H102.386ZM102.386 48.892H101.386V49.892H102.386V48.892ZM139.874 44.774L140.546 45.515L140.552 45.5093L140.558 45.5035L139.874 44.774ZM139.874 20.776L139.179 21.4946L139.191 21.506L139.203 21.517L139.874 20.776ZM102.386 16.516V15.516H101.386V16.516H102.386ZM88.0504 102V2.59999H86.0504V102H88.0504ZM87.0504 3.59999H128.798V1.59999H87.0504V3.59999ZM128.798 3.59999C134.834 3.59999 140.08 4.66758 144.561 6.77123L145.411 4.96076C140.616 2.70974 135.07 1.59999 128.798 1.59999V3.59999ZM144.584 6.78131C149.155 8.79264 152.639 11.6994 155.079 15.4948L156.762 14.4132C154.089 10.2566 150.285 7.10469 145.389 4.95068L144.584 6.78131ZM155.088 15.5087C157.614 19.2969 158.896 23.8305 158.896 29.154H160.896C160.896 23.4962 159.528 18.563 156.752 14.3993L155.088 15.5087ZM158.896 29.154V30.716H160.896V29.154H158.896ZM158.896 30.716C158.896 36.8033 157.422 41.5796 154.572 45.1433L156.133 46.3927C159.341 42.383 160.896 37.1247 160.896 30.716H158.896ZM154.57 45.1458C151.746 48.6979 148.301 51.1866 144.225 52.6358L144.895 54.5202C149.339 52.9401 153.089 50.2221 156.135 46.3902L154.57 45.1458ZM143.56 53.578V55.85H145.56V53.578H143.56ZM144.508 56.8486C147.891 57.0267 150.525 58.1723 152.5 60.2339L153.944 58.8501C151.565 56.3677 148.425 55.052 144.613 54.8514L144.508 56.8486ZM152.515 60.2491C154.447 62.1804 155.488 65.0597 155.488 69.056H157.488C157.488 64.7216 156.353 61.2583 153.929 58.8349L152.515 60.2491ZM155.488 69.056V102H157.488V69.056H155.488ZM156.488 101H141.01V103H156.488V101ZM142.01 102V71.186H140.01V102H142.01ZM142.01 71.186C142.01 68.4551 141.299 66.1635 139.775 64.4215L138.27 65.7385C139.396 67.0259 140.01 68.8049 140.01 71.186H142.01ZM139.775 64.4215C138.186 62.6056 135.721 61.808 132.632 61.808V63.808C135.414 63.808 137.208 64.5251 138.27 65.7385L139.775 64.4215ZM132.632 61.808H102.386V63.808H132.632V61.808ZM101.386 62.808V102H103.386V62.808H101.386ZM102.386 101H87.0504V103H102.386V101ZM102.386 49.892H127.094V47.892H102.386V49.892ZM127.094 49.892C132.747 49.892 137.277 48.4772 140.546 45.515L139.203 44.033C136.413 46.5615 132.423 47.892 127.094 47.892V49.892ZM140.558 45.5035C143.823 42.4433 145.418 38.3273 145.418 33.272H143.418C143.418 37.8727 141.985 41.4247 139.19 44.0445L140.558 45.5035ZM145.418 33.272V32.136H143.418V33.272H145.418ZM145.418 32.136C145.418 27.0815 143.822 23.0044 140.546 20.035L139.203 21.517C141.985 24.0382 143.418 27.5345 143.418 32.136H145.418ZM140.57 20.0574C137.389 16.979 132.842 15.516 127.094 15.516V17.516C132.517 17.516 136.491 18.8929 139.179 21.4946L140.57 20.0574ZM127.094 15.516H102.386V17.516H127.094V15.516ZM101.386 16.516V48.892H103.386V16.516H101.386ZM165.269 102L164.308 101.725L163.943 103H165.269V102ZM193.669 2.59999V1.59999H192.915L192.708 2.32527L193.669 2.59999ZM220.649 2.59999L221.611 2.32654L221.404 1.59999H220.649V2.59999ZM248.907 102V103H250.231L249.869 101.727L248.907 102ZM233.145 102L232.182 102.269L232.386 103H233.145V102ZM226.613 78.57L227.576 78.3015L227.372 77.57H226.613V78.57ZM187.705 78.57V77.57H186.946L186.742 78.3015L187.705 78.57ZM181.173 102V103H181.932L182.136 102.269L181.173 102ZM191.539 64.37L190.575 64.1029L190.224 65.37H191.539V64.37ZM222.779 64.37V65.37H224.094L223.743 64.1029L222.779 64.37ZM208.295 12.114L209.259 11.8469L209.056 11.114H208.295V12.114ZM206.023 12.114V11.114H205.263L205.059 11.8469L206.023 12.114ZM166.231 102.275L194.631 2.87471L192.708 2.32527L164.308 101.725L166.231 102.275ZM193.669 3.59999H220.649V1.59999H193.669V3.59999ZM219.687 2.87344L247.945 102.273L249.869 101.727L221.611 2.32654L219.687 2.87344ZM248.907 101H233.145V103H248.907V101ZM234.108 101.731L227.576 78.3015L225.65 78.8385L232.182 102.269L234.108 101.731ZM226.613 77.57H187.705V79.57H226.613V77.57ZM186.742 78.3015L180.21 101.731L182.136 102.269L188.668 78.8385L186.742 78.3015ZM181.173 101H165.269V103H181.173V101ZM191.539 65.37H222.779V63.37H191.539V65.37ZM223.743 64.1029L209.259 11.8469L207.331 12.3811L221.815 64.6371L223.743 64.1029ZM208.295 11.114H206.023V13.114H208.295V11.114ZM205.059 11.8469L190.575 64.1029L192.503 64.6371L206.987 12.3811L205.059 11.8469ZM258.256 102H257.256V103H258.256V102ZM258.256 2.59999V1.59999H257.256V2.59999H258.256ZM287.792 2.59999L288.749 2.31041L288.534 1.59999H287.792V2.59999ZM314.772 91.776L313.815 92.0656L314.03 92.776H314.772V91.776ZM317.044 91.776V92.776H318.044V91.776H317.044ZM317.044 2.59999V1.59999H316.044V2.59999H317.044ZM332.238 2.59999H333.238V1.59999H332.238V2.59999ZM332.238 102V103H333.238V102H332.238ZM302.702 102L301.744 102.289L301.959 103H302.702V102ZM275.722 12.682L276.679 12.3928L276.464 11.682H275.722V12.682ZM273.45 12.682V11.682H272.45V12.682H273.45ZM273.45 102V103H274.45V102H273.45ZM259.256 102V2.59999H257.256V102H259.256ZM258.256 3.59999H287.792V1.59999H258.256V3.59999ZM286.835 2.88958L313.815 92.0656L315.729 91.4864L288.749 2.31041L286.835 2.88958ZM314.772 92.776H317.044V90.776H314.772V92.776ZM318.044 91.776V2.59999H316.044V91.776H318.044ZM317.044 3.59999H332.238V1.59999H317.044V3.59999ZM331.238 2.59999V102H333.238V2.59999H331.238ZM332.238 101H302.702V103H332.238V101ZM303.659 101.711L276.679 12.3928L274.764 12.9712L301.744 102.289L303.659 101.711ZM275.722 11.682H273.45V13.682H275.722V11.682ZM272.45 12.682V102H274.45V12.682H272.45ZM273.45 101H258.256V103H273.45V101ZM362.767 100.012L362.35 100.921L362.767 100.012ZM349.135 88.368L348.284 88.8938L348.29 88.9029L348.296 88.9119L349.135 88.368ZM344.307 65.932V64.932H343.307V65.932H344.307ZM359.501 65.932H360.501V64.932H359.501V65.932ZM365.749 85.244L365.105 86.0094L365.114 86.0164L365.749 85.244ZM398.693 86.096L399.325 86.8709L399.331 86.8659L399.337 86.8609L398.693 86.096ZM401.533 66.784L402.292 66.1332L401.533 66.784ZM394.291 62.098L393.924 63.0284L393.936 63.0333L393.949 63.0378L394.291 62.098ZM383.073 58.69L382.836 59.6617L382.84 59.6626L383.073 58.69ZM377.819 57.412L378.055 56.4403L378.051 56.4393L377.819 57.412ZM361.205 51.874L360.765 52.7721L360.776 52.7774L360.787 52.7825L361.205 51.874ZM350.839 13.676L350.021 13.1L350.017 13.1063L350.012 13.1127L350.839 13.676ZM362.909 4.01999L362.503 3.10618L362.909 4.01999ZM399.403 4.162L399.001 5.0778L399.007 5.08032L399.403 4.162ZM412.325 14.67L411.495 15.2286L412.325 14.67ZM417.011 37.248V38.248H418.011V37.248H417.011ZM401.817 37.248H400.817V38.248H401.817V37.248ZM399.119 21.77L398.277 22.3108L398.284 22.3212L398.291 22.3315L399.119 21.77ZM391.877 15.948L391.51 16.8784L391.877 15.948ZM366.743 17.936L367.339 18.7388L367.343 18.736L366.743 17.936ZM363.903 35.828L363.089 36.4092L363.105 36.4314L363.122 36.4527L363.903 35.828ZM370.435 40.514L370.832 39.5964L370.435 40.514ZM381.085 43.78L381.321 42.8083L381.311 42.806L381.302 42.8038L381.085 43.78ZM386.339 45.058L386.102 46.0297L386.113 46.0322L386.123 46.0345L386.339 45.058ZM403.379 50.596L402.96 51.504L402.967 51.5073L402.974 51.5105L403.379 50.596ZM415.023 59.542L415.823 58.942L415.023 59.542ZM414.739 89.788L413.912 89.2252L413.908 89.2313L413.904 89.2374L414.739 89.788ZM402.101 100.296L402.51 101.209L402.516 101.206L402.523 101.203L402.101 100.296ZM382.647 102.988C375.287 102.988 368.807 101.684 363.184 99.1032L362.35 100.921C368.276 103.641 375.049 104.988 382.647 104.988V102.988ZM363.184 99.1032C357.574 96.5281 353.179 92.7698 349.974 87.8241L348.296 88.9119C351.717 94.1902 356.41 98.1946 362.35 100.921L363.184 99.1032ZM349.985 87.8422C346.883 82.8234 345.307 76.7188 345.307 69.482H343.307C343.307 77.0132 344.949 83.4993 348.284 88.8938L349.985 87.8422ZM345.307 69.482V65.932H343.307V69.482H345.307ZM344.307 66.932H359.501V64.932H344.307V66.932ZM358.501 65.932V69.482H360.501V65.932H358.501ZM358.501 69.482C358.501 76.6913 360.652 82.2649 365.105 86.0094L366.392 84.4786C362.514 81.2178 360.501 76.2833 360.501 69.482H358.501ZM365.114 86.0164C369.596 89.7023 375.474 91.498 382.647 91.498V89.498C375.809 89.498 370.421 87.7911 366.384 84.4716L365.114 86.0164ZM382.647 91.498C389.861 91.498 395.476 90.0107 399.325 86.8709L398.061 85.3211C394.715 88.0506 389.633 89.498 382.647 89.498V91.498ZM399.337 86.8609C403.161 83.6402 405.089 79.4781 405.089 74.452H403.089C403.089 78.8926 401.419 82.4932 398.049 85.3311L399.337 86.8609ZM405.089 74.452C405.089 71.1376 404.18 68.336 402.292 66.1332L400.773 67.4348C402.293 69.208 403.089 71.5184 403.089 74.452H405.089ZM402.292 66.1332C400.45 63.9839 397.875 62.3375 394.632 61.1582L393.949 63.0378C396.954 64.1305 399.208 65.6081 400.773 67.4348L402.292 66.1332ZM394.657 61.1676C391.478 59.9152 387.691 58.7663 383.305 57.7174L382.84 59.6626C387.163 60.6964 390.855 61.8195 393.924 63.0284L394.657 61.1676ZM383.309 57.7183L378.055 56.4403L377.582 58.3837L382.836 59.6617L383.309 57.7183ZM378.051 56.4393C371.757 54.9363 366.284 53.1096 361.623 50.9655L360.787 52.7825C365.592 54.9931 371.195 56.8584 377.586 58.3847L378.051 56.4393ZM361.645 50.9759C357.136 48.7677 353.68 45.8904 351.235 42.3588L349.59 43.4972C352.258 47.3496 355.996 50.4363 360.765 52.7721L361.645 50.9759ZM351.235 42.3588C348.824 38.8761 347.579 34.3572 347.579 28.728H345.579C345.579 34.6481 346.89 39.5959 349.59 43.4972L351.235 42.3588ZM347.579 28.728C347.579 23.0257 348.956 18.2127 351.665 14.2393L350.012 13.1127C347.042 17.47 345.579 22.6916 345.579 28.728H347.579ZM351.656 14.2519C354.477 10.2486 358.351 7.13983 363.315 4.9338L362.503 3.10618C357.242 5.44416 353.07 8.77277 350.021 13.1L351.656 14.2519ZM363.315 4.9338C368.273 2.73035 374.14 1.61199 380.943 1.61199V-0.388008C373.924 -0.388008 367.769 0.76564 362.503 3.10618L363.315 4.9338ZM380.943 1.61199C387.739 1.61199 393.752 2.77542 399.001 5.07779L399.804 3.24621C394.262 0.815239 387.968 -0.388008 380.943 -0.388008V1.61199ZM399.007 5.08032C404.334 7.3766 408.486 10.76 411.495 15.2286L413.154 14.1114C409.916 9.30263 405.452 5.68073 399.799 3.24368L399.007 5.08032ZM411.495 15.2286C414.483 19.6648 416.011 25.2793 416.011 32.136H418.011C418.011 24.982 416.414 18.9525 413.154 14.1114L411.495 15.2286ZM416.011 32.136V37.248H418.011V32.136H416.011ZM417.011 36.248H401.817V38.248H417.011V36.248ZM402.817 37.248V32.136H400.817V37.248H402.817ZM402.817 32.136C402.817 27.7407 401.889 24.0715 399.946 21.2085L398.291 22.3315C399.946 24.7699 400.817 28.0113 400.817 32.136H402.817ZM399.96 21.2292C398.135 18.3902 395.549 16.3198 392.243 15.0176L391.51 16.8784C394.453 18.0375 396.695 19.8484 398.277 22.3108L399.96 21.2292ZM392.243 15.0176C388.978 13.7313 385.204 13.102 380.943 13.102V15.102C385.012 15.102 388.527 15.7033 391.51 16.8784L392.243 15.0176ZM380.943 13.102C374.756 13.102 369.783 14.4055 366.143 17.136L367.343 18.736C370.518 16.3545 375.012 15.102 380.943 15.102V13.102ZM366.146 17.1333C362.557 19.7997 360.773 23.565 360.773 28.302H362.773C362.773 24.1404 364.302 20.9949 367.339 18.7387L366.146 17.1333ZM360.773 28.302C360.773 31.4891 361.521 34.2146 363.089 36.4092L364.716 35.2468C363.444 33.4654 362.773 31.1735 362.773 28.302H360.773ZM363.122 36.4527C364.763 38.5039 367.088 40.1535 370.037 41.4315L370.832 39.5964C368.102 38.4132 366.072 36.9388 364.684 35.2033L363.122 36.4527ZM370.037 41.4315C372.954 42.6954 376.569 43.8009 380.868 44.7562L381.302 42.8038C377.081 41.8658 373.596 40.794 370.832 39.5964L370.037 41.4315ZM380.848 44.7517L386.102 46.0297L386.575 44.0863L381.321 42.8083L380.848 44.7517ZM386.123 46.0345C392.505 47.4422 398.114 49.2677 402.96 51.504L403.798 49.688C398.798 47.3803 393.047 45.5138 386.554 44.0815L386.123 46.0345ZM402.974 51.5105C407.762 53.6283 411.499 56.5102 414.223 60.142L415.823 58.942C412.867 55.0005 408.841 51.9184 403.783 49.6815L402.974 51.5105ZM414.223 60.142C416.902 63.715 418.283 68.3634 418.283 74.168H420.283C420.283 68.0446 418.823 62.9424 415.823 58.942L414.223 60.142ZM418.283 74.168C418.283 79.9538 416.816 84.9595 413.912 89.2252L415.565 90.3508C418.72 85.7178 420.283 80.3102 420.283 74.168H418.283ZM413.904 89.2374C411.085 93.5119 407.025 96.9007 401.679 99.3894L402.523 101.203C408.158 98.5793 412.523 94.9628 415.573 90.3386L413.904 89.2374ZM401.692 99.3835C396.357 101.775 390.018 102.988 382.647 102.988V104.988C390.233 104.988 396.863 103.74 402.51 101.209L401.692 99.3835ZM431.264 102H430.264V103H431.264V102ZM431.264 2.59999V1.59999H430.264V2.59999H431.264ZM492.608 2.59999H493.608V1.59999H492.608V2.59999ZM492.608 16.516V17.516H493.608V16.516H492.608ZM446.6 16.516V15.516H445.6V16.516H446.6ZM446.6 45.2H445.6V46.2H446.6V45.2ZM488.916 45.2H489.916V44.2H488.916V45.2ZM488.916 59.116V60.116H489.916V59.116H488.916ZM446.6 59.116V58.116H445.6V59.116H446.6ZM446.6 102V103H447.6V102H446.6ZM432.264 102V2.59999H430.264V102H432.264ZM431.264 3.59999H492.608V1.59999H431.264V3.59999ZM491.608 2.59999V16.516H493.608V2.59999H491.608ZM492.608 15.516H446.6V17.516H492.608V15.516ZM445.6 16.516V45.2H447.6V16.516H445.6ZM446.6 46.2H488.916V44.2H446.6V46.2ZM487.916 45.2V59.116H489.916V45.2H487.916ZM488.916 58.116H446.6V60.116H488.916V58.116ZM445.6 59.116V102H447.6V59.116H445.6ZM446.6 101H431.264V103H446.6V101ZM503.415 102H502.415V103H503.415V102ZM503.415 2.59999V1.59999H502.415V2.59999H503.415ZM518.751 2.59999H519.751V1.59999H518.751V2.59999ZM518.751 102V103H519.751V102H518.751ZM504.415 102V2.59999H502.415V102H504.415ZM503.415 3.59999H518.751V1.59999H503.415V3.59999ZM517.751 2.59999V102H519.751V2.59999H517.751ZM518.751 101H503.415V103H518.751V101ZM535.352 102H534.352V103H535.352V102ZM535.352 2.59999V1.59999H534.352V2.59999H535.352ZM564.888 2.59999L565.845 2.31041L565.63 1.59999H564.888V2.59999ZM591.868 91.776L590.911 92.0656L591.126 92.776H591.868V91.776ZM594.14 91.776V92.776H595.14V91.776H594.14ZM594.14 2.59999V1.59999H593.14V2.59999H594.14ZM609.334 2.59999H610.334V1.59999H609.334V2.59999ZM609.334 102V103H610.334V102H609.334ZM579.798 102L578.841 102.289L579.056 103H579.798V102ZM552.818 12.682L553.775 12.3928L553.561 11.682H552.818V12.682ZM550.546 12.682V11.682H549.546V12.682H550.546ZM550.546 102V103H551.546V102H550.546ZM536.352 102V2.59999H534.352V102H536.352ZM535.352 3.59999H564.888V1.59999H535.352V3.59999ZM563.931 2.88958L590.911 92.0656L592.825 91.4864L565.845 2.31041L563.931 2.88958ZM591.868 92.776H594.14V90.776H591.868V92.776ZM595.14 91.776V2.59999H593.14V91.776H595.14ZM594.14 3.59999H609.334V1.59999H594.14V3.59999ZM608.334 2.59999V102H610.334V2.59999H608.334ZM609.334 101H579.798V103H609.334V101ZM580.755 101.711L553.775 12.3928L551.861 12.9712L578.841 102.289L580.755 101.711ZM552.818 11.682H550.546V13.682H552.818V11.682ZM549.546 12.682V102H551.546V12.682H549.546ZM550.546 101H535.352V103H550.546V101ZM625.947 102H624.947V103H625.947V102ZM625.947 2.59999V1.59999H624.947V2.59999H625.947ZM641.283 2.59999H642.283V1.59999H641.283V2.59999ZM641.283 102V103H642.283V102H641.283ZM626.947 102V2.59999H624.947V102H626.947ZM625.947 3.59999H641.283V1.59999H625.947V3.59999ZM640.283 2.59999V102H642.283V2.59999H640.283ZM641.283 101H625.947V103H641.283V101ZM681.598 102H680.598V103H681.598V102ZM681.598 16.516H682.598V15.516H681.598V16.516ZM651.068 16.516H650.068V17.516H651.068V16.516ZM651.068 2.59999V1.59999H650.068V2.59999H651.068ZM727.464 2.59999H728.464V1.59999H727.464V2.59999ZM727.464 16.516V17.516H728.464V16.516H727.464ZM696.934 16.516V15.516H695.934V16.516H696.934ZM696.934 102V103H697.934V102H696.934ZM682.598 102V16.516H680.598V102H682.598ZM681.598 15.516H651.068V17.516H681.598V15.516ZM652.068 16.516V2.59999H650.068V16.516H652.068ZM651.068 3.59999H727.464V1.59999H651.068V3.59999ZM726.464 2.59999V16.516H728.464V2.59999H726.464ZM727.464 15.516H696.934V17.516H727.464V15.516ZM695.934 16.516V102H697.934V16.516H695.934ZM696.934 101H681.598V103H696.934V101ZM760.96 102H759.96V103H760.96V102ZM760.96 16.516H761.96V15.516H760.96V16.516ZM730.43 16.516H729.43V17.516H730.43V16.516ZM730.43 2.59999V1.59999H729.43V2.59999H730.43ZM806.826 2.59999H807.826V1.59999H806.826V2.59999ZM806.826 16.516V17.516H807.826V16.516H806.826ZM776.296 16.516V15.516H775.296V16.516H776.296ZM776.296 102V103H777.296V102H776.296ZM761.96 102V16.516H759.96V102H761.96ZM760.96 15.516H730.43V17.516H760.96V15.516ZM731.43 16.516V2.59999H729.43V16.516H731.43ZM730.43 3.59999H806.826V1.59999H730.43V3.59999ZM805.826 2.59999V16.516H807.826V2.59999H805.826ZM806.826 15.516H776.296V17.516H806.826V15.516ZM775.296 16.516V102H777.296V16.516H775.296ZM776.296 101H760.96V103H776.296V101ZM816.609 102H815.609V103H816.609V102ZM816.609 2.59999V1.59999H815.609V2.59999H816.609ZM879.231 2.59999H880.231V1.59999H879.231V2.59999ZM879.231 16.516V17.516H880.231V16.516H879.231ZM831.945 16.516V15.516H830.945V16.516H831.945ZM831.945 45.058H830.945V46.058H831.945V45.058ZM875.255 45.058H876.255V44.058H875.255V45.058ZM875.255 58.974V59.974H876.255V58.974H875.255ZM831.945 58.974V57.974H830.945V58.974H831.945ZM831.945 88.084H830.945V89.084H831.945V88.084ZM879.941 88.084H880.941V87.084H879.941V88.084ZM879.941 102V103H880.941V102H879.941ZM817.609 102V2.59999H815.609V102H817.609ZM816.609 3.59999H879.231V1.59999H816.609V3.59999ZM878.231 2.59999V16.516H880.231V2.59999H878.231ZM879.231 15.516H831.945V17.516H879.231V15.516ZM830.945 16.516V45.058H832.945V16.516H830.945ZM831.945 46.058H875.255V44.058H831.945V46.058ZM874.255 45.058V58.974H876.255V45.058H874.255ZM875.255 57.974H831.945V59.974H875.255V57.974ZM830.945 58.974V88.084H832.945V58.974H830.945ZM831.945 89.084H879.941V87.084H831.945V89.084ZM878.941 88.084V102H880.941V88.084H878.941ZM879.941 101H816.609V103H879.941V101ZM920.336 102H919.336V103H920.336V102ZM923.886 73.742L923.003 73.2724L923.886 73.742ZM933.968 62.95L934.502 63.7959L934.506 63.7929L933.968 62.95ZM950.014 55.85L950.304 56.8071L950.312 56.8048L950.014 55.85ZM958.676 53.152L958.974 54.1068L958.979 54.1052L958.676 53.152ZM968.616 48.608L968.081 47.7632L968.075 47.7673L968.068 47.7715L968.616 48.608ZM975.148 41.934L976.017 42.4301L976.02 42.4236L976.024 42.4171L975.148 41.934ZM971.74 18.788L971.093 19.5499L971.098 19.5547L971.104 19.5594L971.74 18.788ZM941.352 19.072L940.701 18.3127L940.693 18.3206L941.352 19.072ZM935.53 36.396V37.396H936.53V36.396H935.53ZM920.762 36.396H919.762V37.396H920.762V36.396ZM925.448 16.09L926.293 16.6258L926.297 16.6186L925.448 16.09ZM938.37 4.58799L938.805 5.48854L938.37 4.58799ZM975.006 4.446L974.572 5.34679L974.578 5.34973L975.006 4.446ZM987.644 15.238L986.807 15.7848L986.811 15.7907L986.815 15.7966L987.644 15.238ZM988.496 48.892L987.639 48.3775L988.496 48.892ZM977.846 59.4L977.329 58.544L977.321 58.549L977.846 59.4ZM962.368 66.358L962.66 67.3145L962.668 67.3121L962.675 67.3097L962.368 66.358ZM953.99 68.914L954.276 69.8724L954.282 69.8705L953.99 68.914ZM943.198 73.316L943.695 74.1843L943.704 74.1787L943.198 73.316ZM937.234 78.854L936.38 78.3341L936.372 78.3479L936.364 78.3619L937.234 78.854ZM935.388 88.652H934.388V89.652H935.388V88.652ZM991.478 88.652H992.478V87.652H991.478V88.652ZM991.478 102V103H992.478V102H991.478ZM921.336 102V90.782H919.336V102H921.336ZM921.336 90.782C921.336 83.9773 922.503 78.4727 924.769 74.2116L923.003 73.2724C920.537 77.9099 919.336 83.7654 919.336 90.782H921.336ZM924.769 74.2116C927.052 69.9194 930.291 66.4505 934.502 63.7959L933.435 62.1041C928.936 64.9402 925.454 68.6659 923.003 73.2724L924.769 74.2116ZM934.506 63.7929C938.863 61.0121 944.124 58.6798 950.304 56.807L949.724 54.893C943.409 56.8068 937.972 59.2079 933.43 62.1071L934.506 63.7929ZM950.312 56.8048L958.974 54.1068L958.379 52.1972L949.717 54.8952L950.312 56.8048ZM958.979 54.1052C962.927 52.8533 966.327 51.3034 969.164 49.4445L968.068 47.7715C965.415 49.51 962.188 50.9893 958.374 52.1988L958.979 54.1052ZM969.151 49.4528C972.115 47.5759 974.413 45.2364 976.017 42.4301L974.28 41.4379C972.854 43.9329 970.798 46.0428 968.081 47.7632L969.151 49.4528ZM976.024 42.4171C977.632 39.5032 978.42 36.1611 978.42 32.42H976.42C976.42 35.8735 975.694 38.8741 974.273 41.4509L976.024 42.4171ZM978.42 32.42V31.852H976.42V32.42H978.42ZM978.42 31.852C978.42 26.0144 976.427 21.3582 972.377 18.0166L971.104 19.5594C974.627 22.4658 976.42 26.519 976.42 31.852H978.42ZM972.388 18.0261C968.38 14.6197 963.162 12.96 956.83 12.96V14.96C962.805 14.96 967.527 16.519 971.093 19.5499L972.388 18.0261ZM956.83 12.96C950.302 12.96 944.895 14.7183 940.702 18.3127L942.003 19.8312C945.762 16.6097 950.674 14.96 956.83 14.96V12.96ZM940.693 18.3206C936.537 21.9692 934.53 27.2966 934.53 34.124H936.53C936.53 27.698 938.405 22.9908 942.012 19.8234L940.693 18.3206ZM934.53 34.124V36.396H936.53V34.124H934.53ZM935.53 35.396H920.762V37.396H935.53V35.396ZM921.762 36.396V34.266H919.762V36.396H921.762ZM921.762 34.266C921.762 27.2166 923.292 21.3545 926.293 16.6258L924.604 15.5542C921.357 20.6709 919.762 26.926 919.762 34.266H921.762ZM926.297 16.6186C929.318 11.7672 933.479 8.05965 938.805 5.48854L937.936 3.68744C932.28 6.41767 927.827 10.3781 924.599 15.5614L926.297 16.6186ZM938.805 5.48854C944.145 2.91069 950.147 1.61199 956.83 1.61199V-0.388008C949.882 -0.388008 943.577 0.963959 937.936 3.68744L938.805 5.48854ZM956.83 1.61199C963.52 1.61199 969.426 2.86565 974.572 5.34676L975.441 3.54523C969.984 0.914333 963.773 -0.388008 956.83 -0.388008V1.61199ZM974.578 5.34973C979.821 7.83314 983.886 11.3126 986.807 15.7848L988.482 14.6912C985.344 9.88609 980.984 6.17085 975.434 3.54226L974.578 5.34973ZM986.815 15.7966C989.815 20.2512 991.33 25.4948 991.33 31.568H993.33C993.33 25.1452 991.722 19.5021 988.474 14.6794L986.815 15.7966ZM991.33 31.568V32.846H993.33V31.568H991.33ZM991.33 32.846C991.33 39.1546 990.078 44.3125 987.639 48.3775L989.354 49.4065C992.027 44.9515 993.33 39.4121 993.33 32.846H991.33ZM987.639 48.3775C985.172 52.4881 981.743 55.8771 977.329 58.5441L978.363 60.2559C983.037 57.4322 986.708 53.8159 989.354 49.4065L987.639 48.3775ZM977.321 58.549C972.951 61.2454 967.867 63.5333 962.061 65.4063L962.675 67.3097C968.608 65.396 973.843 63.0453 978.371 60.251L977.321 58.549ZM962.077 65.4015L953.699 67.9575L954.282 69.8705L962.66 67.3145L962.077 65.4015ZM953.705 67.9556C949.21 69.2944 945.531 70.7894 942.693 72.4533L943.704 74.1787C946.356 72.6239 949.872 71.1842 954.276 69.8724L953.705 67.9556ZM942.702 72.4478C939.934 74.0298 937.809 75.9861 936.38 78.3341L938.089 79.3739C939.31 77.3672 941.162 75.6315 943.694 74.1842L942.702 72.4478ZM936.364 78.3619C935.023 80.7341 934.388 83.7114 934.388 87.232H936.388C936.388 83.9366 936.984 81.3286 938.105 79.3461L936.364 78.3619ZM934.388 87.232V88.652H936.388V87.232H934.388ZM935.388 89.652H991.478V87.652H935.388V89.652ZM990.478 88.652V102H992.478V88.652H990.478ZM991.478 101H920.336V103H991.478V101ZM1012.3 94.19L1011.61 94.9071L1011.62 94.9167L1012.3 94.19ZM1012.3 10.694L1011.61 9.97712L1011.6 9.98196L1012.3 10.694ZM1067.68 10.694L1066.98 11.4061L1066.99 11.4109L1067.68 10.694ZM1067.68 94.19L1068.38 94.912L1068.38 94.9118L1067.68 94.19ZM1057.46 83.966L1058.22 84.6142L1058.23 84.6062L1057.46 83.966ZM1057.03 20.634L1056.3 21.3091L1056.3 21.3169L1057.03 20.634ZM1022.95 20.776L1023.7 21.4424L1023.71 21.4345L1022.95 20.776ZM1022.67 84.108L1021.91 84.7561L1021.92 84.7648L1021.92 84.7734L1022.67 84.108ZM1039.99 102.988C1028.64 102.988 1019.68 99.7836 1012.99 93.4633L1011.62 94.9167C1018.75 101.66 1028.25 104.988 1039.99 104.988V102.988ZM1013 93.473C1006.44 87.0989 1003.08 77.4619 1003.08 64.37H1001.08C1001.08 77.7847 1004.53 88.0278 1011.61 94.907L1013 93.473ZM1003.08 64.37V40.23H1001.08V64.37H1003.08ZM1003.08 40.23C1003.08 27.4305 1006.44 17.8804 1013.01 11.406L1011.6 9.98196C1004.53 16.9503 1001.08 27.0908 1001.08 40.23H1003.08ZM1013 11.4109C1019.69 4.90612 1028.65 1.61199 1039.99 1.61199V-0.388008C1028.24 -0.388008 1018.74 3.03921 1011.61 9.97714L1013 11.4109ZM1039.99 1.61199C1051.44 1.61199 1060.39 4.90772 1066.98 11.406L1068.39 9.98196C1061.34 3.0376 1051.84 -0.388008 1039.99 -0.388008V1.61199ZM1066.99 11.4109C1073.64 17.8859 1077.05 27.4342 1077.05 40.23H1079.05C1079.05 27.0871 1075.54 16.9448 1068.38 9.97714L1066.99 11.4109ZM1077.05 40.23V64.37H1079.05V40.23H1077.05ZM1077.05 64.37C1077.05 77.4583 1073.64 87.0934 1066.99 93.4682L1068.38 94.9118C1075.55 88.0332 1079.05 77.7884 1079.05 64.37H1077.05ZM1066.99 93.468C1060.4 99.7821 1051.44 102.988 1039.99 102.988V104.988C1051.83 104.988 1061.33 101.662 1068.38 94.912L1066.99 93.468ZM1039.99 91.64C1048.04 91.64 1054.18 89.357 1058.22 84.6141L1056.7 83.3179C1053.16 87.4737 1047.66 89.64 1039.99 89.64V91.64ZM1058.23 84.6062C1062.21 79.825 1064.14 73.2257 1064.14 64.938H1062.14C1062.14 72.933 1060.28 79.019 1056.69 83.3258L1058.23 84.6062ZM1064.14 64.938V39.378H1062.14V64.938H1064.14ZM1064.14 39.378C1064.14 31.0771 1062.06 24.5499 1057.76 19.9511L1056.3 21.3169C1060.15 25.4275 1062.14 31.3962 1062.14 39.378H1064.14ZM1057.77 19.959C1053.47 15.26 1047.5 12.96 1039.99 12.96V14.96C1047.07 14.96 1052.45 17.1093 1056.3 21.309L1057.77 19.959ZM1039.99 12.96C1032.39 12.96 1026.41 15.3089 1022.2 20.1175L1023.71 21.4345C1027.45 17.1551 1032.83 14.96 1039.99 14.96V12.96ZM1022.21 20.1097C1018.02 24.796 1015.99 31.2633 1015.99 39.378H1017.99C1017.99 31.5887 1019.93 25.6546 1023.7 21.4423L1022.21 20.1097ZM1015.99 39.378V64.938H1017.99V39.378H1015.99ZM1015.99 64.938C1015.99 73.4066 1017.91 80.0623 1021.91 84.7561L1023.43 83.4599C1019.85 79.255 1017.99 73.1308 1017.99 64.938H1015.99ZM1021.92 84.7734C1026.05 89.4027 1032.14 91.64 1039.99 91.64V89.64C1032.52 89.64 1027.05 87.5226 1023.42 83.4426L1021.92 84.7734ZM1088.49 102H1087.49V103H1088.49V102ZM1092.04 73.742L1091.16 73.2724L1092.04 73.742ZM1102.12 62.95L1102.66 63.7959L1102.66 63.7929L1102.12 62.95ZM1118.17 55.85L1118.46 56.8071L1118.47 56.8048L1118.17 55.85ZM1126.83 53.152L1127.13 54.1068L1127.13 54.1052L1126.83 53.152ZM1136.77 48.608L1136.24 47.7632L1136.23 47.7673L1136.22 47.7715L1136.77 48.608ZM1143.3 41.934L1144.17 42.4301L1144.17 42.4236L1144.18 42.4171L1143.3 41.934ZM1139.89 18.788L1139.25 19.5499L1139.25 19.5547L1139.26 19.5594L1139.89 18.788ZM1109.51 19.072L1108.86 18.3127L1108.85 18.3206L1109.51 19.072ZM1103.68 36.396V37.396H1104.68V36.396H1103.68ZM1088.92 36.396H1087.92V37.396H1088.92V36.396ZM1093.6 16.09L1094.45 16.6258L1094.45 16.6186L1093.6 16.09ZM1106.52 4.58799L1106.96 5.48854L1106.52 4.58799ZM1143.16 4.446L1142.73 5.34679L1142.73 5.34973L1143.16 4.446ZM1155.8 15.238L1154.96 15.7848L1154.97 15.7907L1154.97 15.7966L1155.8 15.238ZM1156.65 48.892L1155.79 48.3775L1156.65 48.892ZM1146 59.4L1145.48 58.544L1145.48 58.549L1146 59.4ZM1130.52 66.358L1130.81 67.3145L1130.82 67.3121L1130.83 67.3097L1130.52 66.358ZM1122.14 68.914L1122.43 69.8724L1122.44 69.8705L1122.14 68.914ZM1111.35 73.316L1111.85 74.1843L1111.86 74.1787L1111.35 73.316ZM1105.39 78.854L1104.53 78.3341L1104.53 78.3479L1104.52 78.3619L1105.39 78.854ZM1103.54 88.652H1102.54V89.652H1103.54V88.652ZM1159.63 88.652H1160.63V87.652H1159.63V88.652ZM1159.63 102V103H1160.63V102H1159.63ZM1089.49 102V90.782H1087.49V102H1089.49ZM1089.49 90.782C1089.49 83.9773 1090.66 78.4727 1092.92 74.2116L1091.16 73.2724C1088.69 77.9099 1087.49 83.7654 1087.49 90.782H1089.49ZM1092.92 74.2116C1095.21 69.9194 1098.45 66.4505 1102.66 63.7959L1101.59 62.1041C1097.09 64.9402 1093.61 68.6659 1091.16 73.2724L1092.92 74.2116ZM1102.66 63.7929C1107.02 61.0121 1112.28 58.6798 1118.46 56.807L1117.88 54.893C1111.56 56.8068 1106.13 59.2079 1101.58 62.1071L1102.66 63.7929ZM1118.47 56.8048L1127.13 54.1068L1126.53 52.1972L1117.87 54.8952L1118.47 56.8048ZM1127.13 54.1052C1131.08 52.8533 1134.48 51.3034 1137.32 49.4445L1136.22 47.7715C1133.57 49.51 1130.34 50.9893 1126.53 52.1988L1127.13 54.1052ZM1137.31 49.4528C1140.27 47.5759 1142.57 45.2364 1144.17 42.4301L1142.43 41.4379C1141.01 43.9329 1138.95 46.0428 1136.24 47.7632L1137.31 49.4528ZM1144.18 42.4171C1145.79 39.5032 1146.57 36.1611 1146.57 32.42H1144.57C1144.57 35.8735 1143.85 38.8741 1142.43 41.4509L1144.18 42.4171ZM1146.57 32.42V31.852H1144.57V32.42H1146.57ZM1146.57 31.852C1146.57 26.0144 1144.58 21.3582 1140.53 18.0166L1139.26 19.5594C1142.78 22.4658 1144.57 26.519 1144.57 31.852H1146.57ZM1140.54 18.0261C1136.54 14.6197 1131.32 12.96 1124.98 12.96V14.96C1130.96 14.96 1135.68 16.519 1139.25 19.5499L1140.54 18.0261ZM1124.98 12.96C1118.46 12.96 1113.05 14.7183 1108.86 18.3127L1110.16 19.8312C1113.92 16.6097 1118.83 14.96 1124.98 14.96V12.96ZM1108.85 18.3206C1104.69 21.9692 1102.68 27.2966 1102.68 34.124H1104.68C1104.68 27.698 1106.56 22.9908 1110.17 19.8234L1108.85 18.3206ZM1102.68 34.124V36.396H1104.68V34.124H1102.68ZM1103.68 35.396H1088.92V37.396H1103.68V35.396ZM1089.92 36.396V34.266H1087.92V36.396H1089.92ZM1089.92 34.266C1089.92 27.2166 1091.45 21.3545 1094.45 16.6258L1092.76 15.5542C1089.51 20.6709 1087.92 26.926 1087.92 34.266H1089.92ZM1094.45 16.6186C1097.47 11.7672 1101.63 8.05965 1106.96 5.48854L1106.09 3.68744C1100.43 6.41767 1095.98 10.3781 1092.75 15.5614L1094.45 16.6186ZM1106.96 5.48854C1112.3 2.91069 1118.3 1.61199 1124.98 1.61199V-0.388008C1118.04 -0.388008 1111.73 0.963959 1106.09 3.68744L1106.96 5.48854ZM1124.98 1.61199C1131.67 1.61199 1137.58 2.86565 1142.73 5.34676L1143.6 3.54523C1138.14 0.914333 1131.93 -0.388008 1124.98 -0.388008V1.61199ZM1142.73 5.34973C1147.98 7.83314 1152.04 11.3126 1154.96 15.7848L1156.64 14.6912C1153.5 9.88609 1149.14 6.17085 1143.59 3.54226L1142.73 5.34973ZM1154.97 15.7966C1157.97 20.2512 1159.48 25.4948 1159.48 31.568H1161.48C1161.48 25.1452 1159.88 19.5021 1156.63 14.6794L1154.97 15.7966ZM1159.48 31.568V32.846H1161.48V31.568H1159.48ZM1159.48 32.846C1159.48 39.1546 1158.23 44.3125 1155.79 48.3775L1157.51 49.4065C1160.18 44.9515 1161.48 39.4121 1161.48 32.846H1159.48ZM1155.79 48.3775C1153.33 52.4881 1149.9 55.8771 1145.48 58.5441L1146.52 60.2559C1151.19 57.4322 1154.86 53.8159 1157.51 49.4065L1155.79 48.3775ZM1145.48 58.549C1141.11 61.2454 1136.02 63.5333 1130.22 65.4063L1130.83 67.3097C1136.76 65.396 1142 63.0453 1146.53 60.251L1145.48 58.549ZM1130.23 65.4015L1121.85 67.9575L1122.44 69.8705L1130.81 67.3145L1130.23 65.4015ZM1121.86 67.9556C1117.36 69.2944 1113.69 70.7894 1110.85 72.4533L1111.86 74.1787C1114.51 72.6239 1118.03 71.1842 1122.43 69.8724L1121.86 67.9556ZM1110.86 72.4478C1108.09 74.0298 1105.96 75.9861 1104.53 78.3341L1106.24 79.3739C1107.46 77.3672 1109.32 75.6315 1111.85 74.1842L1110.86 72.4478ZM1104.52 78.3619C1103.18 80.7341 1102.54 83.7114 1102.54 87.232H1104.54C1104.54 83.9366 1105.14 81.3286 1106.26 79.3461L1104.52 78.3619ZM1102.54 87.232V88.652H1104.54V87.232H1102.54ZM1103.54 89.652H1159.63V87.652H1103.54V89.652ZM1158.63 88.652V102H1160.63V88.652H1158.63ZM1159.63 101H1088.49V103H1159.63V101ZM1213.62 102H1212.62V103H1213.62V102ZM1213.62 81.694H1214.62V80.694H1213.62V81.694ZM1163.35 81.694H1162.35V82.694H1163.35V81.694ZM1163.35 64.37L1162.5 63.8455L1162.35 64.0867V64.37H1163.35ZM1201.41 2.59999V1.59999H1200.85L1200.56 2.07546L1201.41 2.59999ZM1228.53 2.59999H1229.53V1.59999H1228.53V2.59999ZM1228.53 68.488H1227.53V69.488H1228.53V68.488ZM1245.29 68.488H1246.29V67.488H1245.29V68.488ZM1245.29 81.694V82.694H1246.29V81.694H1245.29ZM1228.53 81.694V80.694H1227.53V81.694H1228.53ZM1228.53 102V103H1229.53V102H1228.53ZM1177.84 68.488H1176.84V69.488H1177.84V68.488ZM1213.62 68.488V69.488H1214.62V68.488H1213.62ZM1213.62 11.972H1214.62V10.972H1213.62V11.972ZM1211.35 11.972V10.972H1210.79L1210.5 11.4484L1211.35 11.972ZM1177.84 66.5L1176.98 65.9764L1176.84 66.2173V66.5H1177.84ZM1214.62 102V81.694H1212.62V102H1214.62ZM1213.62 80.694H1163.35V82.694H1213.62V80.694ZM1164.35 81.694V64.37H1162.35V81.694H1164.35ZM1164.2 64.8945L1202.26 3.12453L1200.56 2.07546L1162.5 63.8455L1164.2 64.8945ZM1201.41 3.59999H1228.53V1.59999H1201.41V3.59999ZM1227.53 2.59999V68.488H1229.53V2.59999H1227.53ZM1228.53 69.488H1245.29V67.488H1228.53V69.488ZM1244.29 68.488V81.694H1246.29V68.488H1244.29ZM1245.29 80.694H1228.53V82.694H1245.29V80.694ZM1227.53 81.694V102H1229.53V81.694H1227.53ZM1228.53 101H1213.62V103H1228.53V101ZM1177.84 69.488H1213.62V67.488H1177.84V69.488ZM1214.62 68.488V11.972H1212.62V68.488H1214.62ZM1213.62 10.972H1211.35V12.972H1213.62V10.972ZM1210.5 11.4484L1176.98 65.9764L1178.69 67.0236L1212.2 12.4956L1210.5 11.4484ZM1176.84 66.5V68.488H1178.84V66.5H1176.84Z" fill="url(#paint1_linear_20_1319)" fill-opacity="0.5" mask="url(#path-1-outside-1_20_1319)"/>
<defs>
<linearGradient id="paint0_linear_20_1319" x1="622.489" y1="-38" x2="622.489" y2="102.06" gradientUnits="userSpaceOnUse">
<stop stop-color="white" stop-opacity="0.26"/>
<stop offset="0.83" stop-color="white" stop-opacity="0"/>
</linearGradient>
<linearGradient id="paint1_linear_20_1319" x1="623" y1="143" x2="623" y2="-38" gradientUnits="userSpaceOnUse">
<stop stop-color="white" stop-opacity="0.25"/>
<stop offset="1" stop-color="white" stop-opacity="0.4"/>
</linearGradient>
</defs>
</svg>
