<svg viewBox="0 0 316 27" fill="none" xmlns="http://www.w3.org/2000/svg">
<mask id="path-1-outside-1_62_2351" maskUnits="userSpaceOnUse" x="0" y="0" width="316" height="27" fill="black">
<rect fill="white" width="316" height="27"/>
<path d="M8.0174 26V4.328H0.277396V0.799998H19.6454V4.328H11.9054V26H8.0174ZM22.1255 26V0.799998H32.7095C34.2695 0.799998 35.6375 1.076 36.8135 1.628C38.0135 2.156 38.9375 2.924 39.5855 3.932C40.2575 4.94 40.5935 6.14 40.5935 7.532V7.928C40.5935 9.512 40.2095 10.784 39.4415 11.744C38.6975 12.68 37.7855 13.34 36.7055 13.724V14.3C37.6175 14.348 38.3495 14.66 38.9015 15.236C39.4535 15.788 39.7295 16.592 39.7295 17.648V26H35.8055V18.188C35.8055 17.54 35.6375 17.024 35.3015 16.64C34.9655 16.256 34.4255 16.064 33.6815 16.064H26.0135V26H22.1255ZM26.0135 12.536H32.2775C33.6695 12.536 34.7495 12.188 35.5175 11.492C36.2855 10.772 36.6695 9.8 36.6695 8.576V8.288C36.6695 7.064 36.2855 6.104 35.5175 5.408C34.7735 4.688 33.6935 4.328 32.2775 4.328H26.0135V12.536ZM41.9556 26L49.1556 0.799998H55.9956L63.1596 26H59.1636L57.5076 20.06H47.6436L45.9876 26H41.9556ZM48.6156 16.46H56.5356L52.8636 3.212H52.2876L48.6156 16.46ZM65.5296 26V0.799998H73.0176L79.8576 23.408H80.4336V0.799998H84.2856V26H76.7976L69.9576 3.356H69.3816V26H65.5296ZM97.0654 26.504C95.1694 26.504 93.4894 26.168 92.0254 25.496C90.5614 24.824 89.4094 23.84 88.5694 22.544C87.7534 21.224 87.3454 19.628 87.3454 17.756V16.856H91.1974V17.756C91.1974 19.532 91.7254 20.864 92.7814 21.752C93.8614 22.64 95.2894 23.084 97.0654 23.084C98.8654 23.084 100.221 22.712 101.133 21.968C102.045 21.2 102.501 20.216 102.501 19.016C102.501 18.224 102.285 17.576 101.853 17.072C101.421 16.568 100.809 16.172 100.017 15.884C99.2254 15.572 98.2774 15.284 97.1734 15.02L95.8414 14.696C94.2334 14.312 92.8294 13.844 91.6294 13.292C90.4534 12.716 89.5414 11.96 88.8934 11.024C88.2454 10.088 87.9214 8.888 87.9214 7.424C87.9214 5.936 88.2814 4.664 89.0014 3.608C89.7454 2.552 90.7654 1.736 92.0614 1.16C93.3574 0.583998 94.8814 0.295998 96.6334 0.295998C98.3854 0.295998 99.9454 0.595999 101.313 1.196C102.705 1.796 103.797 2.684 104.589 3.86C105.381 5.036 105.777 6.512 105.777 8.288V9.584H101.925V8.288C101.925 7.208 101.697 6.332 101.241 5.66C100.809 4.988 100.197 4.496 99.4054 4.184C98.6134 3.872 97.6894 3.716 96.6334 3.716C95.0974 3.716 93.8974 4.04 93.0334 4.688C92.1934 5.312 91.7734 6.188 91.7734 7.316C91.7734 8.084 91.9534 8.72 92.3134 9.224C92.6974 9.704 93.2494 10.1 93.9694 10.412C94.6894 10.724 95.5894 11 96.6694 11.24L98.0014 11.564C99.6334 11.924 101.073 12.392 102.321 12.968C103.569 13.52 104.553 14.276 105.273 15.236C105.993 16.196 106.353 17.432 106.353 18.944C106.353 20.456 105.969 21.776 105.201 22.904C104.457 24.032 103.389 24.92 101.997 25.568C100.605 26.192 98.9614 26.504 97.0654 26.504ZM109.391 26V0.799998H124.943V4.328H113.279V11.6H124.007V15.128H113.279V26H109.391ZM127.683 26V0.799998H131.571V26H127.683ZM135.779 26V0.799998H143.267L150.107 23.408H150.683V0.799998H154.535V26H147.047L140.207 3.356H139.631V26H135.779ZM158.747 26V0.799998H162.635V26H158.747ZM172.856 26V4.328H165.116V0.799998H184.484V4.328H176.744V26H172.856ZM192.976 26V4.328H185.236V0.799998H204.604V4.328H196.864V26H192.976ZM207.084 26V0.799998H222.96V4.328H210.972V11.564H221.952V15.092H210.972V22.472H223.14V26H207.084ZM233.381 26V23.156C233.381 21.404 233.681 19.964 234.281 18.836C234.881 17.708 235.733 16.796 236.837 16.1C237.965 15.38 239.321 14.78 240.905 14.3L243.101 13.616C244.085 13.304 244.925 12.92 245.621 12.464C246.341 12.008 246.893 11.444 247.277 10.772C247.661 10.076 247.853 9.272 247.853 8.36V8.216C247.853 6.8 247.373 5.696 246.413 4.904C245.453 4.088 244.193 3.68 242.633 3.68C241.025 3.68 239.717 4.112 238.709 4.976C237.725 5.84 237.233 7.112 237.233 8.792V9.368H233.489V8.828C233.489 7.004 233.885 5.468 234.677 4.22C235.469 2.948 236.561 1.976 237.953 1.304C239.345 0.631998 240.905 0.295998 242.633 0.295998C244.361 0.295998 245.897 0.619998 247.241 1.268C248.609 1.916 249.677 2.828 250.445 4.004C251.237 5.18 251.633 6.56 251.633 8.144V8.468C251.633 10.1 251.309 11.456 250.661 12.536C250.013 13.616 249.113 14.504 247.961 15.2C246.833 15.896 245.525 16.484 244.037 16.964L241.913 17.612C240.785 17.948 239.873 18.32 239.177 18.728C238.505 19.112 238.001 19.58 237.665 20.132C237.353 20.684 237.197 21.392 237.197 22.256V22.616H251.417V26H233.381ZM263.717 26.504C260.789 26.504 258.449 25.676 256.697 24.02C254.969 22.34 254.105 19.82 254.105 16.46V10.34C254.105 7.052 254.969 4.556 256.697 2.852C258.449 1.148 260.789 0.295998 263.717 0.295998C266.669 0.295998 269.009 1.148 270.737 2.852C272.489 4.556 273.365 7.052 273.365 10.34V16.46C273.365 19.82 272.489 22.34 270.737 24.02C269.009 25.676 266.669 26.504 263.717 26.504ZM263.717 23.12C265.709 23.12 267.185 22.556 268.145 21.428C269.105 20.276 269.585 18.668 269.585 16.604V10.124C269.585 8.06 269.069 6.476 268.037 5.372C267.005 4.244 265.565 3.68 263.717 3.68C261.845 3.68 260.405 4.256 259.397 5.408C258.389 6.536 257.885 8.108 257.885 10.124V16.604C257.885 18.716 258.365 20.336 259.325 21.464C260.309 22.568 261.773 23.12 263.717 23.12ZM276.012 26V23.156C276.012 21.404 276.312 19.964 276.912 18.836C277.512 17.708 278.364 16.796 279.468 16.1C280.596 15.38 281.952 14.78 283.536 14.3L285.732 13.616C286.716 13.304 287.556 12.92 288.252 12.464C288.972 12.008 289.524 11.444 289.908 10.772C290.292 10.076 290.484 9.272 290.484 8.36V8.216C290.484 6.8 290.004 5.696 289.044 4.904C288.084 4.088 286.824 3.68 285.264 3.68C283.656 3.68 282.348 4.112 281.34 4.976C280.356 5.84 279.864 7.112 279.864 8.792V9.368H276.12V8.828C276.12 7.004 276.516 5.468 277.308 4.22C278.1 2.948 279.192 1.976 280.584 1.304C281.976 0.631998 283.536 0.295998 285.264 0.295998C286.992 0.295998 288.528 0.619998 289.872 1.268C291.24 1.916 292.308 2.828 293.076 4.004C293.868 5.18 294.264 6.56 294.264 8.144V8.468C294.264 10.1 293.94 11.456 293.292 12.536C292.644 13.616 291.744 14.504 290.592 15.2C289.464 15.896 288.156 16.484 286.668 16.964L284.544 17.612C283.416 17.948 282.504 18.32 281.808 18.728C281.136 19.112 280.632 19.58 280.296 20.132C279.984 20.684 279.828 21.392 279.828 22.256V22.616H294.048V26H276.012ZM307.735 26V20.852H294.991V16.46L304.639 0.799998H311.515V17.504H315.763V20.852H311.515V26H307.735ZM298.663 17.504H307.735V3.176H307.159L298.663 17V17.504Z"/>
</mask>
<path d="M8.0174 26V4.328H0.277396V0.799998H19.6454V4.328H11.9054V26H8.0174ZM22.1255 26V0.799998H32.7095C34.2695 0.799998 35.6375 1.076 36.8135 1.628C38.0135 2.156 38.9375 2.924 39.5855 3.932C40.2575 4.94 40.5935 6.14 40.5935 7.532V7.928C40.5935 9.512 40.2095 10.784 39.4415 11.744C38.6975 12.68 37.7855 13.34 36.7055 13.724V14.3C37.6175 14.348 38.3495 14.66 38.9015 15.236C39.4535 15.788 39.7295 16.592 39.7295 17.648V26H35.8055V18.188C35.8055 17.54 35.6375 17.024 35.3015 16.64C34.9655 16.256 34.4255 16.064 33.6815 16.064H26.0135V26H22.1255ZM26.0135 12.536H32.2775C33.6695 12.536 34.7495 12.188 35.5175 11.492C36.2855 10.772 36.6695 9.8 36.6695 8.576V8.288C36.6695 7.064 36.2855 6.104 35.5175 5.408C34.7735 4.688 33.6935 4.328 32.2775 4.328H26.0135V12.536ZM41.9556 26L49.1556 0.799998H55.9956L63.1596 26H59.1636L57.5076 20.06H47.6436L45.9876 26H41.9556ZM48.6156 16.46H56.5356L52.8636 3.212H52.2876L48.6156 16.46ZM65.5296 26V0.799998H73.0176L79.8576 23.408H80.4336V0.799998H84.2856V26H76.7976L69.9576 3.356H69.3816V26H65.5296ZM97.0654 26.504C95.1694 26.504 93.4894 26.168 92.0254 25.496C90.5614 24.824 89.4094 23.84 88.5694 22.544C87.7534 21.224 87.3454 19.628 87.3454 17.756V16.856H91.1974V17.756C91.1974 19.532 91.7254 20.864 92.7814 21.752C93.8614 22.64 95.2894 23.084 97.0654 23.084C98.8654 23.084 100.221 22.712 101.133 21.968C102.045 21.2 102.501 20.216 102.501 19.016C102.501 18.224 102.285 17.576 101.853 17.072C101.421 16.568 100.809 16.172 100.017 15.884C99.2254 15.572 98.2774 15.284 97.1734 15.02L95.8414 14.696C94.2334 14.312 92.8294 13.844 91.6294 13.292C90.4534 12.716 89.5414 11.96 88.8934 11.024C88.2454 10.088 87.9214 8.888 87.9214 7.424C87.9214 5.936 88.2814 4.664 89.0014 3.608C89.7454 2.552 90.7654 1.736 92.0614 1.16C93.3574 0.583998 94.8814 0.295998 96.6334 0.295998C98.3854 0.295998 99.9454 0.595999 101.313 1.196C102.705 1.796 103.797 2.684 104.589 3.86C105.381 5.036 105.777 6.512 105.777 8.288V9.584H101.925V8.288C101.925 7.208 101.697 6.332 101.241 5.66C100.809 4.988 100.197 4.496 99.4054 4.184C98.6134 3.872 97.6894 3.716 96.6334 3.716C95.0974 3.716 93.8974 4.04 93.0334 4.688C92.1934 5.312 91.7734 6.188 91.7734 7.316C91.7734 8.084 91.9534 8.72 92.3134 9.224C92.6974 9.704 93.2494 10.1 93.9694 10.412C94.6894 10.724 95.5894 11 96.6694 11.24L98.0014 11.564C99.6334 11.924 101.073 12.392 102.321 12.968C103.569 13.52 104.553 14.276 105.273 15.236C105.993 16.196 106.353 17.432 106.353 18.944C106.353 20.456 105.969 21.776 105.201 22.904C104.457 24.032 103.389 24.92 101.997 25.568C100.605 26.192 98.9614 26.504 97.0654 26.504ZM109.391 26V0.799998H124.943V4.328H113.279V11.6H124.007V15.128H113.279V26H109.391ZM127.683 26V0.799998H131.571V26H127.683ZM135.779 26V0.799998H143.267L150.107 23.408H150.683V0.799998H154.535V26H147.047L140.207 3.356H139.631V26H135.779ZM158.747 26V0.799998H162.635V26H158.747ZM172.856 26V4.328H165.116V0.799998H184.484V4.328H176.744V26H172.856ZM192.976 26V4.328H185.236V0.799998H204.604V4.328H196.864V26H192.976ZM207.084 26V0.799998H222.96V4.328H210.972V11.564H221.952V15.092H210.972V22.472H223.14V26H207.084ZM233.381 26V23.156C233.381 21.404 233.681 19.964 234.281 18.836C234.881 17.708 235.733 16.796 236.837 16.1C237.965 15.38 239.321 14.78 240.905 14.3L243.101 13.616C244.085 13.304 244.925 12.92 245.621 12.464C246.341 12.008 246.893 11.444 247.277 10.772C247.661 10.076 247.853 9.272 247.853 8.36V8.216C247.853 6.8 247.373 5.696 246.413 4.904C245.453 4.088 244.193 3.68 242.633 3.68C241.025 3.68 239.717 4.112 238.709 4.976C237.725 5.84 237.233 7.112 237.233 8.792V9.368H233.489V8.828C233.489 7.004 233.885 5.468 234.677 4.22C235.469 2.948 236.561 1.976 237.953 1.304C239.345 0.631998 240.905 0.295998 242.633 0.295998C244.361 0.295998 245.897 0.619998 247.241 1.268C248.609 1.916 249.677 2.828 250.445 4.004C251.237 5.18 251.633 6.56 251.633 8.144V8.468C251.633 10.1 251.309 11.456 250.661 12.536C250.013 13.616 249.113 14.504 247.961 15.2C246.833 15.896 245.525 16.484 244.037 16.964L241.913 17.612C240.785 17.948 239.873 18.32 239.177 18.728C238.505 19.112 238.001 19.58 237.665 20.132C237.353 20.684 237.197 21.392 237.197 22.256V22.616H251.417V26H233.381ZM263.717 26.504C260.789 26.504 258.449 25.676 256.697 24.02C254.969 22.34 254.105 19.82 254.105 16.46V10.34C254.105 7.052 254.969 4.556 256.697 2.852C258.449 1.148 260.789 0.295998 263.717 0.295998C266.669 0.295998 269.009 1.148 270.737 2.852C272.489 4.556 273.365 7.052 273.365 10.34V16.46C273.365 19.82 272.489 22.34 270.737 24.02C269.009 25.676 266.669 26.504 263.717 26.504ZM263.717 23.12C265.709 23.12 267.185 22.556 268.145 21.428C269.105 20.276 269.585 18.668 269.585 16.604V10.124C269.585 8.06 269.069 6.476 268.037 5.372C267.005 4.244 265.565 3.68 263.717 3.68C261.845 3.68 260.405 4.256 259.397 5.408C258.389 6.536 257.885 8.108 257.885 10.124V16.604C257.885 18.716 258.365 20.336 259.325 21.464C260.309 22.568 261.773 23.12 263.717 23.12ZM276.012 26V23.156C276.012 21.404 276.312 19.964 276.912 18.836C277.512 17.708 278.364 16.796 279.468 16.1C280.596 15.38 281.952 14.78 283.536 14.3L285.732 13.616C286.716 13.304 287.556 12.92 288.252 12.464C288.972 12.008 289.524 11.444 289.908 10.772C290.292 10.076 290.484 9.272 290.484 8.36V8.216C290.484 6.8 290.004 5.696 289.044 4.904C288.084 4.088 286.824 3.68 285.264 3.68C283.656 3.68 282.348 4.112 281.34 4.976C280.356 5.84 279.864 7.112 279.864 8.792V9.368H276.12V8.828C276.12 7.004 276.516 5.468 277.308 4.22C278.1 2.948 279.192 1.976 280.584 1.304C281.976 0.631998 283.536 0.295998 285.264 0.295998C286.992 0.295998 288.528 0.619998 289.872 1.268C291.24 1.916 292.308 2.828 293.076 4.004C293.868 5.18 294.264 6.56 294.264 8.144V8.468C294.264 10.1 293.94 11.456 293.292 12.536C292.644 13.616 291.744 14.504 290.592 15.2C289.464 15.896 288.156 16.484 286.668 16.964L284.544 17.612C283.416 17.948 282.504 18.32 281.808 18.728C281.136 19.112 280.632 19.58 280.296 20.132C279.984 20.684 279.828 21.392 279.828 22.256V22.616H294.048V26H276.012ZM307.735 26V20.852H294.991V16.46L304.639 0.799998H311.515V17.504H315.763V20.852H311.515V26H307.735ZM298.663 17.504H307.735V3.176H307.159L298.663 17V17.504Z" fill="url(#paint0_linear_62_2351)"/>
<path d="M8.0174 26H7.8174V26.2H8.0174V26ZM8.0174 4.328H8.2174V4.128H8.0174V4.328ZM0.277396 4.328H0.0773957V4.528H0.277396V4.328ZM0.277396 0.799998V0.599998H0.0773957V0.799998H0.277396ZM19.6454 0.799998H19.8454V0.599998H19.6454V0.799998ZM19.6454 4.328V4.528H19.8454V4.328H19.6454ZM11.9054 4.328V4.128H11.7054V4.328H11.9054ZM11.9054 26V26.2H12.1054V26H11.9054ZM8.2174 26V4.328H7.8174V26H8.2174ZM8.0174 4.128H0.277396V4.528H8.0174V4.128ZM0.477396 4.328V0.799998H0.0773957V4.328H0.477396ZM0.277396 0.999998H19.6454V0.599998H0.277396V0.999998ZM19.4454 0.799998V4.328H19.8454V0.799998H19.4454ZM19.6454 4.128H11.9054V4.528H19.6454V4.128ZM11.7054 4.328V26H12.1054V4.328H11.7054ZM11.9054 25.8H8.0174V26.2H11.9054V25.8ZM22.1255 26H21.9255V26.2H22.1255V26ZM22.1255 0.799998V0.599998H21.9255V0.799998H22.1255ZM36.8135 1.628L36.7285 1.8091L36.7329 1.81106L36.8135 1.628ZM39.5855 3.932L39.4172 4.04016L39.419 4.04294L39.5855 3.932ZM39.4415 11.744L39.2853 11.6191L39.2849 11.6196L39.4415 11.744ZM36.7055 13.724L36.6385 13.5356L36.5055 13.5828V13.724H36.7055ZM36.7055 14.3H36.5055V14.4897L36.6949 14.4997L36.7055 14.3ZM38.9015 15.236L38.757 15.3744L38.76 15.3774L38.9015 15.236ZM39.7295 26V26.2H39.9295V26H39.7295ZM35.8055 26H35.6055V26.2H35.8055V26ZM26.0135 16.064V15.864H25.8135V16.064H26.0135ZM26.0135 26V26.2H26.2135V26H26.0135ZM26.0135 12.536H25.8135V12.736H26.0135V12.536ZM35.5175 11.492L35.6518 11.6402L35.6542 11.6379L35.5175 11.492ZM35.5175 5.408L35.3783 5.5518L35.3832 5.5562L35.5175 5.408ZM26.0135 4.328V4.128H25.8135V4.328H26.0135ZM22.3255 26V0.799998H21.9255V26H22.3255ZM22.1255 0.999998H32.7095V0.599998H22.1255V0.999998ZM32.7095 0.999998C34.2459 0.999998 35.5839 1.27178 36.7285 1.80905L36.8984 1.44695C35.691 0.880215 34.293 0.599998 32.7095 0.599998V0.999998ZM36.7329 1.81106C37.9005 2.32479 38.7925 3.06829 39.4172 4.04015L39.7537 3.82385C39.0825 2.77971 38.1264 1.9872 36.894 1.44494L36.7329 1.81106ZM39.419 4.04294C40.066 5.01339 40.3935 6.17343 40.3935 7.532H40.7935C40.7935 6.10657 40.4489 4.86661 39.7519 3.82106L39.419 4.04294ZM40.3935 7.532V7.928H40.7935V7.532H40.3935ZM40.3935 7.928C40.3935 9.47985 40.0176 10.7037 39.2853 11.6191L39.5976 11.8689C40.4013 10.8643 40.7935 9.54415 40.7935 7.928H40.3935ZM39.2849 11.6196C38.5631 12.5276 37.6816 13.1646 36.6385 13.5356L36.7725 13.9124C37.8893 13.5154 38.8318 12.8324 39.598 11.8684L39.2849 11.6196ZM36.5055 13.724V14.3H36.9055V13.724H36.5055ZM36.6949 14.4997C37.564 14.5455 38.2454 14.8405 38.7571 15.3744L39.0459 15.0976C38.4535 14.4795 37.6709 14.1505 36.716 14.1003L36.6949 14.4997ZM38.76 15.3774C39.2628 15.8802 39.5295 16.6258 39.5295 17.648H39.9295C39.9295 16.5582 39.6441 15.6958 39.0429 15.0946L38.76 15.3774ZM39.5295 17.648V26H39.9295V17.648H39.5295ZM39.7295 25.8H35.8055V26.2H39.7295V25.8ZM36.0055 26V18.188H35.6055V26H36.0055ZM36.0055 18.188C36.0055 17.505 35.8278 16.9378 35.452 16.5083L35.1509 16.7717C35.4472 17.1102 35.6055 17.575 35.6055 18.188H36.0055ZM35.452 16.5083C35.0633 16.0641 34.4562 15.864 33.6815 15.864V16.264C34.3948 16.264 34.8677 16.4479 35.1509 16.7717L35.452 16.5083ZM33.6815 15.864H26.0135V16.264H33.6815V15.864ZM25.8135 16.064V26H26.2135V16.064H25.8135ZM26.0135 25.8H22.1255V26.2H26.0135V25.8ZM26.0135 12.736H32.2775V12.336H26.0135V12.736ZM32.2775 12.736C33.7018 12.736 34.8359 12.3796 35.6518 11.6402L35.3832 11.3438C34.663 11.9964 33.6371 12.336 32.2775 12.336V12.736ZM35.6542 11.6379C36.4692 10.8739 36.8695 9.84546 36.8695 8.576H36.4695C36.4695 9.75454 36.1017 10.6701 35.3807 11.3461L35.6542 11.6379ZM36.8695 8.576V8.288H36.4695V8.576H36.8695ZM36.8695 8.288C36.8695 7.01871 36.4692 6.00061 35.6518 5.2598L35.3832 5.5562C36.1017 6.20738 36.4695 7.10929 36.4695 8.288H36.8695ZM35.6565 5.26428C34.8633 4.49661 33.7259 4.128 32.2775 4.128V4.528C33.661 4.528 34.6836 4.87939 35.3784 5.55172L35.6565 5.26428ZM32.2775 4.128H26.0135V4.528H32.2775V4.128ZM25.8135 4.328V12.536H26.2135V4.328H25.8135ZM41.9556 26L41.7632 25.9451L41.6904 26.2H41.9556V26ZM49.1556 0.799998V0.599998H49.0047L48.9632 0.745054L49.1556 0.799998ZM55.9956 0.799998L56.1879 0.745308L56.1466 0.599998H55.9956V0.799998ZM63.1596 26V26.2H63.4243L63.3519 25.9453L63.1596 26ZM59.1636 26L58.9709 26.0537L59.0117 26.2H59.1636V26ZM57.5075 20.06L57.7002 20.0063L57.6594 19.86H57.5075V20.06ZM47.6436 20.06V19.86H47.4917L47.4509 20.0063L47.6436 20.06ZM45.9875 26V26.2H46.1394L46.1802 26.0537L45.9875 26ZM48.6156 16.46L48.4228 16.4066L48.3526 16.66H48.6156V16.46ZM56.5356 16.46V16.66H56.7985L56.7283 16.4066L56.5356 16.46ZM52.8636 3.212L53.0563 3.15858L53.0157 3.012H52.8636V3.212ZM52.2876 3.212V3.012H52.1354L52.0948 3.15858L52.2876 3.212ZM42.1479 26.0549L49.3479 0.854942L48.9632 0.745054L41.7632 25.9451L42.1479 26.0549ZM49.1556 0.999998H55.9956V0.599998H49.1556V0.999998ZM55.8032 0.854689L62.9672 26.0547L63.3519 25.9453L56.1879 0.745308L55.8032 0.854689ZM63.1596 25.8H59.1636V26.2H63.1596V25.8ZM59.3562 25.9463L57.7002 20.0063L57.3149 20.1137L58.9709 26.0537L59.3562 25.9463ZM57.5075 19.86H47.6436V20.26H57.5075V19.86ZM47.4509 20.0063L45.7949 25.9463L46.1802 26.0537L47.8362 20.1137L47.4509 20.0063ZM45.9875 25.8H41.9556V26.2H45.9875V25.8ZM48.6156 16.66H56.5356V16.26H48.6156V16.66ZM56.7283 16.4066L53.0563 3.15858L52.6708 3.26542L56.3428 16.5134L56.7283 16.4066ZM52.8636 3.012H52.2876V3.412H52.8636V3.012ZM52.0948 3.15858L48.4228 16.4066L48.8083 16.5134L52.4803 3.26542L52.0948 3.15858ZM65.5296 26H65.3296V26.2H65.5296V26ZM65.5296 0.799998V0.599998H65.3296V0.799998H65.5296ZM73.0176 0.799998L73.2091 0.742082L73.1661 0.599998H73.0176V0.799998ZM79.8576 23.408L79.6662 23.4659L79.7092 23.608H79.8576V23.408ZM80.4336 23.408V23.608H80.6336V23.408H80.4336ZM80.4336 0.799998V0.599998H80.2336V0.799998H80.4336ZM84.2856 0.799998H84.4856V0.599998H84.2856V0.799998ZM84.2856 26V26.2H84.4856V26H84.2856ZM76.7976 26L76.6062 26.0578L76.6491 26.2H76.7976V26ZM69.9576 3.356L70.1491 3.29817L70.1062 3.156H69.9576V3.356ZM69.3816 3.356V3.156H69.1816V3.356H69.3816ZM69.3816 26V26.2H69.5816V26H69.3816ZM65.7296 26V0.799998H65.3296V26H65.7296ZM65.5296 0.999998H73.0176V0.599998H65.5296V0.999998ZM72.8262 0.857915L79.6662 23.4659L80.0491 23.3501L73.2091 0.742082L72.8262 0.857915ZM79.8576 23.608H80.4336V23.208H79.8576V23.608ZM80.6336 23.408V0.799998H80.2336V23.408H80.6336ZM80.4336 0.999998H84.2856V0.599998H80.4336V0.999998ZM84.0856 0.799998V26H84.4856V0.799998H84.0856ZM84.2856 25.8H76.7976V26.2H84.2856V25.8ZM76.9891 25.9422L70.1491 3.29817L69.7662 3.41383L76.6062 26.0578L76.9891 25.9422ZM69.9576 3.156H69.3816V3.556H69.9576V3.156ZM69.1816 3.356V26H69.5816V3.356H69.1816ZM69.3816 25.8H65.5296V26.2H69.3816V25.8ZM92.0254 25.496L91.9419 25.6778L92.0254 25.496ZM88.5694 22.544L88.3992 22.6492L88.4015 22.6528L88.5694 22.544ZM87.3454 16.856V16.656H87.1454V16.856H87.3454ZM91.1974 16.856H91.3974V16.656H91.1974V16.856ZM92.7814 21.752L92.6526 21.9051L92.6543 21.9065L92.7814 21.752ZM101.133 21.968L101.26 22.123L101.262 22.121L101.133 21.968ZM101.853 17.072L102.005 16.9418L101.853 17.072ZM100.017 15.884L99.944 16.0701L99.949 16.072L100.017 15.884ZM97.1734 15.02L97.1261 15.2143L97.1268 15.2145L97.1734 15.02ZM95.8414 14.696L95.8886 14.5017L95.8878 14.5015L95.8414 14.696ZM91.6294 13.292L91.5414 13.4717L91.5458 13.4737L91.6294 13.292ZM89.0014 3.608L88.8378 3.49279L88.8361 3.49533L89.0014 3.608ZM92.0614 1.16L91.9801 0.977236L92.0614 1.16ZM101.313 1.196L101.233 1.37916L101.234 1.37966L101.313 1.196ZM104.589 3.86L104.423 3.97172L104.589 3.86ZM105.777 9.584V9.784H105.977V9.584H105.777ZM101.925 9.584H101.725V9.784H101.925V9.584ZM101.241 5.66L101.073 5.76818L101.076 5.7723L101.241 5.66ZM99.4054 4.184L99.3321 4.37008L99.4054 4.184ZM93.0334 4.688L93.1526 4.84855L93.1534 4.848L93.0334 4.688ZM92.3134 9.224L92.1504 9.34042L92.1572 9.34894L92.3134 9.224ZM93.9694 10.412L94.0489 10.2285L93.9694 10.412ZM96.6694 11.24L96.7166 11.0456L96.7127 11.0448L96.6694 11.24ZM98.0014 11.564L97.9541 11.7584L97.9583 11.7593L98.0014 11.564ZM102.321 12.968L102.238 13.1496L102.24 13.1509L102.321 12.968ZM105.273 15.236L105.433 15.116L105.273 15.236ZM105.201 22.904L105.036 22.7914L105.034 22.7939L105.201 22.904ZM101.997 25.568L102.079 25.7505L102.082 25.7493L101.997 25.568ZM97.0654 26.304C95.1931 26.304 93.5424 25.9723 92.1088 25.3142L91.9419 25.6778C93.4363 26.3637 95.1456 26.704 97.0654 26.704V26.304ZM92.1088 25.3142C90.6777 24.6573 89.5556 23.698 88.7372 22.4352L88.4015 22.6528C89.2631 23.982 90.445 24.9907 91.9419 25.6778L92.1088 25.3142ZM88.7395 22.4388C87.9467 21.1564 87.5454 19.5986 87.5454 17.756H87.1454C87.1454 19.6574 87.56 21.2916 88.3992 22.6492L88.7395 22.4388ZM87.5454 17.756V16.856H87.1454V17.756H87.5454ZM87.3454 17.056H91.1974V16.656H87.3454V17.056ZM90.9974 16.856V17.756H91.3974V16.856H90.9974ZM90.9974 17.756C90.9974 19.5728 91.5391 20.9687 92.6526 21.9051L92.9101 21.5989C91.9116 20.7593 91.3974 19.4912 91.3974 17.756H90.9974ZM92.6543 21.9065C93.7789 22.8311 95.2558 23.284 97.0654 23.284V22.884C95.3229 22.884 93.9438 22.4489 92.9084 21.5975L92.6543 21.9065ZM97.0654 23.284C98.8882 23.284 100.297 22.908 101.26 22.123L101.007 21.813C100.145 22.516 98.8425 22.884 97.0654 22.884V23.284ZM101.262 22.121C102.22 21.3147 102.701 20.2746 102.701 19.016H102.301C102.301 20.1574 101.871 21.0853 101.005 21.815L101.262 22.121ZM102.701 19.016C102.701 18.1859 102.474 17.4888 102.005 16.9418L101.702 17.2022C102.097 17.6632 102.301 18.2621 102.301 19.016H102.701ZM102.005 16.9418C101.546 16.4056 100.902 15.9927 100.086 15.696L99.949 16.072C100.717 16.3513 101.297 16.7304 101.702 17.2022L102.005 16.9418ZM100.091 15.6979C99.2876 15.3816 98.3302 15.091 97.2199 14.8255L97.1268 15.2145C98.2245 15.477 99.1631 15.7624 99.9441 16.0701L100.091 15.6979ZM97.2206 14.8257L95.8886 14.5017L95.7941 14.8903L97.1261 15.2143L97.2206 14.8257ZM95.8878 14.5015C94.2896 14.1198 92.8985 13.6557 91.7129 13.1103L91.5458 13.4737C92.7602 14.0323 94.1772 14.5042 95.7949 14.8905L95.8878 14.5015ZM91.7173 13.1124C90.5674 12.5491 89.6836 11.8141 89.0578 10.9102L88.7289 11.1378C89.3991 12.1059 90.3394 12.8829 91.5414 13.4716L91.7173 13.1124ZM89.0578 10.9102C88.4388 10.016 88.1214 8.85891 88.1214 7.424H87.7214C87.7214 8.91709 88.0519 10.16 88.7289 11.1378L89.0578 10.9102ZM88.1214 7.424C88.1214 5.96942 88.4728 4.73827 89.1666 3.72067L88.8361 3.49533C88.0899 4.58973 87.7214 5.90258 87.7214 7.424H88.1214ZM89.1649 3.72319C89.886 2.69958 90.8763 1.90557 92.1426 1.34276L91.9801 0.977236C90.6544 1.56643 89.6047 2.40442 88.8379 3.49281L89.1649 3.72319ZM92.1426 1.34276C93.4077 0.780469 94.9029 0.495998 96.6334 0.495998V0.0959988C94.8598 0.0959988 93.307 0.387527 91.9801 0.977236L92.1426 1.34276ZM96.6334 0.495998C98.3624 0.495998 99.8943 0.792016 101.233 1.37916L101.394 1.01284C99.9964 0.399981 98.4083 0.0959988 96.6334 0.0959988V0.495998ZM101.234 1.37966C102.594 1.96559 103.654 2.82974 104.423 3.97172L104.755 3.74828C103.94 2.53826 102.817 1.62641 101.393 1.01233L101.234 1.37966ZM104.423 3.97172C105.188 5.10723 105.577 6.54173 105.577 8.288H105.977C105.977 6.48227 105.575 4.96477 104.755 3.74828L104.423 3.97172ZM105.577 8.288V9.584H105.977V8.288H105.577ZM105.777 9.384H101.925V9.784H105.777V9.384ZM102.125 9.584V8.288H101.725V9.584H102.125ZM102.125 8.288C102.125 7.18094 101.892 6.26216 101.407 5.5477L101.076 5.7723C101.503 6.40184 101.725 7.23506 101.725 8.288H102.125ZM101.41 5.55185C100.953 4.84218 100.307 4.32423 99.4787 3.99792L99.3321 4.37008C100.088 4.66777 100.665 5.13381 101.073 5.76815L101.41 5.55185ZM99.4787 3.99792C98.6585 3.6748 97.7086 3.516 96.6334 3.516V3.916C97.6701 3.916 98.5683 4.0692 99.3321 4.37008L99.4787 3.99792ZM96.6334 3.516C95.0718 3.516 93.8239 3.8451 92.9134 4.528L93.1534 4.848C93.9708 4.23489 95.1229 3.916 96.6334 3.916V3.516ZM92.9141 4.52745C92.0189 5.19248 91.5734 6.13046 91.5734 7.316H91.9734C91.9734 6.24554 92.3679 5.43152 93.1526 4.84855L92.9141 4.52745ZM91.5734 7.316C91.5734 8.11556 91.7611 8.79493 92.1506 9.34025L92.4761 9.10775C92.1456 8.64507 91.9734 8.05244 91.9734 7.316H91.5734ZM92.1572 9.34894C92.5664 9.86051 93.148 10.274 93.8898 10.5955L94.0489 10.2285C93.3508 9.92597 92.8283 9.54749 92.4695 9.09906L92.1572 9.34894ZM93.8898 10.5955C94.6251 10.9141 95.5382 11.1935 96.626 11.4352L96.7127 11.0448C95.6405 10.8065 94.7536 10.5339 94.0489 10.2285L93.8898 10.5955ZM96.6221 11.4343L97.9541 11.7583L98.0486 11.3697L96.7166 11.0457L96.6221 11.4343ZM97.9583 11.7593C99.5791 12.1168 101.005 12.5807 102.238 13.1496L102.405 12.7864C101.142 12.2033 99.6876 11.7312 98.0444 11.3687L97.9583 11.7593ZM102.24 13.1509C103.462 13.691 104.417 14.427 105.113 15.356L105.433 15.116C104.69 14.125 103.677 13.349 102.402 12.7851L102.24 13.1509ZM105.113 15.356C105.801 16.2733 106.153 17.4639 106.153 18.944H106.553C106.553 17.4001 106.185 16.1187 105.433 15.116L105.113 15.356ZM106.153 18.944C106.153 20.4204 105.779 21.7002 105.036 22.7914L105.367 23.0166C106.16 21.8518 106.553 20.4916 106.553 18.944H106.153ZM105.034 22.7939C104.313 23.8869 103.276 24.7521 101.913 25.3867L102.082 25.7493C103.503 25.0879 104.601 24.1771 105.368 23.0141L105.034 22.7939ZM101.916 25.3855C100.555 25.9955 98.9398 26.304 97.0654 26.304V26.704C98.9829 26.704 100.656 26.3885 102.079 25.7505L101.916 25.3855ZM109.391 26H109.191V26.2H109.391V26ZM109.391 0.799998V0.599998H109.191V0.799998H109.391ZM124.943 0.799998H125.143V0.599998H124.943V0.799998ZM124.943 4.328V4.528H125.143V4.328H124.943ZM113.279 4.328V4.128H113.079V4.328H113.279ZM113.279 11.6H113.079V11.8H113.279V11.6ZM124.007 11.6H124.207V11.4H124.007V11.6ZM124.007 15.128V15.328H124.207V15.128H124.007ZM113.279 15.128V14.928H113.079V15.128H113.279ZM113.279 26V26.2H113.479V26H113.279ZM109.591 26V0.799998H109.191V26H109.591ZM109.391 0.999998H124.943V0.599998H109.391V0.999998ZM124.743 0.799998V4.328H125.143V0.799998H124.743ZM124.943 4.128H113.279V4.528H124.943V4.128ZM113.079 4.328V11.6H113.479V4.328H113.079ZM113.279 11.8H124.007V11.4H113.279V11.8ZM123.807 11.6V15.128H124.207V11.6H123.807ZM124.007 14.928H113.279V15.328H124.007V14.928ZM113.079 15.128V26H113.479V15.128H113.079ZM113.279 25.8H109.391V26.2H113.279V25.8ZM127.683 26H127.483V26.2H127.683V26ZM127.683 0.799998V0.599998H127.483V0.799998H127.683ZM131.571 0.799998H131.771V0.599998H131.571V0.799998ZM131.571 26V26.2H131.771V26H131.571ZM127.883 26V0.799998H127.483V26H127.883ZM127.683 0.999998H131.571V0.599998H127.683V0.999998ZM131.371 0.799998V26H131.771V0.799998H131.371ZM131.571 25.8H127.683V26.2H131.571V25.8ZM135.779 26H135.579V26.2H135.779V26ZM135.779 0.799998V0.599998H135.579V0.799998H135.779ZM143.267 0.799998L143.459 0.742082L143.416 0.599998H143.267V0.799998ZM150.107 23.408L149.916 23.4659L149.959 23.608H150.107V23.408ZM150.683 23.408V23.608H150.883V23.408H150.683ZM150.683 0.799998V0.599998H150.483V0.799998H150.683ZM154.535 0.799998H154.735V0.599998H154.535V0.799998ZM154.535 26V26.2H154.735V26H154.535ZM147.047 26L146.856 26.0578L146.899 26.2H147.047V26ZM140.207 3.356L140.399 3.29817L140.356 3.156H140.207V3.356ZM139.631 3.356V3.156H139.431V3.356H139.631ZM139.631 26V26.2H139.831V26H139.631ZM135.979 26V0.799998H135.579V26H135.979ZM135.779 0.999998H143.267V0.599998H135.779V0.999998ZM143.076 0.857915L149.916 23.4659L150.299 23.3501L143.459 0.742082L143.076 0.857915ZM150.107 23.608H150.683V23.208H150.107V23.608ZM150.883 23.408V0.799998H150.483V23.408H150.883ZM150.683 0.999998H154.535V0.599998H150.683V0.999998ZM154.335 0.799998V26H154.735V0.799998H154.335ZM154.535 25.8H147.047V26.2H154.535V25.8ZM147.239 25.9422L140.399 3.29817L140.016 3.41383L146.856 26.0578L147.239 25.9422ZM140.207 3.156H139.631V3.556H140.207V3.156ZM139.431 3.356V26H139.831V3.356H139.431ZM139.631 25.8H135.779V26.2H139.631V25.8ZM158.747 26H158.547V26.2H158.747V26ZM158.747 0.799998V0.599998H158.547V0.799998H158.747ZM162.635 0.799998H162.835V0.599998H162.635V0.799998ZM162.635 26V26.2H162.835V26H162.635ZM158.947 26V0.799998H158.547V26H158.947ZM158.747 0.999998H162.635V0.599998H158.747V0.999998ZM162.435 0.799998V26H162.835V0.799998H162.435ZM162.635 25.8H158.747V26.2H162.635V25.8ZM172.856 26H172.656V26.2H172.856V26ZM172.856 4.328H173.056V4.128H172.856V4.328ZM165.116 4.328H164.916V4.528H165.116V4.328ZM165.116 0.799998V0.599998H164.916V0.799998H165.116ZM184.484 0.799998H184.684V0.599998H184.484V0.799998ZM184.484 4.328V4.528H184.684V4.328H184.484ZM176.744 4.328V4.128H176.544V4.328H176.744ZM176.744 26V26.2H176.944V26H176.744ZM173.056 26V4.328H172.656V26H173.056ZM172.856 4.128H165.116V4.528H172.856V4.128ZM165.316 4.328V0.799998H164.916V4.328H165.316ZM165.116 0.999998H184.484V0.599998H165.116V0.999998ZM184.284 0.799998V4.328H184.684V0.799998H184.284ZM184.484 4.128H176.744V4.528H184.484V4.128ZM176.544 4.328V26H176.944V4.328H176.544ZM176.744 25.8H172.856V26.2H176.744V25.8ZM192.976 26H192.776V26.2H192.976V26ZM192.976 4.328H193.176V4.128H192.976V4.328ZM185.236 4.328H185.036V4.528H185.236V4.328ZM185.236 0.799998V0.599998H185.036V0.799998H185.236ZM204.604 0.799998H204.804V0.599998H204.604V0.799998ZM204.604 4.328V4.528H204.804V4.328H204.604ZM196.864 4.328V4.128H196.664V4.328H196.864ZM196.864 26V26.2H197.064V26H196.864ZM193.176 26V4.328H192.776V26H193.176ZM192.976 4.128H185.236V4.528H192.976V4.128ZM185.436 4.328V0.799998H185.036V4.328H185.436ZM185.236 0.999998H204.604V0.599998H185.236V0.999998ZM204.404 0.799998V4.328H204.804V0.799998H204.404ZM204.604 4.128H196.864V4.528H204.604V4.128ZM196.664 4.328V26H197.064V4.328H196.664ZM196.864 25.8H192.976V26.2H196.864V25.8ZM207.084 26H206.884V26.2H207.084V26ZM207.084 0.799998V0.599998H206.884V0.799998H207.084ZM222.96 0.799998H223.16V0.599998H222.96V0.799998ZM222.96 4.328V4.528H223.16V4.328H222.96ZM210.972 4.328V4.128H210.772V4.328H210.972ZM210.972 11.564H210.772V11.764H210.972V11.564ZM221.952 11.564H222.152V11.364H221.952V11.564ZM221.952 15.092V15.292H222.152V15.092H221.952ZM210.972 15.092V14.892H210.772V15.092H210.972ZM210.972 22.472H210.772V22.672H210.972V22.472ZM223.14 22.472H223.34V22.272H223.14V22.472ZM223.14 26V26.2H223.34V26H223.14ZM207.284 26V0.799998H206.884V26H207.284ZM207.084 0.999998H222.96V0.599998H207.084V0.999998ZM222.76 0.799998V4.328H223.16V0.799998H222.76ZM222.96 4.128H210.972V4.528H222.96V4.128ZM210.772 4.328V11.564H211.172V4.328H210.772ZM210.972 11.764H221.952V11.364H210.972V11.764ZM221.752 11.564V15.092H222.152V11.564H221.752ZM221.952 14.892H210.972V15.292H221.952V14.892ZM210.772 15.092V22.472H211.172V15.092H210.772ZM210.972 22.672H223.14V22.272H210.972V22.672ZM222.94 22.472V26H223.34V22.472H222.94ZM223.14 25.8H207.084V26.2H223.14V25.8ZM233.381 26H233.181V26.2H233.381V26ZM234.281 18.836L234.104 18.7421L234.281 18.836ZM236.837 16.1L236.944 16.2692L236.945 16.2686L236.837 16.1ZM240.905 14.3L240.963 14.4914L240.965 14.491L240.905 14.3ZM243.101 13.616L243.161 13.807L243.161 13.8066L243.101 13.616ZM245.621 12.464L245.514 12.295L245.511 12.2967L245.621 12.464ZM247.277 10.772L247.451 10.8712L247.452 10.8686L247.277 10.772ZM246.413 4.904L246.284 5.0564L246.286 5.05827L246.413 4.904ZM238.709 4.976L238.579 4.82414L238.577 4.82571L238.709 4.976ZM237.233 9.368V9.568H237.433V9.368H237.233ZM233.489 9.368H233.289V9.568H233.489V9.368ZM234.677 4.22L234.846 4.32717L234.847 4.32571L234.677 4.22ZM237.953 1.304L238.04 1.48411L237.953 1.304ZM247.241 1.268L247.154 1.44816L247.155 1.44875L247.241 1.268ZM250.445 4.004L250.278 4.11337L250.279 4.11572L250.445 4.004ZM250.661 12.536L250.49 12.4331L250.661 12.536ZM247.961 15.2L247.858 15.0288L247.856 15.0298L247.961 15.2ZM244.037 16.964L244.095 17.1553L244.098 17.1543L244.037 16.964ZM241.913 17.612L241.97 17.8037L241.971 17.8033L241.913 17.612ZM239.177 18.728L239.276 18.9017L239.278 18.9005L239.177 18.728ZM237.665 20.132L237.494 20.028L237.491 20.0336L237.665 20.132ZM237.197 22.616H236.997V22.816H237.197V22.616ZM251.417 22.616H251.617V22.416H251.417V22.616ZM251.417 26V26.2H251.617V26H251.417ZM233.581 26V23.156H233.181V26H233.581ZM233.581 23.156C233.581 21.4252 233.878 20.0203 234.458 18.9299L234.104 18.7421C233.484 19.9077 233.181 21.3828 233.181 23.156H233.581ZM234.458 18.9299C235.041 17.8334 235.868 16.947 236.944 16.2692L236.73 15.9308C235.598 16.645 234.721 17.5826 234.104 18.7421L234.458 18.9299ZM236.945 16.2686C238.054 15.5604 239.393 14.9673 240.963 14.4914L240.847 14.1086C239.249 14.5927 237.876 15.1996 236.729 15.9314L236.945 16.2686ZM240.965 14.491L243.161 13.807L243.042 13.425L240.846 14.109L240.965 14.491ZM243.161 13.8066C244.159 13.4904 245.016 13.0993 245.731 12.6313L245.511 12.2967C244.834 12.7407 244.011 13.1176 243.041 13.4254L243.161 13.8066ZM245.728 12.633C246.473 12.1613 247.049 11.5743 247.451 10.8712L247.103 10.6728C246.737 11.3137 246.209 11.8547 245.514 12.295L245.728 12.633ZM247.452 10.8686C247.855 10.1389 248.053 9.30076 248.053 8.36H247.653C247.653 9.24324 247.467 10.0131 247.102 10.6754L247.452 10.8686ZM248.053 8.36V8.216H247.653V8.36H248.053ZM248.053 8.216C248.053 6.74954 247.553 5.58523 246.54 4.74972L246.286 5.05827C247.193 5.80677 247.653 6.85046 247.653 8.216H248.053ZM246.543 4.75161C245.538 3.89807 244.229 3.48 242.633 3.48V3.88C244.157 3.88 245.368 4.27793 246.284 5.05639L246.543 4.75161ZM242.633 3.48C240.988 3.48 239.63 3.92286 238.579 4.82415L238.839 5.12785C239.804 4.30114 241.062 3.88 242.633 3.88V3.48ZM238.577 4.82571C237.538 5.73783 237.033 7.07186 237.033 8.792H237.433C237.433 7.15214 237.912 5.94216 238.841 5.12629L238.577 4.82571ZM237.033 8.792V9.368H237.433V8.792H237.033ZM237.233 9.168H233.489V9.568H237.233V9.168ZM233.689 9.368V8.828H233.289V9.368H233.689ZM233.689 8.828C233.689 7.03306 234.079 5.53636 234.846 4.32716L234.508 4.11283C233.692 5.39964 233.289 6.97494 233.289 8.828H233.689ZM234.847 4.32571C235.618 3.0869 236.681 2.1402 238.04 1.48411L237.866 1.12389C236.441 1.8118 235.32 2.80909 234.507 4.11429L234.847 4.32571ZM238.04 1.48411C239.402 0.826672 240.932 0.495998 242.633 0.495998V0.0959988C240.879 0.0959988 239.288 0.437325 237.866 1.12389L238.04 1.48411ZM242.633 0.495998C244.336 0.495998 245.841 0.81513 247.154 1.44815L247.328 1.08784C245.953 0.424867 244.386 0.0959988 242.633 0.0959988V0.495998ZM247.155 1.44875C248.493 2.08223 249.531 2.97065 250.278 4.11336L250.613 3.89464C249.823 2.68535 248.725 1.74977 247.327 1.08725L247.155 1.44875ZM250.279 4.11572C251.046 5.2549 251.433 6.59496 251.433 8.144H251.833C251.833 6.52504 251.428 5.10509 250.611 3.89228L250.279 4.11572ZM251.433 8.144V8.468H251.833V8.144H251.433ZM251.433 8.468C251.433 10.0743 251.114 11.3921 250.49 12.4331L250.833 12.6389C251.504 11.5199 251.833 10.1257 251.833 8.468H251.433ZM250.49 12.4331C249.859 13.4832 248.984 14.3485 247.858 15.0288L248.064 15.3712C249.242 14.6595 250.167 13.7488 250.833 12.6389L250.49 12.4331ZM247.856 15.0298C246.744 15.716 245.451 16.2977 243.976 16.7737L244.098 17.1543C245.599 16.6703 246.922 16.076 248.066 15.3702L247.856 15.0298ZM243.979 16.7727L241.855 17.4207L241.971 17.8033L244.095 17.1553L243.979 16.7727ZM241.856 17.4203C240.719 17.759 239.79 18.1366 239.076 18.5555L239.278 18.9005C239.956 18.5034 240.851 18.137 241.97 17.8037L241.856 17.4203ZM239.078 18.5544C238.382 18.9518 237.851 19.4419 237.494 20.028L237.836 20.236C238.151 19.7181 238.628 19.2722 239.276 18.9016L239.078 18.5544ZM237.491 20.0336C237.157 20.6246 236.997 21.3695 236.997 22.256H237.397C237.397 21.4145 237.549 20.7434 237.839 20.2304L237.491 20.0336ZM236.997 22.256V22.616H237.397V22.256H236.997ZM237.197 22.816H251.417V22.416H237.197V22.816ZM251.217 22.616V26H251.617V22.616H251.217ZM251.417 25.8H233.381V26.2H251.417V25.8ZM256.697 24.02L256.557 24.1634L256.559 24.1653L256.697 24.02ZM256.697 2.852L256.557 2.70862L256.556 2.70959L256.697 2.852ZM270.737 2.852L270.596 2.99441L270.597 2.99537L270.737 2.852ZM270.737 24.02L270.875 24.1644L270.875 24.1644L270.737 24.02ZM268.145 21.428L268.297 21.5576L268.298 21.556L268.145 21.428ZM268.037 5.372L267.889 5.50701L267.891 5.50858L268.037 5.372ZM259.397 5.408L259.546 5.54127L259.547 5.5397L259.397 5.408ZM259.325 21.464L259.172 21.5937L259.175 21.5971L259.325 21.464ZM263.717 26.304C260.828 26.304 258.541 25.4883 256.834 23.8747L256.559 24.1653C258.356 25.8637 260.749 26.704 263.717 26.704V26.304ZM256.836 23.8766C255.16 22.2471 254.305 19.7877 254.305 16.46H253.905C253.905 19.8523 254.777 22.4329 256.557 24.1634L256.836 23.8766ZM254.305 16.46V10.34H253.905V16.46H254.305ZM254.305 10.34C254.305 7.08597 255.159 4.64901 256.837 2.99441L256.556 2.70959C254.778 4.46298 253.905 7.01802 253.905 10.34H254.305ZM256.836 2.99537C258.544 1.33469 260.83 0.495998 263.717 0.495998V0.0959988C260.748 0.0959988 258.354 0.961308 256.557 2.70863L256.836 2.99537ZM263.717 0.495998C266.628 0.495998 268.913 1.33501 270.596 2.99441L270.877 2.70959C269.104 0.960986 266.709 0.0959988 263.717 0.0959988V0.495998ZM270.597 2.99537C272.299 4.65011 273.165 7.08672 273.165 10.34H273.565C273.565 7.01728 272.679 4.46189 270.876 2.70863L270.597 2.99537ZM273.165 10.34V16.46H273.565V10.34H273.165ZM273.165 16.46C273.165 19.787 272.298 22.246 270.598 23.8756L270.875 24.1644C272.68 22.434 273.565 19.853 273.565 16.46H273.165ZM270.598 23.8756C268.916 25.488 266.63 26.304 263.717 26.304V26.704C266.708 26.704 269.102 25.864 270.875 24.1644L270.598 23.8756ZM263.717 23.32C265.746 23.32 267.287 22.7443 268.297 21.5576L267.992 21.2984C267.082 22.3677 265.671 22.92 263.717 22.92V23.32ZM268.298 21.556C269.298 20.3566 269.785 18.6973 269.785 16.604H269.385C269.385 18.6387 268.911 20.1954 267.991 21.3L268.298 21.556ZM269.785 16.604V10.124H269.385V16.604H269.785ZM269.785 10.124C269.785 8.02809 269.26 6.38824 268.183 5.23542L267.891 5.50858C268.877 6.56376 269.385 8.09191 269.385 10.124H269.785ZM268.184 5.237C267.107 4.05907 265.608 3.48 263.717 3.48V3.88C265.521 3.88 266.903 4.42893 267.889 5.507L268.184 5.237ZM263.717 3.48C261.801 3.48 260.3 4.07138 259.246 5.2763L259.547 5.5397C260.509 4.44062 261.888 3.88 263.717 3.88V3.48ZM259.248 5.27473C258.197 6.45014 257.685 8.07545 257.685 10.124H258.085C258.085 8.14054 258.58 6.62186 259.546 5.54127L259.248 5.27473ZM257.685 10.124V16.604H258.085V10.124H257.685ZM257.685 16.604C257.685 18.7436 258.171 20.4167 259.172 21.5936L259.477 21.3344C258.559 20.2553 258.085 18.6884 258.085 16.604H257.685ZM259.175 21.5971C260.208 22.756 261.735 23.32 263.717 23.32V22.92C261.811 22.92 260.409 22.38 259.474 21.3309L259.175 21.5971ZM276.012 26H275.812V26.2H276.012V26ZM276.912 18.836L276.735 18.7421L276.912 18.836ZM279.468 16.1L279.574 16.2692L279.575 16.2686L279.468 16.1ZM283.536 14.3L283.594 14.4914L283.595 14.491L283.536 14.3ZM285.732 13.616L285.791 13.807L285.792 13.8066L285.732 13.616ZM288.252 12.464L288.145 12.295L288.142 12.2967L288.252 12.464ZM289.908 10.772L290.081 10.8712L290.083 10.8686L289.908 10.772ZM289.044 4.904L288.914 5.0564L288.917 5.05827L289.044 4.904ZM281.34 4.976L281.21 4.82414L281.208 4.82571L281.34 4.976ZM279.864 9.368V9.568H280.064V9.368H279.864ZM276.12 9.368H275.92V9.568H276.12V9.368ZM277.308 4.22L277.477 4.32717L277.478 4.32571L277.308 4.22ZM280.584 1.304L280.671 1.48411L280.584 1.304ZM289.872 1.268L289.785 1.44816L289.786 1.44875L289.872 1.268ZM293.076 4.004L292.908 4.11337L292.91 4.11572L293.076 4.004ZM293.292 12.536L293.12 12.4331L293.292 12.536ZM290.592 15.2L290.488 15.0288L290.487 15.0298L290.592 15.2ZM286.668 16.964L286.726 17.1553L286.729 17.1543L286.668 16.964ZM284.544 17.612L284.601 17.8037L284.602 17.8033L284.544 17.612ZM281.808 18.728L281.907 18.9017L281.909 18.9005L281.808 18.728ZM280.296 20.132L280.125 20.028L280.122 20.0336L280.296 20.132ZM279.828 22.616H279.628V22.816H279.828V22.616ZM294.048 22.616H294.248V22.416H294.048V22.616ZM294.048 26V26.2H294.248V26H294.048ZM276.212 26V23.156H275.812V26H276.212ZM276.212 23.156C276.212 21.4252 276.508 20.0203 277.088 18.9299L276.735 18.7421C276.115 19.9077 275.812 21.3828 275.812 23.156H276.212ZM277.088 18.9299C277.672 17.8334 278.499 16.947 279.574 16.2692L279.361 15.9308C278.228 16.645 277.352 17.5826 276.735 18.7421L277.088 18.9299ZM279.575 16.2686C280.685 15.5604 282.023 14.9673 283.594 14.4914L283.478 14.1086C281.88 14.5927 280.507 15.1996 279.36 15.9314L279.575 16.2686ZM283.595 14.491L285.791 13.807L285.672 13.425L283.476 14.109L283.595 14.491ZM285.792 13.8066C286.79 13.4904 287.647 13.0993 288.361 12.6313L288.142 12.2967C287.465 12.7407 286.642 13.1176 285.671 13.4254L285.792 13.8066ZM288.359 12.633C289.104 12.1613 289.68 11.5743 290.081 10.8712L289.734 10.6728C289.368 11.3137 288.84 11.8547 288.145 12.295L288.359 12.633ZM290.083 10.8686C290.486 10.1389 290.684 9.30076 290.684 8.36H290.284C290.284 9.24324 290.098 10.0131 289.733 10.6754L290.083 10.8686ZM290.684 8.36V8.216H290.284V8.36H290.684ZM290.684 8.216C290.684 6.74954 290.184 5.58523 289.171 4.74972L288.917 5.05827C289.824 5.80677 290.284 6.85046 290.284 8.216H290.684ZM289.173 4.75161C288.169 3.89807 286.86 3.48 285.264 3.48V3.88C286.788 3.88 287.998 4.27793 288.914 5.05639L289.173 4.75161ZM285.264 3.48C283.619 3.48 282.261 3.92286 281.21 4.82415L281.47 5.12785C282.434 4.30114 283.693 3.88 285.264 3.88V3.48ZM281.208 4.82571C280.169 5.73783 279.664 7.07186 279.664 8.792H280.064C280.064 7.15214 280.543 5.94216 281.472 5.12629L281.208 4.82571ZM279.664 8.792V9.368H280.064V8.792H279.664ZM279.864 9.168H276.12V9.568H279.864V9.168ZM276.32 9.368V8.828H275.92V9.368H276.32ZM276.32 8.828C276.32 7.03306 276.709 5.53636 277.477 4.32716L277.139 4.11283C276.322 5.39964 275.92 6.97494 275.92 8.828H276.32ZM277.478 4.32571C278.249 3.0869 279.312 2.1402 280.671 1.48411L280.497 1.12389C279.072 1.8118 277.951 2.80909 277.138 4.11429L277.478 4.32571ZM280.671 1.48411C282.033 0.826672 283.562 0.495998 285.264 0.495998V0.0959988C283.509 0.0959988 281.919 0.437325 280.497 1.12389L280.671 1.48411ZM285.264 0.495998C286.966 0.495998 288.472 0.81513 289.785 1.44815L289.959 1.08784C288.584 0.424867 287.017 0.0959988 285.264 0.0959988V0.495998ZM289.786 1.44875C291.124 2.08223 292.162 2.97065 292.908 4.11336L293.243 3.89464C292.454 2.68535 291.356 1.74977 289.957 1.08725L289.786 1.44875ZM292.91 4.11572C293.677 5.2549 294.064 6.59496 294.064 8.144H294.464C294.464 6.52504 294.059 5.10509 293.242 3.89228L292.91 4.11572ZM294.064 8.144V8.468H294.464V8.144H294.064ZM294.064 8.468C294.064 10.0743 293.745 11.3921 293.12 12.4331L293.463 12.6389C294.135 11.5199 294.464 10.1257 294.464 8.468H294.064ZM293.12 12.4331C292.49 13.4832 291.614 14.3485 290.488 15.0288L290.695 15.3712C291.873 14.6595 292.797 13.7488 293.463 12.6389L293.12 12.4331ZM290.487 15.0298C289.375 15.716 288.082 16.2977 286.606 16.7737L286.729 17.1543C288.23 16.6703 289.553 16.076 290.697 15.3702L290.487 15.0298ZM286.609 16.7727L284.485 17.4207L284.602 17.8033L286.726 17.1553L286.609 16.7727ZM284.487 17.4203C283.35 17.759 282.421 18.1366 281.707 18.5555L281.909 18.9005C282.586 18.5034 283.482 18.137 284.601 17.8037L284.487 17.4203ZM281.709 18.5544C281.013 18.9518 280.482 19.4419 280.125 20.028L280.467 20.236C280.782 19.7181 281.259 19.2722 281.907 18.9016L281.709 18.5544ZM280.122 20.0336C279.788 20.6246 279.628 21.3695 279.628 22.256H280.028C280.028 21.4145 280.18 20.7434 280.47 20.2304L280.122 20.0336ZM279.628 22.256V22.616H280.028V22.256H279.628ZM279.828 22.816H294.048V22.416H279.828V22.816ZM293.848 22.616V26H294.248V22.616H293.848ZM294.048 25.8H276.012V26.2H294.048V25.8ZM307.735 26H307.535V26.2H307.735V26ZM307.735 20.852H307.935V20.652H307.735V20.852ZM294.991 20.852H294.791V21.052H294.991V20.852ZM294.991 16.46L294.821 16.3551L294.791 16.4033V16.46H294.991ZM304.639 0.799998V0.599998H304.527L304.469 0.695091L304.639 0.799998ZM311.515 0.799998H311.715V0.599998H311.515V0.799998ZM311.515 17.504H311.315V17.704H311.515V17.504ZM315.763 17.504H315.963V17.304H315.763V17.504ZM315.763 20.852V21.052H315.963V20.852H315.763ZM311.515 20.852V20.652H311.315V20.852H311.515ZM311.515 26V26.2H311.715V26H311.515ZM298.663 17.504H298.463V17.704H298.663V17.504ZM307.735 17.504V17.704H307.935V17.504H307.735ZM307.735 3.176H307.935V2.976H307.735V3.176ZM307.159 3.176V2.976H307.047L306.988 3.07128L307.159 3.176ZM298.663 17L298.492 16.8953L298.463 16.9435V17H298.663ZM307.935 26V20.852H307.535V26H307.935ZM307.735 20.652H294.991V21.052H307.735V20.652ZM295.191 20.852V16.46H294.791V20.852H295.191ZM295.161 16.5649L304.809 0.904905L304.469 0.695091L294.821 16.3551L295.161 16.5649ZM304.639 0.999998H311.515V0.599998H304.639V0.999998ZM311.315 0.799998V17.504H311.715V0.799998H311.315ZM311.515 17.704H315.763V17.304H311.515V17.704ZM315.563 17.504V20.852H315.963V17.504H315.563ZM315.763 20.652H311.515V21.052H315.763V20.652ZM311.315 20.852V26H311.715V20.852H311.315ZM311.515 25.8H307.735V26.2H311.515V25.8ZM298.663 17.704H307.735V17.304H298.663V17.704ZM307.935 17.504V3.176H307.535V17.504H307.935ZM307.735 2.976H307.159V3.376H307.735V2.976ZM306.988 3.07128L298.492 16.8953L298.833 17.1047L307.329 3.28072L306.988 3.07128ZM298.463 17V17.504H298.863V17H298.463Z" fill="url(#paint1_linear_62_2351)" fill-opacity="0.5" mask="url(#path-1-outside-1_62_2351)"/>
<defs>
<linearGradient id="paint0_linear_62_2351" x1="157.87" y1="-9" x2="158.506" y2="34.9557" gradientUnits="userSpaceOnUse">
<stop stop-color="white" stop-opacity="0.26"/>
<stop offset="0.83" stop-color="white" stop-opacity="0"/>
</linearGradient>
<linearGradient id="paint1_linear_62_2351" x1="158" y1="37" x2="158" y2="-9" gradientUnits="userSpaceOnUse">
<stop stop-color="white" stop-opacity="0.25"/>
<stop offset="1" stop-color="white" stop-opacity="0.4"/>
</linearGradient>
</defs>
</svg>
